<?xml version="1.0" encoding="utf-8"?>
<!-- Generator: Adobe Illustrator 23.1.1, SVG Export Plug-In . SVG Version: 6.00 Build 0)  -->
<svg version="1.1" id="Layer_1" xmlns="http://www.w3.org/2000/svg" xmlns:xlink="http://www.w3.org/1999/xlink" x="0px" y="0px"
	 viewBox="0 0 100 100" style="enable-background:new 0 0 100 100;" xml:space="preserve">
<style type="text/css">
	.st0{fill:#333333;}
	.st1{fill:none;}
</style>
<g>
	<path class="st0" d="M77.7,70.6l0-26.9l0.6,0.4c4.3,2.7,8.4-4,4.1-6.6L52.1,18.6c-1.1-0.7-2.4-0.7-3.5,0L18.4,37.4
		c-4.2,2.6-0.2,9.3,4.1,6.6l0.5-0.3l0,17.6c-4.9,0.6-8.7,4.7-8.7,9.7v9.9c0,0.6,0.5,1.1,1.1,1.1h4.4c1.3,0,1.4-2.1,0-2.1h-3.4V71
		c0-4.2,3.5-7.7,7.8-7.7S32,66.8,32,71c-0.1,0.7,0.2,1.6,1.1,1.6c4.1,0,7.5,3.2,7.7,7.2H26.2c-1.3,0-1.4,2.1,0,2.1h59.2
		c0.9,0,1.2-1,1.1-1.7C86.4,75.2,82.6,71.1,77.7,70.6L77.7,70.6z M34.1,70.6c-0.2-4.9-4.1-8.9-8.9-9.3l0-18.8
		c4.3-2.6,21-13.1,25.3-15.7c0.9,0.5,9.7,6,9.9,6.1c1.5,0.9,2.5-1,1.4-1.6L51,24.6c-0.3-0.2-0.8-0.2-1.1,0L21.4,42.2
		c-2,1.2-3.9-1.8-1.9-3.1l30.3-18.8c0.4-0.2,0.9-0.2,1.2,0l30.3,18.8c2,1.2,0.1,4.3-1.9,3.1l-12.9-8c-1.1-0.7-2.3,1.1-1.1,1.8
		l10.2,6.4l0.1,28.3c-4.7,0.5-8.5,4.4-8.7,9.3h-24C42.7,75,38.9,71.1,34.1,70.6L34.1,70.6z M69.1,79.8c0.2-4,3.6-7.2,7.6-7.2h0
		c4.1,0,7.4,3.2,7.6,7.2H69.1z"/>
	<path class="st0" d="M61.9,68.3c3.1-3.1,4.8-7.2,4.8-11.5s-1.7-8.4-4.8-11.5c-2.9-2.9-7.4,1.6-4.5,4.5c1.9,1.9,2.9,4.4,2.9,7
		c0,2.7-1,5.2-2.9,7c-1.9,1.9-4.4,2.9-7,2.9c-2.7,0-5.2-1-7-2.9c-1.9-1.9-2.9-4.4-2.9-7c0-2.7,1-5.2,2.9-7c2.9-2.9-1.6-7.4-4.5-4.5
		c-3.1,3.1-4.8,7.2-4.8,11.5s1.7,8.4,4.8,11.5c3.1,3.1,7.2,4.8,11.5,4.8S58.9,71.4,61.9,68.3L61.9,68.3z M36.2,56.8
		c0-3.8,1.5-7.3,4.2-10c1-1,2.5,0.5,1.5,1.5c-2.3,2.3-3.5,5.3-3.5,8.5c0,3.2,1.3,6.3,3.5,8.5c2.3,2.3,5.3,3.5,8.5,3.5
		s6.3-1.3,8.5-3.5c2.3-2.3,3.5-5.3,3.5-8.5c0-3.2-1.3-6.3-3.5-8.5c-1-1,0.5-2.5,1.5-1.5c2.7,2.7,4.2,6.2,4.2,10
		c0,3.8-1.5,7.3-4.2,10c-2.7,2.7-6.2,4.2-10,4.2s-7.3-1.5-10-4.2C37.7,64.2,36.2,60.6,36.2,56.8L36.2,56.8z"/>
	<path class="st0" d="M50.4,54.1c1.7,0,3.2-1.4,3.2-3.2V40.6c0-1.7-1.4-3.2-3.2-3.2s-3.2,1.4-3.2,3.2V51
		C47.2,52.7,48.7,54.1,50.4,54.1z M49.4,40.6c0-0.6,0.5-1.1,1.1-1.1c0.6,0,1.1,0.5,1.1,1.1V51c0,0.6-0.5,1.1-1.1,1.1
		c-0.6,0-1.1-0.5-1.1-1.1V40.6z"/>
</g>
<polyline class="st1" points="227.4,1304 1667.4,1304 1667.4,-1859 227.4,-1859 "/>
</svg>
