<?xml version="1.0" encoding="utf-8"?>
<!-- Generator: Adobe Illustrator 23.1.1, SVG Export Plug-In . SVG Version: 6.00 Build 0)  -->
<svg version="1.1" id="Layer_1" xmlns="http://www.w3.org/2000/svg" xmlns:xlink="http://www.w3.org/1999/xlink" x="0px" y="0px"
	 viewBox="0 0 100 100" style="enable-background:new 0 0 100 100;" xml:space="preserve">
<style type="text/css">
	.st0{fill:none;}
	.st1{fill:#333333;}
</style>
<polyline class="st0" points="227.4,1304 1667.4,1304 1667.4,-1859 227.4,-1859 "/>
<g>
	<path class="st1" d="M59.6,40.6c-0.5,0-1,0.4-1,1c0,0.6,0.4,1,1,1c0.5,0,1-0.4,1-1C60.6,41,60.2,40.6,59.6,40.6z"/>
	<circle class="st1" cx="41.6" cy="59.7" r="1"/>
	<path class="st1" d="M66.1,43c-0.9,0-1.7-0.1-2.5-0.4c-0.4-0.1-0.8,0-1,0.2c-5,5-15.7,15.8-19.7,19.7c-0.3,0.3-0.4,0.7-0.2,1
		c0.8,2.5,0.4,5.1-1.1,7.2c-1.5,2.1-3.9,3.3-6.5,3.3c-0.3,0-0.6,0-0.9,0l3.2-3.1c0.2-0.2,0.3-0.4,0.3-0.7v-2.8
		c0-0.3-0.1-0.5-0.3-0.7l-2.8-2.9c-0.2-0.2-0.4-0.3-0.7-0.3H31c-0.3,0-0.5,0.1-0.7,0.3L27.2,67c0-0.3,0-0.6,0-0.9
		c0-2.6,1.2-5,3.3-6.5c2.1-1.5,4.7-1.9,7.2-1.1c0.4,0.1,0.8,0,1-0.2c0.1-0.1,19.7-19.7,19.7-19.7c0.3-0.3,0.4-0.7,0.2-1
		c-0.8-2.5-0.4-5.1,1.1-7.2c1.5-2.1,3.9-3.3,6.5-3.3c0.3,0,0.6,0,0.9,0l-3.1,3.1c-0.2,0.2-0.3,0.4-0.3,0.7v2.8
		c0,0.3,0.1,0.5,0.3,0.7l2.7,2.9c0.2,0.2,0.4,0.3,0.7,0.3h2.8c0.3,0,0.5-0.1,0.7-0.3l3.1-3.2c0,0.3,0,0.6,0,0.9
		C74.1,39.5,70.5,43,66.1,43z M57.7,53.3l-4.4,4.4L52,56.3l4.3-4.3L57.7,53.3z M59.2,54.7l13.7,12.6c1.5,1.6,1.5,4.1,0,5.6
		c-1.5,1.6-4.1,1.6-5.6,0L54.6,59.2L59.2,54.7z M33.9,35.3c-0.2-0.2-0.4-0.3-0.7-0.3l-2.2,0l-3.5-5.9l1.7-1.7l5.9,3.5v2.3
		c0,0.3,0.1,0.5,0.3,0.7l12.5,12.5l-1.4,1.4L33.9,35.3z M74.8,31.2c-0.3-0.1-0.7,0-0.9,0.3l-4.1,4.2h-2l-2.2-2.3v-2l4.1-4.1
		c0.2-0.2,0.3-0.6,0.3-0.9c-0.1-0.3-0.3-0.6-0.6-0.7c-1-0.3-2.1-0.5-3.2-0.5c-3.2,0-6.2,1.5-8.1,4.2c-1.8,2.5-2.3,5.5-1.5,8.4
		L49.2,45L37,32.7v-2.4c0-0.3-0.2-0.7-0.5-0.9l-7-4.2c-0.4-0.2-0.9-0.2-1.2,0.1l-2.8,2.8c-0.3,0.3-0.4,0.8-0.1,1.2l4.2,7
		c0.2,0.3,0.5,0.5,0.9,0.5l2.4,0L45,49.2l-7.3,7.3c-2.9-0.8-5.9-0.2-8.4,1.5c-2.6,1.9-4.1,4.8-4.1,8.1c0,1.1,0.2,2.2,0.5,3.2
		c0.1,0.3,0.4,0.6,0.7,0.7c0.3,0.1,0.7,0,0.9-0.3l4.1-4.2h2l2.3,2.3v2l-4.2,4.1c-0.2,0.2-0.3,0.6-0.3,0.9c0.1,0.3,0.3,0.6,0.7,0.7
		c1,0.3,2.1,0.5,3.2,0.5c3.2,0,6.2-1.5,8.1-4.1c1.8-2.5,2.3-5.5,1.5-8.4l5.9-5.9l1.3,1.5l-0.6,0.6c-0.4,0.4-0.4,1,0,1.4
		c0.4,0.4,1,0.4,1.4,0l0.6-0.6l12.6,13.7c0,0,0,0,0,0c2.3,2.3,6.1,2.3,8.4,0c2.3-2.3,2.3-6.1,0-8.5c0,0,0,0,0,0L60.6,53.3l0.6-0.6
		c0.4-0.4,0.4-1,0-1.4c-0.4-0.4-1-0.4-1.4,0l-0.6,0.6l-1.5-1.3l5.9-5.9c0.8,0.2,1.7,0.3,2.6,0.3c5.5,0,9.9-4.5,9.9-10
		c0-1.1-0.2-2.2-0.5-3.2C75.4,31.6,75.1,31.3,74.8,31.2z"/>
	<path class="st1" d="M56.1,43.7L43.7,56.1c-0.4,0.4-0.4,1,0,1.4c0.4,0.4,1,0.4,1.4,0l12.4-12.5c0.4-0.4,0.4-1,0-1.4
		C57.1,43.3,56.5,43.3,56.1,43.7z"/>
	<path class="st1" d="M68.7,70.1c0.4,0.4,1,0.4,1.4,0c0.4-0.4,0.4-1,0-1.4l-9-8.9c-0.4-0.4-1-0.4-1.4,0c-0.4,0.4-0.4,1,0,1.4
		L68.7,70.1z"/>
</g>
</svg>
