<?xml version="1.0" encoding="utf-8"?>
<!-- Generator: Adobe Illustrator 23.1.1, SVG Export Plug-In . SVG Version: 6.00 Build 0)  -->
<svg version="1.1" id="Layer_1" xmlns="http://www.w3.org/2000/svg" xmlns:xlink="http://www.w3.org/1999/xlink" x="0px" y="0px"
	 viewBox="0 0 100 100" style="enable-background:new 0 0 100 100;" xml:space="preserve">
<style type="text/css">
	.st0{fill:none;}
	.st1{fill:#333333;}
</style>
<polyline class="st0" points="227.4,1304 1667.4,1304 1667.4,-1859 227.4,-1859 "/>
<g>
	<path class="st1" d="M79.5,68.6L51,82.5v-34l6.8-3.3c0.5-0.2,0.7-0.8,0.5-1.3c-0.2-0.5-0.8-0.7-1.3-0.5L50,46.8l-2.7-1.3
		c-0.5-0.2-1.1,0-1.3,0.5c-0.2,0.5,0,1.1,0.5,1.3l2.6,1.3v34L20.5,68.6v-34l21.7,10.6c0.1,0.1,0.3,0.1,0.4,0.1
		c0.4,0,0.7-0.2,0.9-0.6c0.2-0.5,0-1.1-0.5-1.3L21.8,33l9.8-4.8l29.6,14.4c0,0,0,0,0,0v12c0,0.3,0.2,0.7,0.5,0.8
		c0.2,0.1,0.3,0.2,0.5,0.2c0.1,0,0.3,0,0.4-0.1l7.4-3.6c0.3-0.2,0.6-0.5,0.6-0.9V39l9.1-4.4V68.6z M68.5,40v10.4L63.1,53V42.6
		L68.5,40z M39.6,24.3l28.2,13.8L62,40.9L33.8,27.1L39.6,24.3z M50,19.2L78.2,33l-8.2,4c-0.1,0-0.1-0.1-0.2-0.1L41.8,23.2L50,19.2z
		 M80.9,32.1L50.4,17.2c-0.3-0.1-0.6-0.1-0.9,0L19.1,32.1c-0.3,0.2-0.6,0.5-0.6,0.9v36.2c0,0.4,0.2,0.7,0.6,0.9L49.6,85
		c0.1,0.1,0.3,0.1,0.4,0.1s0.3,0,0.4-0.1l30.5-14.9c0.3-0.2,0.6-0.5,0.6-0.9V33C81.5,32.6,81.3,32.3,80.9,32.1z"/>
	<path class="st1" d="M28.6,64.7l-4.5-2.2c-0.5-0.2-1.1,0-1.3,0.5c-0.2,0.5,0,1.1,0.5,1.3l4.5,2.2c0.1,0.1,0.3,0.1,0.4,0.1
		c0.4,0,0.7-0.2,0.9-0.6C29.3,65.5,29.1,64.9,28.6,64.7z"/>
	<path class="st1" d="M32.7,62l-8.6-4.2c-0.5-0.2-1.1,0-1.3,0.5c-0.2,0.5,0,1.1,0.5,1.3l8.6,4.2c0.1,0.1,0.3,0.1,0.4,0.1
		c0.4,0,0.7-0.2,0.9-0.6C33.4,62.8,33.2,62.2,32.7,62z"/>
</g>
</svg>
