<?xml version="1.0" encoding="utf-8"?>
<!-- Generator: Adobe Illustrator 23.1.1, SVG Export Plug-In . SVG Version: 6.00 Build 0)  -->
<svg version="1.1" id="Layer_1" xmlns="http://www.w3.org/2000/svg" xmlns:xlink="http://www.w3.org/1999/xlink" x="0px" y="0px"
	 viewBox="0 0 100 100" style="enable-background:new 0 0 100 100;" xml:space="preserve">
<style type="text/css">
	.st0{fill:#333333;}
	.st1{fill:none;}
</style>
<g>
	<path class="st0" d="M62.5,40.4l-1.3-1.8c-0.3-0.5-1-0.6-1.5-0.2c-0.5,0.4-0.6,1-0.2,1.5l1.3,1.8c0.2,0.3,0.5,0.4,0.9,0.4
		c0.2,0,0.4-0.1,0.6-0.2C62.7,41.5,62.8,40.9,62.5,40.4z"/>
	<path class="st0" d="M66,40.4l-1.3-1.8c-0.3-0.5-1-0.6-1.5-0.2c-0.5,0.4-0.6,1-0.2,1.5l1.3,1.8c0.2,0.3,0.5,0.4,0.9,0.4
		c0.2,0,0.4-0.1,0.6-0.2C66.3,41.5,66.4,40.9,66,40.4z"/>
	<path class="st0" d="M58.6,40.4l-1.3-1.8c-0.3-0.5-1-0.6-1.5-0.2c-0.5,0.4-0.6,1-0.2,1.5l1.3,1.8c0.2,0.3,0.5,0.4,0.9,0.4
		c0.2,0,0.4-0.1,0.6-0.2C58.9,41.5,59,40.9,58.6,40.4z"/>
	<path class="st0" d="M39.8,38.4c-0.5-0.4-1.1-0.2-1.5,0.2L37,40.4c-0.3,0.5-0.2,1.1,0.2,1.5c0.2,0.1,0.4,0.2,0.6,0.2
		c0.3,0,0.7-0.2,0.9-0.4l1.3-1.8C40.4,39.4,40.3,38.7,39.8,38.4z"/>
	<path class="st0" d="M36.2,38.4c-0.5-0.4-1.1-0.2-1.5,0.2l-1.3,1.8c-0.3,0.5-0.2,1.1,0.2,1.5c0.2,0.1,0.4,0.2,0.6,0.2
		c0.3,0,0.7-0.2,0.9-0.4l1.3-1.8C36.8,39.4,36.7,38.7,36.2,38.4z"/>
	<path class="st0" d="M43.6,38.4c-0.5-0.4-1.1-0.2-1.5,0.2l-1.3,1.8c-0.3,0.5-0.2,1.1,0.2,1.5c0.2,0.1,0.4,0.2,0.6,0.2
		c0.3,0,0.7-0.2,0.9-0.4l1.3-1.8C44.2,39.4,44.1,38.7,43.6,38.4z"/>
	<path class="st0" d="M49.7,60c-0.5,0-0.9-0.4-0.9-0.9c0-0.5,0.4-0.9,0.9-0.9s0.9,0.4,0.9,0.9C50.6,59.6,50.2,60,49.7,60z
		 M49.7,56.1c-1.6,0-3,1.3-3,3c0,1.7,1.3,3,3,3s3-1.3,3-3C52.7,57.5,51.4,56.1,49.7,56.1z"/>
	<path class="st0" d="M76.6,34.3c-0.2,0-0.4-0.2-0.4-0.4c0-0.2,0.2-0.4,0.4-0.4h8c0.2,0,0.4,0.2,0.4,0.4c0,0.2-0.2,0.4-0.4,0.4H76.6
		z M82.5,39.4c0.5,0,1,0.4,1,1V42c0,0.8-0.7,1.5-1.5,1.5H64c-1.4,0-2.7,0.9-3.2,2.2c-0.2,0.5-0.7,0.8-1.2,0.8H39.8
		c-0.5,0-1-0.3-1.2-0.8c-0.5-1.3-1.8-2.2-3.2-2.2h-18c-0.8,0-1.5-0.7-1.5-1.5v-1.6c0-0.5,0.4-1,1-1h7.9c0.1,0,0.2,0,0.3-0.1
		l17.3-5.8c0.5-0.2,1.1-0.3,1.7-0.3h11c0.6,0,1.1,0.1,1.7,0.3l17.3,5.8c0.1,0,0.2,0.1,0.3,0.1L82.5,39.4L82.5,39.4z M55.6,49
		L55.6,49c0,0.5-0.4,1-1,1h-9.8c-0.5,0-1-0.4-1-1v-0.3h11.8V49z M47.5,53.7v-1.6h4.4v1.6H47.5z M54.7,55.8v6.6h-10v-6.6H54.7z
		 M14.8,34.3c-0.2,0-0.4-0.2-0.4-0.4c0-0.2,0.2-0.4,0.4-0.4h8c0.2,0,0.4,0.2,0.4,0.4c0,0.2-0.2,0.4-0.4,0.4H14.8z M84.6,36.5
		c1.4,0,2.6-1.2,2.6-2.6c0-1.4-1.1-2.6-2.6-2.6h-8c-1.4,0-2.6,1.2-2.6,2.6c0,1.4,1.1,2.6,2.6,2.6h2.9v0.7h-4.9l-17.2-5.7
		c-0.8-0.3-1.5-0.4-2.3-0.4h-11c-0.8,0-1.6,0.1-2.3,0.4l-17.2,5.7h-4.9v-0.7h2.9c1.4,0,2.6-1.2,2.6-2.6c0-1.4-1.1-2.6-2.6-2.6h-8
		c-1.4,0-2.6,1.2-2.6,2.6c0,1.4,1.1,2.6,2.6,2.6h2.9v0.7H17c-1.7,0-3.1,1.4-3.1,3.1V42c0,2,1.6,3.7,3.6,3.7h11.1v6.7
		c0,0.6,0.5,1.1,1.1,1.1c0.6,0,1.1-0.5,1.1-1.1v-6.7h1.9l-1.3,21.1H31c-0.2,0-0.3-0.1-0.3-0.3v-8.6c0-0.6-0.5-1.1-1.1-1.1
		s-1.1,0.5-1.1,1.1v8.6c0,1.3,1.1,2.4,2.4,2.4h1.4c0.6,0,1-0.4,1.1-1l1.3-22.3h0.7c0.5,0,1,0.3,1.2,0.8c0.5,1.3,1.8,2.2,3.2,2.2h1.8
		V49c0,1.7,1.4,3.1,3.1,3.1h0.6v1.6h-0.8c-1.1,0-2,0.9-2,2v6.9c0,1.1,0.9,2,2,2h10.3c1.1,0,2-0.9,2-2v-6.9c0-1.1-0.9-2-2-2H54v-1.6
		h0.6c1.7,0,3.1-1.4,3.1-3.1v-0.3h1.8c1.4,0,2.7-0.9,3.2-2.2c0.2-0.5,0.7-0.8,1.2-0.8h0.7L66,67.9c0,0.6,0.5,1,1.1,1h1.4
		c1.3,0,2.4-1.1,2.4-2.4v-8.6c0-0.6-0.5-1.1-1.1-1.1s-1.1,0.5-1.1,1.1v8.6c0,0.2-0.1,0.3-0.3,0.3h-0.4l-1.3-21.1h1.9v6.7
		c0,0.6,0.5,1.1,1.1,1.1s1.1-0.5,1.1-1.1v-6.7h11.1c2,0,3.6-1.6,3.6-3.7v-1.6c0-1.7-1.4-3.1-3.1-3.1h-0.8v-0.7H84.6z"/>
</g>
<polyline class="st1" points="227.4,1304 1667.4,1304 1667.4,-1859 227.4,-1859 "/>
</svg>
