<?xml version="1.0" encoding="utf-8"?>
<!-- Generator: Adobe Illustrator 23.1.1, SVG Export Plug-In . SVG Version: 6.00 Build 0)  -->
<svg version="1.1" id="Layer_1" xmlns="http://www.w3.org/2000/svg" xmlns:xlink="http://www.w3.org/1999/xlink" x="0px" y="0px"
	 viewBox="0 0 100 100" style="enable-background:new 0 0 100 100;" xml:space="preserve">
<style type="text/css">
	.st0{fill:none;}
	.st1{fill:#333333;}
</style>
<polyline class="st0" points="227.4,1304 1667.4,1304 1667.4,-1859 227.4,-1859 "/>
<g>
	<path class="st1" d="M64.3,70.2l6.2-6.2v6.2H64.3z M71.6,61.3c-0.3-0.1-0.7-0.1-0.9,0.2l-9,9c-0.2,0.2-0.3,0.6-0.2,0.9
		c0.1,0.3,0.4,0.5,0.8,0.5h9c0.5,0,0.8-0.4,0.8-0.8v-9C72.1,61.7,71.9,61.4,71.6,61.3z"/>
	<path class="st1" d="M46.4,50.8l-2.4,0.8l-1.6-1.6l0.8-2.4L46.4,50.8z M76.4,58.1h-1.5c-0.5,0-0.8,0.4-0.8,0.8
		c0,0.5,0.4,0.8,0.8,0.8h1.5v2.5h-1.5c-0.5,0-0.8,0.4-0.8,0.8c0,0.5,0.4,0.8,0.8,0.8h1.5v2.5h-1.5c-0.5,0-0.8,0.4-0.8,0.8
		c0,0.5,0.4,0.8,0.8,0.8h1.5v2.5h-1.5c-0.5,0-0.8,0.4-0.8,0.8c0,0.5,0.4,0.8,0.8,0.8h1.5V76H51.2l8.3-8.3c0.3-0.3,0.3-0.8,0-1.2
		c0,0-0.1-0.1-0.1-0.1c-0.3-0.2-0.8-0.2-1,0.1L55,69.9H28.3c-2.5,0-4.5-1.9-4.6-4.4c0-0.2,0-0.3,0-0.5c0,0,0,0,0,0
		c0-0.1,0-0.1,0-0.2c0,0,0,0,0,0c0-0.1,0-0.1,0-0.2c0,0,0,0,0-0.1c0-0.1,0-0.1,0-0.2c0,0,0-0.1,0-0.1c0,0,0-0.1,0-0.1
		c0,0,0-0.1,0-0.1c0,0,0-0.1,0-0.1c0-0.1,0-0.1,0.1-0.2c0,0,0,0,0,0c0-0.1,0.1-0.1,0.1-0.2c0,0,0,0,0,0c0.6-1.3,1.9-2.3,3.4-2.6
		c0,0,0,0,0,0c0.1,0,0.1,0,0.2,0c0,0,0,0,0,0c0.1,0,0.1,0,0.2,0c0,0,0,0,0.1,0c0.1,0,0.1,0,0.2,0c0,0,0,0,0.1,0c0.1,0,0.2,0,0.2,0
		c0.5,0,0.8-0.4,0.8-0.8v-6c0-0.5-0.4-0.8-0.8-0.8s-0.8,0.4-0.8,0.8v5.2C26.3,59.4,25,60,24,61c-0.1,0.1-0.2,0.2-0.3,0.3V30.7
		c0-2.4,1.7-4.4,4-4.8V34v16.7v0c0,0.5,0.4,0.8,0.8,0.8c0.5,0,0.8-0.4,0.8-0.8v0V34.8h23.9l-4.5,4.5c-0.3,0.3-0.3,0.8,0,1.2
		c0.3,0.3,0.8,0.3,1.2,0l5.9-5.9c0,0,0,0,0,0l5.4-5.4l3.8,3.8l-0.4,0.4c0,0,0,0,0,0L47.9,50l-3.8-3.8l3.3-3.3c0.3-0.3,0.3-0.8,0-1.2
		c-0.3-0.3-0.8-0.3-1.2,0l-3.8,3.8c0,0,0,0-0.1,0.1c0,0,0,0,0,0c0,0,0,0,0,0c0,0,0,0,0,0c0,0,0,0,0,0c0,0,0,0,0,0c0,0,0,0,0,0
		c0,0,0,0,0,0l-1.6,4.5l-1.1,3.1c0,0,0,0.1,0,0.1h-2.7c-0.5,0-0.8,0.4-0.8,0.8c0,0.5,0.4,0.8,0.8,0.8h22.8c0.5,0,0.8-0.4,0.8-0.8
		c0-0.5-0.4-0.8-0.8-0.8H43.2l5-1.8c0,0,0,0,0,0c0,0,0,0,0.1,0c0,0,0,0,0,0c0,0,0,0,0.1,0c0,0,0,0,0,0c0,0,0,0,0.1,0c0,0,0,0,0,0
		c0,0,0,0,0.1-0.1l16.9-16.9h7.1v17.6L60.8,64.2c-0.3,0.3-0.3,0.8,0,1.2c0,0,0,0,0.1,0.1c0.2,0.1,0.3,0.2,0.5,0.2
		c0.2,0,0.4-0.1,0.5-0.2c0,0,0,0,0.1-0.1c0,0,0,0,0,0l14.5-14.5V58.1z M63.8,26.5l3.8,3.8l-1.5,1.5l-3.8-3.8L63.8,26.5z M66.6,23.8
		c0.3-0.3,0.9-0.3,1.2,0l2.6,2.6c0.3,0.3,0.3,0.9,0,1.2l-1.6,1.6L65,25.4L66.6,23.8z M77.6,48.1c-0.3-0.1-0.7-0.1-0.9,0.2l-2.5,2.5
		V34c0-0.5-0.4-0.8-0.8-0.8h-6.3l2.3-2.3c0,0,0,0,0,0l2.2-2.2c0.5-0.5,0.7-1.1,0.7-1.8c0-0.7-0.3-1.3-0.7-1.8L69,22.6
		c-0.5-0.5-1.1-0.7-1.8-0.7c-0.7,0-1.3,0.3-1.8,0.7l-2.2,2.2l-2.7,2.7l-5.7,5.7H29.3v-8.1c0-0.5-0.4-0.8-0.8-0.8
		c-3.6,0-6.5,2.9-6.5,6.5v34.9c0,0.1,0,0.1,0,0.2c0.1,1.5,0.8,2.9,1.9,4c1.2,1.1,2.7,1.8,4.3,1.8h25.1l-4.7,4.7
		c-0.2,0.2-0.3,0.6-0.2,0.9c0.1,0.3,0.4,0.5,0.8,0.5h28c0.5,0,0.8-0.4,0.8-0.8v-28C78.1,48.5,77.9,48.2,77.6,48.1z"/>
</g>
</svg>
