<?xml version="1.0" encoding="utf-8"?>
<!-- Generator: Adobe Illustrator 23.1.1, SVG Export Plug-In . SVG Version: 6.00 Build 0)  -->
<svg version="1.1" id="Layer_1" xmlns="http://www.w3.org/2000/svg" xmlns:xlink="http://www.w3.org/1999/xlink" x="0px" y="0px"
	 viewBox="0 0 100 100" style="enable-background:new 0 0 100 100;" xml:space="preserve">
<style type="text/css">
	.st0{fill:none;}
	.st1{fill:#333333;}
</style>
<polyline class="st0" points="227.4,1304 1667.4,1304 1667.4,-1859 227.4,-1859 "/>
<path class="st1" d="M68.3,46.8v1.8h-2.9v-1.8H68.3z M56.4,41.8v-2.6l9.2,2.6H56.4z M57.5,61.6l-7.3-5.1l4.9-3.4L57.5,61.6z
	 M61,73.9l-10.4-5.2l7.8-3.9L61,73.9z M62.3,76.3L62.3,76.3L62.3,76.3C62.3,76.3,62.3,76.3,62.3,76.3l1.4,0V78h-30v-1.8h1.4
	c0,0,0,0,0,0c0,0,0,0,0,0h0c0,0,0,0,0,0h7.7c0.5,0,0.8-0.4,0.8-0.8c0-0.5-0.4-0.8-0.8-0.8h-4.3l10.1-5.1l10.1,5.1H46.6
	c-0.5,0-0.8,0.4-0.8,0.8c0,0.5,0.4,0.8,0.8,0.8L62.3,76.3C62.3,76.3,62.3,76.3,62.3,76.3z M39.1,64.7l7.8,3.9l-10.4,5.2L39.1,64.7z
	 M42.4,53l4.9,3.4L40,61.6L42.4,53z M32,41.8l9.2-2.6v2.6H32z M32,28.2l9.2-2.6v2.6H32z M42.8,44.2l10,6.7h-10V44.2z M54.7,43.4v6.7
	l-10-6.7H54.7z M44.6,52.5h8.4l-4.2,2.9L44.6,52.5z M55.5,64.4l-6.7,3.4L42,64.4H55.5z M41.2,62.7l7.6-5.3l7.6,5.3H41.2z M42.8,38.9
	h11.9v2.9H42.8V38.9z M42.8,30.6l10,6.7h-10V30.6z M54.7,29.8v6.7l-10-6.7H54.7z M42.8,25.3h11.9v2.9H42.8V25.3z M32.1,46.8v1.8
	h-2.9v-1.8H32.1z M32.1,33.2V35h-2.9v-1.8H32.1z M56.4,25.6l9.2,2.6h-9.2V25.6z M68.3,33.2V35h-2.9v-1.8H68.3z M71.6,41.8l-15.2-4.4
	v-7.6H66v1.8h-1.4c-0.5,0-0.8,0.4-0.8,0.8v3.4c0,0.5,0.4,0.8,0.8,0.8h4.5c0.5,0,0.8-0.4,0.8-0.8v-3.4c0-0.5-0.4-0.8-0.8-0.8h-1.4
	v-1.8h3.7c0.4,0,0.8-0.3,0.8-0.7c0.1-0.4-0.2-0.8-0.6-0.9l-15.8-4.5c0,0,0,0,0,0l0,0c0,0,0,0,0,0c0,0,0,0-0.1,0c0,0,0,0,0,0
	c0,0,0,0,0,0c0,0,0,0-0.1,0c0,0,0,0,0,0h0c0,0,0,0,0,0H42c0,0,0,0,0,0h0c0,0,0,0,0,0c0,0,0,0-0.1,0c0,0,0,0,0,0c0,0,0,0,0,0
	c0,0,0,0-0.1,0c0,0,0,0,0,0l0,0c0,0,0,0,0,0l-15.8,4.5c-0.4,0.1-0.6,0.5-0.6,0.9c0.1,0.4,0.4,0.7,0.8,0.7h3.7v1.8h-1.4
	c-0.5,0-0.8,0.4-0.8,0.8v3.4c0,0.5,0.4,0.8,0.8,0.8h4.5c0.5,0,0.8-0.4,0.8-0.8v-3.4c0-0.5-0.4-0.8-0.8-0.8h-1.4v-1.8h9.7v7.6
	l-15.2,4.4c-0.4,0.1-0.6,0.5-0.6,0.9s0.4,0.7,0.8,0.7h3.7v1.8h-1.4c-0.5,0-0.8,0.4-0.8,0.8v3.4c0,0.5,0.4,0.8,0.8,0.8h4.5
	c0.5,0,0.8-0.4,0.8-0.8V46c0-0.5-0.4-0.8-0.8-0.8h-1.4v-1.8h9.7v8.1l-3.4,11.8c0,0,0,0,0,0l0,0c0,0,0,0,0,0l0,0c0,0,0,0,0,0
	l-3.2,11.3h-1.6c-0.5,0-0.8,0.4-0.8,0.8V78h-1.7c-0.5,0-0.8,0.4-0.8,0.8s0.4,0.8,0.8,0.8h2.5h31.7h2.5c0.5,0,0.8-0.4,0.8-0.8
	S67.5,78,67.1,78h-1.7v-2.6c0-0.5-0.4-0.8-0.8-0.8H63l-3.2-11.3c0,0,0,0,0,0l0,0c0,0,0,0,0,0l-3.4-11.8v-8.1H66v1.8h-1.4
	c-0.5,0-0.8,0.4-0.8,0.8v3.4c0,0.5,0.4,0.8,0.8,0.8h4.5c0.5,0,0.8-0.4,0.8-0.8V46c0-0.5-0.4-0.8-0.8-0.8h-1.4v-1.8h3.7
	c0.4,0,0.8-0.3,0.8-0.7C72.3,42.3,72,41.9,71.6,41.8z"/>
</svg>
