<svg xmlns="http://www.w3.org/2000/svg" xmlns:xlink="http://www.w3.org/1999/xlink" width="1248.204" height="535.327" viewBox="0 0 1248.204 535.327"><defs><linearGradient id="a" x1="59.42" y1="4.458" x2="59.42" y2="5.446" gradientUnits="objectBoundingBox"><stop offset="0" stop-color="#303030"/><stop offset="0.077" stop-color="#212121"/><stop offset="0.178" stop-color="#161616"/><stop offset="0.287" stop-color="#131313"/></linearGradient><linearGradient id="b" x1="83.39" y1="0.008" x2="83.39" y2="1.075" xlink:href="#a"/></defs><g transform="translate(3.461 -4668.407)"><path d="M439.278,5104.517H416.9V4768.631h12.523Z" fill="none" stroke="#000" stroke-miterlimit="10" stroke-width="1.14"/><path d="M427.391,4780.226H406.4a11.63,11.63,0,0,1-11.6-11.6h0a11.629,11.629,0,0,1,11.6-11.595h20.992a11.629,11.629,0,0,1,11.6,11.595h0A11.63,11.63,0,0,1,427.391,4780.226Z" fill="none" stroke="#000" stroke-miterlimit="10" stroke-width="1.14"/><ellipse cx="11.159" cy="12.439" rx="11.159" ry="12.439" transform="translate(393.074 4756.356)" fill="none" stroke="#000" stroke-miterlimit="10" stroke-width="1.14"/><path d="M404.233,4768.8l-94.29-96.108,55.341,83.749Z" fill="none" stroke="#000" stroke-miterlimit="10" stroke-width="1.14"/><path d="M404.233,4768.8l-36.087,129.711,44.858-89.8Z" fill="none" stroke="#000" stroke-miterlimit="10" stroke-width="1.14"/><path d="M404.233,4768.8l130.377-33.6-100.2,6.053Z" fill="none" stroke="#000" stroke-miterlimit="10" stroke-width="1.14"/><path d="M586.415,5104.517H567.576V4793.536h10.54Z" fill="none" stroke="#000" stroke-miterlimit="10" stroke-width="1.14"/><path d="M576.41,4803.295H558.743a9.788,9.788,0,0,1-9.76-9.759h0a9.788,9.788,0,0,1,9.76-9.759H576.41a9.787,9.787,0,0,1,9.759,9.759h0A9.787,9.787,0,0,1,576.41,4803.295Z" fill="none" stroke="#000" stroke-miterlimit="10" stroke-width="1.14"/><ellipse cx="9.392" cy="10.47" rx="9.392" ry="10.47" transform="translate(547.528 4783.205)" fill="none" stroke="#000" stroke-miterlimit="10" stroke-width="1.14"/><path d="M556.92,4793.675l47.209-103.016-49.2,68.682Z" fill="none" stroke="#000" stroke-miterlimit="10" stroke-width="1.14"/><path d="M556.92,4793.675,444.1,4804.3l84.081,8.269Z" fill="none" stroke="#000" stroke-miterlimit="10" stroke-width="1.14"/><path d="M556.92,4793.675l65.61,92.393-34.88-76.951Z" fill="none" stroke="#000" stroke-miterlimit="10" stroke-width="1.14"/><path d="M340.286,4778.581c-3.786-7.621-11.125-13.047-18.665-13.047a13.679,13.679,0,0,0-11.241,5.613,13.2,13.2,0,0,0-8.241-3.17c-5.143,0-8.924,3.67-9.817,8.849a19.411,19.411,0,0,0-7.577-1.975c-5.132-.234-9.193,1.875-11.284,5.3a6.913,6.913,0,0,0-3.171-.988c-2.957-.133-4.877,2-4.3,4.751.037.174.082.341.127.508h83.269C349.582,4781.725,343.961,4778.717,340.286,4778.581Z" fill="none" stroke="#000" stroke-miterlimit="10" stroke-width="1.14"/><path d="M775.008,4752.917c-3.785-7.621-11.125-13.046-18.664-13.046a13.676,13.676,0,0,0-11.241,5.612,13.2,13.2,0,0,0-8.242-3.17c-5.143,0-8.923,3.67-9.817,8.849a19.42,19.42,0,0,0-7.576-1.976c-5.133-.233-9.194,1.876-11.284,5.306a6.912,6.912,0,0,0-3.172-.988c-2.957-.133-4.877,2-4.3,4.751.038.174.083.341.128.508h83.268C784.3,4756.061,778.684,4753.053,775.008,4752.917Z" fill="none" stroke="#000" stroke-miterlimit="10" stroke-width="1.14"/><path d="M570.638,4859.716a10.888,10.888,0,0,0-1.2-.069c-3.706-4.5-8.338-7.377-12.7-7.377a8.41,8.41,0,0,0-7.293,4.041c-6.753-8.739-15.476-14.419-23.635-14.419-6.581,0-11.584,3.694-14.382,9.72-3.812-3.428-8.089-5.483-12.164-5.483-7.158,0-11.605,6.349-11.684,15.307,0,0,.007.012-.011,0a25.545,25.545,0,0,0-10.979-3.428c-7.18-.4-12.354,3.244-14.5,9.188a9.254,9.254,0,0,0-4.637-1.708c-3.925-.219-6.106,3.059-5.134,7.446H588.553C585.757,4866.285,577.964,4860.467,570.638,4859.716Z" fill="none" stroke="#000" stroke-miterlimit="10" stroke-width="1.14"/><path d="M608.861,4677.889a5.45,5.45,0,0,0-.6-.035c-1.853-2.251-4.169-3.688-6.347-3.688a4.206,4.206,0,0,0-3.647,2.02c-3.376-4.369-7.738-7.209-11.817-7.209a7.728,7.728,0,0,0-7.191,4.86,9.445,9.445,0,0,0-6.082-2.742c-3.579,0-5.8,3.175-5.842,7.654,0,0,0,.006-.006,0a12.759,12.759,0,0,0-5.49-1.714,6.841,6.841,0,0,0-7.248,4.594,4.622,4.622,0,0,0-2.319-.854c-1.962-.11-3.053,1.529-2.567,3.723h68.113A11.807,11.807,0,0,0,608.861,4677.889Z" fill="none" stroke="#000" stroke-miterlimit="10" stroke-width="1.14"/><rect width="64.056" height="270.883" transform="translate(243.088 4833.651)" fill="#ececec"/><rect width="19.469" height="37.518" transform="translate(255.026 4852.639)" fill="#fff"/><path d="M265.31,4890.157c-.144,0-.261-8.4-.261-18.758s.117-18.76.261-18.76.26,8.4.26,18.76S265.453,4890.157,265.31,4890.157Z" fill="none" stroke="#000" stroke-miterlimit="10" stroke-width="1.062"/><path d="M274.5,4865.673a90.993,90.993,0,0,1-9.734.261,91,91,0,0,1-9.736-.261,91.565,91.565,0,0,1,9.736-.26A91.557,91.557,0,0,1,274.5,4865.673Z" fill="none" stroke="#000" stroke-miterlimit="10" stroke-width="1.062"/><path d="M274.6,4879.091a92.65,92.65,0,0,1-9.814.26,92.662,92.662,0,0,1-9.815-.26,92.748,92.748,0,0,1,9.815-.26A92.736,92.736,0,0,1,274.6,4879.091Z" fill="none" stroke="#000" stroke-miterlimit="10" stroke-width="1.062"/><rect width="19.469" height="37.518" transform="translate(255.026 4901.645)" fill="#fff"/><path d="M265.31,4939.163c-.144,0-.261-8.4-.261-18.758s.117-18.76.261-18.76.26,8.4.26,18.76S265.453,4939.163,265.31,4939.163Z" fill="none" stroke="#000" stroke-miterlimit="10" stroke-width="1.062"/><path d="M274.5,4914.679a91.078,91.078,0,0,1-9.734.261,91.085,91.085,0,0,1-9.736-.261,91.48,91.48,0,0,1,9.736-.26A91.472,91.472,0,0,1,274.5,4914.679Z" fill="none" stroke="#000" stroke-miterlimit="10" stroke-width="1.062"/><path d="M274.6,4928.1a92.736,92.736,0,0,1-9.814.26,92.748,92.748,0,0,1-9.815-.26,92.662,92.662,0,0,1,9.815-.26A92.65,92.65,0,0,1,274.6,4928.1Z" fill="none" stroke="#000" stroke-miterlimit="10" stroke-width="1.062"/><rect width="19.469" height="37.518" transform="translate(255.026 4950.651)" fill="#fff"/><path d="M265.31,4988.168c-.144,0-.261-8.4-.261-18.758s.117-18.759.261-18.759.26,8.4.26,18.759S265.453,4988.168,265.31,4988.168Z" fill="none" stroke="#000" stroke-miterlimit="10" stroke-width="1.062"/><path d="M274.5,4963.685a91.247,91.247,0,0,1-9.734.26,91.255,91.255,0,0,1-9.736-.26,91.17,91.17,0,0,1,9.736-.26A91.162,91.162,0,0,1,274.5,4963.685Z" fill="none" stroke="#000" stroke-miterlimit="10" stroke-width="1.062"/><path d="M274.6,4977.1a93.051,93.051,0,0,1-9.814.26,93.064,93.064,0,0,1-9.815-.26,92.49,92.49,0,0,1,9.815-.261A92.478,92.478,0,0,1,274.6,4977.1Z" fill="none" stroke="#000" stroke-miterlimit="10" stroke-width="1.062"/><rect width="19.469" height="37.518" transform="translate(255.026 4999.657)" fill="#fff"/><path d="M265.31,5037.174c-.144,0-.261-8.4-.261-18.758s.117-18.759.261-18.759.26,8.4.26,18.759S265.453,5037.174,265.31,5037.174Z" fill="none" stroke="#000" stroke-miterlimit="10" stroke-width="1.062"/><path d="M274.5,5012.691a91.162,91.162,0,0,1-9.734.26,91.17,91.17,0,0,1-9.736-.26,91.255,91.255,0,0,1,9.736-.26A91.247,91.247,0,0,1,274.5,5012.691Z" fill="none" stroke="#000" stroke-miterlimit="10" stroke-width="1.062"/><path d="M274.6,5026.109a92.965,92.965,0,0,1-9.814.26,92.977,92.977,0,0,1-9.815-.26,92.576,92.576,0,0,1,9.815-.261A92.564,92.564,0,0,1,274.6,5026.109Z" fill="none" stroke="#000" stroke-miterlimit="10" stroke-width="1.062"/><rect width="46.672" height="270.883" transform="translate(287.713 4833.651)" fill="none" stroke="#000" stroke-miterlimit="10" stroke-width="1.062"/><rect width="19.469" height="37.518" transform="translate(302.206 4852.639)" fill="#fff"/><path d="M312.489,4890.157c-.143,0-.26-8.4-.26-18.758s.117-18.76.26-18.76.261,8.4.261,18.76S312.633,4890.157,312.489,4890.157Z" fill="none" stroke="#000" stroke-miterlimit="10" stroke-width="1.062"/><path d="M321.675,4865.673a90.977,90.977,0,0,1-9.734.261,90.989,90.989,0,0,1-9.735-.261,91.554,91.554,0,0,1,9.735-.26A91.541,91.541,0,0,1,321.675,4865.673Z" fill="none" stroke="#000" stroke-miterlimit="10" stroke-width="1.062"/><path d="M321.778,4879.091a92.666,92.666,0,0,1-9.814.26,92.646,92.646,0,0,1-9.815-.26,92.733,92.733,0,0,1,9.815-.26A92.753,92.753,0,0,1,321.778,4879.091Z" fill="none" stroke="#000" stroke-miterlimit="10" stroke-width="1.062"/><rect width="19.469" height="37.518" transform="translate(302.206 4902.047)" fill="#fff"/><path d="M312.489,4939.565c-.143,0-.26-8.4-.26-18.758s.117-18.76.26-18.76.261,8.4.261,18.76S312.633,4939.565,312.489,4939.565Z" fill="none" stroke="#000" stroke-miterlimit="10" stroke-width="1.062"/><path d="M321.675,4915.081a91.062,91.062,0,0,1-9.734.261,91.074,91.074,0,0,1-9.735-.261,91.468,91.468,0,0,1,9.735-.26A91.456,91.456,0,0,1,321.675,4915.081Z" fill="none" stroke="#000" stroke-miterlimit="10" stroke-width="1.062"/><path d="M321.778,4928.5a92.753,92.753,0,0,1-9.814.26,92.733,92.733,0,0,1-9.815-.26,92.646,92.646,0,0,1,9.815-.26A92.666,92.666,0,0,1,321.778,4928.5Z" fill="none" stroke="#000" stroke-miterlimit="10" stroke-width="1.062"/><rect width="19.469" height="37.518" transform="translate(302.206 4951.455)" fill="#fff"/><path d="M312.489,4988.973c-.143,0-.26-8.4-.26-18.758s.117-18.76.26-18.76.261,8.4.261,18.76S312.633,4988.973,312.489,4988.973Z" fill="none" stroke="#000" stroke-miterlimit="10" stroke-width="1.062"/><path d="M321.675,4964.489a90.977,90.977,0,0,1-9.734.261,90.989,90.989,0,0,1-9.735-.261,91.71,91.71,0,0,1,9.735-.26A91.7,91.7,0,0,1,321.675,4964.489Z" fill="none" stroke="#000" stroke-miterlimit="10" stroke-width="1.062"/><path d="M321.778,4977.907a92.91,92.91,0,0,1-9.814.26,92.89,92.89,0,0,1-9.815-.26,92.646,92.646,0,0,1,9.815-.26A92.666,92.666,0,0,1,321.778,4977.907Z" fill="none" stroke="#000" stroke-miterlimit="10" stroke-width="1.062"/><rect width="19.469" height="37.518" transform="translate(302.206 5000.863)" fill="#fff"/><path d="M312.489,5038.381c-.143,0-.26-8.4-.26-18.758s.117-18.76.26-18.76.261,8.4.261,18.76S312.633,5038.381,312.489,5038.381Z" fill="none" stroke="#000" stroke-miterlimit="10" stroke-width="1.062"/><path d="M321.675,5013.9a90.977,90.977,0,0,1-9.734.261,90.989,90.989,0,0,1-9.735-.261,91.554,91.554,0,0,1,9.735-.26A91.541,91.541,0,0,1,321.675,5013.9Z" fill="none" stroke="#000" stroke-miterlimit="10" stroke-width="1.062"/><path d="M321.778,5027.315a92.666,92.666,0,0,1-9.814.26,92.646,92.646,0,0,1-9.815-.26,92.56,92.56,0,0,1,9.815-.261A92.58,92.58,0,0,1,321.778,5027.315Z" fill="none" stroke="#000" stroke-miterlimit="10" stroke-width="1.062"/><rect width="19.469" height="37.518" transform="translate(255.026 5048.663)" fill="#fff"/><path d="M265.31,5086.18c-.144,0-.261-8.4-.261-18.758s.117-18.76.261-18.76.26,8.4.26,18.76S265.453,5086.18,265.31,5086.18Z" fill="none" stroke="#000" stroke-miterlimit="10" stroke-width="1.062"/><path d="M274.5,5061.7a91.162,91.162,0,0,1-9.734.26,91.17,91.17,0,0,1-9.736-.26,91.41,91.41,0,0,1,9.736-.26A91.4,91.4,0,0,1,274.5,5061.7Z" fill="none" stroke="#000" stroke-miterlimit="10" stroke-width="1.062"/><path d="M274.6,5075.114a92.478,92.478,0,0,1-9.814.261,92.49,92.49,0,0,1-9.815-.261,93.222,93.222,0,0,1,9.815-.26A93.21,93.21,0,0,1,274.6,5075.114Z" fill="none" stroke="#000" stroke-miterlimit="10" stroke-width="1.062"/><rect width="19.469" height="37.518" transform="translate(302.206 5050.271)" fill="#fff"/><path d="M312.489,5087.788c-.143,0-.26-8.4-.26-18.758s.117-18.759.26-18.759.261,8.4.261,18.759S312.633,5087.788,312.489,5087.788Z" fill="none" stroke="#000" stroke-miterlimit="10" stroke-width="1.062"/><path d="M321.675,5063.305a91.062,91.062,0,0,1-9.734.261,91.074,91.074,0,0,1-9.735-.261,91.468,91.468,0,0,1,9.735-.26A91.456,91.456,0,0,1,321.675,5063.305Z" fill="none" stroke="#000" stroke-miterlimit="10" stroke-width="1.062"/><path d="M321.778,5076.723a93.068,93.068,0,0,1-9.814.26,93.048,93.048,0,0,1-9.815-.26,92.474,92.474,0,0,1,9.815-.261A92.494,92.494,0,0,1,321.778,5076.723Z" fill="none" stroke="#000" stroke-miterlimit="10" stroke-width="1.062"/><rect width="148.127" height="238.344" transform="translate(145.197 5099.303) rotate(180)" fill="none" stroke="#000" stroke-miterlimit="10" stroke-width="1.062"/><path d="M85.877,5099.3l79.448.115V4860.958H85.877Z" fill="none" stroke="#000" stroke-miterlimit="10" stroke-width="1.062"/><rect width="27.095" height="27.095" transform="translate(35.032 5035.09) rotate(180)" fill="#ececec"/><path d="M20.446,5037.807c-.142,0-.256-7-.256-15.635s.114-15.636.256-15.636.257,7,.257,15.636S20.588,5037.807,20.446,5037.807Z" fill="none" stroke="#000" stroke-miterlimit="10" stroke-width="1.062"/><path d="M2.849,5017.08c0-.142,7.879-.257,17.6-.257s17.6.115,17.6.257-7.878.257-17.6.257S2.849,5017.222,2.849,5017.08Z" fill="none" stroke="#000" stroke-miterlimit="10" stroke-width="1.062"/><rect width="27.095" height="27.095" transform="translate(73.672 5035.09) rotate(180)" fill="#ececec"/><path d="M59.086,5037.807c-.141,0-.256-7-.256-15.635s.115-15.636.256-15.636.257,7,.257,15.636S59.228,5037.807,59.086,5037.807Z" fill="none" stroke="#000" stroke-miterlimit="10" stroke-width="1.062"/><path d="M41.489,5017.08c0-.142,7.879-.257,17.6-.257s17.6.115,17.6.257-7.878.257-17.6.257S41.489,5017.222,41.489,5017.08Z" fill="none" stroke="#000" stroke-miterlimit="10" stroke-width="1.062"/><rect width="27.095" height="27.095" transform="translate(35.032 4992.289) rotate(180)" fill="#ececec"/><path d="M20.446,4995.006c-.142,0-.256-7-.256-15.635s.114-15.637.256-15.637.257,7,.257,15.637S20.588,4995.006,20.446,4995.006Z" fill="none" stroke="#000" stroke-miterlimit="10" stroke-width="1.062"/><path d="M2.849,4974.279c0-.142,7.879-.257,17.6-.257s17.6.115,17.6.257-7.878.257-17.6.257S2.849,4974.421,2.849,4974.279Z" fill="none" stroke="#000" stroke-miterlimit="10" stroke-width="1.062"/><rect width="27.095" height="27.095" transform="translate(73.672 4992.289) rotate(180)" fill="#ececec"/><path d="M59.086,4995.006c-.141,0-.256-7-.256-15.635s.115-15.637.256-15.637.257,7,.257,15.637S59.228,4995.006,59.086,4995.006Z" fill="none" stroke="#000" stroke-miterlimit="10" stroke-width="1.062"/><path d="M41.489,4974.279c0-.142,7.879-.257,17.6-.257s17.6.115,17.6.257-7.878.257-17.6.257S41.489,4974.421,41.489,4974.279Z" fill="none" stroke="#000" stroke-miterlimit="10" stroke-width="1.062"/><rect width="27.095" height="27.095" transform="translate(35.032 4949.389) rotate(180)" fill="#ececec"/><path d="M20.446,4952.106c-.142,0-.256-7-.256-15.635s.114-15.637.256-15.637.257,7,.257,15.637S20.588,4952.106,20.446,4952.106Z" fill="none" stroke="#000" stroke-miterlimit="10" stroke-width="1.062"/><path d="M2.849,4931.379c0-.142,7.879-.257,17.6-.257s17.6.115,17.6.257-7.878.256-17.6.256S2.849,4931.521,2.849,4931.379Z" fill="none" stroke="#000" stroke-miterlimit="10" stroke-width="1.062"/><rect width="27.095" height="27.095" transform="translate(73.672 4949.389) rotate(180)" fill="#ececec"/><path d="M59.086,4952.106c-.141,0-.256-7-.256-15.635s.115-15.637.256-15.637.257,7,.257,15.637S59.228,4952.106,59.086,4952.106Z" fill="none" stroke="#000" stroke-miterlimit="10" stroke-width="1.062"/><path d="M41.489,4931.379c0-.142,7.879-.257,17.6-.257s17.6.115,17.6.257-7.878.256-17.6.256S41.489,4931.521,41.489,4931.379Z" fill="none" stroke="#000" stroke-miterlimit="10" stroke-width="1.062"/><g opacity="0.7"><rect width="27.095" height="27.095" transform="translate(140.186 4949.389) rotate(180)" fill="#fff"/></g><path d="M126.638,4952.106c-.141,0-.256-7-.256-15.635s.115-15.637.256-15.637.257,7,.257,15.637S126.78,4952.106,126.638,4952.106Z" fill="none" stroke="#000" stroke-miterlimit="10" stroke-width="1.062"/><path d="M108,4931.379c0-.142,7.879-.257,17.6-.257s17.6.115,17.6.257-7.877.256-17.6.256S108,4931.521,108,4931.379Z" fill="none" stroke="#000" stroke-miterlimit="10" stroke-width="1.062"/><rect width="27.095" height="27.095" transform="translate(35.032 4905.864) rotate(180)" fill="#ececec"/><path d="M20.446,4908.581c-.142,0-.256-7-.256-15.635s.114-15.637.256-15.637.257,7,.257,15.637S20.588,4908.581,20.446,4908.581Z" fill="none" stroke="#000" stroke-miterlimit="10" stroke-width="1.062"/><path d="M2.849,4887.853c0-.141,7.879-.256,17.6-.256s17.6.115,17.6.256-7.878.257-17.6.257S2.849,4888,2.849,4887.853Z" fill="none" stroke="#000" stroke-miterlimit="10" stroke-width="1.062"/><rect width="27.095" height="27.095" transform="translate(73.672 4905.864) rotate(180)" fill="#ececec"/><path d="M59.086,4908.581c-.141,0-.256-7-.256-15.635s.115-15.637.256-15.637.257,7,.257,15.637S59.228,4908.581,59.086,4908.581Z" fill="none" stroke="#000" stroke-miterlimit="10" stroke-width="1.062"/><path d="M41.489,4887.853c0-.141,7.879-.256,17.6-.256s17.6.115,17.6.256-7.878.257-17.6.257S41.489,4888,41.489,4887.853Z" fill="none" stroke="#000" stroke-miterlimit="10" stroke-width="1.062"/><g opacity="0.7"><rect width="27.095" height="27.095" transform="translate(140.186 4905.864) rotate(180)" fill="#fff"/></g><path d="M126.638,4908.581c-.141,0-.256-7-.256-15.635s.115-15.637.256-15.637.257,7,.257,15.637S126.78,4908.581,126.638,4908.581Z" fill="none" stroke="#000" stroke-miterlimit="10" stroke-width="1.062"/><path d="M108,4887.853c0-.141,7.879-.256,17.6-.256s17.6.115,17.6.256-7.877.257-17.6.257S108,4888,108,4887.853Z" fill="none" stroke="#000" stroke-miterlimit="10" stroke-width="1.062"/><g opacity="0.7"><rect width="27.095" height="27.095" transform="translate(140.186 4992.712) rotate(180)" fill="#fff"/></g><path d="M126.638,4995.429c-.141,0-.256-7-.256-15.635s.115-15.637.256-15.637.257,7,.257,15.637S126.78,4995.429,126.638,4995.429Z" fill="none" stroke="#000" stroke-miterlimit="10" stroke-width="1.062"/><path d="M108,4974.7c0-.141,7.879-.256,17.6-.256s17.6.115,17.6.256-7.877.257-17.6.257S108,4974.843,108,4974.7Z" fill="none" stroke="#000" stroke-miterlimit="10" stroke-width="1.062"/><g opacity="0.7"><rect width="27.095" height="27.095" transform="translate(140.186 5036.034) rotate(180)" fill="#fff"/></g><path d="M126.638,5038.752c-.141,0-.256-7-.256-15.636s.115-15.636.256-15.636.257,7,.257,15.636S126.78,5038.752,126.638,5038.752Z" fill="none" stroke="#000" stroke-miterlimit="10" stroke-width="1.062"/><path d="M108,5018.024c0-.142,7.879-.257,17.6-.257s17.6.115,17.6.257-7.877.257-17.6.257S108,5018.166,108,5018.024Z" fill="none" stroke="#000" stroke-miterlimit="10" stroke-width="1.062"/><path d="M28.133,5099.277a.944.944,0,0,1-.023-.243l-.022-.716c-.01-.662-.024-1.587-.042-2.767-.018-2.445-.043-5.946-.074-10.312-.023-8.813-.054-21.112-.09-35.2v-.25h.251l14.108-.007,13.657.006h.252v.25c-.035,14.2-.066,26.616-.089,35.515-.031,4.409-.056,7.946-.074,10.416-.018,1.193-.032,2.127-.042,2.8-.01.3-.017.535-.023.723a.954.954,0,0,1-.023.245,1.06,1.06,0,0,1-.022-.245l-.022-.723c-.011-.67-.025-1.6-.043-2.8-.018-2.47-.043-6.007-.074-10.416-.023-8.9-.054-21.312-.089-35.515l.25.251-13.657.006-14.108-.006.25-.251c-.036,14.089-.067,26.388-.089,35.2-.032,4.366-.057,7.867-.074,10.312-.018,1.18-.032,2.1-.043,2.767l-.022.716A1.048,1.048,0,0,1,28.133,5099.277Z" fill="none" stroke="#000" stroke-miterlimit="10" stroke-width="1.062"/><rect width="9.464" height="22.653" transform="translate(52.405 5075.614) rotate(180)" fill="none" stroke="#000" stroke-miterlimit="10" stroke-width="1.062"/><path d="M52.43,5075.639H42.916v-22.7H52.43Zm-9.464-.05H52.38v-22.6H42.966Z" fill="none" stroke="#000" stroke-miterlimit="10" stroke-width="1.062"/><rect width="9.464" height="22.653" transform="translate(41.091 5075.614) rotate(180)" fill="none" stroke="#000" stroke-miterlimit="10" stroke-width="1.062"/><path d="M41.115,5075.639H31.6v-22.7h9.513Zm-9.463-.05h9.413v-22.6H31.652Z" fill="none" stroke="#000" stroke-miterlimit="10" stroke-width="1.062"/><path d="M31.433,5077.957c.017.081-.462.075-.684.611a1.1,1.1,0,0,0,.006.91.9.9,0,0,0,.905.451.941.941,0,0,0,.684-.764.882.882,0,0,0-.32-.817c-.444-.377-.881-.282-.888-.36-.047-.044.438-.334,1.1.068a1.238,1.238,0,0,1,.574,1.168,1.381,1.381,0,0,1-1.053,1.209,1.345,1.345,0,0,1-1.427-.738,1.4,1.4,0,0,1,.093-1.294.991.991,0,0,1,.7-.5C31.331,5077.876,31.435,5077.927,31.433,5077.957Z" fill="none" stroke="#000" stroke-miterlimit="10" stroke-width="1.062"/><rect width="69.031" height="191.824" transform="translate(272.199 5099.304) rotate(180)" fill="none" stroke="#000" stroke-miterlimit="10" stroke-width="1.062"/><g opacity="0.4"><rect width="34.515" height="191.825" transform="translate(272.199 5099.304) rotate(180)"/></g><rect width="57.537" height="191.824" transform="translate(223.639 5099.304) rotate(180)" fill="none" stroke="#000" stroke-miterlimit="10" stroke-width="1.062"/><rect width="19.376" height="45.06" transform="translate(209.11 4922.979)" fill="#fafafa"/><path d="M209.11,4968.039a1.222,1.222,0,0,1-.012-.206c0-.16-.007-.368-.012-.633-.006-.584-.014-1.412-.025-2.476-.013-2.2-.031-5.361-.055-9.331-.023-8.029-.055-19.311-.093-32.414v-.2h.2l19.374-.01c.419.412.116.122.21.217v1.628q0,.819,0,1.632v3.23q0,3.209,0,6.318c-.005,4.143-.008,8.141-.012,11.953-.016,7.618-.031,14.492-.043,20.289v.149h-.147l-14.223-.08-3.838-.036-.989-.016a2.712,2.712,0,0,1-.327-.016,3.45,3.45,0,0,1,.357-.015l1.015-.016,3.871-.037,14.134-.08-.148.148c-.013-5.8-.027-12.671-.043-20.289,0-3.812-.008-7.81-.012-11.953q0-3.106,0-6.318,0-1.6,0-3.23v-3.26c.091.089-.2-.218.2.2l-19.374-.01.2-.2c-.038,13.049-.071,24.284-.094,32.28-.023,3.99-.042,7.17-.055,9.377-.01,1.081-.019,1.923-.024,2.517-.006.274-.009.49-.013.656A1.842,1.842,0,0,1,209.11,4968.039Z" fill="none" stroke="#000" stroke-miterlimit="10" stroke-width="1.062"/><path d="M208.8,4932.195c0-.114,4.467-.207,9.976-.207s9.978.093,9.978.207-4.466.207-9.978.207S208.8,4932.309,208.8,4932.195Z" fill="none" stroke="#000" stroke-miterlimit="10" stroke-width="1.062"/><path d="M218.592,4967.7c-.114,0-.207-7.919-.207-17.686s.093-17.687.207-17.687.207,7.918.207,17.687S218.707,4967.7,218.592,4967.7Z" fill="none" stroke="#000" stroke-miterlimit="10" stroke-width="1.062"/><rect width="19.376" height="45.06" transform="translate(174.159 4922.979)" fill="#fafafa"/><path d="M174.159,4968.039a1.222,1.222,0,0,1-.012-.206c0-.16-.007-.368-.012-.633-.006-.584-.014-1.412-.025-2.476-.013-2.2-.032-5.361-.055-9.331-.023-8.029-.056-19.311-.093-32.414v-.2h.2l19.373-.01c.42.412.117.122.211.217v6.49q0,3.209,0,6.318c0,4.143-.008,8.141-.011,11.953-.017,7.618-.031,14.492-.044,20.289v.149h-.148l-14.223-.08-3.837-.036-.989-.016a2.713,2.713,0,0,1-.327-.016,3.45,3.45,0,0,1,.357-.015l1.015-.016,3.871-.037,14.133-.08-.147.148c-.013-5.8-.027-12.671-.044-20.289,0-3.812-.007-7.81-.011-11.953q0-3.106,0-6.318,0-1.6,0-3.23v-3.26c.091.089-.2-.218.2.2l-19.373-.01.2-.2c-.037,13.049-.07,24.284-.093,32.28-.023,3.99-.042,7.17-.055,9.377-.01,1.081-.019,1.923-.025,2.517-.005.274-.009.49-.012.656A1.839,1.839,0,0,1,174.159,4968.039Z" fill="none" stroke="#000" stroke-miterlimit="10" stroke-width="1.062"/><path d="M173.85,4932.195c0-.114,4.467-.207,9.976-.207s9.978.093,9.978.207-4.467.207-9.978.207S173.85,4932.309,173.85,4932.195Z" fill="none" stroke="#000" stroke-miterlimit="10" stroke-width="1.062"/><path d="M183.641,4967.7c-.114,0-.207-7.919-.207-17.686s.093-17.687.207-17.687.207,7.918.207,17.687S183.756,4967.7,183.641,4967.7Z" fill="none" stroke="#000" stroke-miterlimit="10" stroke-width="1.062"/><rect width="19.376" height="45.06" transform="translate(209.11 4979.439)" fill="#fafafa"/><path d="M209.11,5024.5a1.236,1.236,0,0,1-.012-.206c0-.16-.007-.369-.012-.633-.006-.584-.014-1.412-.025-2.476-.013-2.2-.031-5.361-.055-9.331-.023-8.03-.055-19.311-.093-32.414v-.2h.2l19.374-.009c.419.412.116.121.21.217v1.628q0,.819,0,1.632v3.23q0,3.209,0,6.318c-.005,4.142-.008,8.14-.012,11.952-.016,7.619-.031,14.492-.043,20.29v.149h-.147l-14.223-.08-3.838-.037-.989-.016a2.629,2.629,0,0,1-.327-.015,3.45,3.45,0,0,1,.357-.015l1.015-.016,3.871-.037,14.134-.08-.148.148c-.013-5.8-.027-12.671-.043-20.29,0-3.812-.008-7.81-.012-11.952q0-3.108,0-6.318,0-1.6,0-3.23v-3.26c.091.089-.2-.219.2.2l-19.374-.01.2-.2c-.038,13.049-.071,24.284-.094,32.28-.023,3.99-.042,7.17-.055,9.377-.01,1.081-.019,1.923-.024,2.517-.006.274-.009.49-.013.655A1.85,1.85,0,0,1,209.11,5024.5Z" fill="none" stroke="#000" stroke-miterlimit="10" stroke-width="1.062"/><path d="M208.8,4988.655c0-.115,4.467-.207,9.976-.207s9.978.092,9.978.207-4.466.207-9.978.207S208.8,4988.769,208.8,4988.655Z" fill="none" stroke="#000" stroke-miterlimit="10" stroke-width="1.062"/><path d="M218.592,5024.157c-.114,0-.207-7.919-.207-17.686s.093-17.687.207-17.687.207,7.917.207,17.687S218.707,5024.157,218.592,5024.157Z" fill="none" stroke="#000" stroke-miterlimit="10" stroke-width="1.062"/><rect width="19.376" height="45.06" transform="translate(174.159 4979.439)" fill="#fafafa"/><path d="M174.159,5024.5a1.236,1.236,0,0,1-.012-.206c0-.16-.007-.369-.012-.633-.006-.584-.014-1.412-.025-2.476-.013-2.2-.032-5.361-.055-9.331-.023-8.03-.056-19.311-.093-32.414v-.2h.2l19.373-.009c.42.412.117.121.211.217v6.49q0,3.209,0,6.318c0,4.142-.008,8.14-.011,11.952-.017,7.619-.031,14.492-.044,20.29v.149h-.148l-14.223-.08-3.837-.037-.989-.016a2.629,2.629,0,0,1-.327-.015,3.45,3.45,0,0,1,.357-.015l1.015-.016,3.871-.037,14.133-.08-.147.148c-.013-5.8-.027-12.671-.044-20.29,0-3.812-.007-7.81-.011-11.952q0-3.108,0-6.318,0-1.6,0-3.23v-3.26c.091.089-.2-.219.2.2l-19.373-.01.2-.2c-.037,13.049-.07,24.284-.093,32.28-.023,3.99-.042,7.17-.055,9.377-.01,1.081-.019,1.923-.025,2.517-.005.274-.009.49-.012.655A1.848,1.848,0,0,1,174.159,5024.5Z" fill="none" stroke="#000" stroke-miterlimit="10" stroke-width="1.062"/><path d="M173.85,4988.655c0-.115,4.467-.207,9.976-.207s9.978.092,9.978.207-4.467.207-9.978.207S173.85,4988.769,173.85,4988.655Z" fill="none" stroke="#000" stroke-miterlimit="10" stroke-width="1.062"/><path d="M183.641,5024.157c-.114,0-.207-7.919-.207-17.686s.093-17.687.207-17.687.207,7.917.207,17.687S183.756,5024.157,183.641,5024.157Z" fill="none" stroke="#000" stroke-miterlimit="10" stroke-width="1.062"/><rect width="19.376" height="45.06" transform="translate(209.11 5035.472)" fill="#fafafa"/><path d="M209.11,5080.532a1.214,1.214,0,0,1-.012-.206l-.012-.632c-.006-.584-.014-1.413-.025-2.477-.013-2.2-.031-5.361-.055-9.331-.023-8.029-.055-19.31-.093-32.414v-.2h.2l19.374-.01c.419.412.116.122.21.217v1.629q0,.817,0,1.631v3.231q0,3.207,0,6.317c-.005,4.143-.008,8.141-.012,11.953-.016,7.618-.031,14.492-.043,20.289v.149h-.147l-14.223-.079-3.838-.037-.989-.016a2.43,2.43,0,0,1-.327-.016,3.283,3.283,0,0,1,.357-.015l1.015-.016,3.871-.037,14.134-.079-.148.147c-.013-5.8-.027-12.671-.043-20.289,0-3.812-.008-7.81-.012-11.953q0-3.106,0-6.317,0-1.605,0-3.231v-3.26c.091.089-.2-.218.2.2l-19.374-.009.2-.2c-.038,13.05-.071,24.284-.094,32.281-.023,3.989-.042,7.17-.055,9.376-.01,1.082-.019,1.924-.024,2.517-.006.274-.009.491-.013.656A1.836,1.836,0,0,1,209.11,5080.532Z" fill="none" stroke="#000" stroke-miterlimit="10" stroke-width="1.062"/><path d="M208.8,5044.688c0-.114,4.467-.207,9.976-.207s9.978.093,9.978.207-4.466.207-9.978.207S208.8,5044.8,208.8,5044.688Z" fill="none" stroke="#000" stroke-miterlimit="10" stroke-width="1.062"/><path d="M218.592,5080.19c-.114,0-.207-7.919-.207-17.685s.093-17.687.207-17.687.207,7.917.207,17.687S218.707,5080.19,218.592,5080.19Z" fill="none" stroke="#000" stroke-miterlimit="10" stroke-width="1.062"/><rect width="19.376" height="45.06" transform="translate(246.069 4923.849)" fill="#fafafa"/><path d="M246.069,4968.909a1.222,1.222,0,0,1-.012-.206c0-.16-.007-.368-.012-.632-.006-.585-.014-1.413-.025-2.477-.013-2.2-.031-5.361-.055-9.331-.023-8.029-.055-19.31-.093-32.414v-.2h.2l19.373-.01c.42.412.117.122.211.217v6.49q0,3.208,0,6.318c0,4.143-.008,8.141-.011,11.953-.016,7.618-.031,14.492-.044,20.289v.149h-.147l-14.223-.08-3.838-.036-.989-.016a2.67,2.67,0,0,1-.327-.016,3.283,3.283,0,0,1,.357-.015l1.015-.016,3.871-.037,14.134-.08-.148.148c-.013-5.8-.027-12.671-.044-20.289,0-3.812-.007-7.81-.011-11.953q0-3.106,0-6.318,0-1.6,0-3.23v-3.26c.09.089-.2-.218.2.2l-19.373-.01.2-.2c-.037,13.05-.07,24.284-.093,32.281-.023,3.989-.042,7.169-.055,9.376-.01,1.082-.019,1.924-.025,2.517-.005.274-.009.49-.012.656A1.851,1.851,0,0,1,246.069,4968.909Z" fill="none" stroke="#000" stroke-miterlimit="10" stroke-width="1.062"/><path d="M245.76,4933.065c0-.114,4.467-.207,9.976-.207s9.978.093,9.978.207-4.466.207-9.978.207S245.76,4933.179,245.76,4933.065Z" fill="none" stroke="#000" stroke-miterlimit="10" stroke-width="1.062"/><path d="M255.551,4968.567c-.114,0-.207-7.919-.207-17.685s.093-17.688.207-17.688.207,7.918.207,17.688S255.666,4968.567,255.551,4968.567Z" fill="none" stroke="#000" stroke-miterlimit="10" stroke-width="1.062"/><rect width="19.376" height="45.06" transform="translate(246.069 4980.309)" fill="#fafafa"/><path d="M246.069,5025.369a1.236,1.236,0,0,1-.012-.206c0-.16-.007-.368-.012-.633-.006-.584-.014-1.412-.025-2.476-.013-2.2-.031-5.361-.055-9.331-.023-8.029-.055-19.311-.093-32.414v-.2h.2l19.373-.01c.42.412.117.121.211.217v6.49q0,3.209,0,6.318c0,4.142-.008,8.141-.011,11.953-.016,7.618-.031,14.491-.044,20.289v.149h-.147l-14.223-.08-3.838-.037-.989-.016a2.589,2.589,0,0,1-.327-.015,3.283,3.283,0,0,1,.357-.015l1.015-.016,3.871-.037,14.134-.08-.148.148c-.013-5.8-.027-12.671-.044-20.289,0-3.812-.007-7.811-.011-11.953q0-3.108,0-6.318,0-1.6,0-3.23v-3.26c.09.089-.2-.219.2.2l-19.373-.01.2-.2c-.037,13.049-.07,24.284-.093,32.28-.023,3.99-.042,7.17-.055,9.377-.01,1.081-.019,1.923-.025,2.517-.005.274-.009.49-.012.655A1.85,1.85,0,0,1,246.069,5025.369Z" fill="none" stroke="#000" stroke-miterlimit="10" stroke-width="1.062"/><path d="M245.76,4989.525c0-.115,4.467-.207,9.976-.207s9.978.092,9.978.207-4.466.207-9.978.207S245.76,4989.639,245.76,4989.525Z" fill="none" stroke="#000" stroke-miterlimit="10" stroke-width="1.062"/><path d="M255.551,5025.027c-.114,0-.207-7.919-.207-17.686s.093-17.687.207-17.687.207,7.918.207,17.687S255.666,5025.027,255.551,5025.027Z" fill="none" stroke="#000" stroke-miterlimit="10" stroke-width="1.062"/><rect width="19.376" height="45.06" transform="translate(246.069 5036.342)" fill="#fafafa"/><path d="M246.069,5081.4a1.236,1.236,0,0,1-.012-.207l-.012-.632c-.006-.584-.014-1.413-.025-2.477-.013-2.195-.031-5.36-.055-9.331-.023-8.029-.055-19.31-.093-32.414v-.2h.2l19.373-.01c.42.412.117.122.211.217v6.491q0,3.207,0,6.317c0,4.143-.008,8.141-.011,11.953-.016,7.619-.031,14.492-.044,20.289v.149h-.147l-14.223-.079-3.838-.037-.989-.016a2.4,2.4,0,0,1-.327-.015,3.044,3.044,0,0,1,.357-.016l1.015-.016,3.871-.037,14.134-.079-.148.147c-.013-5.8-.027-12.67-.044-20.289,0-3.812-.007-7.81-.011-11.953q0-3.107,0-6.317,0-1.6,0-3.231v-3.26c.09.089-.2-.218.2.2l-19.373-.009.2-.2c-.037,13.05-.07,24.285-.093,32.281-.023,3.989-.042,7.17-.055,9.376-.01,1.082-.019,1.924-.025,2.517l-.012.656A1.869,1.869,0,0,1,246.069,5081.4Z" fill="none" stroke="#000" stroke-miterlimit="10" stroke-width="1.062"/><path d="M245.76,5045.558c0-.114,4.467-.207,9.976-.207s9.978.093,9.978.207-4.466.207-9.978.207S245.76,5045.672,245.76,5045.558Z" fill="none" stroke="#000" stroke-miterlimit="10" stroke-width="1.062"/><path d="M255.551,5081.06c-.114,0-.207-7.919-.207-17.685s.093-17.687.207-17.687.207,7.917.207,17.687S255.666,5081.06,255.551,5081.06Z" fill="none" stroke="#000" stroke-miterlimit="10" stroke-width="1.062"/><rect width="19.376" height="45.06" transform="translate(174.159 5035.472)" fill="#fafafa"/><path d="M174.159,5080.532a1.214,1.214,0,0,1-.012-.206l-.012-.632c-.006-.584-.014-1.413-.025-2.477-.013-2.2-.032-5.361-.055-9.331-.023-8.029-.056-19.31-.093-32.414v-.2h.2l19.373-.01c.42.412.117.122.211.217v6.491q0,3.207,0,6.317c0,4.143-.008,8.141-.011,11.953-.017,7.618-.031,14.492-.044,20.289v.149h-.148l-14.223-.079-3.837-.037-.989-.016a2.43,2.43,0,0,1-.327-.016,3.283,3.283,0,0,1,.357-.015l1.015-.016,3.871-.037,14.133-.079-.147.147c-.013-5.8-.027-12.671-.044-20.289,0-3.812-.007-7.81-.011-11.953q0-3.106,0-6.317,0-1.605,0-3.231v-3.26c.091.089-.2-.218.2.2l-19.373-.009.2-.2c-.037,13.05-.07,24.284-.093,32.281-.023,3.989-.042,7.17-.055,9.376-.01,1.082-.019,1.924-.025,2.517-.005.274-.009.491-.012.656A1.834,1.834,0,0,1,174.159,5080.532Z" fill="none" stroke="#000" stroke-miterlimit="10" stroke-width="1.062"/><path d="M173.85,5044.688c0-.114,4.467-.207,9.976-.207s9.978.093,9.978.207-4.467.207-9.978.207S173.85,5044.8,173.85,5044.688Z" fill="none" stroke="#000" stroke-miterlimit="10" stroke-width="1.062"/><path d="M183.641,5080.19c-.114,0-.207-7.919-.207-17.685s.093-17.687.207-17.687.207,7.917.207,17.687S183.756,5080.19,183.641,5080.19Z" fill="none" stroke="#000" stroke-miterlimit="10" stroke-width="1.062"/><path d="M493.851,5020.356c-.038,0-.075,0-.113,0v0H463.311c-13.1,0-23.715,17.184-23.715,38.382s10.618,38.381,23.715,38.381h30.427v0c.038,0,.075,0,.113,0,13.1,0,23.715-17.184,23.715-38.381S506.948,5020.356,493.851,5020.356Z" fill="#efc523"/><path d="M493.851,5020.356c-.038,0-.075,0-.113,0v0H463.311c-13.1,0-23.715,17.184-23.715,38.382s10.618,38.381,23.715,38.381h30.427v0c.038,0,.075,0,.113,0,13.1,0,23.715-17.184,23.715-38.381S506.948,5020.356,493.851,5020.356Z" opacity="0.2"/><path d="M355.985,5020.356c-.038,0-.075,0-.113,0v0H325.445c-13.1,0-23.715,17.184-23.715,38.382s10.618,38.381,23.715,38.381h30.427v0c.038,0,.075,0,.113,0,13.1,0,23.715-17.184,23.715-38.381S369.082,5020.356,355.985,5020.356Z"/><path d="M355.985,5020.356c-.038,0-.075,0-.113,0v0H325.445c-13.1,0-23.715,17.184-23.715,38.382s10.618,38.381,23.715,38.381h30.427v0c.038,0,.075,0,.113,0,13.1,0,23.715-17.184,23.715-38.381S369.082,5020.356,355.985,5020.356Z" fill="#1a2e35" opacity="0.2"/><path d="M647.475,4991.214l6.959,5.979a11.6,11.6,0,0,1,3.726,11.485l-1.589,6.685Z" fill="#efc523"/><path d="M660.1,5030.171h0a115.882,115.882,0,0,0-10.134-37.831l-2.369-5.146h-57.83l29.97,86.266h0a68.746,68.746,0,0,0,28.51-14.847l.691-.6A32.914,32.914,0,0,0,660.1,5030.171Z" fill="#efc523"/><path d="M660.1,5030.171h0a115.882,115.882,0,0,0-10.134-37.831l-2.369-5.146h-57.83l29.97,86.266h0a68.746,68.746,0,0,0,28.51-14.847l.691-.6A32.914,32.914,0,0,0,660.1,5030.171Z" fill="#fff" opacity="0.5"/><path d="M583.348,5097.119c-13.1,0-23.715-17.184-23.715-38.381s10.618-38.382,23.715-38.382h30.427v76.763Z" fill="#efc523"/><ellipse cx="23.715" cy="38.382" rx="23.715" ry="38.382" transform="translate(590.173 5020.356)"/><ellipse cx="16.638" cy="24.272" rx="16.638" ry="24.272" transform="translate(597.25 5034.466)" fill="#fff" opacity="0.2"/><path d="M410.217,5073.46l-57.029-91.528c-.011.008,45.119-45.623,143.689-45.623,85.326,0,136.432,28.179,150.718,50.885l-33.82,33.162c-32.749,0-32.544,34.723-37.035,49.325a5.344,5.344,0,0,1-5.164,3.779H410.217" fill="#efc523"/><path d="M445.482,5097.119c-13.1,0-23.715-17.184-23.715-38.381s10.617-38.382,23.715-38.382h30.427v76.763Z"/><ellipse cx="23.715" cy="38.382" rx="23.715" ry="38.382" transform="translate(452.307 5020.356)"/><ellipse cx="16.638" cy="24.272" rx="16.638" ry="24.272" transform="translate(459.383 5034.466)" fill="#fff" opacity="0.2"/><path d="M434.27,5065.9c2.9-17.147,20-45.549,41.639-45.549l20.968-38.424H353.188c-9.162,0-52,15.476-67.6,31.074-10.918,10.918-12.05,21.9-13.332,49.867-.262,5.709,4.984,10.615,11.294,10.618,53.005.024,117.159.206,140.514.277C429.22,5073.784,433.493,5070.5,434.27,5065.9Z" fill="#efc523"/><path d="M496.875,4936.314c-97.959,0-142.658,44.915-143.672,45.608l-.01.011h99.114s42.613-36.838,70.858-44.678Q510.621,4936.33,496.875,4936.314Z"/><path d="M374.3,5021.134c13.6-5.151,54.654-19.617,65.853-15.854s-15.918,17.184-22.742,18.968-11.314-1.786-21.537,3.155S357.836,5027.369,374.3,5021.134Z" fill="#ccc" opacity="0.7"/><path d="M542.712,5073.983a.522.522,0,0,1-.432-.816c.2-.3,20.293-30.551,20.293-91.234a.523.523,0,0,1,1.046,0c0,61.036-20.27,91.521-20.475,91.821A.522.522,0,0,1,542.712,5073.983Z" fill="#efc523" opacity="0.2"/><path d="M325.049,5027.151a.58.58,0,0,1-.117-.013l-27.3-6.273a.522.522,0,1,1,.235-1.018l27.208,6.252,44.987-5.123a.528.528,0,0,1,.578.461.523.523,0,0,1-.46.578l-45.076,5.133C325.089,5027.15,325.068,5027.151,325.049,5027.151Z" fill="#efc523" opacity="0.2"/><path d="M613.775,5020.879a.523.523,0,0,1-.366-.9c9.535-9.351,14.614-31.188,14.614-43.357a.523.523,0,0,1,1.046,0c0,12.353-5.187,34.552-14.928,44.1A.519.519,0,0,1,613.775,5020.879Z" fill="#efc523" opacity="0.2"/><path d="M536.963,4992.364h13.589a1.922,1.922,0,0,0,1.917-1.916h0a1.923,1.923,0,0,0-1.917-1.917H536.963a1.923,1.923,0,0,0-1.917,1.917h0A1.922,1.922,0,0,0,536.963,4992.364Z" fill="#efc523"/><path d="M596.6,4992.364h13.589a1.922,1.922,0,0,0,1.917-1.916h0a1.923,1.923,0,0,0-1.917-1.917H596.6a1.923,1.923,0,0,0-1.917,1.917h0A1.922,1.922,0,0,0,596.6,4992.364Z" fill="#efc523"/><path d="M296.786,5021.645c-2.8-1.7-7.391-4.4-12.586-7.171a34.453,34.453,0,0,0-6.722,10.318,13.388,13.388,0,0,1,5.593,2.77C289.7,5032.663,307.438,5028.148,296.786,5021.645Z" fill="#ccc" opacity="0.7"/><path d="M469.828,4981.932H608.337a41.14,41.14,0,0,0,20.209-5.306h0s-22.413-20.362-67.537-29.14c-18.545-3.608-36.126-5.008-41.527-4.66C506.59,4949.621,486.844,4963.908,469.828,4981.932Z"/><path d="M386.753,5067.108H288.277a2.748,2.748,0,0,1-2.058-4.569l2.544-2.875a2.75,2.75,0,0,1,2.058-.926h93.388a2.748,2.748,0,0,1,2.057.926l2.544,2.875A2.747,2.747,0,0,1,386.753,5067.108Z"/><path d="M645.086,5021.293l-6.2,1.2v-16.814l6.2,1.2c.84.162,1.471,1.295,1.471,2.641v9.136C646.557,5020,645.926,5021.131,645.086,5021.293Z" fill="#efc523"/><path d="M627.033,4981.371v14.02a7.01,7.01,0,1,0,0-14.02Z" fill="#efc523"/><rect width="53.652" height="322.522" transform="translate(654.034 4778.794)" fill="#1a2e35"/><rect width="63.781" height="3.972" transform="translate(658.622 4774.822)" fill="#1a2e35"/><rect width="14.717" height="3.972" transform="translate(707.686 4774.822)" opacity="0.4"/><path d="M689.7,4807.374h-9.025l7.893-12.5h-9.916l-6.626,17.659h8.236l-5.021,15.947Z" fill="#fff"/><circle cx="11.274" cy="11.274" r="11.274" transform="matrix(0.685, -0.728, 0.728, 0.685, 664.924, 4983.08)" fill="#efc523" opacity="0.5"/><path d="M631.19,5101.615c6.639-.539,12.511-2.182,15.245-5.488,6.275-7.588,3.15-23.938-.158-41.248-2.2-11.492-4.469-23.376-4.469-34.418,0-25.72,13.869-39.884,39.052-39.884a2.019,2.019,0,0,1,0,4.038c-15.973,0-35.015,6.219-35.015,35.846,0,10.659,2.236,22.352,4.4,33.66,3.491,18.27,6.79,35.527-.7,44.58-3.548,4.291-6.749,5.756-16.823,6.378s-19.135-2.681-17.205-11.8,19.963,4.251,19.963-55c0-5.666-1-10.971-1-15.124a108.287,108.287,0,0,1,1.532-16.5c.959-6.444,1.717-11.533-.345-13.926-1.35-1.565-4.176-2.327-8.638-2.327v-4.038c5.786,0,9.5,1.185,11.7,3.729,3.271,3.794,2.393,9.69,1.281,17.157a104.892,104.892,0,0,0-1.489,15.9c0,3.969.764,9.191.98,14.758,2.088,53.677-18.493,53.683-18.711,57.391C620.42,5101.615,628.831,5101.807,631.19,5101.615Z" fill="#efc523"/><rect width="40.269" height="81.379" transform="translate(660.726 4881.083)" fill="#efc523" opacity="0.5"/><path d="M660.726,4881.083v81.379l14.425-70.05Z" fill="#efc523" opacity="0.5"/><path d="M693.348,4908.531l.819-3.977H683.182l-.819,3.977H678.1l-7.786,37.812h19.6l7.786-37.812Z" fill="#efc523"/><path d="M692.336,4921.95l-4.012,19.479a2.956,2.956,0,0,1-2.9,2.361h-9.784a1.789,1.789,0,0,1-1.753-2.15l4.012-19.48a2.957,2.957,0,0,1,2.9-2.36h9.785A1.789,1.789,0,0,1,692.336,4921.95Z" fill="#fff" opacity="0.4"/><path d="M660.726,4881.083h40.268v11.329H675.151Z" fill="#1a2e35" opacity="0.4"/><rect width="19.305" height="322.522" transform="translate(726.991 5101.316) rotate(180)" fill="#1a2e35"/><rect width="19.305" height="322.522" transform="translate(726.991 5101.316) rotate(180)" opacity="0.4"/><path d="M685.86,5193.29c-.011,5.437,125.092,10.1,279.423,10.427s279.449-3.824,279.46-9.26-125.086-10.1-279.418-10.427S685.871,5187.854,685.86,5193.29Z"/><path d="M1161.014,5190.614H1139.5s-1.265-5.863,3.226-13.413l14.5.253S1161.392,5183.443,1161.014,5190.614Z"/><rect width="21.516" height="3.397" transform="translate(1139.305 5190.614)" fill="#e6e6e6"/><path d="M1142.141,5184.344c0,1.471,3.633,2.665,8.115,2.665s8.116-1.194,8.116-2.665-3.634-2.666-8.116-2.666S1142.141,5182.872,1142.141,5184.344Z"/><path d="M1146.1,5180.8a.755.755,0,0,0,.755.755h6.417a.755.755,0,0,0,.755-.755h0a.755.755,0,0,0-.755-.755h-6.417a.755.755,0,0,0-.755.755Z" fill="#e6e6e6"/><path d="M1146.1,5178.158a.755.755,0,0,0,.755.755h6.417a.755.755,0,0,0,.755-.755h0a.755.755,0,0,0-.755-.755h-6.417a.755.755,0,0,0-.755.755Z" fill="#e6e6e6"/><path d="M1188.894,5175.523s-1.668,8.675-.41,14.714H1229s1.384-8.916-16.231-8.9l-11.3-7.639Z"/><path d="M1188.375,5193.686l40.389-.227v-3.222h-40.389Z" fill="#e6e6e6"/><path d="M1213.905,5181.409s.513,6.11,14.494,5.814C1228.4,5187.223,1226.312,5181.409,1213.905,5181.409Z"/><path d="M1201.57,5190.237s-.392-10.256-13.282-10.318c0,0-.684,6.921.322,10.318Z"/><path d="M1208.461,5183.777a.749.749,0,0,0,.512-.2l3.492-3.226a.755.755,0,1,0-1.025-1.109l-3.492,3.227a.755.755,0,0,0,.513,1.309Z" fill="#e6e6e6"/><path d="M1205.064,5181.512a.754.754,0,0,0,.512-.2l3.491-3.227a.755.755,0,0,0-1.024-1.109l-3.492,3.227a.755.755,0,0,0,.513,1.309Z" fill="#e6e6e6"/><path d="M1202.044,5179.247a.751.751,0,0,0,.512-.2l3.492-3.227a.755.755,0,0,0-1.025-1.109l-3.492,3.227a.755.755,0,0,0,.513,1.309Z" fill="#e6e6e6"/><path d="M1207.707,5027.057s3.075,57.8.378,148.522a17.249,17.249,0,0,1-19.7,2.51s-4.505-95.48-6.052-121.18c0,0-10.334,57.315-21.2,120.521,0,0-11.563,5.333-19.186-1.094,0,0,9.663-97.959,14.829-146.453C1156.774,5029.883,1187.039,5033.888,1207.707,5027.057Z"/><path d="M1182.329,5056.909s9.733-4.517,12.623-8.344-7.246,22.648-11.719,26.81Z"/><path d="M1150.549,4925.555a1.2,1.2,0,0,0,.433-1.372c-.226-.841-.784-1.544.214-2.147.369-.224.8-.507.769-.914-.038-.525-.823-.825-.866-1.349-.036-.436.451-.73.665-1.116.284-.512.062-1.134.05-1.713-.027-1.238.863-1.66,1.006-2.709.181-1.311-1.247-1.443-.363-2.832a1.825,1.825,0,0,0-.717-2.711c-.721-.269-.043-1.3-.123-1.534-.2-.576-.25-1.548.339-1.8.518-.223-.469-1.5-.307-2.659.086-.621.574-1.1.607-1.937.054-1.388,1.493-.921,1.754-1.343.288-.465-.039-1.063.057-1.593a10.89,10.89,0,0,1,2.958-3.477c.682-.371,4.15-4.511,3.842-5.193l34.192,12.182c-.029.207,1.674,1.1,2.334,2.6a6.931,6.931,0,0,1,.1,4.142c-.643,1.968-.1,3.374.247,3.712.559.539,1.243,1.138,1.172,1.862-.053.536-.531,1.022-.381,1.551a12.28,12.28,0,0,0,1.074,2.5c.423.718,1.18,1.163,1.309,2.025a17.6,17.6,0,0,1-.034,2.04c.031,1.034.973,1.453,1.477,2.313a1.939,1.939,0,0,1,.173,1.837,5.62,5.62,0,0,1-.878,1.029c-1,1.139.85,1.945.614,3.049a2.068,2.068,0,0,1-.574.919,2.572,2.572,0,0,0-.623.893.569.569,0,0,0-.033.245.91.91,0,0,0,.252.421,1.162,1.162,0,0,1,.165,1.41c-1.014,1.252.455,1.038.5,2.281a1.378,1.378,0,0,1-.416.909,3.092,3.092,0,0,0-.609.816c-.321.79,1.227,1.605.527,2.255a1.921,1.921,0,0,1-.572.271c-1.375.577,1.144,3.35-1.227,4.378a8.353,8.353,0,0,1-2.553.354,2.413,2.413,0,0,0-2.108,1.126,6.776,6.776,0,0,0-.191.886c-.354,1.384-2.634,1.907-3.742.859a2.114,2.114,0,0,1-1.689,1.537,2.489,2.489,0,0,1-2.29-.794c-.292-.35-.495-.8-.939-.977-.738-.285-1.431.415-2.191.606-.955.24-1.466-.8-2.325-.9-1.145-.137-1.228,1.133-2.079,1.577-.768.4-2.049.031-2.083-.782-.014-.337.182-.679.05-1-.222-.538-1.129-.474-1.6-.107s-.764.92-1.32,1.171a2.114,2.114,0,0,1-2.14-.455c-.734-.641-.87-1.735-1.751-.868-.506.5-.707,1.137-1.473,1.331a2.014,2.014,0,0,1-1.963-.559c-.756-.763-.526-.765-1.629-.75a2.968,2.968,0,0,1-1.866-.652c-.415-.307-.755-.925-1.28-1.061-.654-.17-1.112.389-1.719.486a3.572,3.572,0,0,1-1.647-.12c-1.052-.337-.169-1.843-.688-2.734a2.339,2.339,0,0,0-1.867-1.138,7.413,7.413,0,0,1-3.039-1.483c-.135-.2-.79-2.978-.853-3.258-.549-2.421,1.131-1.265-1.914-3.446a14.256,14.256,0,0,1-.984-1.864,1.226,1.226,0,0,1,.052-.55,3.953,3.953,0,0,1,.965-1.692,1.087,1.087,0,0,0,.405-.651c.014-.446-.529-.65-.879-.927a1.394,1.394,0,0,1-.5-1.283A1.879,1.879,0,0,1,1150.549,4925.555Z" fill="url(#a)"/><path d="M1161.952,4900.588l1.1-.187c.494-1.073,1.243,2.554,1.586,1.419,1.982-6.57,2.7-6.054,2.7-6.054a169.45,169.45,0,0,0,27.817.691c-.981,7.529,1.629,24.62-4.444,32.969a11.2,11.2,0,0,1-8.064,4.652c-16.016,1.963-19.884-15.126-19.884-15.126s-4.967-6.739-5.738-14.133C1156.381,4898.694,1161.952,4900.588,1161.952,4900.588Z" fill="#f2f2f2"/><path d="M1185.307,4923.953l-1.167,5s-7.219,1.84-8.121-5.187C1176.019,4923.765,1181.269,4924.837,1185.307,4923.953Z" fill="#fff"/><path d="M1184.761,4926.067s-3.54.725-5.734-.01c0,0,1.451,1.092,5.533.71Z" fill="#b7b5b2"/><path d="M1164.838,4914.169c.445.414.364.456.557,1.142a1.173,1.173,0,0,1-.011.757,2.273,2.273,0,0,1-.32.426,1.406,1.406,0,0,0-.237.934,2.7,2.7,0,0,0,.362.852,2.025,2.025,0,0,1,.149.726,2.144,2.144,0,0,1-.07.718.705.705,0,0,1-.37.475.361.361,0,0,1-.444-.259c.017.049-.008.207,0,.272a1.1,1.1,0,0,0,.081.3.749.749,0,0,0,.337.382c.831.449,1.514-1.012,1.236-2.037a6.562,6.562,0,0,1-.2-.688c-.172-1.089.832-1.321,1.007-2.194.256-1.281-1.08-1.492-1.377-2.407a2.149,2.149,0,0,1,.119-1.5c.344-.736.938-.856,1.39-1.379.7-.815.558-2.386.216-3.574a6.346,6.346,0,0,1-.4-2.131c.033-.584.339-1.3.8-1.295a.88.88,0,0,0,.4-.027c.635-.292.255-1.622.685-2.154.249-.309.6-.242.882-.442a1.3,1.3,0,0,0,.382-1.286,3.579,3.579,0,0,1-.209-.884c.034-.962,1.317-.658,1.6-1.532.182-.569-.2-1.257-.034-1.836.313-1.06,1.806-.206,2.119-1.267.154-.52-.153-1.149,0-1.679.168-.6.761-.628,1.214-.491s.983.314,1.311-.127c.4-.532.349-1.641,1.1-1.441.505.134.86.67,1.325.925a1.447,1.447,0,0,0,1.617-.16c.5-.394.989-1.132,1.525-.862.611.306.65,1.671,1.252,2.008.718.4,1.432-1.029,2.18-.759.3.109.458.455.7.69a1.931,1.931,0,0,0,.7.4,2.561,2.561,0,0,1,1.407,1.151c.264.507.406,1.254.875,1.473.166.077.347.064.516.129.285.109.371.461.369.841,0,.3-.061.6-.068.908a2.172,2.172,0,0,0,.709,1.707c.481.381,1.169-.075,1.573.419.356.442.1,1.247.021,1.905a2.787,2.787,0,0,0,.468,1.948,1.9,1.9,0,0,1,.564,1.707c-.1.546-.414.967-.554,1.5a2.435,2.435,0,0,0,.3,1.9c.35.5.912.743,1,1.549.1.94-.65,1.52-1.068,2.051a2.1,2.1,0,0,0-.53,1.174,5.151,5.151,0,0,0,.333,2.066,5.274,5.274,0,0,1,.423,2.063,8.855,8.855,0,0,1-.208,1.1,3.47,3.47,0,0,0-.041,1.281c.137.749.929,1.481,1.39.74-.341.03-.53-.461-.537-.952a1.821,1.821,0,0,1,.084-.57c.209-.589.635-.991.865-1.571a2.836,2.836,0,0,0-.23-2.5c-.07-.1-.147-.186-.216-.294a1.054,1.054,0,0,1-.154-.256c-.4-.94.3-1.288.75-1.5a2.813,2.813,0,0,0,1.436-1.388,3.805,3.805,0,0,0,.232-1.936,6.546,6.546,0,0,0-.534-1.847c-.133-.3.284-2.49.133-2.792a3.967,3.967,0,0,1-.333-.981,14.723,14.723,0,0,1-.155-1.971c-.128-2.041-1.446-1.94-2.133-3.712a31.839,31.839,0,0,0-2.285-4.982,18.362,18.362,0,0,0-2.583-3.351,16.294,16.294,0,0,0-1.519-1.365c-.4-.316-1.13-1.079-1.593-1.1a31.969,31.969,0,0,0-4.533-.157,16.61,16.61,0,0,0-7.2,2.524,16.1,16.1,0,0,0-5.682,6.155c-.661,1.241-7.321-2.017-7.728-.576-.191.677,5.319,1.937,5.212,2.653-.121.8-.26,1.822-.307,2.639-.068,1.18-.188-1.919-.765-1.058-.291.435-1.2-.164-1.418.353s2.157,3.558.351,6.214c-.339.5,0,1.729.473,2.471,1.15,1.8,1.054,2.151,1,2.6-.156,1.319-.474,1.409-.418,2.581C1164.108,4913.792,1164.788,4914.122,1164.838,4914.169Z" fill="url(#b)"/><path d="M1198.237,4892.352s10.6,3.969-1.752,5.372c0,0,5.19,5.82-12.24,6.373s-20.059-4.805-20.059-4.805-21.763.076-8.964-6.043S1198.237,4892.352,1198.237,4892.352Z" fill="#efc523"/><path d="M1197.9,4895.139a136.672,136.672,0,0,1-42.092.879s-6.258-24.964,20.148-26.583C1202.45,4867.812,1197.9,4895.139,1197.9,4895.139Z" fill="#ffb12b"/><path d="M1158.3,4878.032c4.02,15.842,27.533,17.587,36.305,17.679a140.384,140.384,0,0,1-38.8.307S1153.249,4885.815,1158.3,4878.032Z" fill="#efc523"/><path d="M1176.589,4898.215l-2.423-.995s1.207-21.712-4.991-26.7l.414-1.734S1182.525,4870.53,1176.589,4898.215Z" fill="#ea9c3f"/><path d="M1176.589,4898.215s1.479-25.68-7-29.432c0,0,4.345-1.755,12.321-.789,0,0,8.632,5.88,5.927,29.42A50.9,50.9,0,0,1,1176.589,4898.215Z" fill="#efc523"/><path d="M1209.753,5025.331s1.936,25.429,2.5,34.866a22.217,22.217,0,0,1-15.665,6.228l-1.362-31.179s-12.559,1.737-19.659.982c0,0-2.193,29.249-2.193,31.325,0,0-8.128,1.7-23.881-2.26l4.7-36.22S1189.133,5035.573,1209.753,5025.331Z" fill="#efc523"/><rect width="38.124" height="4.53" transform="translate(1156.023 5097.928) rotate(-86.127)" fill="#efc523"/><path d="M1162.815,5064.669l-4.344-2.9.128-1.883,4.519.306Z" fill="#894c31"/><rect width="6.794" height="15.098" rx="1.228" transform="translate(1153.301 5059.911) rotate(-86.125)" fill="#b7b3b0"/><path d="M1168.042,5060.536a1.228,1.228,0,0,1-.9.312l-12.614-.854a1.228,1.228,0,0,1-1.142-1.309l.293-4.328a1.221,1.221,0,0,1,.257-.673C1154.462,5055.659,1156.917,5059.642,1168.042,5060.536Z" fill="#9b9795"/><path d="M1165.727,5063.688a24.129,24.129,0,0,1-9.814-.573v2.555a17.8,17.8,0,0,0,9.814.692Z" fill="#e6e6e6"/><path d="M1210.737,5056.4a5.811,5.811,0,0,1-4.915,1.2l.17,3.125s2.377,1.434,4.923-1.052Z" fill="#e6e6e6"/><path d="M1203.761,5058.861a5.806,5.806,0,0,1-4.914,1.2l.17,3.125s2.376,1.433,4.922-1.052Z" fill="#e6e6e6"/><path d="M1170.634,5050.807a61.492,61.492,0,0,1-17.363-1.651v-1.6s10.192,2.1,17.363,1.665Z" fill="#e6e6e6"/><path d="M1210.588,5050.842a35.821,35.821,0,0,1-13.186,1.655l-.4-1.554s8.02.129,13.19-1.642Z" fill="#e6e6e6"/><path d="M1209.833,5044.425a35.821,35.821,0,0,1-13.186,1.655l-.4-1.554s8.021.129,13.19-1.641Z" fill="#e6e6e6"/><path d="M1171.767,5045.145a61.51,61.51,0,0,1-17.364-1.651v-1.6s10.192,2.1,17.364,1.665Z" fill="#e6e6e6"/><path d="M1207.442,4944.565s22.008,15.736,30.222,27.86a148.906,148.906,0,0,1-14.354,12.7l-15.876-12.155S1201.081,4955.613,1207.442,4944.565Z"/><path d="M1236.413,4973.1c1.874,2.766,4.283,4.674,4.3,6.834,0,0,4.385,12.133-21.1,41.953,0,0-6.981,1.51-8.429-5.886l13.2-30.053-1.184-2C1226.061,4981.706,1231.491,4978.242,1236.413,4973.1Z" fill="#f2f2f2"/><path d="M1219.964,4983l3.335,4.413s13.909-.586,20.277-4.5c0,0-1.229-7.924-5.37-12.268C1238.206,4970.643,1227.615,4977.121,1219.964,4983Z"/><path d="M1211.184,5016s-7.666,3.691-10.823,8.961c0,0-1.3,2.423.427,3s.663,2.879,2.468,3.538,1.233,2.467,3.86,2.552a2.484,2.484,0,0,0,2.463,1.565c1.806-.163,5.993-.239,6.323-1.141s2.468-4.511,2.305-4.921-.615-.991-2.007-.517a11.521,11.521,0,0,0,2.066-2.385,13.857,13.857,0,0,0,1.347-4.32l-.4-7.716Z" fill="#f2f2f2"/><path d="M1207.442,4944.565s1.088,14.363.925,82.78c0,0-17.669,8.567-52.78,2.6,0,0-.084-20.541-4.995-38.812,0,0-8.893-34.333-4.4-44.38C1146.192,4946.75,1171.324,4929.732,1207.442,4944.565Z"/><path d="M1208.36,4998.929c.027,8.239.032,17.658.007,28.416,0,0-17.669,8.567-52.78,2.6,0,0-.084-20.541-4.995-38.812a234.144,234.144,0,0,1-4.84-24.784C1155.626,4981.017,1183.054,5016.321,1208.36,4998.929Z"/><path d="M1183.293,4937.745l.057,2.759s-2.463,2.915-7.837,2.706-7.609-3.336-7.609-3.336l.172-7.043C1174.367,4936.2,1180.643,4937.887,1183.293,4937.745Z" fill="#f2f2f2"/><path d="M1168.076,4932.831l.422-3.513a18.958,18.958,0,0,0,7.155,4.311c2.95.982,8.324.22,8.324.22l-.684,3.9C1180.643,4937.887,1174.367,4936.2,1168.076,4932.831Z" fill="#fff"/><path d="M1183.52,4936.246a10.791,10.791,0,0,1-6.013,6.88s-8.953-2.081-9.6-8.106l-4.913,5.041s2.848,8.625,9.99,11.289l4.465-6.807,6.068,5.615s5.639-6.466,5.159-10.855Z"/><path d="M1163.656,4939.378s10.529,27.018,8.615,100.058c0,0-4.472,1.338-21.081-1.69l-3.859-48.336s5.261-16.861,3.667-45.233C1151,4944.177,1154.479,4939.412,1163.656,4939.378Z" fill="#efc523"/><path d="M1172.466,5029.45a130.66,130.66,0,0,1-22.085-1.836l-.886-11.1a130.233,130.233,0,0,0,23.022,1.989Q1172.535,5023.777,1172.466,5029.45Z" fill="#efeeed"/><path d="M1148.73,5006.935l-.949-11.88a129.124,129.124,0,0,0,24.288,2.309q.225,5.546.345,11.7A129.8,129.8,0,0,1,1148.73,5006.935Z" fill="#efeeed"/><path d="M1151.954,5018.312s8.088,2.641,11.916,7.445c0,0,1.606,2.23-.025,3.03s-.275,2.941-1.977,3.833-.894,2.61-3.486,3.043a2.485,2.485,0,0,1-2.235,1.877c-1.811.079-5.972.559-6.418-.292s-3.045-4.143-2.938-4.572.479-1.063,1.921-.778a11.508,11.508,0,0,1-2.364-2.089,13.876,13.876,0,0,1-1.908-4.1l-.626-7.7Z" fill="#f2f2f2"/><path d="M1117.61,4984.845c8.763.136,12.409,4.779,15.2,5.979l-2.179,2.844,21.326,24.644c-.723,7.8-7.514,7.393-7.514,7.393-33.723-23.449-30.71-34.827-30.71-34.827C1113.988,4989.691,1117.082,4986.16,1117.61,4984.845Z" fill="#f2f2f2"/><path d="M1190.036,4939.522s6.131,33.669,5.116,99.914c0,0,11.818-1.17,19.179-7.38,0,0-.944-37.129-1.887-45.827,0,0-6.321-20.65-6.417-43.008C1206.027,4943.221,1198.392,4938.5,1190.036,4939.522Z" fill="#efc523"/><path d="M1194.773,4995.681a153.057,153.057,0,0,0,18.094-3.805c.19,3.253.374,7.293.544,11.549a152.7,152.7,0,0,1-18.319,3.91Q1194.969,5001.238,1194.773,4995.681Z" fill="#efeeed"/><path d="M1195.228,5016.751a151.955,151.955,0,0,0,18.525-3.986c.134,3.94.25,7.705.343,10.849a151.672,151.672,0,0,1-18.836,4.078Q1195.278,5022.041,1195.228,5016.751Z" fill="#efeeed"/><path d="M1146.192,4946.75c7.77,10.106,1.6,30.633,1.6,30.633l-13.67,13.983c-2.788-1.2-10.764-4.3-18.691-6.662C1123.892,4970.759,1146.192,4946.75,1146.192,4946.75Z"/><path d="M1135.2,4990.271l-2.776,4.784s-13.966.375-20.761-2.739a31.268,31.268,0,0,1,4.813-11.2A167.483,167.483,0,0,1,1135.2,4990.271Z"/><path d="M1045.571,4934.186a53.6,53.6,0,0,0-21.115.049l-1.251,8.986,24.44-.416Z" fill="#162635"/><path d="M1066.566,4972.968s-6.352-17.355.009-28.4c0,0,22.007,15.736,30.221,27.86,1.875,2.767,4.4,6.154,4.411,8.315,0,0,3.02,11.324-22.462,41.144,0,0-8.459.511-9.907-6.884l14.679-29.055-1.075-.822Z"/><path d="M1058.123,5025.026c2.566-4.284,7.846-7.613,10.406-9.05l2.786-8.8a15.336,15.336,0,0,1,15.36,7.5l-7.572,8.167h0a13.018,13.018,0,0,1-1.355,4.038,12.631,12.631,0,0,1-2.264,2.615c1.525-.521,2.02.115,2.2.565s-2.166,4.406-2.527,5.394-4.951,1.073-6.931,1.251a2.723,2.723,0,0,1-2.7-1.715c-2.88-.093-2.253-2.074-4.231-2.8s-.817-3.245-2.705-3.877S1058.123,5025.026,1058.123,5025.026Z" fill="#e6e6e6"/><path d="M1085.637,5017.26s-6.559-8.87-16.184-8.068l-.614,3.13s8.525,1.147,14.187,7.8Z" fill="#efc523"/><path d="M1020.147,5190.614H998.631s-1.264-5.863,3.226-13.413l14.5.253S1020.524,5183.443,1020.147,5190.614Z"/><rect width="21.516" height="3.397" transform="translate(998.811 5190.614)" fill="#e6e6e6"/><path d="M1001.273,5184.344c0,1.471,3.633,2.665,8.116,2.665s8.115-1.194,8.115-2.665-3.634-2.666-8.115-2.666S1001.273,5182.872,1001.273,5184.344Z"/><path d="M1013.532,5180.8a.755.755,0,0,0-.754-.755h-6.417a.755.755,0,0,0-.755.755h0a.755.755,0,0,0,.755.755h6.417a.755.755,0,0,0,.754-.755Z" fill="#e6e6e6"/><path d="M1013.532,5178.158a.755.755,0,0,0-.754-.755h-6.417a.755.755,0,0,0-.755.755h0a.755.755,0,0,0,.755.755h6.417a.755.755,0,0,0,.754-.755Z" fill="#e6e6e6"/><path d="M1048.026,5175.523s-1.668,8.675-.409,14.714h40.515s1.383-8.916-16.231-8.9l-11.3-7.639Z"/><path d="M1047.882,5193.686l40.389-.227v-3.222h-40.389Z" fill="#e6e6e6"/><path d="M1073.038,5181.409s.512,6.11,14.493,5.814C1087.531,5187.223,1085.444,5181.409,1073.038,5181.409Z"/><path d="M1060.7,5190.237s-.392-10.256-13.282-10.318c0,0-.684,6.921.322,10.318Z"/><path d="M1067.593,5183.777a.748.748,0,0,0,.512-.2l3.492-3.226a.755.755,0,1,0-1.025-1.109l-3.491,3.227a.755.755,0,0,0,.512,1.309Z" fill="#e6e6e6"/><path d="M1064.2,5181.512a.753.753,0,0,0,.512-.2l3.492-3.227a.755.755,0,0,0-1.025-1.109l-3.492,3.227a.755.755,0,0,0,.513,1.309Z" fill="#e6e6e6"/><path d="M1061.176,5179.247a.749.749,0,0,0,.512-.2l3.492-3.227a.755.755,0,1,0-1.025-1.109l-3.491,3.227a.755.755,0,0,0,.512,1.309Z" fill="#e6e6e6"/><path d="M1067.5,5027.345s2.416,57.515-.282,148.234a17.247,17.247,0,0,1-19.7,2.51s-4.506-95.48-6.052-121.18c0,0-10.335,57.315-21.2,120.521,0,0-11.563,5.333-19.186-1.094,0,0,8.477-97.9,13.642-146.394C1014.719,5029.942,1046.832,5034.176,1067.5,5027.345Z"/><path d="M1041.462,5056.909s9.732-4.517,12.623-8.344-7.247,22.648-11.72,26.81Z"/><path d="M1066.575,4944.565s1.087,14.363.924,82.78c0,0-17.668,8.567-52.78,2.6,0,0-.083-20.541-4.995-38.812,0,0-8.893-34.333-4.4-44.38C1005.324,4946.75,1030.456,4929.732,1066.575,4944.565Z"/><path d="M1067.493,4998.929c.027,8.239.032,17.658.006,28.416,0,0-17.668,8.567-52.78,2.6,0,0-.083-20.541-4.995-38.812a233.976,233.976,0,0,1-4.839-24.784C1014.758,4981.017,1042.186,5016.321,1067.493,4998.929Z"/><path d="M1022.832,5170.794l-1.441,8.422s-11.633,3.856-21.825-2.44v-8.435S1011,5173.248,1022.832,5170.794Z" fill="#ccc"/><path d="M1045.794,5170.354l.54,8.893s10.607,5.325,22.308-3.231v-9.06S1060.452,5171.109,1045.794,5170.354Z" fill="#ccc"/><path d="M1045.531,4938.889s1.623,11.654-4.505,31.785c0,0-11.4-21.741-17.821-30.75C1023.205,4939.924,1034.436,4937.224,1045.531,4938.889Z" fill="#c1c4c6"/><path d="M1042.425,4937.745l.058,2.759s-2.463,2.915-7.838,2.706-7.608-3.336-7.608-3.336l.172-7.043C1033.5,4936.2,1039.776,4937.887,1042.425,4937.745Z" fill="#f2f2f2"/><path d="M1027.209,4932.831l.363-9.355,15.465.6-.612,13.668C1039.776,4937.887,1033.5,4936.2,1027.209,4932.831Z" fill="#fff"/><path d="M1051.193,4939.893l-5.622-5.707-1.739,15.225,7.361,3.774S1051.789,4942.943,1051.193,4939.893Z" fill="#ccc"/><path d="M1019.268,4940.875l5.188-6.64,6.027,14.293-5.782,5.557S1019.811,4943.935,1019.268,4940.875Z" fill="#ccc"/><path d="M1043.267,5028.288a.944.944,0,0,0,.942-.905,339.654,339.654,0,0,0-2.249-56.847.944.944,0,0,0-1.867.277,337.75,337.75,0,0,1,2.23,56.494.944.944,0,0,0,.905.981Z" fill="#ccc"/><path d="M1034.06,4972.859l-15.385,1.147s-.712,19.722,9.962,19S1034.06,4972.859,1034.06,4972.859Z" fill="#ccc"/><path d="M1063.773,4971.933l-15.412.719s-1.259,19.7,9.431,19.265S1063.773,4971.933,1063.773,4971.933Z" fill="#ccc"/><rect width="3.02" height="9.814" transform="translate(1016.93 5025.285)" fill="#ccc"/><rect width="3.02" height="9.814" transform="translate(1032.028 5025.285)" fill="#ccc"/><rect width="3.02" height="9.814" transform="translate(1051.279 5025.285)" fill="#ccc"/><rect width="3.02" height="9.814" transform="translate(1062.603 5023.774)" fill="#ccc"/><path d="M1005.324,4946.75s-11.412,3.982-15.811,49.839c0,0-6.013,26.949-1.988,47.763a14.7,14.7,0,0,0,14.424-.575s3-34.017,3.085-42.074l5.77-19.83S1012.852,4950.753,1005.324,4946.75Z"/><path d="M985.411,5038.551c11.733-5.076,19.291.678,19.291.678l-3.087,12.081c1.09,1.51,2.855,3.979,3.726,5.33,1.043,1.614,5.04,4.588,5.04,4.588s-2.633,5.265-8.169-1.128c0,0-.092,8.477-1.977,8.671a3.184,3.184,0,0,1-2.9-.748,2.454,2.454,0,0,1-3.669-.2s-2.3,1.22-3.315-.551a2.429,2.429,0,0,1-3.09-1.156c-1.026-2.046-.505-2.107-1.123-6.173a37.086,37.086,0,0,1,1.323-6.869Z" fill="#e6e6e6"/><path d="M1004.718,5042.748s-10.565-5.655-19.846-.431l.795,3.346s9.057-2.808,17.725,1.09Z" fill="#efc523"/><path d="M1026.467,4895.766s12.771,4.919,16,4.677,11.816-3.986,11.816-3.986c3.161,2.609-.237,10.4-.237,10.4l-29.405,4.628-6.589,1.07a82.415,82.415,0,0,1-1.417-16.27C1022.6,4895.888,1026.467,4895.766,1026.467,4895.766Z"/><path d="M1020.73,4906.786l2.459,3.966a25.872,25.872,0,0,0,1.247-3.332,46.244,46.244,0,0,0,2.031-11.654,169.449,169.449,0,0,0,27.817.691c-.98,7.529,1.63,24.62-4.443,32.969a11.2,11.2,0,0,1-8.065,4.652c-16.016,1.963-19.884-15.126-19.884-15.126s-5.32-.54-6.091-7.935C1015.16,4904.892,1020.73,4906.786,1020.73,4906.786Z" fill="#f2f2f2"/><path d="M1045.449,4923.838s-4.436,1.157-11.372-.562c0,0,1.426,5.758,6.212,5.618C1044.551,4928.769,1045.449,4923.838,1045.449,4923.838Z"/><path d="M1045.269,4924.116a21.05,21.05,0,0,1-10.92-.54s.959,2.423,5.987,2.51C1044.805,4926.164,1045.269,4924.116,1045.269,4924.116Z" fill="#fff"/><path d="M1057.37,4892.352s10.6,3.969-1.753,5.372c0,0,5.191,5.82-12.24,6.373s-20.059-4.805-20.059-4.805-21.762.076-8.963-6.043S1057.37,4892.352,1057.37,4892.352Z" fill="#efc523"/><path d="M1057.03,4895.139a136.672,136.672,0,0,1-42.092.879s-6.258-24.964,20.149-26.583C1061.582,4867.812,1057.03,4895.139,1057.03,4895.139Z" fill="#ffb12b"/><path d="M1017.436,4878.032c4.02,15.842,27.534,17.587,36.3,17.679a140.384,140.384,0,0,1-38.8.307S1012.382,4885.815,1017.436,4878.032Z" fill="#efc523"/><path d="M1035.722,4898.215l-2.423-.995s1.206-21.712-4.992-26.7l.415-1.734S1041.658,4870.53,1035.722,4898.215Z" fill="#ea9c3f"/><path d="M1035.722,4898.215s1.478-25.68-7-29.432c0,0,4.344-1.755,12.32-.789,0,0,8.633,5.88,5.928,29.42A50.9,50.9,0,0,1,1035.722,4898.215Z" fill="#efc523"/><path d="M722.087,5004.45l-2.654-1.8a34.934,34.934,0,0,0-4.817-3.326c-2.609-1.255-3.494-5.871-3.494-5.871s-4.019.242-.672,7.379c0,0-8.293-.466-8.9,1.218a13.564,13.564,0,0,0,.319,2.635,2.783,2.783,0,0,0,.241,3.125s-1.348,1.936-.152,2.969a3.346,3.346,0,0,0,1.307,2.642c1.417,1.06,1.616.708,4.772,1.534,0,0,6.839.239,10-2.579Z" fill="#f2f2f2"/><path d="M723.023,4998l-5.951,1.173s-3.109,6.5,2.107,13.517l6.563-1.532Z" fill="#efc523"/><path d="M770.938,4944.492s-8.21,4.279-10.663,19.853c-2.014,12.782-9.456,25.312-9.456,25.312a250.609,250.609,0,0,0-28.707,7.606s-4.79,10.184,3.669,15.215c0,0,40.377-.62,43.238-13.547S782.231,4956.761,770.938,4944.492Z" fill="#efc523"/><path d="M817.366,5190.614h21.515s1.265-5.9-3.226-13.449l-14.5.271S816.988,5183.443,817.366,5190.614Z"/><rect width="21.516" height="3.397" transform="translate(817.56 5190.614)" fill="#e6e6e6"/><path d="M836.239,5184.271c0,1.471-3.633,2.665-8.115,2.665s-8.116-1.194-8.116-2.665,3.634-2.666,8.116-2.666S836.239,5182.8,836.239,5184.271Z"/><path d="M832.281,5180.8a.755.755,0,0,1-.755.755h-6.417a.755.755,0,0,1-.755-.755h0a.755.755,0,0,1,.755-.755h6.417a.755.755,0,0,1,.755.755Z" fill="#e6e6e6"/><path d="M832.281,5178.158a.755.755,0,0,1-.755.755h-6.417a.755.755,0,0,1-.755-.755h0a.755.755,0,0,1,.755-.755h6.417a.755.755,0,0,1,.755.755Z" fill="#e6e6e6"/><path d="M789.486,5175.486s1.668,8.712.41,14.751H749.381s-1.384-8.953,16.231-8.932l11.3-7.639Z"/><path d="M790,5193.612l-40.389-.226v-3.149H790Z" fill="#e6e6e6"/><path d="M764.475,5181.336s-.513,6.11-14.494,5.814C749.981,5187.15,752.068,5181.336,764.475,5181.336Z"/><path d="M776.81,5190.237s.392-10.256,13.282-10.318c0,0,.684,6.921-.322,10.318Z"/><path d="M769.919,5183.7a.748.748,0,0,1-.512-.2l-3.491-3.226a.755.755,0,0,1,1.024-1.109l3.492,3.227a.755.755,0,0,1-.513,1.309Z" fill="#e6e6e6"/><path d="M773.316,5181.439a.753.753,0,0,1-.512-.2l-3.491-3.227a.755.755,0,0,1,1.025-1.109l3.491,3.227a.755.755,0,0,1-.513,1.309Z" fill="#e6e6e6"/><path d="M776.336,5179.174a.753.753,0,0,1-.512-.2l-3.492-3.227a.755.755,0,0,1,1.025-1.109l3.492,3.227a.754.754,0,0,1-.513,1.309Z" fill="#e6e6e6"/><path d="M770.013,5027.272s-2.415,57.515.282,148.234a17.248,17.248,0,0,0,19.7,2.51s4.505-95.48,6.052-121.18c0,0,10.334,57.315,21.2,120.521,0,0,11.563,5.333,19.186-1.094,0,0-8.476-97.9-13.642-146.394C822.793,5029.869,790.681,5034.1,770.013,5027.272Z"/><path d="M796.051,5056.836s-9.733-4.517-12.623-8.344,7.246,22.648,11.719,26.81Z"/><path d="M770.938,4944.492s-1.088,14.363-.925,82.78c0,0,17.669,8.567,52.78,2.6,0,0,.084-20.541,4.995-38.812,0,0,8.894-34.333,4.4-44.38C832.188,4946.677,807.056,4929.659,770.938,4944.492Z" fill="#efc523"/><path d="M814.868,5170.721l1.535,8.422s11.726,3.856,21.917-2.44v-8.435S826.7,5173.175,814.868,5170.721Z" fill="#ccc"/><path d="M791.906,5170.281l-.447,8.893s-10.513,5.325-22.215-3.231v-9.059S777.248,5171.036,791.906,5170.281Z" fill="#ccc"/><path d="M795.087,4937.672l-.057,2.759s2.463,2.915,7.837,2.706,7.609-3.336,7.609-3.336l-.172-7.043C804.013,4936.131,797.737,4937.814,795.087,4937.672Z" fill="#f2f2f2"/><path d="M810.3,4932.758l-.364-9.355-15.464.6.611,13.668C797.737,4937.814,804.013,4936.131,810.3,4932.758Z" fill="#fff"/><path d="M784.967,4897.171l-.881-6.5s-2.9-17.375,20.06-17.008c19.94.319,18.626,19.552,18.626,19.552l-.629,7.792-4.842,7.728Z"/><path d="M820.519,4899.867l-2.977,4.266a28.49,28.49,0,0,1-1.185-3.785,51.186,51.186,0,0,1-1.022-15.174c-17.121,6.233-30.368,1.518-30.368,1.518,1.174,18.239-4.479,26.954,1.777,36.616a12.481,12.481,0,0,0,8.7,5.666c17.71,3.155,23.049-15.635,23.049-15.635s5.956-.279,7.262-8.464C826.835,4898.1,820.519,4899.867,820.519,4899.867Z" fill="#f2f2f2"/><path d="M783.688,4912.238s15.42,6.907,33.613-3.5a50.5,50.5,0,0,1,.666,6.094c.129,3.133,1.309,17.894-19.543,17.54C777.276,4932.011,783.688,4912.238,783.688,4912.238Z"/><path d="M793.447,4896.332a29.251,29.251,0,0,0-6.172,1.459c-2.418,1-2.343-1.029-1.575-1.819s4.907-2.989,7.117-2.434S794.505,4895.877,793.447,4896.332Z"/><path d="M802.734,4896.481a29.288,29.288,0,0,1,6.122,1.655c2.385,1.077,2.375-.952,1.633-1.767s-4.809-3.144-7.036-2.66S801.69,4895.993,802.734,4896.481Z"/><path d="M811.806,4929.722a.181.181,0,0,1-.123-.048c-4.173-3.729-4.1-16.236-4.093-16.77,0-.1.083-.1.179-.1h0c.1,0,.2,0,.2.108,0,.129-.084,12.91,3.96,16.526a.165.165,0,0,1,.018.246A.163.163,0,0,1,811.806,4929.722Z"/><path d="M816.795,4923.591a.185.185,0,0,1-.116-.041c-3.33-2.695-4.5-11.928-4.552-12.32a.189.189,0,0,1,.375-.046c.012.094,1.2,9.474,4.414,12.072a.188.188,0,0,1-.121.335Z"/><path d="M792.8,4918.372a2.585,2.585,0,0,1-.136-1.294c-.584-.1-.892-.19-.892-.19a5.729,5.729,0,0,0,.352,2.308C792.483,4918.454,792.8,4918.372,792.8,4918.372Z" fill="#511e14"/><path d="M802.938,4918.26a1.8,1.8,0,0,0,.012-1.333,31.3,31.3,0,0,1-10.29.151,2.585,2.585,0,0,0,.136,1.294s-.313.082-.676.824c.549,1.452,1.913,3.043,5.27,2.99,3.843-.06,5.431-1.863,6.089-3.375A1.325,1.325,0,0,0,802.938,4918.26Z" fill="#fff"/><path d="M803.945,4916.754c-.339.063-.669.119-.995.173a1.8,1.8,0,0,1-.012,1.333,1.325,1.325,0,0,1,.541.551A5.486,5.486,0,0,0,803.945,4916.754Z" fill="#511e14"/><path d="M770.042,5027.3l-1.009-9,4.9-1.837s2.139-60.118,7.646-75.548c0,0,3.24-1.88,6.193-1.338,0,0-3.332,26.555-2.55,37.5l24.568.189a272.18,272.18,0,0,1,8.23-36.53,13.5,13.5,0,0,1,7.149,2.408s-8.087,37.194-9.031,73.31c0,0,3.492,1.295,8.588,2.9l-1.934,10.512S789.409,5039.219,770.042,5027.3Z"/><path d="M781.6,4984.253s13.778.181,29.82.378c0,0-1.122,10.946-1.316,18.118,0,0-15.575,12.739-29.259-.377A62.794,62.794,0,0,1,781.6,4984.253Z" fill="#ccc"/><path d="M840.307,5049.663l-1.613,3.292s-3.77,4.751-3.807,6.893c-.048,2.749-1.848,6.624-1.848,6.624s2.909,1.882,4.289-2.844c0,0,.322,5.541,1.983,5.759a3.24,3.24,0,0,0,1.9-.441,2.17,2.17,0,0,0,3.248-.085s1.94.945,2.881-.594c0,0,1.224.96,2.154-.774.958-1.784,1.029-1.942,1.676-5.52,0,0-.1-7.358-2.986-10.01Z" fill="#f2f2f2"/><path d="M837.644,5047.109l.266,5.893s4.226,4.115,12.928.769l.46-5.5Z" fill="#f0f2f1"/><path d="M832.188,4946.677s13.776,2.926,18.891,52.468c0,0,5.554,28.652.685,50.524a15.54,15.54,0,0,1-15.224-1.034s-2.16-36.031-2.012-44.547l-5.362-23.352S824.116,4950.684,832.188,4946.677Z" fill="#efc523"/><path d="M883.973,4986.732a38.258,38.258,0,0,0-3.086,5.023s-5.194,7.009,13.466,31.56a5.556,5.556,0,0,0,6.614-4.854l-7.911-21.553,1.958-1.918C892.691,4993.254,888,4990.744,883.973,4986.732Z" fill="#f2f2f2"/><path d="M900.967,5018.461s6.185,2.8,8.8,6.945c0,0,1.079,1.908-.284,2.4s-.475,2.309-1.9,2.868-.937,1.992-3.031,2.109a1.982,1.982,0,0,1-1.936,1.294c-1.444-.1-4.785-.077-5.066-.79s-2.054-3.553-1.931-3.883.472-.8,1.592-.45a9.156,9.156,0,0,1-1.694-1.864,11.07,11.07,0,0,1-1.155-3.421l.175-6.163Z" fill="#f2f2f2"/><path d="M908.675,4961.051s-17.569,15.757-25.212,25.729c4.022,4.011,9.078,7.053,11.4,8.789l15.209-16.422S913.957,4969.744,908.675,4961.051Z" fill="#efc523"/><path d="M944.7,4908.73s14.541-8.776,10.775,45.267c0,0-5.27,4.174-15.4,0C940.075,4954,937.509,4917.686,944.7,4908.73Z"/><path d="M941.029,4957.715s-13.332-4.341-23.524-.42v0c-6.039,1.544-8.968,3.754-8.968,3.754l-1.435,8.94c-5.918,7.574-7.627,11.977-7.682,14.179-.125,4.954,5.551,9.358,5.551,9.358l.74,25.428c19.681,7.65,33.32.438,33.32.438,2.183-14.869,11.583-36.574,11.583-36.574l-.139-21.478A35.664,35.664,0,0,0,941.029,4957.715Z" fill="#efc523"/><path d="M923.911,4952.506l-.091,4.454s1.213,2.627,5.742,2.645,5.724-2.708,5.724-2.708l.067-7.158A17.435,17.435,0,0,1,923.911,4952.506Z" fill="#f2f2f2"/><path d="M935.353,4949.739l.037-9.362-11.431-.045-.048,12.174A17.371,17.371,0,0,0,935.353,4949.739Z" fill="#fff"/><path d="M932.936,4987.781c-7.54,2.513-23.842-1.963-33.6-3.281.123,4.818,5.591,9.028,5.591,9.028l.764,25.428c19.681,7.65,33.194.438,33.194.438,2.183-14.869,11.461-36.574,11.461-36.574v-6.866C944.683,4979.448,938.2,4986.027,932.936,4987.781Z" fill="#efc523"/><path d="M909.948,4925.549s-10.531-30.842,15.123-26.982c0,0,24.82-9.381,24,25.542C949.072,4924.109,925.237,4944.767,909.948,4925.549Z"/><path d="M907.867,4910.958c.291-4.462,1.765-8.788,5.787-11.067,9.932,10.486,19.558,4.05,24.775-1.255,3.3,1.383,6.46,4.173,8.472,9.443C938.424,4910.681,921.865,4914.6,907.867,4910.958Z" fill="#c66f54"/><path d="M945.321,4923.72l-1.435.548c-13.4-6.214-17.866-20.393-17.866-20.393-3.269,8.168-11.617,19.678-16.072,21.674a81.928,81.928,0,0,0,.9,10.44c.954,7.138,4.9,12.224,11.995,13.589,17.115,3.289,21.221-13.01,21.221-13.01s6.377-.132,6.773-8.4C951.163,4921.4,945.321,4923.72,945.321,4923.72Z" fill="#f2f2f2"/><path d="M942.5,4934.883s-4.1,12.1-13.544,13.777c-5.75,1.023-10.825-1.239-13.918-3.165a14.206,14.206,0,0,0,7.8,4.083c17.115,3.289,21.221-13.01,21.221-13.01s5.05-.145,6.437-5.939C946.511,4936.682,942.5,4934.883,942.5,4934.883Z" fill="#fff"/><path d="M926.671,4909.738s5.777,9.236,13.4,12.412c-9.982-6.709-14.055-18.275-14.055-18.275-2.906,7.26-9.822,17.154-14.452,20.667C914.745,4923.1,920.28,4919.367,926.671,4909.738Z"/><path d="M920.282,4939.535s4.429,1.184,11.375-.494c0,0-1.46,5.749-6.245,5.58C921.151,4944.472,920.282,4939.535,920.282,4939.535Z" fill="#56362e"/><path d="M920.46,4939.814a21.045,21.045,0,0,0,10.923-.475s-.972,2.417-6,2.475C920.913,4941.865,920.46,4939.814,920.46,4939.814Z" fill="#fff"/><path d="M950.211,5190.992h20.172s1.185-5.52-3.025-12.6l-13.591.248A21.857,21.857,0,0,0,950.211,5190.992Z"/><rect width="20.383" height="3.02" transform="translate(949.967 5190.992)" fill="#e6e6e6"/><path d="M967.906,5185.068c0,1.38-3.407,2.5-7.609,2.5s-7.609-1.119-7.609-2.5,3.407-2.5,7.609-2.5S967.906,5183.688,967.906,5185.068Z"/><rect width="7.549" height="1.51" rx="0.708" transform="translate(956.384 5181.178)" fill="#e6e6e6"/><rect width="7.549" height="1.51" rx="0.708" transform="translate(956.384 5178.536)" fill="#e6e6e6"/><path d="M926.337,5176.809s1.564,8.143.384,13.8H888.736s-1.3-8.369,15.217-8.35l10.595-7.162Z"/><path d="M926.564,5193.826l-38.124-.212v-3h38.124Z" fill="#e6e6e6"/><path d="M902.887,5182.316s-.48,5.729-13.588,5.451C889.3,5187.767,891.255,5182.316,902.887,5182.316Z"/><path d="M914.452,5190.614s.368-9.615,12.453-9.674c0,0,.641,6.655-.3,9.674Z"/><path d="M907.992,5184.537a.708.708,0,0,1-.48-.188l-3.274-3.026a.708.708,0,0,1,.961-1.039l3.273,3.025a.708.708,0,0,1-.48,1.228Z" fill="#e6e6e6"/><path d="M911.177,5182.413a.7.7,0,0,1-.48-.188l-3.274-3.025a.708.708,0,0,1,.961-1.04l3.273,3.026a.707.707,0,0,1-.48,1.227Z" fill="#e6e6e6"/><path d="M914.008,5180.29a.708.708,0,0,1-.48-.188l-3.274-3.025a.708.708,0,0,1,.961-1.04l3.273,3.025a.708.708,0,0,1-.48,1.228Z" fill="#e6e6e6"/><path d="M907.03,4910.557s-10.514,4.2,1.869,5.334c0,0-5.062,5.932,12.376,6.1s19.95-5.241,19.95-5.241,21.759-.4,8.829-6.236S907.03,4910.557,907.03,4910.557Z" fill="#efc523"/><path d="M907.431,4913.337a136.64,136.64,0,0,0,42.1-.039s5.712-25.095-20.724-26.137C902.284,4886.116,907.431,4913.337,907.431,4913.337Z" fill="#ffb12b"/><path d="M946.642,4895.371c-3.673,15.926-27.143,18.184-35.911,18.466a140.347,140.347,0,0,0,38.8-.539S951.865,4903.042,946.642,4895.371Z" fill="#efc523"/><path d="M928.8,4915.948l2.4-1.048s-1.68-21.68,4.408-26.8l-.453-1.725S922.263,4888.4,928.8,4915.948Z" fill="#ea9c3f"/><path d="M928.8,4915.948s-2.037-25.642,6.357-29.578c0,0-4.381-1.659-12.334-.52,0,0-8.5,6.067-5.285,29.542A50.9,50.9,0,0,0,928.8,4915.948Z" fill="#efc523"/><path d="M941.309,5018.956l2.139-9.025-11.248-3.775L931.657,4982s6.251-19.2,12.513-23.439c0,0-1.852-1.811-6.257-1.706,0,0-8.5,8.41-12.9,25.207l-17.706-.849s4.971-18.255,13.154-24.751c0,0-4.036.249-6.259,1.931,0,0-6.707,6.557-11.614,22.537L899.4,4984.5l4.914,34.456s-12.921,25.135-.308,91.444c0,0,5.583,54.848,5.335,67.508,0,0,9.284,5.531,18.721.624,0,0-1.822-33.33-3.032-66.182-.716-19.445-.488-39.394-.649-50.337h.649s13.759,52.544,26.341,115.959c0,0,6.871,5.844,17.779-.447,0,0-3.648-51.588-13.23-76C955.924,5101.529,957.918,5045.093,941.309,5018.956Z"/><path d="M902.3,4987.723l25.1.567s3.59,16.6-13.4,16.608C900.48,5004.9,902.3,4987.723,902.3,4987.723Z" fill="#ccc"/><path d="M923.922,5062.013s-6.857-2.69-8.87-4.612c0,0,2.453,11.289,8.87,17.454Z"/><path d="M907.937,5170.1l.763,8.43s10.464,6.165,20.027,0l.5-8.43S918.35,5174,907.937,5170.1Z"/><path d="M949.016,5171.549l1.59,7.015s7.288,6.592,19.744-.494v-7.842S958.623,5174.758,949.016,5171.549Z"/><path d="M955.532,5048.794l-1.2,2.954s-2.994,4.349-2.9,6.211a18.278,18.278,0,0,1-1.213,5.862s2.637,1.462,3.557-2.724c0,0,.96,6.715,2.415,6.806,0,0,1.51.22,1.267-2.417,0,0,1.5,3.026,2.816-.265,0,0,1.741.7,2.467-.687,0,0,1.12.761,1.825-.8.726-1.6.779-1.747,1.129-4.893,0,0-.525-6.383-3.185-8.516Z" fill="#f2f2f2"/><path d="M963.955,5009.64c-6.355,2-10.207,1.754-12.421,1.109a1.039,1.039,0,0,1,0,.236l2.668,40.947c6.658,2.024,8.3-1.607,8.3-1.607,3.185-17.306,1.519-40.1,1.519-40.1C964.018,5010.091,963.962,5009.778,963.955,5009.64Z" fill="#f2f2f2"/><path d="M964,5009.819c-2.29-43.965-13.458-48.477-13.458-48.477-9.378,4.7.4,47.121.964,49.531C953.722,5011.519,957.648,5011.824,964,5009.819Z" fill="#efc523"/><path d="M782.627,4881.568s-10.6,3.97,1.752,5.373c0,0-5.19,5.82,12.24,6.372s20.06-4.805,20.06-4.805,21.762.077,8.963-6.042S782.627,4881.568,782.627,4881.568Z" fill="#efc523"/><path d="M782.966,4884.356a136.664,136.664,0,0,0,42.093.878s6.257-24.964-20.149-26.582C778.414,4857.028,782.966,4884.356,782.966,4884.356Z" fill="#ffb12b"/><path d="M822.561,4867.248c-4.02,15.842-27.534,17.588-36.306,17.68a140.349,140.349,0,0,0,38.8.306S827.615,4875.031,822.561,4867.248Z" fill="#efc523"/><path d="M804.275,4887.431l2.423-1s-1.206-21.711,4.991-26.7l-.414-1.735S798.339,4859.747,804.275,4887.431Z" fill="#ea9c3f"/><path d="M804.275,4887.431s-1.479-25.68,7-29.432c0,0-4.345-1.754-12.321-.788,0,0-8.632,5.88-5.927,29.419A50.914,50.914,0,0,0,804.275,4887.431Z" fill="#efc523"/></g></svg>