<svg xmlns="http://www.w3.org/2000/svg" width="1290.165" height="503.722" viewBox="0 0 1290.165 503.722"><g transform="translate(3.749 -123.829)"><ellipse cx="269.781" cy="15.756" rx="269.781" ry="15.756" transform="translate(358.138 591.268)" fill="#f5f5f5"/><g transform="translate(0 -3189.36)"><rect width="68.771" height="290.823" transform="translate(260.949 3495.926)" fill="#ececec"/><rect width="20.902" height="40.279" transform="translate(273.766 3516.311)" fill="#fff"/><path d="M284.806,3556.591c-.154,0-.279-9.018-.279-20.139s.125-20.141.279-20.141.28,9.016.28,20.141S284.961,3556.591,284.806,3556.591Z" fill="none" stroke="#000" stroke-miterlimit="10" stroke-width="1.14"/><path d="M294.668,3530.3a97.625,97.625,0,0,1-10.45.28,97.649,97.649,0,0,1-10.452-.28,98.127,98.127,0,0,1,10.452-.279A98.1,98.1,0,0,1,294.668,3530.3Z" fill="none" stroke="#000" stroke-miterlimit="10" stroke-width="1.14"/><path d="M294.778,3544.71a99.227,99.227,0,0,1-10.536.28,99.25,99.25,0,0,1-10.538-.28,99.736,99.736,0,0,1,10.538-.279A99.713,99.713,0,0,1,294.778,3544.71Z" fill="none" stroke="#000" stroke-miterlimit="10" stroke-width="1.14"/><rect width="20.902" height="40.279" transform="translate(273.766 3568.924)" fill="#fff"/><path d="M284.806,3609.2c-.154,0-.279-9.018-.279-20.139s.125-20.141.279-20.141.28,9.016.28,20.141S284.961,3609.2,284.806,3609.2Z" fill="none" stroke="#000" stroke-miterlimit="10" stroke-width="1.14"/><path d="M294.668,3582.918a97.625,97.625,0,0,1-10.45.28,97.649,97.649,0,0,1-10.452-.28,98.127,98.127,0,0,1,10.452-.279A98.1,98.1,0,0,1,294.668,3582.918Z" fill="none" stroke="#000" stroke-miterlimit="10" stroke-width="1.14"/><path d="M294.778,3597.324a99.713,99.713,0,0,1-10.536.279,99.736,99.736,0,0,1-10.538-.279,99.25,99.25,0,0,1,10.538-.28A99.227,99.227,0,0,1,294.778,3597.324Z" fill="none" stroke="#000" stroke-miterlimit="10" stroke-width="1.14"/><rect width="20.902" height="40.279" transform="translate(273.766 3621.538)" fill="#fff"/><path d="M284.806,3661.817c-.154,0-.279-9.018-.279-20.139s.125-20.14.279-20.14.28,9.015.28,20.14S284.961,3661.817,284.806,3661.817Z" fill="none" stroke="#000" stroke-miterlimit="10" stroke-width="1.14"/><path d="M294.668,3635.532a98.1,98.1,0,0,1-10.45.279,98.127,98.127,0,0,1-10.452-.279,97.649,97.649,0,0,1,10.452-.28A97.625,97.625,0,0,1,294.668,3635.532Z" fill="none" stroke="#000" stroke-miterlimit="10" stroke-width="1.14"/><path d="M294.778,3649.937a99.713,99.713,0,0,1-10.536.279,99.736,99.736,0,0,1-10.538-.279,99.25,99.25,0,0,1,10.538-.28A99.227,99.227,0,0,1,294.778,3649.937Z" fill="none" stroke="#000" stroke-miterlimit="10" stroke-width="1.14"/><rect width="20.902" height="40.279" transform="translate(273.766 3674.151)" fill="#fff"/><path d="M284.806,3714.43c-.154,0-.279-9.017-.279-20.138s.125-20.141.279-20.141.28,9.016.28,20.141S284.961,3714.43,284.806,3714.43Z" fill="none" stroke="#000" stroke-miterlimit="10" stroke-width="1.14"/><path d="M294.668,3688.145a98.1,98.1,0,0,1-10.45.279,98.127,98.127,0,0,1-10.452-.279,97.957,97.957,0,0,1,10.452-.28A97.933,97.933,0,0,1,294.668,3688.145Z" fill="none" stroke="#000" stroke-miterlimit="10" stroke-width="1.14"/><path d="M294.778,3702.55a99.713,99.713,0,0,1-10.536.279,99.736,99.736,0,0,1-10.538-.279,99.563,99.563,0,0,1,10.538-.28A99.54,99.54,0,0,1,294.778,3702.55Z" fill="none" stroke="#000" stroke-miterlimit="10" stroke-width="1.14"/><rect width="50.108" height="290.823" transform="translate(308.859 3495.926)" fill="none" stroke="#000" stroke-miterlimit="10" stroke-width="1.14"/><rect width="20.902" height="40.279" transform="translate(324.419 3516.311)" fill="#fff"/><path d="M335.459,3556.591c-.154,0-.279-9.018-.279-20.139s.125-20.141.279-20.141.279,9.016.279,20.141S335.613,3556.591,335.459,3556.591Z" fill="none" stroke="#000" stroke-miterlimit="10" stroke-width="1.14"/><path d="M345.321,3530.3a97.626,97.626,0,0,1-10.45.28,97.633,97.633,0,0,1-10.452-.28,98.111,98.111,0,0,1,10.452-.279A98.1,98.1,0,0,1,345.321,3530.3Z" fill="none" stroke="#000" stroke-miterlimit="10" stroke-width="1.14"/><path d="M345.431,3544.71a99.242,99.242,0,0,1-10.536.28,99.25,99.25,0,0,1-10.538-.28,99.737,99.737,0,0,1,10.538-.279A99.728,99.728,0,0,1,345.431,3544.71Z" fill="none" stroke="#000" stroke-miterlimit="10" stroke-width="1.14"/><rect width="20.902" height="40.279" transform="translate(324.419 3569.356)" fill="#fff"/><path d="M335.459,3609.635c-.154,0-.279-9.017-.279-20.138s.125-20.141.279-20.141.279,9.016.279,20.141S335.613,3609.635,335.459,3609.635Z" fill="none" stroke="#000" stroke-miterlimit="10" stroke-width="1.14"/><path d="M345.321,3583.35a98.224,98.224,0,0,1-10.45.279,98.231,98.231,0,0,1-10.452-.279,98.111,98.111,0,0,1,10.452-.279A98.1,98.1,0,0,1,345.321,3583.35Z" fill="none" stroke="#000" stroke-miterlimit="10" stroke-width="1.14"/><path d="M345.431,3597.755a99.242,99.242,0,0,1-10.536.28,99.25,99.25,0,0,1-10.538-.28,99.859,99.859,0,0,1,10.538-.279A99.851,99.851,0,0,1,345.431,3597.755Z" fill="none" stroke="#000" stroke-miterlimit="10" stroke-width="1.14"/><rect width="20.902" height="40.279" transform="translate(324.419 3622.401)" fill="#fff"/><path d="M335.459,3662.68c-.154,0-.279-9.017-.279-20.138s.125-20.141.279-20.141.279,9.016.279,20.141S335.613,3662.68,335.459,3662.68Z" fill="none" stroke="#000" stroke-miterlimit="10" stroke-width="1.14"/><path d="M345.321,3636.4a98.1,98.1,0,0,1-10.45.279,98.111,98.111,0,0,1-10.452-.279,98.111,98.111,0,0,1,10.452-.279A98.1,98.1,0,0,1,345.321,3636.4Z" fill="none" stroke="#000" stroke-miterlimit="10" stroke-width="1.14"/><path d="M345.431,3650.8a99.555,99.555,0,0,1-10.536.28,99.564,99.564,0,0,1-10.538-.28,99.737,99.737,0,0,1,10.538-.279A99.728,99.728,0,0,1,345.431,3650.8Z" fill="none" stroke="#000" stroke-miterlimit="10" stroke-width="1.14"/><rect width="20.902" height="40.279" transform="translate(324.419 3675.446)" fill="#fff"/><path d="M335.459,3715.725c-.154,0-.279-9.017-.279-20.138s.125-20.141.279-20.141.279,9.016.279,20.141S335.613,3715.725,335.459,3715.725Z" fill="none" stroke="#000" stroke-miterlimit="10" stroke-width="1.14"/><path d="M345.321,3689.44a98.1,98.1,0,0,1-10.45.279,98.111,98.111,0,0,1-10.452-.279,97.941,97.941,0,0,1,10.452-.28A97.934,97.934,0,0,1,345.321,3689.44Z" fill="none" stroke="#000" stroke-miterlimit="10" stroke-width="1.14"/><path d="M345.431,3703.845a99.555,99.555,0,0,1-10.536.28,99.564,99.564,0,0,1-10.538-.28,99.737,99.737,0,0,1,10.538-.279A99.728,99.728,0,0,1,345.431,3703.845Z" fill="none" stroke="#000" stroke-miterlimit="10" stroke-width="1.14"/><rect width="20.902" height="40.279" transform="translate(273.766 3726.764)" fill="#fff"/><path d="M284.806,3767.044c-.154,0-.279-9.018-.279-20.139s.125-20.141.279-20.141.28,9.016.28,20.141S284.961,3767.044,284.806,3767.044Z" fill="none" stroke="#000" stroke-miterlimit="10" stroke-width="1.14"/><path d="M294.668,3740.758a97.933,97.933,0,0,1-10.45.28,97.957,97.957,0,0,1-10.452-.28,98.127,98.127,0,0,1,10.452-.279A98.1,98.1,0,0,1,294.668,3740.758Z" fill="none" stroke="#000" stroke-miterlimit="10" stroke-width="1.14"/><path d="M294.778,3755.163a99.227,99.227,0,0,1-10.536.28,99.25,99.25,0,0,1-10.538-.28,99.736,99.736,0,0,1,10.538-.279A99.713,99.713,0,0,1,294.778,3755.163Z" fill="none" stroke="#000" stroke-miterlimit="10" stroke-width="1.14"/><rect width="20.902" height="40.279" transform="translate(324.419 3728.491)" fill="#fff"/><path d="M335.459,3768.77c-.154,0-.279-9.017-.279-20.139s.125-20.14.279-20.14.279,9.016.279,20.14S335.613,3768.77,335.459,3768.77Z" fill="none" stroke="#000" stroke-miterlimit="10" stroke-width="1.14"/><path d="M345.321,3742.485a98.224,98.224,0,0,1-10.45.279,98.231,98.231,0,0,1-10.452-.279,97.941,97.941,0,0,1,10.452-.28A97.934,97.934,0,0,1,345.321,3742.485Z" fill="none" stroke="#000" stroke-miterlimit="10" stroke-width="1.14"/><path d="M345.431,3756.89a99.728,99.728,0,0,1-10.536.279,99.737,99.737,0,0,1-10.538-.279,99.686,99.686,0,0,1,10.538-.28A99.677,99.677,0,0,1,345.431,3756.89Z" fill="none" stroke="#000" stroke-miterlimit="10" stroke-width="1.14"/><rect width="159.031" height="255.889" transform="translate(155.852 3781.132) rotate(180)" fill="none" stroke="#000" stroke-miterlimit="10" stroke-width="1.14"/><path d="M92.165,3781.132l85.3.123V3525.243h-85.3Z" fill="none" stroke="#000" stroke-miterlimit="10" stroke-width="1.14"/><rect width="29.09" height="29.09" transform="translate(37.578 3712.193) rotate(180)" fill="#ececec"/><path d="M21.918,3715.11c-.152,0-.275-7.516-.275-16.786s.123-16.788.275-16.788.276,7.515.276,16.788S22.071,3715.11,21.918,3715.11Z" fill="none" stroke="#000" stroke-miterlimit="10" stroke-width="1.14"/><path d="M3.025,3692.857c0-.153,8.46-.276,18.893-.276s18.893.123,18.893.276-8.457.275-18.893.275S3.025,3693.009,3.025,3692.857Z" fill="none" stroke="#000" stroke-miterlimit="10" stroke-width="1.14"/><rect width="29.09" height="29.09" transform="translate(79.062 3712.193) rotate(180)" fill="#ececec"/><path d="M63.4,3715.11c-.152,0-.276-7.516-.276-16.786s.124-16.788.276-16.788.275,7.515.275,16.788S63.555,3715.11,63.4,3715.11Z" fill="none" stroke="#000" stroke-miterlimit="10" stroke-width="1.14"/><path d="M44.51,3692.857c0-.153,8.459-.276,18.892-.276s18.894.123,18.894.276-8.458.275-18.894.275S44.51,3693.009,44.51,3692.857Z" fill="none" stroke="#000" stroke-miterlimit="10" stroke-width="1.14"/><rect width="29.09" height="29.09" transform="translate(37.578 3666.241) rotate(180)" fill="#ececec"/><path d="M21.918,3669.158c-.152,0-.275-7.516-.275-16.786s.123-16.788.275-16.788.276,7.515.276,16.788S22.071,3669.158,21.918,3669.158Z" fill="none" stroke="#000" stroke-miterlimit="10" stroke-width="1.14"/><path d="M3.025,3646.905c0-.152,8.46-.276,18.893-.276s18.893.124,18.893.276-8.457.276-18.893.276S3.025,3647.057,3.025,3646.905Z" fill="none" stroke="#000" stroke-miterlimit="10" stroke-width="1.14"/><rect width="29.09" height="29.09" transform="translate(79.062 3666.241) rotate(180)" fill="#ececec"/><path d="M63.4,3669.158c-.152,0-.276-7.516-.276-16.786s.124-16.788.276-16.788.275,7.515.275,16.788S63.555,3669.158,63.4,3669.158Z" fill="none" stroke="#000" stroke-miterlimit="10" stroke-width="1.14"/><path d="M44.51,3646.905c0-.152,8.459-.276,18.892-.276s18.894.124,18.894.276-8.458.276-18.894.276S44.51,3647.057,44.51,3646.905Z" fill="none" stroke="#000" stroke-miterlimit="10" stroke-width="1.14"/><rect width="29.09" height="29.09" transform="translate(37.578 3620.183) rotate(180)" fill="#ececec"/><path d="M21.918,3623.1c-.152,0-.275-7.516-.275-16.786s.123-16.787.275-16.787.276,7.514.276,16.787S22.071,3623.1,21.918,3623.1Z" fill="none" stroke="#000" stroke-miterlimit="10" stroke-width="1.14"/><path d="M3.025,3600.847c0-.152,8.46-.276,18.893-.276s18.893.124,18.893.276-8.457.276-18.893.276S3.025,3601,3.025,3600.847Z" fill="none" stroke="#000" stroke-miterlimit="10" stroke-width="1.14"/><rect width="29.09" height="29.09" transform="translate(79.062 3620.183) rotate(180)" fill="#ececec"/><path d="M63.4,3623.1c-.152,0-.276-7.516-.276-16.786s.124-16.787.276-16.787.275,7.514.275,16.787S63.555,3623.1,63.4,3623.1Z" fill="none" stroke="#000" stroke-miterlimit="10" stroke-width="1.14"/><path d="M44.51,3600.847c0-.152,8.459-.276,18.892-.276s18.894.124,18.894.276-8.458.276-18.894.276S44.51,3601,44.51,3600.847Z" fill="none" stroke="#000" stroke-miterlimit="10" stroke-width="1.14"/><g opacity="0.7"><rect width="29.09" height="29.09" transform="translate(150.472 3620.183) rotate(180)" fill="#fff"/></g><path d="M135.927,3623.1c-.152,0-.275-7.516-.275-16.786s.123-16.787.275-16.787.276,7.514.276,16.787S136.08,3623.1,135.927,3623.1Z" fill="none" stroke="#000" stroke-miterlimit="10" stroke-width="1.14"/><path d="M115.92,3600.847c0-.152,8.459-.276,18.892-.276s18.894.124,18.894.276-8.457.276-18.894.276S115.92,3601,115.92,3600.847Z" fill="none" stroke="#000" stroke-miterlimit="10" stroke-width="1.14"/><rect width="29.09" height="29.09" transform="translate(37.578 3573.454) rotate(180)" fill="#ececec"/><path d="M21.918,3576.371c-.152,0-.275-7.516-.275-16.786s.123-16.788.275-16.788.276,7.515.276,16.788S22.071,3576.371,21.918,3576.371Z" fill="none" stroke="#000" stroke-miterlimit="10" stroke-width="1.14"/><path d="M3.025,3554.118c0-.152,8.46-.276,18.893-.276s18.893.124,18.893.276-8.457.275-18.893.275S3.025,3554.27,3.025,3554.118Z" fill="none" stroke="#000" stroke-miterlimit="10" stroke-width="1.14"/><rect width="29.09" height="29.09" transform="translate(79.062 3573.454) rotate(180)" fill="#ececec"/><path d="M63.4,3576.371c-.152,0-.276-7.516-.276-16.786s.124-16.788.276-16.788.275,7.515.275,16.788S63.555,3576.371,63.4,3576.371Z" fill="none" stroke="#000" stroke-miterlimit="10" stroke-width="1.14"/><path d="M44.51,3554.118c0-.152,8.459-.276,18.892-.276s18.894.124,18.894.276-8.458.275-18.894.275S44.51,3554.27,44.51,3554.118Z" fill="none" stroke="#000" stroke-miterlimit="10" stroke-width="1.14"/><g opacity="0.7"><rect width="29.09" height="29.09" transform="translate(150.472 3573.454) rotate(180)" fill="#fff"/></g><path d="M135.927,3576.371c-.152,0-.275-7.516-.275-16.786s.123-16.788.275-16.788.276,7.515.276,16.788S136.08,3576.371,135.927,3576.371Z" fill="none" stroke="#000" stroke-miterlimit="10" stroke-width="1.14"/><path d="M115.92,3554.118c0-.152,8.459-.276,18.892-.276s18.894.124,18.894.276-8.457.275-18.894.275S115.92,3554.27,115.92,3554.118Z" fill="none" stroke="#000" stroke-miterlimit="10" stroke-width="1.14"/><g opacity="0.7"><rect width="29.09" height="29.09" transform="translate(150.472 3666.695) rotate(180)" fill="#fff"/></g><path d="M135.927,3669.612c-.152,0-.275-7.516-.275-16.786s.123-16.788.275-16.788.276,7.515.276,16.788S136.08,3669.612,135.927,3669.612Z" fill="none" stroke="#000" stroke-miterlimit="10" stroke-width="1.14"/><path d="M115.92,3647.359c0-.152,8.459-.276,18.892-.276s18.894.124,18.894.276-8.457.275-18.894.275S115.92,3647.511,115.92,3647.359Z" fill="none" stroke="#000" stroke-miterlimit="10" stroke-width="1.14"/><g opacity="0.7"><rect width="29.09" height="29.09" transform="translate(150.472 3713.207) rotate(180)" fill="#fff"/></g><path d="M135.927,3716.124c-.152,0-.275-7.517-.275-16.786s.123-16.788.275-16.788.276,7.515.276,16.788S136.08,3716.124,135.927,3716.124Z" fill="none" stroke="#000" stroke-miterlimit="10" stroke-width="1.14"/><path d="M115.92,3693.87c0-.152,8.459-.275,18.892-.275s18.894.123,18.894.275-8.457.276-18.894.276S115.92,3694.023,115.92,3693.87Z" fill="none" stroke="#000" stroke-miterlimit="10" stroke-width="1.14"/><path d="M30.171,3781.1a1,1,0,0,1-.025-.261l-.023-.768c-.011-.711-.026-1.7-.046-2.971-.019-2.625-.046-6.384-.079-11.071-.024-9.462-.058-22.665-.1-37.792v-.269h.27l15.147-.006,14.662.006h.27v.269c-.038,15.249-.071,28.575-.1,38.129-.034,4.734-.061,8.531-.08,11.183-.019,1.281-.035,2.284-.045,3-.01.32-.018.575-.024.777a1.028,1.028,0,0,1-.025.264,1.132,1.132,0,0,1-.024-.264c-.006-.2-.014-.457-.024-.777-.011-.718-.026-1.721-.045-3-.02-2.652-.047-6.449-.08-11.183-.024-9.554-.058-22.88-.1-38.129l.269.269-14.662.007-15.147-.007.268-.269c-.038,15.127-.071,28.33-.095,37.792-.034,4.687-.061,8.446-.08,11.071q-.028,1.9-.045,2.971l-.024.768A1.1,1.1,0,0,1,30.171,3781.1Z" fill="none" stroke="#000" stroke-miterlimit="10" stroke-width="1.14"/><rect width="10.161" height="24.32" transform="translate(56.229 3755.7) rotate(180)" fill="none" stroke="#000" stroke-miterlimit="10" stroke-width="1.14"/><path d="M56.256,3755.726H46.042v-24.374H56.256Zm-10.16-.053H56.2v-24.267H46.1Z" fill="none" stroke="#000" stroke-miterlimit="10" stroke-width="1.14"/><rect width="10.161" height="24.32" transform="translate(44.082 3755.7) rotate(180)" fill="none" stroke="#000" stroke-miterlimit="10" stroke-width="1.14"/><path d="M44.109,3755.726H33.9v-24.374H44.109Zm-10.161-.053H44.055v-24.267H33.948Z" fill="none" stroke="#000" stroke-miterlimit="10" stroke-width="1.14"/><path d="M33.714,3758.215c.018.087-.5.081-.734.657a1.175,1.175,0,0,0,.006.976.967.967,0,0,0,.971.485,1.011,1.011,0,0,0,.735-.821.949.949,0,0,0-.343-.877c-.477-.405-.946-.3-.954-.386-.051-.048.47-.359,1.186.073a1.326,1.326,0,0,1,.615,1.253,1.479,1.479,0,0,1-1.13,1.3,1.442,1.442,0,0,1-1.532-.792,1.507,1.507,0,0,1,.1-1.389,1.063,1.063,0,0,1,.75-.539C33.6,3758.128,33.716,3758.183,33.714,3758.215Z" fill="none" stroke="#000" stroke-miterlimit="10" stroke-width="1.14"/><rect width="74.112" height="205.945" transform="translate(292.203 3781.133) rotate(180)" fill="none" stroke="#000" stroke-miterlimit="10" stroke-width="1.14"/><g opacity="0.4"><rect width="37.056" height="205.945" transform="translate(292.203 3781.133) rotate(180)"/></g><rect width="61.772" height="205.945" transform="translate(240.068 3781.133) rotate(180)" fill="none" stroke="#000" stroke-miterlimit="10" stroke-width="1.14"/><rect width="20.803" height="48.377" transform="translate(224.47 3591.829)" fill="#fafafa"/><path d="M224.47,3640.206a1.292,1.292,0,0,1-.013-.221c0-.172-.008-.4-.013-.679-.006-.627-.015-1.517-.027-2.659-.014-2.357-.033-5.755-.058-10.018-.025-8.62-.06-20.732-.1-34.8v-.212h.212l20.8-.01c.45.442.124.13.225.233v3.5q0,1.746,0,3.468,0,3.444,0,6.783c-.005,4.447-.009,8.74-.013,12.832-.017,8.18-.033,15.559-.046,21.783v.16h-.158l-15.27-.086-4.121-.039-1.061-.017a2.589,2.589,0,0,1-.351-.017,3.741,3.741,0,0,1,.383-.016l1.09-.017,4.156-.04,15.174-.085-.159.158c-.013-6.224-.029-13.6-.046-21.783,0-4.092-.009-8.385-.013-12.832q0-3.336,0-6.783,0-1.722,0-3.468v-3.5c.1.1-.219-.235.219.211l-20.8-.01.212-.212c-.041,14.01-.076,26.072-.1,34.657-.025,4.283-.045,7.7-.059,10.066-.012,1.161-.021,2.065-.027,2.7-.005.294-.01.526-.013.7A1.96,1.96,0,0,1,224.47,3640.206Z" fill="none" stroke="#000" stroke-miterlimit="10" stroke-width="1.14"/><path d="M224.138,3601.723c0-.122,4.8-.222,10.711-.222s10.712.1,10.712.222-4.795.223-10.712.223S224.138,3601.846,224.138,3601.723Z" fill="none" stroke="#000" stroke-miterlimit="10" stroke-width="1.14"/><path d="M234.65,3639.839c-.123,0-.222-8.5-.222-18.988s.1-18.989.222-18.989.222,8.5.222,18.989S234.773,3639.839,234.65,3639.839Z" fill="none" stroke="#000" stroke-miterlimit="10" stroke-width="1.14"/><rect width="20.803" height="48.377" transform="translate(186.946 3591.829)" fill="#fafafa"/><path d="M186.946,3640.206a1.292,1.292,0,0,1-.013-.221c0-.172-.008-.4-.013-.679-.006-.627-.015-1.517-.027-2.659-.013-2.357-.033-5.755-.058-10.018-.025-8.62-.06-20.732-.1-34.8v-.212h.212l20.8-.01c.451.442.125.13.226.233v3.5q0,1.746,0,3.468,0,3.444,0,6.783c0,4.447-.009,8.74-.013,12.832-.017,8.18-.033,15.559-.046,21.783v.16h-.158l-15.27-.086-4.121-.039-1.061-.017a2.589,2.589,0,0,1-.351-.017,3.741,3.741,0,0,1,.383-.016l1.09-.017,4.156-.04,15.174-.085-.159.158c-.013-6.224-.029-13.6-.046-21.783,0-4.092-.009-8.385-.013-12.832q0-3.336,0-6.783,0-1.722,0-3.468v-3.5c.1.1-.219-.235.218.211l-20.8-.01.212-.212c-.041,14.01-.076,26.072-.1,34.657-.025,4.283-.045,7.7-.059,10.066-.012,1.161-.021,2.065-.027,2.7-.005.294-.01.526-.013.7A1.745,1.745,0,0,1,186.946,3640.206Z" fill="none" stroke="#000" stroke-miterlimit="10" stroke-width="1.14"/><path d="M186.614,3601.723c0-.122,4.8-.222,10.711-.222s10.712.1,10.712.222-4.795.223-10.712.223S186.614,3601.846,186.614,3601.723Z" fill="none" stroke="#000" stroke-miterlimit="10" stroke-width="1.14"/><path d="M197.126,3639.839c-.123,0-.222-8.5-.222-18.988s.1-18.989.222-18.989.222,8.5.222,18.989S197.249,3639.839,197.126,3639.839Z" fill="none" stroke="#000" stroke-miterlimit="10" stroke-width="1.14"/><rect width="20.803" height="48.377" transform="translate(224.47 3652.445)" fill="#fafafa"/><path d="M224.47,3700.822a1.328,1.328,0,0,1-.013-.222c0-.171-.008-.4-.013-.678-.006-.628-.015-1.517-.027-2.659-.014-2.358-.033-5.756-.058-10.018-.025-8.621-.06-20.732-.1-34.8v-.212h.212l20.8-.01c.45.442.124.13.225.232v3.5q0,1.746,0,3.469,0,3.444,0,6.782c-.005,4.448-.009,8.74-.013,12.833-.017,8.179-.033,15.559-.046,21.783v.16h-.158L230,3700.9l-4.121-.039-1.061-.018a2.746,2.746,0,0,1-.351-.016,3.529,3.529,0,0,1,.383-.017l1.09-.017,4.156-.039,15.174-.086-.159.159c-.013-6.224-.029-13.6-.046-21.783,0-4.093-.009-8.385-.013-12.833q0-3.336,0-6.782,0-1.722,0-3.469v-3.5c.1.1-.219-.234.219.212l-20.8-.01.212-.212c-.041,14.01-.076,26.072-.1,34.656-.025,4.284-.045,7.7-.059,10.067-.012,1.161-.021,2.065-.027,2.7-.005.294-.01.526-.013.7A1.964,1.964,0,0,1,224.47,3700.822Z" fill="none" stroke="#000" stroke-miterlimit="10" stroke-width="1.14"/><path d="M224.138,3662.339c0-.123,4.8-.222,10.711-.222s10.712.1,10.712.222-4.795.222-10.712.222S224.138,3662.462,224.138,3662.339Z" fill="none" stroke="#000" stroke-miterlimit="10" stroke-width="1.14"/><path d="M234.65,3700.454c-.123,0-.222-8.5-.222-18.987s.1-18.989.222-18.989.222,8.5.222,18.989S234.773,3700.454,234.65,3700.454Z" fill="none" stroke="#000" stroke-miterlimit="10" stroke-width="1.14"/><rect width="20.803" height="48.377" transform="translate(186.946 3652.445)" fill="#fafafa"/><path d="M186.946,3700.822a1.328,1.328,0,0,1-.013-.222c0-.171-.008-.4-.013-.678-.006-.628-.015-1.517-.027-2.659-.013-2.358-.033-5.756-.058-10.018-.025-8.621-.06-20.732-.1-34.8v-.212h.212l20.8-.01c.451.442.125.13.226.232v3.5q0,1.746,0,3.469,0,3.444,0,6.782c0,4.448-.009,8.74-.013,12.833-.017,8.179-.033,15.559-.046,21.783v.16h-.158l-15.27-.086-4.121-.039-1.061-.018a2.746,2.746,0,0,1-.351-.016,3.529,3.529,0,0,1,.383-.017l1.09-.017,4.156-.039,15.174-.086-.159.159c-.013-6.224-.029-13.6-.046-21.783,0-4.093-.009-8.385-.013-12.833q0-3.336,0-6.782,0-1.722,0-3.469v-3.5c.1.1-.219-.234.218.212l-20.8-.01.212-.212c-.041,14.01-.076,26.072-.1,34.656-.025,4.284-.045,7.7-.059,10.067-.012,1.161-.021,2.065-.027,2.7-.005.294-.01.526-.013.7A1.749,1.749,0,0,1,186.946,3700.822Z" fill="none" stroke="#000" stroke-miterlimit="10" stroke-width="1.14"/><path d="M186.614,3662.339c0-.123,4.8-.222,10.711-.222s10.712.1,10.712.222-4.795.222-10.712.222S186.614,3662.462,186.614,3662.339Z" fill="none" stroke="#000" stroke-miterlimit="10" stroke-width="1.14"/><path d="M197.126,3700.454c-.123,0-.222-8.5-.222-18.987s.1-18.989.222-18.989.222,8.5.222,18.989S197.249,3700.454,197.126,3700.454Z" fill="none" stroke="#000" stroke-miterlimit="10" stroke-width="1.14"/><rect width="20.803" height="48.377" transform="translate(224.47 3712.603)" fill="#fafafa"/><path d="M224.47,3760.98a1.307,1.307,0,0,1-.013-.221c0-.172-.008-.4-.013-.679-.006-.627-.015-1.517-.027-2.659-.014-2.358-.033-5.756-.058-10.018-.025-8.62-.06-20.732-.1-34.8v-.212h.212l20.8-.01c.45.442.124.13.225.232v3.5q0,1.745,0,3.468,0,3.444,0,6.783c-.005,4.447-.009,8.739-.013,12.832-.017,8.179-.033,15.559-.046,21.783v.16h-.158l-15.27-.086-4.121-.039-1.061-.017a2.552,2.552,0,0,1-.351-.017,3.8,3.8,0,0,1,.383-.016l1.09-.018,4.156-.039,15.174-.086-.159.159c-.013-6.224-.029-13.6-.046-21.783,0-4.093-.009-8.385-.013-12.832q0-3.336,0-6.783,0-1.722,0-3.468v-3.5c.1.1-.219-.234.219.212l-20.8-.01.212-.212c-.041,14.01-.076,26.072-.1,34.657-.025,4.283-.045,7.7-.059,10.066-.012,1.161-.021,2.065-.027,2.7-.005.294-.01.526-.013.7A1.951,1.951,0,0,1,224.47,3760.98Z" fill="none" stroke="#000" stroke-miterlimit="10" stroke-width="1.14"/><path d="M224.138,3722.5c0-.123,4.8-.222,10.711-.222s10.712.1,10.712.222-4.795.222-10.712.222S224.138,3722.62,224.138,3722.5Z" fill="none" stroke="#000" stroke-miterlimit="10" stroke-width="1.14"/><path d="M234.65,3760.613c-.123,0-.222-8.5-.222-18.988s.1-18.989.222-18.989.222,8.5.222,18.989S234.773,3760.613,234.65,3760.613Z" fill="none" stroke="#000" stroke-miterlimit="10" stroke-width="1.14"/><rect width="20.803" height="48.377" transform="translate(264.15 3592.763)" fill="#fafafa"/><path d="M264.15,3641.14a1.2,1.2,0,0,1-.014-.221c0-.171-.007-.4-.013-.679-.006-.627-.015-1.516-.026-2.659-.014-2.357-.034-5.755-.059-10.018-.025-8.62-.06-20.732-.1-34.8v-.212h.213l20.8-.01c.451.442.125.13.226.233v6.968q0,3.444,0,6.783c0,4.447-.008,8.74-.013,12.832-.017,8.18-.033,15.559-.046,21.783v.16h-.159l-15.27-.086-4.12-.039-1.062-.017a2.526,2.526,0,0,1-.35-.017,3.763,3.763,0,0,1,.382-.016l1.091-.017,4.156-.04,15.173-.085-.158.158c-.014-6.224-.03-13.6-.047-21.783,0-4.092-.008-8.385-.013-12.832q0-3.336,0-6.783,0-1.722,0-3.468v-3.5c.1.1-.219-.235.219.211l-20.8-.01.211-.212c-.04,14.01-.075,26.072-.1,34.657-.025,4.283-.045,7.7-.059,10.066-.011,1.162-.02,2.066-.026,2.7-.006.294-.01.526-.013.7A2.222,2.222,0,0,1,264.15,3641.14Z" fill="none" stroke="#000" stroke-miterlimit="10" stroke-width="1.14"/><path d="M263.818,3602.657c0-.122,4.8-.222,10.71-.222s10.712.1,10.712.222-4.795.223-10.712.223S263.818,3602.78,263.818,3602.657Z" fill="none" stroke="#000" stroke-miterlimit="10" stroke-width="1.14"/><path d="M274.33,3640.773c-.123,0-.223-8.5-.223-18.987s.1-18.99.223-18.99.222,8.5.222,18.99S274.452,3640.773,274.33,3640.773Z" fill="none" stroke="#000" stroke-miterlimit="10" stroke-width="1.14"/><rect width="20.803" height="48.377" transform="translate(264.15 3653.379)" fill="#fafafa"/><path d="M264.15,3701.756a1.216,1.216,0,0,1-.014-.221c0-.172-.007-.4-.013-.679-.006-.628-.015-1.517-.026-2.659-.014-2.358-.034-5.756-.059-10.018-.025-8.62-.06-20.732-.1-34.8v-.212h.213l20.8-.01c.451.442.125.13.226.232v6.969q0,3.444,0,6.783c0,4.447-.008,8.739-.013,12.832-.017,8.179-.033,15.559-.046,21.783v.16h-.159l-15.27-.086-4.12-.039-1.062-.017a2.562,2.562,0,0,1-.35-.017,3.707,3.707,0,0,1,.382-.016l1.091-.018,4.156-.039,15.173-.086-.158.159c-.014-6.224-.03-13.6-.047-21.783,0-4.093-.008-8.385-.013-12.832q0-3.336,0-6.783,0-1.722,0-3.468v-3.5c.1.1-.219-.234.219.212l-20.8-.01.211-.212c-.04,14.01-.075,26.072-.1,34.657-.025,4.283-.045,7.7-.059,10.066-.011,1.161-.02,2.065-.026,2.7-.006.294-.01.526-.013.7A2.236,2.236,0,0,1,264.15,3701.756Z" fill="none" stroke="#000" stroke-miterlimit="10" stroke-width="1.14"/><path d="M263.818,3663.273c0-.123,4.8-.222,10.71-.222s10.712.1,10.712.222-4.795.222-10.712.222S263.818,3663.4,263.818,3663.273Z" fill="none" stroke="#000" stroke-miterlimit="10" stroke-width="1.14"/><path d="M274.33,3701.389c-.123,0-.223-8.5-.223-18.988s.1-18.989.223-18.989.222,8.5.222,18.989S274.452,3701.389,274.33,3701.389Z" fill="none" stroke="#000" stroke-miterlimit="10" stroke-width="1.14"/><rect width="20.803" height="48.377" transform="translate(264.15 3713.537)" fill="#fafafa"/><path d="M264.15,3761.914a1.2,1.2,0,0,1-.014-.221c0-.172-.007-.4-.013-.679-.006-.627-.015-1.517-.026-2.659-.014-2.357-.034-5.755-.059-10.018-.025-8.62-.06-20.732-.1-34.8v-.212h.213l20.8-.01c.451.442.125.13.226.233v6.968q0,3.444,0,6.783c0,4.447-.008,8.74-.013,12.832-.017,8.18-.033,15.559-.046,21.783v.16h-.159l-15.27-.086-4.12-.039-1.062-.017a2.562,2.562,0,0,1-.35-.017,3.707,3.707,0,0,1,.382-.016l1.091-.017,4.156-.04,15.173-.086-.158.159c-.014-6.224-.03-13.6-.047-21.783,0-4.092-.008-8.385-.013-12.832q0-3.336,0-6.783,0-1.722,0-3.468v-3.5c.1.1-.219-.235.219.211l-20.8-.01.211-.212c-.04,14.01-.075,26.072-.1,34.657-.025,4.283-.045,7.7-.059,10.066-.011,1.161-.02,2.065-.026,2.7-.006.294-.01.526-.013.7A2.236,2.236,0,0,1,264.15,3761.914Z" fill="none" stroke="#000" stroke-miterlimit="10" stroke-width="1.14"/><path d="M263.818,3723.431c0-.122,4.8-.222,10.71-.222s10.712.1,10.712.222-4.795.223-10.712.223S263.818,3723.554,263.818,3723.431Z" fill="none" stroke="#000" stroke-miterlimit="10" stroke-width="1.14"/><path d="M274.33,3761.547c-.123,0-.223-8.5-.223-18.988s.1-18.989.223-18.989.222,8.5.222,18.989S274.452,3761.547,274.33,3761.547Z" fill="none" stroke="#000" stroke-miterlimit="10" stroke-width="1.14"/><rect width="20.803" height="48.377" transform="translate(186.946 3712.603)" fill="#fafafa"/><path d="M186.946,3760.98a1.307,1.307,0,0,1-.013-.221c0-.172-.008-.4-.013-.679-.006-.627-.015-1.517-.027-2.659-.013-2.358-.033-5.756-.058-10.018-.025-8.62-.06-20.732-.1-34.8v-.212h.212l20.8-.01c.451.442.125.13.226.232v3.5q0,1.745,0,3.468,0,3.444,0,6.783c0,4.447-.009,8.739-.013,12.832-.017,8.179-.033,15.559-.046,21.783v.16h-.158l-15.27-.086-4.121-.039L187.3,3761a2.553,2.553,0,0,1-.351-.017,3.8,3.8,0,0,1,.383-.016l1.09-.018,4.156-.039,15.174-.086-.159.159c-.013-6.224-.029-13.6-.046-21.783,0-4.093-.009-8.385-.013-12.832q0-3.336,0-6.783,0-1.722,0-3.468v-3.5c.1.1-.219-.234.218.212l-20.8-.01.212-.212c-.041,14.01-.076,26.072-.1,34.657-.025,4.283-.045,7.7-.059,10.066-.012,1.161-.021,2.065-.027,2.7-.005.294-.01.526-.013.7A1.738,1.738,0,0,1,186.946,3760.98Z" fill="none" stroke="#000" stroke-miterlimit="10" stroke-width="1.14"/><path d="M186.614,3722.5c0-.123,4.8-.222,10.711-.222s10.712.1,10.712.222-4.795.222-10.712.222S186.614,3722.62,186.614,3722.5Z" fill="none" stroke="#000" stroke-miterlimit="10" stroke-width="1.14"/><path d="M197.126,3760.613c-.123,0-.222-8.5-.222-18.988s.1-18.989.222-18.989.222,8.5.222,18.989S197.249,3760.613,197.126,3760.613Z" fill="none" stroke="#000" stroke-miterlimit="10" stroke-width="1.14"/></g><g transform="translate(0 -3189.36)"><rect width="68.771" height="290.823" transform="translate(1187.828 3495.926)" fill="#ececec"/><rect width="20.902" height="40.279" transform="translate(1200.646 3516.311)" fill="#fff"/><path d="M1211.686,3556.591c-.155,0-.28-9.018-.28-20.139s.125-20.141.28-20.141.279,9.016.279,20.141S1211.84,3556.591,1211.686,3556.591Z" fill="none" stroke="#000" stroke-miterlimit="10" stroke-width="1.14"/><path d="M1221.548,3530.3a195.161,195.161,0,0,1-20.9,0,195.843,195.843,0,0,1,20.9,0Z" fill="none" stroke="#000" stroke-miterlimit="10" stroke-width="1.14"/><path d="M1221.658,3544.71a198.384,198.384,0,0,1-21.074,0,199.077,199.077,0,0,1,21.074,0Z" fill="none" stroke="#000" stroke-miterlimit="10" stroke-width="1.14"/><rect width="20.902" height="40.279" transform="translate(1200.646 3568.924)" fill="#fff"/><path d="M1211.686,3609.2c-.155,0-.28-9.018-.28-20.139s.125-20.141.28-20.141.279,9.016.279,20.141S1211.84,3609.2,1211.686,3609.2Z" fill="none" stroke="#000" stroke-miterlimit="10" stroke-width="1.14"/><path d="M1221.548,3582.918a195.161,195.161,0,0,1-20.9,0,195.843,195.843,0,0,1,20.9,0Z" fill="none" stroke="#000" stroke-miterlimit="10" stroke-width="1.14"/><path d="M1221.658,3597.324a199.077,199.077,0,0,1-21.074,0,198.384,198.384,0,0,1,21.074,0Z" fill="none" stroke="#000" stroke-miterlimit="10" stroke-width="1.14"/><rect width="20.902" height="40.279" transform="translate(1200.646 3621.538)" fill="#fff"/><path d="M1211.686,3661.817c-.155,0-.28-9.018-.28-20.139s.125-20.14.28-20.14.279,9.015.279,20.14S1211.84,3661.817,1211.686,3661.817Z" fill="none" stroke="#000" stroke-miterlimit="10" stroke-width="1.14"/><path d="M1221.548,3635.532a195.843,195.843,0,0,1-20.9,0,195.161,195.161,0,0,1,20.9,0Z" fill="none" stroke="#000" stroke-miterlimit="10" stroke-width="1.14"/><path d="M1221.658,3649.937a199.077,199.077,0,0,1-21.074,0,198.384,198.384,0,0,1,21.074,0Z" fill="none" stroke="#000" stroke-miterlimit="10" stroke-width="1.14"/><rect width="20.902" height="40.279" transform="translate(1200.646 3674.151)" fill="#fff"/><path d="M1211.686,3714.43c-.155,0-.28-9.017-.28-20.138s.125-20.141.28-20.141.279,9.016.279,20.141S1211.84,3714.43,1211.686,3714.43Z" fill="none" stroke="#000" stroke-miterlimit="10" stroke-width="1.14"/><path d="M1221.548,3688.145a195.843,195.843,0,0,1-20.9,0,195.161,195.161,0,0,1,20.9,0Z" fill="none" stroke="#000" stroke-miterlimit="10" stroke-width="1.14"/><path d="M1221.658,3702.55a199.077,199.077,0,0,1-21.074,0,198.384,198.384,0,0,1,21.074,0Z" fill="none" stroke="#000" stroke-miterlimit="10" stroke-width="1.14"/><rect width="50.108" height="290.823" transform="translate(1235.738 3495.926)" fill="none" stroke="#000" stroke-miterlimit="10" stroke-width="1.14"/><rect width="20.902" height="40.279" transform="translate(1251.298 3516.311)" fill="#fff"/><path d="M1262.339,3556.591c-.155,0-.28-9.018-.28-20.139s.125-20.141.28-20.141.279,9.016.279,20.141S1262.493,3556.591,1262.339,3556.591Z" fill="none" stroke="#000" stroke-miterlimit="10" stroke-width="1.14"/><path d="M1272.2,3530.3a195.181,195.181,0,0,1-20.9,0,195.864,195.864,0,0,1,20.9,0Z" fill="none" stroke="#000" stroke-miterlimit="10" stroke-width="1.14"/><path d="M1272.311,3544.71a198.384,198.384,0,0,1-21.074,0,199.077,199.077,0,0,1,21.074,0Z" fill="none" stroke="#000" stroke-miterlimit="10" stroke-width="1.14"/><rect width="20.902" height="40.279" transform="translate(1251.298 3569.356)" fill="#fff"/><path d="M1262.339,3609.635c-.155,0-.28-9.017-.28-20.138s.125-20.141.28-20.141.279,9.016.279,20.141S1262.493,3609.635,1262.339,3609.635Z" fill="none" stroke="#000" stroke-miterlimit="10" stroke-width="1.14"/><path d="M1272.2,3583.35a196.035,196.035,0,0,1-20.9,0,195.864,195.864,0,0,1,20.9,0Z" fill="none" stroke="#000" stroke-miterlimit="10" stroke-width="1.14"/><path d="M1272.311,3597.755a198.384,198.384,0,0,1-21.074,0,199.251,199.251,0,0,1,21.074,0Z" fill="none" stroke="#000" stroke-miterlimit="10" stroke-width="1.14"/><rect width="20.902" height="40.279" transform="translate(1251.298 3622.401)" fill="#fff"/><path d="M1262.339,3662.68c-.155,0-.28-9.017-.28-20.138s.125-20.141.28-20.141.279,9.016.279,20.141S1262.493,3662.68,1262.339,3662.68Z" fill="none" stroke="#000" stroke-miterlimit="10" stroke-width="1.14"/><path d="M1272.2,3636.4a195.864,195.864,0,0,1-20.9,0,195.864,195.864,0,0,1,20.9,0Z" fill="none" stroke="#000" stroke-miterlimit="10" stroke-width="1.14"/><path d="M1272.311,3650.8a198.384,198.384,0,0,1-21.074,0,199.077,199.077,0,0,1,21.074,0Z" fill="none" stroke="#000" stroke-miterlimit="10" stroke-width="1.14"/><rect width="20.902" height="40.279" transform="translate(1251.298 3675.446)" fill="#fff"/><path d="M1262.339,3715.725c-.155,0-.28-9.017-.28-20.138s.125-20.141.28-20.141.279,9.016.279,20.141S1262.493,3715.725,1262.339,3715.725Z" fill="none" stroke="#000" stroke-miterlimit="10" stroke-width="1.14"/><path d="M1272.2,3689.44a195.864,195.864,0,0,1-20.9,0,195.181,195.181,0,0,1,20.9,0Z" fill="none" stroke="#000" stroke-miterlimit="10" stroke-width="1.14"/><path d="M1272.311,3703.845a198.384,198.384,0,0,1-21.074,0,199.077,199.077,0,0,1,21.074,0Z" fill="none" stroke="#000" stroke-miterlimit="10" stroke-width="1.14"/><rect width="20.902" height="40.279" transform="translate(1200.646 3726.764)" fill="#fff"/><path d="M1211.686,3767.044c-.155,0-.28-9.018-.28-20.139s.125-20.141.28-20.141.279,9.016.279,20.141S1211.84,3767.044,1211.686,3767.044Z" fill="none" stroke="#000" stroke-miterlimit="10" stroke-width="1.14"/><path d="M1221.548,3740.758a195.161,195.161,0,0,1-20.9,0,195.843,195.843,0,0,1,20.9,0Z" fill="none" stroke="#000" stroke-miterlimit="10" stroke-width="1.14"/><path d="M1221.658,3755.163a198.384,198.384,0,0,1-21.074,0,199.077,199.077,0,0,1,21.074,0Z" fill="none" stroke="#000" stroke-miterlimit="10" stroke-width="1.14"/><rect width="20.902" height="40.279" transform="translate(1251.298 3728.491)" fill="#fff"/><path d="M1262.339,3768.77c-.155,0-.28-9.017-.28-20.139s.125-20.14.28-20.14.279,9.016.279,20.14S1262.493,3768.77,1262.339,3768.77Z" fill="none" stroke="#000" stroke-miterlimit="10" stroke-width="1.14"/><path d="M1272.2,3742.485a196.035,196.035,0,0,1-20.9,0,195.181,195.181,0,0,1,20.9,0Z" fill="none" stroke="#000" stroke-miterlimit="10" stroke-width="1.14"/><path d="M1272.311,3756.89a199.077,199.077,0,0,1-21.074,0,198.557,198.557,0,0,1,21.074,0Z" fill="none" stroke="#000" stroke-miterlimit="10" stroke-width="1.14"/><rect width="159.031" height="255.889" transform="translate(1082.731 3781.132) rotate(180)" fill="none" stroke="#000" stroke-miterlimit="10" stroke-width="1.14"/><path d="M1019.044,3781.132l85.3.123V3525.243h-85.3Z" fill="none" stroke="#000" stroke-miterlimit="10" stroke-width="1.14"/><rect width="29.09" height="29.09" transform="translate(964.457 3712.193) rotate(180)" fill="#ececec"/><path d="M948.8,3715.11c-.152,0-.276-7.516-.276-16.786s.124-16.788.276-16.788.276,7.515.276,16.788S948.95,3715.11,948.8,3715.11Z" fill="none" stroke="#000" stroke-miterlimit="10" stroke-width="1.14"/><path d="M929.905,3692.857c0-.153,8.459-.276,18.892-.276s18.894.123,18.894.276-8.458.275-18.894.275S929.905,3693.009,929.905,3692.857Z" fill="none" stroke="#000" stroke-miterlimit="10" stroke-width="1.14"/><rect width="29.09" height="29.09" transform="translate(1005.941 3712.193) rotate(180)" fill="#ececec"/><path d="M990.282,3715.11c-.152,0-.275-7.516-.275-16.786s.123-16.788.275-16.788.276,7.515.276,16.788S990.434,3715.11,990.282,3715.11Z" fill="none" stroke="#000" stroke-miterlimit="10" stroke-width="1.14"/><path d="M971.389,3692.857c0-.153,8.46-.276,18.892-.276s18.894.123,18.894.276-8.457.275-18.894.275S971.389,3693.009,971.389,3692.857Z" fill="none" stroke="#000" stroke-miterlimit="10" stroke-width="1.14"/><rect width="29.09" height="29.09" transform="translate(964.457 3666.241) rotate(180)" fill="#ececec"/><path d="M948.8,3669.158c-.152,0-.276-7.516-.276-16.786s.124-16.788.276-16.788.276,7.515.276,16.788S948.95,3669.158,948.8,3669.158Z" fill="none" stroke="#000" stroke-miterlimit="10" stroke-width="1.14"/><path d="M929.905,3646.905c0-.152,8.459-.276,18.892-.276s18.894.124,18.894.276-8.458.276-18.894.276S929.905,3647.057,929.905,3646.905Z" fill="none" stroke="#000" stroke-miterlimit="10" stroke-width="1.14"/><rect width="29.09" height="29.09" transform="translate(1005.941 3666.241) rotate(180)" fill="#ececec"/><path d="M990.282,3669.158c-.152,0-.275-7.516-.275-16.786s.123-16.788.275-16.788.276,7.515.276,16.788S990.434,3669.158,990.282,3669.158Z" fill="none" stroke="#000" stroke-miterlimit="10" stroke-width="1.14"/><path d="M971.389,3646.905c0-.152,8.46-.276,18.892-.276s18.894.124,18.894.276-8.457.276-18.894.276S971.389,3647.057,971.389,3646.905Z" fill="none" stroke="#000" stroke-miterlimit="10" stroke-width="1.14"/><rect width="29.09" height="29.09" transform="translate(964.457 3620.183) rotate(180)" fill="#ececec"/><path d="M948.8,3623.1c-.152,0-.276-7.516-.276-16.786s.124-16.787.276-16.787.276,7.514.276,16.787S948.95,3623.1,948.8,3623.1Z" fill="none" stroke="#000" stroke-miterlimit="10" stroke-width="1.14"/><path d="M929.905,3600.847c0-.152,8.459-.276,18.892-.276s18.894.124,18.894.276-8.458.276-18.894.276S929.905,3601,929.905,3600.847Z" fill="none" stroke="#000" stroke-miterlimit="10" stroke-width="1.14"/><rect width="29.09" height="29.09" transform="translate(1005.941 3620.183) rotate(180)" fill="#ececec"/><path d="M990.282,3623.1c-.152,0-.275-7.516-.275-16.786s.123-16.787.275-16.787.276,7.514.276,16.787S990.434,3623.1,990.282,3623.1Z" fill="none" stroke="#000" stroke-miterlimit="10" stroke-width="1.14"/><path d="M971.389,3600.847c0-.152,8.46-.276,18.892-.276s18.894.124,18.894.276-8.457.276-18.894.276S971.389,3601,971.389,3600.847Z" fill="none" stroke="#000" stroke-miterlimit="10" stroke-width="1.14"/><g opacity="0.7"><rect width="29.09" height="29.09" transform="translate(1077.352 3620.183) rotate(180)" fill="#fff"/></g><path d="M1062.807,3623.1c-.152,0-.276-7.516-.276-16.786s.124-16.787.276-16.787.275,7.514.275,16.787S1062.959,3623.1,1062.807,3623.1Z" fill="none" stroke="#000" stroke-miterlimit="10" stroke-width="1.14"/><path d="M1042.8,3600.847c0-.152,8.46-.276,18.893-.276s18.894.124,18.894.276-8.458.276-18.894.276S1042.8,3601,1042.8,3600.847Z" fill="none" stroke="#000" stroke-miterlimit="10" stroke-width="1.14"/><rect width="29.09" height="29.09" transform="translate(964.457 3573.454) rotate(180)" fill="#ececec"/><path d="M948.8,3576.371c-.152,0-.276-7.516-.276-16.786s.124-16.788.276-16.788.276,7.515.276,16.788S948.95,3576.371,948.8,3576.371Z" fill="none" stroke="#000" stroke-miterlimit="10" stroke-width="1.14"/><path d="M929.905,3554.118c0-.152,8.459-.276,18.892-.276s18.894.124,18.894.276-8.458.275-18.894.275S929.905,3554.27,929.905,3554.118Z" fill="none" stroke="#000" stroke-miterlimit="10" stroke-width="1.14"/><rect width="29.09" height="29.09" transform="translate(1005.941 3573.454) rotate(180)" fill="#ececec"/><path d="M990.282,3576.371c-.152,0-.275-7.516-.275-16.786s.123-16.788.275-16.788.276,7.515.276,16.788S990.434,3576.371,990.282,3576.371Z" fill="none" stroke="#000" stroke-miterlimit="10" stroke-width="1.14"/><path d="M971.389,3554.118c0-.152,8.46-.276,18.892-.276s18.894.124,18.894.276-8.457.275-18.894.275S971.389,3554.27,971.389,3554.118Z" fill="none" stroke="#000" stroke-miterlimit="10" stroke-width="1.14"/><g opacity="0.7"><rect width="29.09" height="29.09" transform="translate(1077.352 3573.454) rotate(180)" fill="#fff"/></g><path d="M1062.807,3576.371c-.152,0-.276-7.516-.276-16.786s.124-16.788.276-16.788.275,7.515.275,16.788S1062.959,3576.371,1062.807,3576.371Z" fill="none" stroke="#000" stroke-miterlimit="10" stroke-width="1.14"/><path d="M1042.8,3554.118c0-.152,8.46-.276,18.893-.276s18.894.124,18.894.276-8.458.275-18.894.275S1042.8,3554.27,1042.8,3554.118Z" fill="none" stroke="#000" stroke-miterlimit="10" stroke-width="1.14"/><g opacity="0.7"><rect width="29.09" height="29.09" transform="translate(1077.352 3666.695) rotate(180)" fill="#fff"/></g><path d="M1062.807,3669.612c-.152,0-.276-7.516-.276-16.786s.124-16.788.276-16.788.275,7.515.275,16.788S1062.959,3669.612,1062.807,3669.612Z" fill="none" stroke="#000" stroke-miterlimit="10" stroke-width="1.14"/><path d="M1042.8,3647.359c0-.152,8.46-.276,18.893-.276s18.894.124,18.894.276-8.458.275-18.894.275S1042.8,3647.511,1042.8,3647.359Z" fill="none" stroke="#000" stroke-miterlimit="10" stroke-width="1.14"/><g opacity="0.7"><rect width="29.09" height="29.09" transform="translate(1077.352 3713.207) rotate(180)" fill="#fff"/></g><path d="M1062.807,3716.124c-.152,0-.276-7.517-.276-16.786s.124-16.788.276-16.788.275,7.515.275,16.788S1062.959,3716.124,1062.807,3716.124Z" fill="none" stroke="#000" stroke-miterlimit="10" stroke-width="1.14"/><path d="M1042.8,3693.87c0-.152,8.46-.275,18.893-.275s18.894.123,18.894.275-8.458.276-18.894.276S1042.8,3694.023,1042.8,3693.87Z" fill="none" stroke="#000" stroke-miterlimit="10" stroke-width="1.14"/><path d="M957.05,3781.1a1.1,1.1,0,0,1-.024-.261l-.024-.768c-.011-.711-.026-1.7-.045-2.971-.019-2.625-.046-6.384-.08-11.071-.024-9.462-.057-22.665-.1-37.792v-.269h.269l15.147-.006,14.663.006h.27v.269c-.038,15.249-.072,28.575-.1,38.129-.034,4.734-.061,8.531-.08,11.183-.02,1.281-.035,2.284-.046,3-.01.32-.018.575-.024.777a1.133,1.133,0,0,1-.024.264,1.03,1.03,0,0,1-.025-.264c-.006-.2-.014-.457-.024-.777-.01-.718-.026-1.721-.045-3-.019-2.652-.046-6.449-.08-11.183-.024-9.554-.057-22.88-.095-38.129l.269.269-14.663.007-15.147-.007.269-.269c-.039,15.127-.072,28.33-.1,37.792-.034,4.687-.061,8.446-.08,11.071q-.028,1.9-.045,2.971l-.024.768A1.1,1.1,0,0,1,957.05,3781.1Z" fill="none" stroke="#000" stroke-miterlimit="10" stroke-width="1.14"/><rect width="10.161" height="24.32" transform="translate(983.109 3755.7) rotate(180)" fill="none" stroke="#000" stroke-miterlimit="10" stroke-width="1.14"/><path d="M983.136,3755.726H972.922v-24.374h10.214Zm-10.161-.053h10.107v-24.267H972.975Z" fill="none" stroke="#000" stroke-miterlimit="10" stroke-width="1.14"/><rect width="10.161" height="24.32" transform="translate(970.962 3755.7) rotate(180)" fill="none" stroke="#000" stroke-miterlimit="10" stroke-width="1.14"/><path d="M970.988,3755.726H960.774v-24.374h10.214Zm-10.16-.053h10.107v-24.267H960.828Z" fill="none" stroke="#000" stroke-miterlimit="10" stroke-width="1.14"/><path d="M960.594,3758.215c.017.087-.5.081-.735.657a1.179,1.179,0,0,0,.006.976.969.969,0,0,0,.972.485,1.011,1.011,0,0,0,.735-.821.948.948,0,0,0-.344-.877c-.477-.405-.946-.3-.954-.386-.05-.048.471-.359,1.186.073a1.325,1.325,0,0,1,.616,1.253,1.482,1.482,0,0,1-1.131,1.3,1.442,1.442,0,0,1-1.532-.792,1.507,1.507,0,0,1,.1-1.389,1.063,1.063,0,0,1,.751-.539C960.484,3758.128,960.595,3758.183,960.594,3758.215Z" fill="none" stroke="#000" stroke-miterlimit="10" stroke-width="1.14"/><rect width="74.112" height="205.945" transform="translate(1219.083 3781.133) rotate(180)" fill="none" stroke="#000" stroke-miterlimit="10" stroke-width="1.14"/><g opacity="0.4"><rect width="37.056" height="205.945" transform="translate(1219.083 3781.133) rotate(180)"/></g><rect width="61.772" height="205.945" transform="translate(1166.948 3781.133) rotate(180)" fill="none" stroke="#000" stroke-miterlimit="10" stroke-width="1.14"/><rect width="20.803" height="48.377" transform="translate(1151.349 3591.829)" fill="#fafafa"/><path d="M1151.35,3640.206a1.194,1.194,0,0,1-.014-.221c0-.172-.007-.4-.013-.679-.006-.627-.015-1.517-.026-2.659-.014-2.357-.034-5.755-.059-10.018-.025-8.62-.06-20.732-.1-34.8v-.212h.213l20.8-.01c.451.442.125.13.226.233v3.5q0,1.746,0,3.468,0,3.444,0,6.783c0,4.447-.008,8.74-.013,12.832-.017,8.18-.033,15.559-.046,21.783v.16h-.159l-15.27-.086-4.12-.039-1.062-.017a2.562,2.562,0,0,1-.35-.017,3.707,3.707,0,0,1,.382-.016l1.091-.017,4.156-.04,15.173-.085-.158.158c-.014-6.224-.029-13.6-.047-21.783,0-4.092-.008-8.385-.013-12.832q0-3.336,0-6.783,0-1.722,0-3.468v-3.5c.1.1-.219-.235.219.211l-20.8-.01.211-.212c-.04,14.01-.075,26.072-.1,34.657-.025,4.283-.045,7.7-.059,10.066-.011,1.161-.02,2.065-.026,2.7-.006.294-.01.526-.013.7A2.215,2.215,0,0,1,1151.35,3640.206Z" fill="none" stroke="#000" stroke-miterlimit="10" stroke-width="1.14"/><path d="M1151.018,3601.723c0-.122,4.8-.222,10.71-.222s10.712.1,10.712.222-4.795.223-10.712.223S1151.018,3601.846,1151.018,3601.723Z" fill="none" stroke="#000" stroke-miterlimit="10" stroke-width="1.14"/><path d="M1161.53,3639.839c-.123,0-.223-8.5-.223-18.988s.1-18.989.223-18.989.222,8.5.222,18.989S1161.652,3639.839,1161.53,3639.839Z" fill="none" stroke="#000" stroke-miterlimit="10" stroke-width="1.14"/><rect width="20.803" height="48.377" transform="translate(1113.826 3591.829)" fill="#fafafa"/><path d="M1113.826,3640.206a1.2,1.2,0,0,1-.014-.221c0-.172-.007-.4-.013-.679-.006-.627-.015-1.517-.026-2.659-.014-2.357-.034-5.755-.059-10.018-.025-8.62-.06-20.732-.1-34.8v-.212h.213l20.8-.01c.451.442.125.13.226.233v1.748q0,.879,0,1.752,0,1.746,0,3.468,0,3.444,0,6.783c0,4.447-.008,8.74-.012,12.832-.018,8.18-.034,15.559-.047,21.783v.16h-.159l-15.27-.086-4.12-.039-1.062-.017a2.558,2.558,0,0,1-.35-.017,3.706,3.706,0,0,1,.382-.016l1.091-.017,4.156-.04,15.173-.085-.158.158c-.014-6.224-.03-13.6-.047-21.783,0-4.092-.008-8.385-.013-12.832q0-3.336,0-6.783,0-1.722,0-3.468v-3.5c.1.1-.219-.235.219.211l-20.8-.01.211-.212c-.04,14.01-.075,26.072-.1,34.657-.025,4.283-.045,7.7-.059,10.066-.011,1.161-.02,2.065-.026,2.7-.006.294-.01.526-.013.7A2.277,2.277,0,0,1,1113.826,3640.206Z" fill="none" stroke="#000" stroke-miterlimit="10" stroke-width="1.14"/><path d="M1113.494,3601.723c0-.122,4.8-.222,10.71-.222s10.712.1,10.712.222-4.8.223-10.712.223S1113.494,3601.846,1113.494,3601.723Z" fill="none" stroke="#000" stroke-miterlimit="10" stroke-width="1.14"/><path d="M1124.006,3639.839c-.123,0-.223-8.5-.223-18.988s.1-18.989.223-18.989.222,8.5.222,18.989S1124.128,3639.839,1124.006,3639.839Z" fill="none" stroke="#000" stroke-miterlimit="10" stroke-width="1.14"/><rect width="20.803" height="48.377" transform="translate(1151.349 3652.445)" fill="#fafafa"/><path d="M1151.35,3700.822a1.227,1.227,0,0,1-.014-.222c0-.171-.007-.4-.013-.678-.006-.628-.015-1.517-.026-2.659-.014-2.358-.034-5.756-.059-10.018-.025-8.621-.06-20.732-.1-34.8v-.212h.213l20.8-.01c.451.442.125.13.226.232v3.5q0,1.746,0,3.469,0,3.444,0,6.782c0,4.448-.008,8.74-.013,12.833-.017,8.179-.033,15.559-.046,21.783v.16h-.159l-15.27-.086-4.12-.039-1.062-.018a2.718,2.718,0,0,1-.35-.016,3.5,3.5,0,0,1,.382-.017l1.091-.017,4.156-.039,15.173-.086-.158.159c-.014-6.224-.029-13.6-.047-21.783,0-4.093-.008-8.385-.013-12.833q0-3.336,0-6.782,0-1.722,0-3.469v-3.5c.1.1-.219-.234.219.212l-20.8-.01.211-.212c-.04,14.01-.075,26.072-.1,34.656-.025,4.284-.045,7.7-.059,10.067-.011,1.161-.02,2.065-.026,2.7-.006.294-.01.526-.013.7A2.217,2.217,0,0,1,1151.35,3700.822Z" fill="none" stroke="#000" stroke-miterlimit="10" stroke-width="1.14"/><path d="M1151.018,3662.339c0-.123,4.8-.222,10.71-.222s10.712.1,10.712.222-4.795.222-10.712.222S1151.018,3662.462,1151.018,3662.339Z" fill="none" stroke="#000" stroke-miterlimit="10" stroke-width="1.14"/><path d="M1161.53,3700.454c-.123,0-.223-8.5-.223-18.987s.1-18.989.223-18.989.222,8.5.222,18.989S1161.652,3700.454,1161.53,3700.454Z" fill="none" stroke="#000" stroke-miterlimit="10" stroke-width="1.14"/><rect width="20.803" height="48.377" transform="translate(1113.826 3652.445)" fill="#fafafa"/><path d="M1113.826,3700.822a1.232,1.232,0,0,1-.014-.222c0-.171-.007-.4-.013-.678-.006-.628-.015-1.517-.026-2.659-.014-2.358-.034-5.756-.059-10.018-.025-8.621-.06-20.732-.1-34.8v-.212h.213l20.8-.01c.451.442.125.13.226.232v1.749q0,.877,0,1.751,0,1.746,0,3.469,0,3.444,0,6.782c0,4.448-.008,8.74-.012,12.833-.018,8.179-.034,15.559-.047,21.783v.16h-.159l-15.27-.086-4.12-.039-1.062-.018a2.713,2.713,0,0,1-.35-.016,3.5,3.5,0,0,1,.382-.017l1.091-.017,4.156-.039,15.173-.086-.158.159c-.014-6.224-.03-13.6-.047-21.783,0-4.093-.008-8.385-.013-12.833q0-3.336,0-6.782,0-1.722,0-3.469v-3.5c.1.1-.219-.234.219.212l-20.8-.01.211-.212c-.04,14.01-.075,26.072-.1,34.656-.025,4.284-.045,7.7-.059,10.067-.011,1.161-.02,2.065-.026,2.7-.006.294-.01.526-.013.7A2.28,2.28,0,0,1,1113.826,3700.822Z" fill="none" stroke="#000" stroke-miterlimit="10" stroke-width="1.14"/><path d="M1113.494,3662.339c0-.123,4.8-.222,10.71-.222s10.712.1,10.712.222-4.8.222-10.712.222S1113.494,3662.462,1113.494,3662.339Z" fill="none" stroke="#000" stroke-miterlimit="10" stroke-width="1.14"/><path d="M1124.006,3700.454c-.123,0-.223-8.5-.223-18.987s.1-18.989.223-18.989.222,8.5.222,18.989S1124.128,3700.454,1124.006,3700.454Z" fill="none" stroke="#000" stroke-miterlimit="10" stroke-width="1.14"/><rect width="20.803" height="48.377" transform="translate(1151.349 3712.603)" fill="#fafafa"/><path d="M1151.35,3760.98a1.207,1.207,0,0,1-.014-.221c0-.172-.007-.4-.013-.679-.006-.627-.015-1.517-.026-2.659-.014-2.358-.034-5.756-.059-10.018-.025-8.62-.06-20.732-.1-34.8v-.212h.213l20.8-.01c.451.442.125.13.226.232v3.5q0,1.745,0,3.468,0,3.444,0,6.783c0,4.447-.008,8.739-.013,12.832-.017,8.179-.033,15.559-.046,21.783v.16h-.159l-15.27-.086-4.12-.039L1151.7,3761a2.526,2.526,0,0,1-.35-.017,3.764,3.764,0,0,1,.382-.016l1.091-.018,4.156-.039,15.173-.086-.158.159c-.014-6.224-.029-13.6-.047-21.783,0-4.093-.008-8.385-.013-12.832q0-3.336,0-6.783,0-1.722,0-3.468v-3.5c.1.1-.219-.234.219.212l-20.8-.01.211-.212c-.04,14.01-.075,26.072-.1,34.657-.025,4.283-.045,7.7-.059,10.066-.011,1.161-.02,2.065-.026,2.7-.006.294-.01.526-.013.7A2.2,2.2,0,0,1,1151.35,3760.98Z" fill="none" stroke="#000" stroke-miterlimit="10" stroke-width="1.14"/><path d="M1151.018,3722.5c0-.123,4.8-.222,10.71-.222s10.712.1,10.712.222-4.795.222-10.712.222S1151.018,3722.62,1151.018,3722.5Z" fill="none" stroke="#000" stroke-miterlimit="10" stroke-width="1.14"/><path d="M1161.53,3760.613c-.123,0-.223-8.5-.223-18.988s.1-18.989.223-18.989.222,8.5.222,18.989S1161.652,3760.613,1161.53,3760.613Z" fill="none" stroke="#000" stroke-miterlimit="10" stroke-width="1.14"/><rect width="20.803" height="48.377" transform="translate(1191.029 3592.763)" fill="#fafafa"/><path d="M1191.029,3641.14a1.279,1.279,0,0,1-.013-.221c0-.171-.008-.4-.013-.679-.006-.627-.015-1.516-.027-2.659-.014-2.357-.034-5.755-.058-10.018-.025-8.62-.06-20.732-.1-34.8v-.212h.212l20.8-.01c.451.442.125.13.226.233v6.968q0,3.444,0,6.783c-.005,4.447-.009,8.74-.013,12.832-.017,8.18-.033,15.559-.047,21.783v.16h-.158l-15.27-.086-4.121-.039-1.061-.017a2.55,2.55,0,0,1-.351-.017,3.77,3.77,0,0,1,.383-.016l1.09-.017,4.156-.04,15.174-.085-.159.158c-.013-6.224-.029-13.6-.047-21.783,0-4.092-.008-8.385-.012-12.832q0-3.336,0-6.783,0-1.722,0-3.468,0-.873,0-1.752v-1.748c.1.1-.218-.235.219.211l-20.8-.01.212-.212c-.041,14.01-.076,26.072-.1,34.657-.024,4.283-.044,7.7-.058,10.066-.012,1.162-.021,2.066-.027,2.7-.005.294-.01.526-.013.7A1.987,1.987,0,0,1,1191.029,3641.14Z" fill="none" stroke="#000" stroke-miterlimit="10" stroke-width="1.14"/><path d="M1190.7,3602.657c0-.122,4.8-.222,10.711-.222s10.712.1,10.712.222-4.8.223-10.712.223S1190.7,3602.78,1190.7,3602.657Z" fill="none" stroke="#000" stroke-miterlimit="10" stroke-width="1.14"/><path d="M1201.209,3640.773c-.123,0-.222-8.5-.222-18.987s.1-18.99.222-18.99.222,8.5.222,18.99S1201.332,3640.773,1201.209,3640.773Z" fill="none" stroke="#000" stroke-miterlimit="10" stroke-width="1.14"/><rect width="20.803" height="48.377" transform="translate(1191.029 3653.379)" fill="#fafafa"/><path d="M1191.029,3701.756a1.3,1.3,0,0,1-.013-.221c0-.172-.008-.4-.013-.679-.006-.628-.015-1.517-.027-2.659-.014-2.358-.034-5.756-.058-10.018-.025-8.62-.06-20.732-.1-34.8v-.212h.212l20.8-.01c.451.442.125.13.226.232v6.969q0,3.444,0,6.783c-.005,4.447-.009,8.739-.013,12.832-.017,8.179-.033,15.559-.047,21.783v.16h-.158l-15.27-.086-4.121-.039-1.061-.017a2.587,2.587,0,0,1-.351-.017,3.713,3.713,0,0,1,.383-.016l1.09-.018,4.156-.039,15.174-.086-.159.159c-.013-6.224-.029-13.6-.047-21.783,0-4.093-.008-8.385-.012-12.832q0-3.336,0-6.783,0-1.722,0-3.468,0-.873,0-1.752v-1.749c.1.1-.218-.234.219.212l-20.8-.01.212-.212c-.041,14.01-.076,26.072-.1,34.657-.024,4.283-.044,7.7-.058,10.066-.012,1.161-.021,2.065-.027,2.7-.005.294-.01.526-.013.7A2,2,0,0,1,1191.029,3701.756Z" fill="none" stroke="#000" stroke-miterlimit="10" stroke-width="1.14"/><path d="M1190.7,3663.273c0-.123,4.8-.222,10.711-.222s10.712.1,10.712.222-4.8.222-10.712.222S1190.7,3663.4,1190.7,3663.273Z" fill="none" stroke="#000" stroke-miterlimit="10" stroke-width="1.14"/><path d="M1201.209,3701.389c-.123,0-.222-8.5-.222-18.988s.1-18.989.222-18.989.222,8.5.222,18.989S1201.332,3701.389,1201.209,3701.389Z" fill="none" stroke="#000" stroke-miterlimit="10" stroke-width="1.14"/><rect width="20.803" height="48.377" transform="translate(1191.029 3713.537)" fill="#fafafa"/><path d="M1191.029,3761.914a1.286,1.286,0,0,1-.013-.221c0-.172-.008-.4-.013-.679-.006-.627-.015-1.517-.027-2.659-.014-2.357-.034-5.755-.058-10.018-.025-8.62-.06-20.732-.1-34.8v-.212h.212l20.8-.01c.451.442.125.13.226.233v6.968q0,3.444,0,6.783c-.005,4.447-.009,8.74-.013,12.832-.017,8.18-.033,15.559-.047,21.783v.16h-.158l-15.27-.086-4.121-.039-1.061-.017a2.587,2.587,0,0,1-.351-.017,3.713,3.713,0,0,1,.383-.016l1.09-.017,4.156-.04,15.174-.086-.159.159c-.013-6.224-.029-13.6-.047-21.783,0-4.092-.008-8.385-.012-12.832q0-3.336,0-6.783,0-1.722,0-3.468,0-.873,0-1.752v-1.748c.1.1-.218-.235.219.211l-20.8-.01.212-.212c-.041,14.01-.076,26.072-.1,34.657-.024,4.283-.044,7.7-.058,10.066-.012,1.161-.021,2.065-.027,2.7-.005.294-.01.526-.013.7A2,2,0,0,1,1191.029,3761.914Z" fill="none" stroke="#000" stroke-miterlimit="10" stroke-width="1.14"/><path d="M1190.7,3723.431c0-.122,4.8-.222,10.711-.222s10.712.1,10.712.222-4.8.223-10.712.223S1190.7,3723.554,1190.7,3723.431Z" fill="none" stroke="#000" stroke-miterlimit="10" stroke-width="1.14"/><path d="M1201.209,3761.547c-.123,0-.222-8.5-.222-18.988s.1-18.989.222-18.989.222,8.5.222,18.989S1201.332,3761.547,1201.209,3761.547Z" fill="none" stroke="#000" stroke-miterlimit="10" stroke-width="1.14"/><rect width="20.803" height="48.377" transform="translate(1113.826 3712.603)" fill="#fafafa"/><path d="M1113.826,3760.98a1.212,1.212,0,0,1-.014-.221c0-.172-.007-.4-.013-.679-.006-.627-.015-1.517-.026-2.659-.014-2.358-.034-5.756-.059-10.018-.025-8.62-.06-20.732-.1-34.8v-.212h.213l20.8-.01c.451.442.125.13.226.232v1.749q0,.879,0,1.752,0,1.745,0,3.468,0,3.444,0,6.783c0,4.447-.008,8.739-.012,12.832-.018,8.179-.034,15.559-.047,21.783v.16h-.159l-15.27-.086-4.12-.039-1.062-.017a2.522,2.522,0,0,1-.35-.017,3.762,3.762,0,0,1,.382-.016l1.091-.018,4.156-.039,15.173-.086-.158.159c-.014-6.224-.03-13.6-.047-21.783,0-4.093-.008-8.385-.013-12.832q0-3.336,0-6.783,0-1.722,0-3.468v-3.5c.1.1-.219-.234.219.212l-20.8-.01.211-.212c-.04,14.01-.075,26.072-.1,34.657-.025,4.283-.045,7.7-.059,10.066-.011,1.161-.02,2.065-.026,2.7-.006.294-.01.526-.013.7A2.265,2.265,0,0,1,1113.826,3760.98Z" fill="none" stroke="#000" stroke-miterlimit="10" stroke-width="1.14"/><path d="M1113.494,3722.5c0-.123,4.8-.222,10.71-.222s10.712.1,10.712.222-4.8.222-10.712.222S1113.494,3722.62,1113.494,3722.5Z" fill="none" stroke="#000" stroke-miterlimit="10" stroke-width="1.14"/><path d="M1124.006,3760.613c-.123,0-.223-8.5-.223-18.988s.1-18.989.223-18.989.222,8.5.222,18.989S1124.128,3760.613,1124.006,3760.613Z" fill="none" stroke="#000" stroke-miterlimit="10" stroke-width="1.14"/></g><g transform="translate(0 -3189.36)"><path d="M548.264,3749.3H525.881V3413.413H538.4Z" fill="none" stroke="#000" stroke-miterlimit="10" stroke-width="1.14"/><path d="M536.377,3425.008H515.385a11.629,11.629,0,0,1-11.6-11.595h0a11.63,11.63,0,0,1,11.6-11.6h20.992a11.63,11.63,0,0,1,11.595,11.6h0A11.629,11.629,0,0,1,536.377,3425.008Z" fill="none" stroke="#000" stroke-miterlimit="10" stroke-width="1.14"/><ellipse cx="11.159" cy="12.439" rx="11.159" ry="12.439" transform="translate(502.061 3401.138)" fill="none" stroke="#000" stroke-miterlimit="10" stroke-width="1.14"/><path d="M513.219,3413.577l-94.29-96.108,55.341,83.749Z" fill="none" stroke="#000" stroke-miterlimit="10" stroke-width="1.14"/><path d="M513.219,3413.577l-36.087,129.711,44.858-89.8Z" fill="none" stroke="#000" stroke-miterlimit="10" stroke-width="1.14"/><path d="M513.219,3413.577l130.377-33.6-100.2,6.052Z" fill="none" stroke="#000" stroke-miterlimit="10" stroke-width="1.14"/><path d="M695.4,3749.3H676.563V3438.318H687.1Z" fill="none" stroke="#000" stroke-miterlimit="10" stroke-width="1.14"/><path d="M685.4,3448.077H667.729a9.788,9.788,0,0,1-9.759-9.759h0a9.788,9.788,0,0,1,9.759-9.76H685.4a9.788,9.788,0,0,1,9.759,9.76h0A9.788,9.788,0,0,1,685.4,3448.077Z" fill="none" stroke="#000" stroke-miterlimit="10" stroke-width="1.14"/><ellipse cx="9.392" cy="10.47" rx="9.392" ry="10.47" transform="translate(656.514 3427.987)" fill="none" stroke="#000" stroke-miterlimit="10" stroke-width="1.14"/><path d="M665.906,3438.456l47.209-103.016-49.2,68.682Z" fill="none" stroke="#000" stroke-miterlimit="10" stroke-width="1.14"/><path d="M665.906,3438.456,553.087,3449.08l84.081,8.269Z" fill="none" stroke="#000" stroke-miterlimit="10" stroke-width="1.14"/><path d="M665.906,3438.456l65.61,92.392-34.88-76.951Z" fill="none" stroke="#000" stroke-miterlimit="10" stroke-width="1.14"/><path d="M660,3691.676s-67.737-33.631,3.316-73.9,85.738,30.79,85.738,30.79,11.368-65.843,70.105-33.158c45.327,25.221,36.214,56.5,29.689,69.475,6.948-9.522,24.405-24.923,57-5.054,44.29,27-6.083,69.465-6.083,69.465H632.3C598.2,3695.368,660,3691.676,660,3691.676Z" fill="#e7e7e7"/><path d="M651.515,3674.072s83.951-43.907-4.11-96.472-106.259,40.2-106.259,40.2-14.09-85.959-86.887-43.289c-56.176,32.927-44.881,73.766-36.794,90.7-8.612-12.431-30.247-32.537-70.64-6.6-54.891,35.25,7.54,90.688,7.54,90.688H685.853C728.116,3678.891,651.515,3674.072,651.515,3674.072Z" fill="#f0f0f0"/><path d="M449.272,3423.362c-3.786-7.621-11.125-13.046-18.665-13.046a13.675,13.675,0,0,0-11.24,5.612,13.2,13.2,0,0,0-8.242-3.17c-5.143,0-8.924,3.671-9.817,8.849a19.432,19.432,0,0,0-7.576-1.975c-5.133-.234-9.194,1.875-11.284,5.3a6.91,6.91,0,0,0-3.172-.987c-2.957-.134-4.877,2-4.3,4.751.037.174.082.34.127.507h83.269C458.568,3426.507,452.948,3423.5,449.272,3423.362Z" fill="none" stroke="#000" stroke-miterlimit="10" stroke-width="1.14"/><path d="M883.995,3397.7c-3.786-7.621-11.125-13.046-18.665-13.046a13.679,13.679,0,0,0-11.241,5.612,13.2,13.2,0,0,0-8.241-3.169c-5.144,0-8.924,3.67-9.818,8.848a19.445,19.445,0,0,0-7.576-1.975c-5.133-.234-9.193,1.875-11.284,5.3a6.909,6.909,0,0,0-3.172-.987c-2.957-.134-4.877,2-4.3,4.751.038.174.083.34.128.507h83.269C893.29,3400.843,887.67,3397.834,883.995,3397.7Z" fill="none" stroke="#000" stroke-miterlimit="10" stroke-width="1.14"/><path d="M679.625,3504.5a10.854,10.854,0,0,0-1.2-.07c-3.705-4.5-8.337-7.376-12.7-7.376a8.412,8.412,0,0,0-7.293,4.04c-6.753-8.739-15.476-14.418-23.634-14.418-6.582,0-11.584,3.694-14.383,9.72-3.812-3.428-8.089-5.484-12.163-5.484-7.159,0-11.6,6.35-11.685,15.308,0,0,.007.011-.01,0a25.547,25.547,0,0,0-10.98-3.429c-7.18-.4-12.354,3.244-14.5,9.189a9.242,9.242,0,0,0-4.637-1.708c-3.925-.219-6.1,3.059-5.134,7.446H697.539C694.743,3511.066,686.95,3505.248,679.625,3504.5Z" fill="none" stroke="#000" stroke-miterlimit="10" stroke-width="1.14"/><path d="M717.848,3322.67a5.454,5.454,0,0,0-.6-.034c-1.853-2.251-4.169-3.689-6.348-3.689a4.207,4.207,0,0,0-3.647,2.021c-3.376-4.37-7.738-7.209-11.817-7.209a7.728,7.728,0,0,0-7.191,4.859,9.444,9.444,0,0,0-6.082-2.741c-3.579,0-5.8,3.174-5.842,7.653,0,0,0,.006-.005,0a12.783,12.783,0,0,0-5.49-1.714,6.842,6.842,0,0,0-7.249,4.595,4.624,4.624,0,0,0-2.319-.855c-1.962-.109-3.052,1.53-2.567,3.723H726.8A11.81,11.81,0,0,0,717.848,3322.67Z" fill="none" stroke="#000" stroke-miterlimit="10" stroke-width="1.14"/></g><g transform="translate(0 -3189.36)"><path d="M553.995,3699.385c-.038,0-.075,0-.113,0v0H523.456c-13.1,0-23.716,17.184-23.716,38.381s10.618,38.382,23.716,38.382h30.426v0c.038,0,.075,0,.113,0,13.1,0,23.715-17.184,23.715-38.382S567.093,3699.385,553.995,3699.385Z" fill="#efc523"/><path d="M553.995,3699.385c-.038,0-.075,0-.113,0v0H523.456c-13.1,0-23.716,17.184-23.716,38.381s10.618,38.382,23.716,38.382h30.426v0c.038,0,.075,0,.113,0,13.1,0,23.715-17.184,23.715-38.382S567.093,3699.385,553.995,3699.385Z" opacity="0.2"/><path d="M416.129,3699.385c-.038,0-.075,0-.113,0v0H385.589c-13.1,0-23.715,17.184-23.715,38.381s10.618,38.382,23.715,38.382h30.427v0c.038,0,.075,0,.113,0,13.1,0,23.715-17.184,23.715-38.382S429.226,3699.385,416.129,3699.385Z"/><path d="M416.129,3699.385c-.038,0-.075,0-.113,0v0H385.589c-13.1,0-23.715,17.184-23.715,38.381s10.618,38.382,23.715,38.382h30.427v0c.038,0,.075,0,.113,0,13.1,0,23.715-17.184,23.715-38.382S429.226,3699.385,416.129,3699.385Z" fill="#1a2e35" opacity="0.2"/><path d="M707.62,3670.242l6.958,5.98a11.605,11.605,0,0,1,3.727,11.485l-1.59,6.685Z" fill="#efc523"/><path d="M720.242,3709.2h0a115.871,115.871,0,0,0-10.133-37.83l-2.37-5.146h-57.83l29.97,86.266h0a68.766,68.766,0,0,0,28.511-14.847l.69-.6A32.911,32.911,0,0,0,720.242,3709.2Z" fill="#efc523"/><path d="M720.242,3709.2h0a115.871,115.871,0,0,0-10.133-37.83l-2.37-5.146h-57.83l29.97,86.266h0a68.766,68.766,0,0,0,28.511-14.847l.69-.6A32.911,32.911,0,0,0,720.242,3709.2Z" fill="#fff" opacity="0.5"/><path d="M643.492,3776.148c-13.1,0-23.715-17.184-23.715-38.381s10.618-38.382,23.715-38.382h30.427v76.763Z" fill="#efc523"/><ellipse cx="23.715" cy="38.382" rx="23.715" ry="38.382" transform="translate(650.317 3699.385)"/><ellipse cx="16.638" cy="24.272" rx="16.638" ry="24.272" transform="translate(657.394 3713.495)" fill="#fff" opacity="0.2"/><path d="M470.362,3752.489l-57.03-91.528c-.01.007,45.119-45.623,143.689-45.623,85.326,0,136.432,28.179,150.718,50.885l-33.82,33.162c-32.749,0-32.544,34.723-37.035,49.325a5.343,5.343,0,0,1-5.163,3.779H470.362" fill="#efc523"/><path d="M505.626,3776.148c-13.1,0-23.715-17.184-23.715-38.381s10.618-38.382,23.715-38.382h30.427v76.763Z"/><ellipse cx="23.715" cy="38.382" rx="23.715" ry="38.382" transform="translate(512.451 3699.385)"/><ellipse cx="16.638" cy="24.272" rx="16.638" ry="24.272" transform="translate(519.528 3713.495)" fill="#fff" opacity="0.2"/><path d="M494.414,3744.933c2.9-17.146,20-45.548,41.639-45.548l20.968-38.424H413.332c-9.162,0-52,15.476-67.6,31.074-10.918,10.918-12.05,21.9-13.332,49.867-.262,5.709,4.984,10.615,11.294,10.618,53.005.024,117.159.206,140.514.277C489.364,3752.812,493.637,3749.524,494.414,3744.933Z" fill="#efc523"/><path d="M557.019,3615.343c-97.958,0-142.658,44.915-143.672,45.608l-.01.011h99.114s42.613-36.838,70.858-44.678Q570.766,3615.359,557.019,3615.343Z"/><path d="M434.447,3700.162c13.6-5.15,54.654-19.616,65.853-15.853s-15.918,17.184-22.742,18.968-11.313-1.786-21.536,3.155S417.98,3706.4,434.447,3700.162Z" fill="#ccc" opacity="0.7"/><path d="M602.856,3753.012a.515.515,0,0,1-.294-.091.523.523,0,0,1-.138-.726c.2-.3,20.293-30.55,20.293-91.233a.523.523,0,0,1,1.046,0c0,61.036-20.27,91.52-20.475,91.821A.521.521,0,0,1,602.856,3753.012Z" fill="#efc523" opacity="0.2"/><path d="M385.193,3706.18a.511.511,0,0,1-.117-.014l-27.295-6.272a.523.523,0,0,1,.234-1.019l27.208,6.253L430.21,3700a.523.523,0,0,1,.119,1.039l-45.077,5.133C385.233,3706.179,385.212,3706.18,385.193,3706.18Z" fill="#efc523" opacity="0.2"/><path d="M673.92,3699.908a.523.523,0,0,1-.367-.9c9.536-9.351,14.614-31.188,14.614-43.357a.523.523,0,0,1,1.046,0c0,12.353-5.187,34.552-14.927,44.1A.523.523,0,0,1,673.92,3699.908Z" fill="#efc523" opacity="0.2"/><path d="M597.107,3671.393H610.7a1.922,1.922,0,0,0,1.917-1.917h0a1.922,1.922,0,0,0-1.917-1.916H597.107a1.922,1.922,0,0,0-1.917,1.916h0A1.922,1.922,0,0,0,597.107,3671.393Z" fill="#efc523"/><path d="M656.748,3671.393h13.589a1.923,1.923,0,0,0,1.917-1.917h0a1.922,1.922,0,0,0-1.917-1.916H656.748a1.922,1.922,0,0,0-1.917,1.916h0A1.922,1.922,0,0,0,656.748,3671.393Z" fill="#efc523"/><path d="M356.93,3700.674c-2.8-1.7-7.391-4.4-12.586-7.171a34.454,34.454,0,0,0-6.722,10.318,13.367,13.367,0,0,1,5.593,2.77C349.842,3711.692,367.582,3707.176,356.93,3700.674Z" fill="#ccc" opacity="0.7"/><path d="M529.973,3660.961H668.481a41.146,41.146,0,0,0,20.21-5.306h0s-22.414-20.363-67.537-29.14c-18.546-3.608-36.127-5.008-41.528-4.66C566.734,3628.65,546.989,3642.936,529.973,3660.961Z"/><path d="M446.9,3746.137H348.421a2.748,2.748,0,0,1-2.058-4.569l2.545-2.875a2.745,2.745,0,0,1,2.057-.926h93.388a2.745,2.745,0,0,1,2.057.926l2.544,2.875A2.748,2.748,0,0,1,446.9,3746.137Z"/><path d="M705.231,3700.322l-6.2,1.2v-16.814l6.2,1.2c.839.163,1.47,1.3,1.47,2.642v9.136C706.7,3699.027,706.07,3700.16,705.231,3700.322Z" fill="#efc523"/></g><g transform="translate(0 -3189.36)"><path d="M633.785,3612.135c1.876-.428,7.78,1.27,9.811,4.389s1.117,9.164.374,9.851-5.9-1.123-8.069-3.045c-1.45-1.285-1.456-3.4-1.747-5.4C633.724,3614.973,633.493,3612.2,633.785,3612.135Z"/><path d="M634.67,3623.3c-1.807-3.274-1.1-7.431-1.073-11a.034.034,0,0,1,.067-.005c.449,3.246-.369,6.611.737,9.774a6.132,6.132,0,0,0,3.937,4.049,17.925,17.925,0,0,0,5.284.32c.115,0,.1.173-.01.177C640.161,3626.739,636.534,3626.675,634.67,3623.3Z"/><path d="M634.29,3612.314c-.106-.011-.1-.176.008-.166,2.989.269,6.7.9,9.011,2.98,2.5,2.251,2.1,5.72,1.711,8.724-.005.037-.064.034-.06,0,.355-3.035.557-6.714-2.122-8.819C640.534,3613.218,637.123,3612.609,634.29,3612.314Z"/><path d="M643.618,3626.122c2.973-.923,7.092-1.773,9.033.323s3.4,7.178,3.215,7.433-5.611,2.518-8.923,1.409S643.231,3626.242,643.618,3626.122Z"/><path d="M655.908,3634.2c-.245-2.769-.822-6.22-3.158-8.054-2.249-1.766-6.17-.9-8.657-.142a.026.026,0,0,1-.019-.048c2.483-.989,6.317-1.8,8.675-.1,2.338,1.685,3.41,5.6,3.261,8.35C656.007,3634.258,655.914,3634.254,655.908,3634.2Z"/><path d="M655.338,3633.358a8.137,8.137,0,0,0,4.676,4.459c4.179,1.494,3.036,2.963,3.331,7.874a4.752,4.752,0,0,0,7.126,4.076,3.143,3.143,0,0,1-3.824-2.188c-1.028-3.491,3.659-10.205-.2-14.673C661.443,3627.124,655.338,3633.358,655.338,3633.358Z"/><path d="M657.023,3635.408c-.049-.063-.159.02-.112.086a6.417,6.417,0,0,0,1.639,1.632c.839.568,1.822.764,2.689,1.269,2.208,1.283,1.611,4.12,1.384,6.213-.3,2.808.986,5.344,3.874,6.042a.033.033,0,0,0,.016-.065,5.016,5.016,0,0,1-3.654-3.7c-.392-1.744.3-3.507.2-5.262a3.949,3.949,0,0,0-1.377-3.17,9.841,9.841,0,0,0-1.879-.873A6.986,6.986,0,0,1,657.023,3635.408Z"/><path d="M655.991,3632.724c-.025.022.008.066.036.047,1.834-1.29,3.69-2.672,6.039-2.714a6.722,6.722,0,0,1,5.869,3.836c1.262,2.445.058,4.6-.843,6.918a10.043,10.043,0,0,0-.892,5.215c.009.055.1.042.1-.014-.14-2.856,1.13-5.218,2.052-7.833a5.5,5.5,0,0,0-1.151-5.729C663.993,3628.645,659.343,3629.781,655.991,3632.724Z"/></g><g transform="translate(0 -3189.36)"><path d="M687.178,3660.4v14.021a7.01,7.01,0,0,0,0-14.021Z" fill="#efc523"/><rect width="53.652" height="322.522" transform="translate(714.179 3457.823)" fill="#1a2e35"/><rect width="63.781" height="3.972" transform="translate(718.766 3453.851)" fill="#1a2e35"/><rect width="14.717" height="3.972" transform="translate(767.83 3453.851)" opacity="0.4"/><path d="M749.841,3486.4h-9.025l7.893-12.5h-9.916l-6.626,17.659H740.4l-5.021,15.947Z" fill="#fff"/><circle cx="11.274" cy="11.274" r="11.274" transform="matrix(0.685, -0.728, 0.728, 0.685, 725.068, 3662.108)" fill="#efc523" opacity="0.5"/><path d="M691.335,3780.644c6.638-.539,12.51-2.182,15.244-5.488,6.276-7.589,3.15-23.938-.158-41.248-2.2-11.493-4.469-23.377-4.469-34.418,0-25.72,13.869-39.884,39.052-39.884a2.019,2.019,0,0,1,0,4.038c-15.973,0-35.014,6.219-35.014,35.846,0,10.659,2.235,22.352,4.4,33.66,3.491,18.27,6.79,35.526-.7,44.58-3.548,4.291-6.749,5.756-16.823,6.378s-19.135-2.681-17.205-11.8,19.963,4.251,19.963-55c0-5.665-1-10.97-1-15.124a108.15,108.15,0,0,1,1.533-16.5c.958-6.444,1.716-11.534-.346-13.926-1.35-1.566-4.175-2.327-8.638-2.327v-4.038c5.787,0,9.5,1.185,11.7,3.728,3.27,3.794,2.392,9.691,1.28,17.157a104.915,104.915,0,0,0-1.489,15.905c0,3.97.764,9.192.98,14.759,2.088,53.676-18.492,53.683-18.71,57.39C680.564,3780.644,688.975,3780.836,691.335,3780.644Z" fill="#efc523"/><rect width="40.269" height="81.379" transform="translate(720.87 3560.112)" fill="#efc523" opacity="0.5"/><path d="M720.87,3560.112v81.379l14.425-70.05Z" fill="#efc523" opacity="0.5"/><path d="M753.493,3587.56l.819-3.977H743.326l-.819,3.977h-4.258l-7.786,37.812h19.6l7.786-37.812Z" fill="#efc523"/><path d="M752.48,3600.978l-4.012,19.48a2.957,2.957,0,0,1-2.9,2.361h-9.784a1.789,1.789,0,0,1-1.752-2.15l4.012-19.48a2.957,2.957,0,0,1,2.9-2.36h9.784A1.789,1.789,0,0,1,752.48,3600.978Z" fill="#fff" opacity="0.4"/><path d="M720.87,3560.112h40.268v11.329H735.295Z" fill="#1a2e35" opacity="0.4"/><rect width="19.305" height="322.522" transform="translate(787.135 3780.345) rotate(180)" fill="#1a2e35"/><rect width="19.305" height="322.522" transform="translate(787.135 3780.345) rotate(180)" opacity="0.4"/></g><g transform="translate(0 -3189.36)"><path d="M649.843,3627.428c-.385-2.835,1.352-11.194,9.09-13.606,10.344-3.216,32.04.99,42.161-10.014,10.149-11.055,7.073-20.67,5.878-27.389-1.222-6.733-4.87-8.839-5.125-12.826-.279-4.01,4.475-4.117,9.015,6.2,2.175,4.93,15.795,28.016,6.152,43.37C704.389,3633.3,652.246,3644.161,649.843,3627.428Z" fill="#fff"/><path d="M647.808,3622.163s-.669,11.864,16.938,13.351,25.493-.307,25.493-.307,4.317-10.72-.916-28.091C689.323,3607.116,646.353,3605.351,647.808,3622.163Z" fill="#efc523"/><path d="M611.056,3640.16a58.965,58.965,0,0,1,1.542,18.054,57.562,57.562,0,0,1-.906,6.97c-1.51,7.658-1.166,18.686-4.447,27.905,4.67,1.993,2.337,8.592,2.133,9.047-10.442,19.94,54.485,6.376,65.7-9.656,3.862-5.52.6-12.793,1.622-23.611.311-2.416.455-4.879.567-7.291.669-11.083.288-21.938-1.018-29.359-4.005-22.514-25-24.308-37.849-22.96-5.837.608-13.443,1.333-19.382,4.544l-.028.061C612.069,3617.744,607.538,3625.109,611.056,3640.16Z" fill="#efc523"/><path d="M662.021,3749.3c-19.38,15.554-56.535,52.093-48.245,58.983,8.285,6.867,15.264,7.8,11.54,2.45-3.681-5.381-3.408-6.083-2.039-7.485,8.57-8.808,31.2-19.854,45.8-30.743C686.041,3759.869,678.956,3735.688,662.021,3749.3Z" fill="#fff"/><path d="M613.419,3801.348s4.835,9.027,11.9,9.381c0,0,7.347,7.777.39,5.885C618.728,3814.7,607.179,3808.639,613.419,3801.348Z" fill="#efc523"/><path d="M628,3629.617c2.244,11.19,6.109,53.227-19.6,66.861,0,0,31.2,25.5,57.77-1.983,0,0,11.4-45.194,4.9-64.66-1.868-5.585-6.3-20.916-18.439-20.293,0,0,18.128,27.477,10.005,34.4s-15.363.628-18.648-4.9c-5.284-8.89-16.971-28.119-16.971-28.119l-7.109,2.44A37.545,37.545,0,0,1,628,3629.617Z"/><path d="M628.375,3593.245s7.226,7.877,2.263,14.852c-5.107,7.161,25.177,12.844,22.834,7.635-3-6.729-7.862-9.75-6.956-18.839Z" fill="#fff"/><path d="M637.626,3571.079c7.71,3.746,21.767,26.372,17.236,33.746-2.012,3.2-14.025,4.034-24.475-4.591-4.3-3.508-10.5-10.73-8.625-20.5C622.622,3575.3,628.69,3566.725,637.626,3571.079Z" fill="#fff"/><path d="M644.616,3572.162c2.272,2.682,4.242,6.693-6.743,7.821,5.569,10.965-11.213,12.556-5.386,19.257s-3.457,4.438-8.876-.855c-1.064-1.074-6.928-6.1-5.422-17.156C619.931,3568.3,636.209,3562.339,644.616,3572.162Z"/><path d="M633.071,3586.9s19.381-13.626,15.013-21.785c-2.7-5.017-17.971,2.811-17.971,2.811Z" fill="#efc523"/><path d="M641.448,3569.792c.764,9.11-3.881,15.117-20.424,26.514,0,0-15.038-13.139-6.282-26.072C622.477,3558.829,640.955,3563.979,641.448,3569.792Z" fill="#efc523"/><path d="M660.224,3686.183s48.784,26.5,54.854,43.037-82.106,72.075-82.106,72.075-10.782-10.153-6.208-19.828c17.149-36.265,23.47-47.9,23.47-47.9l-41.777-37Z"/><path d="M604.877,3775.834c-24.247-5.435-75.985-11.66-76.2-.882-.194,10.758,3.428,16.8,5.288,10.545,1.907-6.235,2.626-6.46,4.576-6.265,12.231,1.2,34.985,11.986,52.6,16.6C611.608,3801.2,626.08,3780.573,604.877,3775.834Z" fill="#fff"/><path d="M533.874,3770.346s-4.035,9.412.1,15.151c0,0-1.491,10.594-4.355,3.977C526.753,3782.83,524.283,3770.022,533.874,3770.346Z" fill="#efc523"/><path d="M652.086,3732.651s9.7,54.664.564,69.72S545.1,3783.132,545.1,3783.132s1.214-14.76,11.629-17.217c39.044-9.209,52.081-11.523,52.081-11.523l-.407-57.914Z"/><path d="M619.376,3635.788c1.8.783,3.382,1.432,5.086,2.076,1.673.652,3.369,1.234,5.066,1.822,3.411,1.137,6.86,2.211,10.428,3.089a90.234,90.234,0,0,0,11.114,2.17,53.734,53.734,0,0,0,6.138.481,32.574,32.574,0,0,0,7.313-.659l.561-.119a5.706,5.706,0,0,0,1.1-.363,20.17,20.17,0,0,0,6.05-4.224,35.929,35.929,0,0,0,3.623-4.239,61.723,61.723,0,0,0,5.091-8.367c1.418-2.806,2.666-5.615,3.772-8.467a84.669,84.669,0,0,0,2.882-8.744,5.026,5.026,0,0,0-8.854-4.333l-.1.129-5.134,6.738c-1.716,2.229-3.424,4.428-5.169,6.5a67.589,67.589,0,0,1-5.2,5.689,17.842,17.842,0,0,1-2.433,2.021c-.711.482-1.364.744-1.194.554l1.659-.483a20.535,20.535,0,0,1-2.927-.19c-1.247-.177-2.639-.4-4.06-.715s-2.9-.682-4.385-1.1c-1.491-.4-3-.838-4.519-1.316-3.029-.961-6.106-1.98-9.17-3.076l-4.6-1.656-4.487-1.652-.218-.08a9.981,9.981,0,0,0-7.431,18.519Z" fill="#fff"/><path d="M683.1,3612.483l10.823-2.823-6.887-11.511s-9.489,3.745-8.314,9.109Z"/><path d="M699.874,3599.684l-3.094-3.627a3.877,3.877,0,0,0-4.953-.8l-4.794,2.9,6.887,11.511,5.457-4.46A3.874,3.874,0,0,0,699.874,3599.684Z"/><path d="M689.72,3608.219c-1.933,3.159-4.047,11.371-4.238,13.654-7.825.056-13.691-5.163-13.648-7.87,3.354-5.379,6.488-9.325,9.252-11.017C686.339,3602.2,689.72,3608.219,689.72,3608.219Z"/><path d="M611.246,3621.359s-4.452,10.432,10.878,17.487c15.3,7.039,22.947,8.015,22.947,8.015s7.351-8.234,8.309-25.5C653.38,3621.364,615.414,3605.811,611.246,3621.359Z" fill="#efc523"/></g><path d="M711.716,3576.842l5.424-9.781-13.084-2.958s-3.836,9.453.857,12.3Z" transform="translate(0 -3189.36)"/><path d="M714.026,3555.868l-4.76-.264a3.877,3.877,0,0,0-4,3.032l-1.212,5.467,13.084,2.958.537-7.028A3.875,3.875,0,0,0,714.026,3555.868Z" transform="translate(0 -3189.36)"/><path d="M713.2,3569.106c.953,3.579,5.439,10.776,6.959,12.489-5.357,5.7-13.183,6.348-15.112,4.449-1.58-6.139-2.274-11.131-1.592-14.3C706.511,3567.4,713.2,3569.106,713.2,3569.106Z" transform="translate(0 -3189.36)"/><g transform="translate(0 -3189.36)"><path d="M633.641,3612.045c1.84-.419,7.63,1.246,9.622,4.305s1.1,8.988.367,9.662-5.786-1.1-7.914-2.987c-1.422-1.26-1.428-3.337-1.714-5.3C633.581,3614.829,633.355,3612.11,633.641,3612.045Z"/><path d="M634.508,3622.992c-1.772-3.211-1.082-7.288-1.052-10.787,0-.037.061-.043.066-.005.441,3.184-.362,6.484.723,9.586a6.015,6.015,0,0,0,3.861,3.972,17.617,17.617,0,0,0,5.183.314c.113,0,.1.17-.01.174C639.894,3626.369,636.337,3626.306,634.508,3622.992Z"/><path d="M634.136,3612.221c-.1-.011-.1-.173.008-.163,2.932.264,6.572.885,8.838,2.923,2.454,2.208,2.057,5.61,1.678,8.556,0,.037-.063.034-.058,0,.348-2.977.545-6.586-2.082-8.651C640.261,3613.108,636.915,3612.51,634.136,3612.221Z"/><path d="M643.285,3625.764c2.916-.906,6.956-1.74,8.86.316a16.881,16.881,0,0,1,3.153,7.291c-.181.251-5.5,2.47-8.752,1.382S642.905,3625.882,643.285,3625.764Z"/><path d="M655.34,3633.684c-.241-2.716-.807-6.1-3.1-7.9-2.2-1.732-6.051-.881-8.49-.139a.025.025,0,0,1-.018-.047c2.434-.97,6.2-1.768,8.508-.1,2.293,1.653,3.345,5.494,3.2,8.19C655.436,3633.744,655.345,3633.74,655.34,3633.684Z"/><path d="M654.78,3632.861a7.978,7.978,0,0,0,4.587,4.373c4.1,1.465,2.978,2.907,3.267,7.723a4.66,4.66,0,0,0,6.989,4,3.083,3.083,0,0,1-3.751-2.146c-1.008-3.424,3.589-10.009-.2-14.392C660.768,3626.746,654.78,3632.861,654.78,3632.861Z"/><path d="M656.433,3634.872c-.049-.062-.156.019-.11.084a6.3,6.3,0,0,0,1.608,1.6c.823.557,1.787.749,2.637,1.244,2.166,1.259,1.58,4.041,1.357,6.095-.3,2.753.967,5.24,3.8,5.925a.033.033,0,0,0,.016-.063,4.919,4.919,0,0,1-3.584-3.627c-.384-1.711.294-3.439.194-5.16a3.875,3.875,0,0,0-1.35-3.11,9.722,9.722,0,0,0-1.844-.856A6.856,6.856,0,0,1,656.433,3634.872Z"/><path d="M655.421,3632.239c-.025.021.008.065.035.046,1.8-1.265,3.62-2.62,5.923-2.662a6.6,6.6,0,0,1,5.757,3.763c1.238,2.4.056,4.516-.827,6.785a9.842,9.842,0,0,0-.875,5.115c.009.054.1.041.095-.013-.138-2.8,1.108-5.119,2.013-7.684a5.39,5.39,0,0,0-1.13-5.619C663.269,3628.239,658.708,3629.353,655.421,3632.239Z"/></g></g></svg>