<svg xmlns="http://www.w3.org/2000/svg" width="873.029" height="515.238" viewBox="0 0 873.029 515.238"><g transform="translate(-271.669 -239.086)"><path d="M346.544,251.694s-3.687-9.833-12.291-11.676-11.983,3.38-13.827,7.682-7.375.921-11.984.307-7.067,3.994-7.989,7.375-6.76-1.537-11.983,1.536-6.146,7.067-7.375,7.989-4.609-.615-6.453,1.844l-1.843,2.458h96.176s3.073-7.068-2.765-12.291S350.231,259.683,346.544,251.694Z" fill="none" stroke="#1a2e35" stroke-linecap="round" stroke-miterlimit="10" stroke-width="1.13"/><path d="M734.927,260.787s-6.468-17.248-21.561-20.482-21.021,5.929-24.255,13.475-12.936,1.617-21.021.539-12.4,7.007-14.014,12.936-11.858-2.7-21.021,2.7-10.78,12.4-12.936,14.014-8.085-1.078-11.319,3.234l-3.234,4.312H774.274s5.39-12.4-4.851-21.56S741.4,274.8,734.927,260.787Z" fill="none" stroke="#1a2e35" stroke-linecap="round" stroke-miterlimit="10" stroke-width="1.13"/><path d="M926.107,352.246S919.639,335,904.546,331.764s-21.021,5.929-24.255,13.475-12.936,1.617-21.021.539-12.4,7.007-14.014,12.936-11.858-2.695-21.021,2.7-10.78,12.4-12.936,14.014-8.086-1.078-11.319,3.234l-3.235,4.312H965.454s5.39-12.4-4.851-21.56S932.575,366.26,926.107,352.246Z" fill="none" stroke="#1a2e35" stroke-linecap="round" stroke-miterlimit="10" stroke-width="1.13"/><path d="M1128.115,254.608s-2.541-6.777-8.471-8.048-8.26,2.33-9.531,5.295-5.082.635-8.259.212-4.871,2.753-5.507,5.083-4.659-1.059-8.259,1.059-4.236,4.871-5.083,5.506-3.177-.423-4.448,1.271l-1.271,1.694h66.29s2.118-4.871-1.906-8.471S1130.657,260.115,1128.115,254.608Z" fill="none" stroke="#1a2e35" stroke-linecap="round" stroke-miterlimit="10" stroke-width="1.13"/><path d="M275.478,280.86a.52.52,0,0,1-.517.522h-2.585a.52.52,0,1,1,0-1.039h2.585A.517.517,0,0,1,275.478,280.86Z" fill="#fff"/><path d="M275.478,283.323a.516.516,0,0,1-.517.517h-2.585a.519.519,0,1,1,0-1.037h2.585A.518.518,0,0,1,275.478,283.323Z" fill="#fff"/><path d="M277.66,286.726l-2.988-1.037V279.16s5.627-1,5.627,6.96C280.3,286.995,277.66,286.726,277.66,286.726Z" fill="#fff"/><path d="M317.419,280.86a.521.521,0,0,0,.52.522h2.589a.52.52,0,0,0,0-1.039h-2.589A.521.521,0,0,0,317.419,280.86Z" fill="#fff"/><path d="M317.419,283.323a.52.52,0,0,0,.52.517h2.589a.518.518,0,0,0,0-1.037h-2.589A.522.522,0,0,0,317.419,283.323Z" fill="#fff"/><path d="M315.238,286.726l2.986-1.037V279.16s-5.627-1-5.627,6.96C312.6,286.995,315.238,286.726,315.238,286.726Z" fill="#fff"/><path d="M562.182,566.031a134.059,134.059,0,0,1-19.04-12.588,139.587,139.587,0,0,1-16.526-15.41,141.465,141.465,0,0,1-13.982-18.064,139.544,139.544,0,0,1-10.817-19.927,135,135,0,0,1-7.388-21.433q-.346-1.373-.663-2.751c-.1-.417-.726-.206-.631.208a134.6,134.6,0,0,0,7.03,21.809,140.222,140.222,0,0,0,10.474,20.208,142.521,142.521,0,0,0,13.591,18.274,140.277,140.277,0,0,0,16.453,15.956,135.469,135.469,0,0,0,18.728,12.933q1.228.7,2.471,1.378c.376.2.675-.388.3-.593Z" fill="none" stroke="#000" stroke-miterlimit="10" stroke-width="1.123"/><path d="M495.1,481.25c-4.673-2.133-9.52-8.431-10.521-14.6a14,14,0,0,1,.022-5.272,7.17,7.17,0,0,1,2.656-4.377,4.4,4.4,0,0,1,4.3-.226c3.384,1.509,5.294,5.936,5.583,10.528s-.791,9.357-2.043,13.943" fill="none" stroke="#000" stroke-miterlimit="10" stroke-width="1.123"/><path d="M500.956,497.456c-4.518,2.445-12.464,2.519-17.988-.4a14.01,14.01,0,0,1-4.194-3.2,7.173,7.173,0,0,1-1.894-4.757,4.4,4.4,0,0,1,2.412-3.57c3.244-1.792,7.928-.649,11.767,1.887s6.992,6.269,9.9,10.031" fill="none" stroke="#000" stroke-miterlimit="10" stroke-width="1.123"/><path d="M500.491,498.178c-1.607-4.879-.277-12.713,3.569-17.635a14.014,14.014,0,0,1,3.885-3.564,7.166,7.166,0,0,1,5.016-1.023,4.394,4.394,0,0,1,3.088,3c1.191,3.51-.761,7.918-3.936,11.248s-7.4,5.775-11.622,7.97" fill="none" stroke="#000" stroke-miterlimit="10" stroke-width="1.123"/><path d="M512.8,519.68c-4.092,3.1-11.934,4.39-17.838,2.351a14.009,14.009,0,0,1-4.632-2.518,7.167,7.167,0,0,1-2.6-4.412,4.4,4.4,0,0,1,1.84-3.9c2.932-2.266,7.735-1.85,11.916.071s7.866,5.129,11.311,8.4" fill="none" stroke="#000" stroke-miterlimit="10" stroke-width="1.123"/><path d="M512.45,520.464c-2.333-4.576-2.213-12.522.838-17.973a14.011,14.011,0,0,1,3.3-4.114,7.168,7.168,0,0,1,4.8-1.776,4.4,4.4,0,0,1,3.51,2.5c1.712,3.286.454,7.94-2.175,11.716s-6.439,6.836-10.271,9.648" fill="none" stroke="#000" stroke-miterlimit="10" stroke-width="1.123"/><path d="M528.819,540.337c-3.615,3.649-11.2,6.023-17.331,4.834a14.011,14.011,0,0,1-4.939-1.842,7.164,7.164,0,0,1-3.191-4,4.4,4.4,0,0,1,1.273-4.116c2.585-2.655,7.4-2.919,11.808-1.6s8.509,3.973,12.38,6.732" fill="none" stroke="#000" stroke-miterlimit="10" stroke-width="1.123"/><path d="M528.584,541.162c-2.953-4.2-3.95-12.087-1.7-17.913a14,14,0,0,1,2.685-4.536,7.17,7.17,0,0,1,4.5-2.434,4.4,4.4,0,0,1,3.827,1.981c2.157,3.014,1.566,7.8-.507,11.906s-5.414,7.673-8.813,11" fill="none" stroke="#000" stroke-miterlimit="10" stroke-width="1.123"/><path d="M546.726,556.154c-2.23,3.447-7.772,6.546-12.763,6.621a11.213,11.213,0,0,1-4.165-.631,5.732,5.732,0,0,1-3.152-2.609,3.514,3.514,0,0,1,.321-3.428c1.587-2.5,5.309-3.495,8.973-3.189a34.885,34.885,0,0,1,10.786,3.236" fill="none" stroke="#000" stroke-miterlimit="10" stroke-width="1.123"/><path d="M546.677,556.838c-3-2.8-5.07-8.806-4.262-13.732a11.189,11.189,0,0,1,1.357-3.988,5.727,5.727,0,0,1,3.124-2.641,3.512,3.512,0,0,1,3.318.922c2.18,2,2.5,5.842,1.554,9.4a34.9,34.9,0,0,1-5.091,10.044" fill="none" stroke="#000" stroke-miterlimit="10" stroke-width="1.123"/><path d="M550.019,702.28a38.8,38.8,0,0,1-19.906,10.779,63.848,63.848,0,0,1-22.848.4A95.541,95.541,0,0,1,447.71,679.9c2.573-2.847,6.238-4.433,9.866-5.681a82.679,82.679,0,0,1,81.66,16.251c3.06,2.706,8.855,8.212,10.783,11.813" fill="none" stroke="#000" stroke-miterlimit="10" stroke-width="1.123"/><path d="M454.588,680.528a343.294,343.294,0,0,1,35.816,8.557c11.822,3.342,23.6,6.869,35.567,9.664,6.686,1.561,13.429,2.887,20.232,3.823.608.083.8-.855.186-.939a278.737,278.737,0,0,1-35.924-7.856c-11.852-3.263-23.615-6.854-35.537-9.862-6.664-1.681-13.378-3.175-20.155-4.326a.479.479,0,0,0-.185.939Z" fill="none" stroke="#000" stroke-miterlimit="10" stroke-width="1.123"/><path d="M530.6,699.094a86.935,86.935,0,0,1-22.607,8.05q-3.338.684-6.722,1.1c-.609.076-.543,1.032.071.955a87.592,87.592,0,0,0,23.526-6.341q3.19-1.36,6.265-2.973a.481.481,0,0,0,.131-.664.49.49,0,0,0-.664-.131Z" fill="none" stroke="#000" stroke-miterlimit="10" stroke-width="1.123"/><path d="M517.891,695.6a37.681,37.681,0,0,0-7.483-8.771,74.742,74.742,0,0,0-9.471-6.918c-1.873-1.187-3.774-2.329-5.678-3.465-.53-.317-.954.542-.428.856,3.313,1.978,6.624,3.969,9.777,6.2a51.928,51.928,0,0,1,8.664,7.486,33.316,33.316,0,0,1,3.824,5.148c.318.529,1.112-.006.795-.533Z" fill="none" stroke="#000" stroke-miterlimit="10" stroke-width="1.123"/><path d="M496.733,690.052a60.49,60.49,0,0,1-15.677,3.625q-2.252.21-4.515.252c-.616.012-.545.967.071.955a61.416,61.416,0,0,0,16.045-2.459q2.221-.649,4.39-1.469c.576-.216.265-1.122-.314-.9Z" fill="none" stroke="#000" stroke-miterlimit="10" stroke-width="1.123"/><path d="M482.183,685.65a39.212,39.212,0,0,0-12.684-9.537,38.608,38.608,0,0,0-4.174-1.679.479.479,0,0,0-.3.911,37.809,37.809,0,0,1,16.438,10.943c.407.464,1.121-.175.715-.638Z" fill="none" stroke="#000" stroke-miterlimit="10" stroke-width="1.123"/><path d="M721.52,731.278c-2.155-13.249.536-27.015,6.2-39.186s14.18-22.843,23.776-32.229A167.445,167.445,0,0,1,861.64,612.719c1.222,6.613-.474,13.4-2.6,19.783a144.9,144.9,0,0,1-109.593,96.35c-7.025,1.377-20.86,3.579-27.925,2.426" fill="none" stroke="#000" stroke-miterlimit="10" stroke-width="1.123"/><path d="M853.436,621.62c-15.766,14.67-32.825,27.851-50.057,40.737s-34.7,25.531-51.333,39.212c-9.294,7.643-18.322,15.615-26.87,24.088-.763.757.342,2.02,1.11,1.258,15.28-15.145,32.073-28.646,49.2-41.634,17.166-13.021,34.692-25.568,51.576-38.959,9.438-7.485,18.669-15.237,27.489-23.444.789-.735-.318-2-1.11-1.258Z" fill="none" stroke="#000" stroke-miterlimit="10" stroke-width="1.123"/><path d="M746.638,707.64A152.274,152.274,0,0,1,759.513,667.6q2.6-5.376,5.622-10.533c.542-.928-.858-1.854-1.405-.918a153.4,153.4,0,0,0-16.231,39.5q-1.5,5.891-2.536,11.886a.845.845,0,0,0,.785.89.86.86,0,0,0,.89-.785Z" fill="none" stroke="#000" stroke-miterlimit="10" stroke-width="1.123"/><path d="M765.028,693.671a66.067,66.067,0,0,0,20.179-1.074,131.005,131.005,0,0,0,19.715-5.814c3.648-1.342,7.261-2.773,10.871-4.212,1-.4.261-1.906-.736-1.508-6.281,2.505-12.58,4.993-19.039,7.008a90.938,90.938,0,0,1-19.646,4.085,58.214,58.214,0,0,1-11.239-.16c-1.075-.121-1.176,1.554-.1,1.675Z" fill="none" stroke="#000" stroke-miterlimit="10" stroke-width="1.123"/><path d="M795.292,670.136a105.979,105.979,0,0,1,11.652-25.68q2.106-3.36,4.458-6.554c.639-.869-.765-1.787-1.4-.918a107.645,107.645,0,0,0-13.666,24.95q-1.462,3.786-2.632,7.676c-.312,1.032,1.28,1.564,1.593.526Z" fill="none" stroke="#000" stroke-miterlimit="10" stroke-width="1.123"/><path d="M816.916,654.572a68.7,68.7,0,0,0,26.783-7.5,67.216,67.216,0,0,0,6.782-4.021.839.839,0,0,0-.953-1.381A66.307,66.307,0,0,1,816.79,652.9a.839.839,0,0,0,.126,1.673Z" fill="none" stroke="#000" stroke-miterlimit="10" stroke-width="1.123"/><path d="M555.047,546.239a134.147,134.147,0,0,1-4.272-22.421,139.7,139.7,0,0,1-.5-22.591,141.563,141.563,0,0,1,3.18-22.621,139.581,139.581,0,0,1,6.724-21.654,134.985,134.985,0,0,1,10.2-20.249q.739-1.2,1.507-2.394c.232-.36-.359-.665-.589-.307a134.512,134.512,0,0,0-10.714,20.255,140.19,140.19,0,0,0-7.164,21.605,142.448,142.448,0,0,0-3.6,22.486,140.329,140.329,0,0,0,.053,22.92,135.552,135.552,0,0,0,3.808,22.439q.354,1.37.737,2.732c.116.412.75.212.634-.2Z" fill="none" stroke="#000" stroke-miterlimit="10" stroke-width="1.123"/><path d="M568.956,439.029c-1.733-4.836-.6-12.7,3.112-17.722a14.007,14.007,0,0,1,3.791-3.662,7.169,7.169,0,0,1,4.989-1.153,4.394,4.394,0,0,1,3.164,2.924c1.281,3.477-.556,7.934-3.644,11.346s-7.253,5.964-11.412,8.267" fill="none" stroke="#000" stroke-miterlimit="10" stroke-width="1.123"/><path d="M561.434,454.531c-4.9-1.529-10.5-7.169-12.27-13.16a14.012,14.012,0,0,1-.639-5.233,7.172,7.172,0,0,1,2.086-4.676,4.4,4.4,0,0,1,4.24-.764c3.547,1.073,6,5.225,6.86,9.744s.39,9.383-.277,14.089" fill="none" stroke="#000" stroke-miterlimit="10" stroke-width="1.123"/><path d="M560.593,454.7c2.372-4.556,8.912-9.071,15.121-9.751a13.991,13.991,0,0,1,5.263.3,7.169,7.169,0,0,1,4.234,2.879,4.4,4.4,0,0,1,0,4.309c-1.682,3.3-6.2,4.979-10.8,5.03s-9.3-1.274-13.818-2.762" fill="none" stroke="#000" stroke-miterlimit="10" stroke-width="1.123"/><path d="M553.781,478.523c-5.079-.764-11.472-5.484-14.132-11.135a14,14,0,0,1-1.429-5.075,7.164,7.164,0,0,1,1.348-4.939,4.4,4.4,0,0,1,4.074-1.4c3.669.52,6.723,4.25,8.265,8.585s1.816,9.213,1.874,13.966" fill="none" stroke="#000" stroke-miterlimit="10" stroke-width="1.123"/><path d="M552.976,478.82c1.65-4.864,7.425-10.323,13.458-11.943a14.025,14.025,0,0,1,5.247-.51,7.166,7.166,0,0,1,4.623,2.2,4.4,4.4,0,0,1,.66,4.258c-1.16,3.52-5.37,5.867-9.91,6.619s-9.389.16-14.078-.623" fill="none" stroke="#000" stroke-miterlimit="10" stroke-width="1.123"/><path d="M550.167,504.413c-5.136-.043-12.129-3.818-15.557-9.039a14,14,0,0,1-2.128-4.824,7.167,7.167,0,0,1,.64-5.079,4.4,4.4,0,0,1,3.837-1.961c3.706,0,7.254,3.263,9.39,7.338s3.092,8.867,3.818,13.565" fill="none" stroke="#000" stroke-miterlimit="10" stroke-width="1.123"/><path d="M549.412,504.82c.949-5.048,5.9-11.264,11.645-13.716a14.011,14.011,0,0,1,5.123-1.242,7.163,7.163,0,0,1,4.887,1.528,4.4,4.4,0,0,1,1.252,4.123c-.654,3.647-4.493,6.563-8.881,7.945s-9.274,1.478-14.026,1.362" fill="none" stroke="#000" stroke-miterlimit="10" stroke-width="1.123"/><path d="M551.335,528.276c-4.025.808-10.112-1-13.649-4.52a11.191,11.191,0,0,1-2.455-3.424,5.727,5.727,0,0,1-.331-4.078,3.514,3.514,0,0,1,2.68-2.162c2.9-.608,6.208,1.363,8.546,4.2a34.9,34.9,0,0,1,5.209,9.983" fill="none" stroke="#000" stroke-miterlimit="10" stroke-width="1.123"/><path d="M550.811,528.718c-.085-4.1,2.769-9.776,6.861-12.635a11.187,11.187,0,0,1,3.8-1.811,5.724,5.724,0,0,1,4.072.394,3.511,3.511,0,0,1,1.655,3.02c.087,2.96-2.438,5.869-5.644,7.669a34.882,34.882,0,0,1-10.747,3.363" fill="none" stroke="#000" stroke-miterlimit="10" stroke-width="1.123"/><path d="M742.648,650.511a134.132,134.132,0,0,1,8.705-21.1,139.681,139.681,0,0,1,11.956-19.173,141.452,141.452,0,0,1,15.049-17.186,139.6,139.6,0,0,1,17.484-14.436,135.074,135.074,0,0,1,19.619-11.36q1.28-.6,2.573-1.177c.391-.174.063-.753-.325-.58a134.664,134.664,0,0,0-20.057,11.08,140.323,140.323,0,0,0-17.825,14.154,142.555,142.555,0,0,0-15.33,16.842,140.316,140.316,0,0,0-12.507,19.207,135.48,135.48,0,0,0-9.1,20.86q-.454,1.34-.879,2.689c-.129.408.511.588.639.181Z" fill="none" stroke="#000" stroke-miterlimit="10" stroke-width="1.123"/><path d="M813,568.423c1.2-4.995,6.449-10.959,12.308-13.124a14.016,14.016,0,0,1,5.178-.988,7.167,7.167,0,0,1,4.8,1.767,4.394,4.394,0,0,1,1.047,4.179c-.833,3.612-4.811,6.334-9.262,7.5s-9.336,1.018-14.076.668" fill="none" stroke="#000" stroke-miterlimit="10" stroke-width="1.123"/><path d="M798.215,577.275c-3.266-3.966-4.862-11.75-3.059-17.731a14,14,0,0,1,2.331-4.729,7.173,7.173,0,0,1,4.3-2.77,4.4,4.4,0,0,1,3.967,1.683c2.38,2.84,2.156,7.656.4,11.91s-4.812,8.064-7.947,11.637" fill="none" stroke="#000" stroke-miterlimit="10" stroke-width="1.123"/><path d="M797.417,576.957c4.48-2.513,12.425-2.709,17.993.121a14.041,14.041,0,0,1,4.242,3.13,7.171,7.171,0,0,1,1.966,4.727,4.4,4.4,0,0,1-2.357,3.607c-3.216,1.842-7.917.77-11.794-1.707s-7.087-6.161-10.05-9.878" fill="none" stroke="#000" stroke-miterlimit="10" stroke-width="1.123"/><path d="M778.673,593.158c-3.832-3.421-6.6-10.871-5.727-17.057a14.024,14.024,0,0,1,1.583-5.028,7.172,7.172,0,0,1,3.833-3.4,4.4,4.4,0,0,1,4.177,1.059c2.785,2.444,3.3,7.237,2.214,11.709s-3.526,8.7-6.08,12.712" fill="none" stroke="#000" stroke-miterlimit="10" stroke-width="1.123"/><path d="M777.837,592.966c4.044-3.167,11.865-4.572,17.8-2.623a14.025,14.025,0,0,1,4.67,2.446,7.175,7.175,0,0,1,2.664,4.372,4.4,4.4,0,0,1-1.78,3.924c-2.9,2.31-7.706,1.968-11.916.112s-7.944-5.009-11.438-8.231" fill="none" stroke="#000" stroke-miterlimit="10" stroke-width="1.123"/><path d="M761.471,612.841c-4.275-2.849-8.059-9.836-8.067-16.083a14.017,14.017,0,0,1,.861-5.2,7.169,7.169,0,0,1,3.317-3.9,4.394,4.394,0,0,1,4.284.461c3.1,2.028,4.283,6.7,3.838,11.281s-2.268,9.113-4.233,13.441" fill="none" stroke="#000" stroke-miterlimit="10" stroke-width="1.123"/><path d="M760.616,612.768c3.559-3.7,11.1-6.194,17.255-5.1a14,14,0,0,1,4.967,1.766,7.167,7.167,0,0,1,3.252,3.954,4.4,4.4,0,0,1-1.211,4.135c-2.544,2.694-7.353,3.032-11.782,1.785s-8.568-3.843-12.481-6.542" fill="none" stroke="#000" stroke-miterlimit="10" stroke-width="1.123"/><path d="M749.379,633.448c-3.809-1.528-7.914-6.373-8.944-11.257a11.2,11.2,0,0,1-.179-4.209,5.732,5.732,0,0,1,1.956-3.594,3.513,3.513,0,0,1,3.426-.341c2.758,1.078,4.448,4.54,4.85,8.194a34.854,34.854,0,0,1-1.109,11.207" fill="none" stroke="#000" stroke-miterlimit="10" stroke-width="1.123"/><path d="M748.7,633.531c2.176-3.481,7.671-6.664,12.66-6.815a11.178,11.178,0,0,1,4.174.567,5.729,5.729,0,0,1,3.192,2.56,3.512,3.512,0,0,1-.27,3.433c-1.548,2.524-5.254,3.575-8.922,3.326a34.864,34.864,0,0,1-10.834-3.071" fill="none" stroke="#000" stroke-miterlimit="10" stroke-width="1.123"/><path d="M520.253,651.059a134.063,134.063,0,0,1-22.656,2.774,139.583,139.583,0,0,1-22.573-1,141.527,141.527,0,0,1-22.36-4.674,139.64,139.64,0,0,1-21.16-8.146,135.048,135.048,0,0,1-19.528-11.517q-1.154-.819-2.289-1.663c-.343-.255-.687.315-.346.568a134.753,134.753,0,0,0,19.5,12.035,140.272,140.272,0,0,0,21.081,8.581,142.448,142.448,0,0,0,22.2,5.088,140.377,140.377,0,0,0,22.873,1.468,135.5,135.5,0,0,0,22.643-2.31q1.389-.262,2.774-.554c.419-.088.262-.734-.157-.646Z" fill="none" stroke="#000" stroke-miterlimit="10" stroke-width="1.123"/><path d="M414.2,630.065c-4.94,1.409-12.714-.239-17.476-4.281a14.022,14.022,0,0,1-3.4-4.026,7.171,7.171,0,0,1-.819-5.054,4.4,4.4,0,0,1,3.128-2.964c3.554-1.047,7.879,1.083,11.079,4.389s5.469,7.634,7.491,11.936" fill="none" stroke="#000" stroke-miterlimit="10" stroke-width="1.123"/><path d="M429.171,638.6c-1.852,4.791-7.85,10-13.945,11.369a14.033,14.033,0,0,1-5.264.29,7.165,7.165,0,0,1-4.527-2.391,4.4,4.4,0,0,1-.481-4.282c1.3-3.468,5.611-5.637,10.178-6.2s9.387.234,14.039,1.212" fill="none" stroke="#000" stroke-miterlimit="10" stroke-width="1.123"/><path d="M429.286,639.45c-4.389-2.669-8.459-9.494-8.727-15.735a14.015,14.015,0,0,1,.645-5.232,7.163,7.163,0,0,1,3.153-4.033,4.393,4.393,0,0,1,4.3.283c3.182,1.9,4.557,6.519,4.3,11.112s-1.889,9.2-3.673,13.605" fill="none" stroke="#000" stroke-miterlimit="10" stroke-width="1.123"/><path d="M452.6,647.827c-1.1,5.018-6.234,11.084-12.05,13.363a13.991,13.991,0,0,1-5.158,1.089,7.163,7.163,0,0,1-4.838-1.673,4.393,4.393,0,0,1-1.129-4.158c.762-3.627,4.686-6.427,9.114-7.677s9.314-1.2,14.061-.944" fill="none" stroke="#000" stroke-miterlimit="10" stroke-width="1.123"/><path d="M452.845,648.651c-4.744-1.969-9.808-8.094-11.023-14.221a14.019,14.019,0,0,1-.161-5.269,7.17,7.17,0,0,1,2.5-4.467,4.4,4.4,0,0,1,4.293-.376c3.435,1.39,5.5,5.748,5.946,10.327s-.464,9.379-1.556,14.006" fill="none" stroke="#000" stroke-miterlimit="10" stroke-width="1.123"/><path d="M478.2,653.152c-.384,5.122-4.614,11.85-10.052,14.923a14.022,14.022,0,0,1-4.954,1.8,7.172,7.172,0,0,1-5.025-.977,4.394,4.394,0,0,1-1.7-3.958c.245-3.7,3.737-7.022,7.945-8.882s9.052-2.5,13.788-2.91" fill="none" stroke="#000" stroke-miterlimit="10" stroke-width="1.123"/><path d="M478.551,653.933c-4.974-1.283-10.848-6.635-12.912-12.53a14.006,14.006,0,0,1-.9-5.2,7.171,7.171,0,0,1,1.849-4.774,4.395,4.395,0,0,1,4.2-.975c3.6.894,6.25,4.918,7.338,9.389s.859,9.351.428,14.085" fill="none" stroke="#000" stroke-miterlimit="10" stroke-width="1.123"/><path d="M502.083,653.571c.54,4.069-1.667,10.023-5.416,13.318a11.2,11.2,0,0,1-3.579,2.223,5.738,5.738,0,0,1-4.091.06,3.514,3.514,0,0,1-1.979-2.818c-.415-2.932,1.772-6.1,4.758-8.248a34.866,34.866,0,0,1,10.307-4.535" fill="none" stroke="#000" stroke-miterlimit="10" stroke-width="1.123"/><path d="M502.49,654.123c-4.1-.188-9.572-3.412-12.152-7.684a11.191,11.191,0,0,1-1.555-3.916,5.726,5.726,0,0,1,.663-4.037,3.516,3.516,0,0,1,3.123-1.45c2.959.11,5.7,2.822,7.278,6.14a34.886,34.886,0,0,1,2.643,10.947" fill="none" stroke="#000" stroke-miterlimit="10" stroke-width="1.123"/><path d="M557.139,676.206c-14.857,1.7-30.036-2.015-43.283-8.954s-24.676-16.98-34.619-28.151A186.546,186.546,0,0,1,432.554,514.05c7.423-1.012,14.892,1.232,21.879,3.934A161.428,161.428,0,0,1,555.905,645c1.163,7.89,2.888,23.4,1.234,31.2" fill="none" stroke="#000" stroke-miterlimit="10" stroke-width="1.123"/><path d="M442.029,523.648c15.5,18.314,29.272,37.991,42.708,57.843s26.59,39.953,40.942,59.184c8.018,10.744,16.416,21.209,25.4,31.167.8.889,2.265-.274,1.458-1.169-16.053-17.8-30.2-37.2-43.751-56.932-13.589-19.786-26.633-39.95-40.648-59.441-7.835-10.9-15.977-21.575-24.648-31.821-.776-.917-2.237.248-1.458,1.169Z" fill="none" stroke="#000" stroke-miterlimit="10" stroke-width="1.123"/><path d="M532.152,647.013a169.643,169.643,0,0,1-43.882-16.43q-5.844-3.177-11.426-6.809c-1-.652-2.108.857-1.1,1.515a171.84,171.84,0,0,0,20.865,11.583,170.046,170.046,0,0,0,22.239,8.553q6.475,1.983,13.094,3.446a.942.942,0,0,0,1.032-.827.958.958,0,0,0-.827-1.031Z" fill="none" stroke="#000" stroke-miterlimit="10" stroke-width="1.123"/><path d="M517.571,625.814a73.6,73.6,0,0,0-.136-22.513A145.871,145.871,0,0,0,512,581.056c-1.3-4.13-2.7-8.226-4.117-12.319-.393-1.139-2.107-.391-1.717.74,2.458,7.122,4.9,14.262,6.8,21.556a101.321,101.321,0,0,1,3.515,22.077,64.878,64.878,0,0,1-.768,12.5c-.191,1.191,1.668,1.39,1.858.205Z" fill="none" stroke="#000" stroke-miterlimit="10" stroke-width="1.123"/><path d="M492.969,590.9A118.007,118.007,0,0,1,465,576.584q-3.629-2.518-7.059-5.3c-.934-.757-2.029.759-1.1,1.515A119.952,119.952,0,0,0,483.9,589.313q4.137,1.827,8.4,3.332c1.132.4,1.807-1.343.669-1.746Z" fill="none" stroke="#000" stroke-miterlimit="10" stroke-width="1.123"/><path d="M476.783,566.018a76.52,76.52,0,0,0-6.936-30.2,75.035,75.035,0,0,0-4.119-7.759.935.935,0,0,0-1.586.988,73.883,73.883,0,0,1,10.773,37.023.935.935,0,0,0,1.868-.053Z" fill="none" stroke="#000" stroke-miterlimit="10" stroke-width="1.123"/><path d="M530.792,748.823a16.63,16.63,0,0,1-16.629-16.629h0a16.63,16.63,0,0,1,16.629-16.629H735.616a2.153,2.153,0,0,0,2.153-2.152v-.069a2.061,2.061,0,0,0-2.06-2.06H527.829a21.239,21.239,0,0,0-21.239,21.239h0a21.239,21.239,0,0,0,21.239,21.239H735.272a2.5,2.5,0,0,0,2.5-2.5v-.12a2.322,2.322,0,0,0-2.323-2.322Z" fill="#fff" stroke="#000" stroke-miterlimit="10" stroke-width="1.123"/><path d="M514.163,732.194h0a16.548,16.548,0,0,0,16.466,16.629H735.573l-.295-1.147a62.111,62.111,0,0,1,0-30.964l.295-1.147H530.629A16.548,16.548,0,0,0,514.163,732.194Z" fill="#fff" stroke="#000" stroke-miterlimit="10" stroke-width="1.123"/><path d="M518.993,735.487h0a16.548,16.548,0,0,1,16.465-16.629H734.8c.157-.716.3-1.435.48-2.146l.295-1.147H530.629a16.548,16.548,0,0,0-16.466,16.629h0a16.632,16.632,0,0,0,9.825,15.209A16.648,16.648,0,0,1,518.993,735.487Z" fill="#fff" stroke="#000" stroke-miterlimit="10" stroke-width="1.123"/><rect width="89.566" height="1.221" transform="translate(576.2 728.236)" fill="#fff" stroke="#000" stroke-miterlimit="10" stroke-width="1.123"/><rect width="89.566" height="1.221" transform="translate(632.493 739.918)" fill="#fff" stroke="#000" stroke-miterlimit="10" stroke-width="1.123"/><path d="M608.871,729v19.086L617.548,741l8.539,6.838-.99-18.917Z" fill="#fff" stroke="#000" stroke-miterlimit="10" stroke-width="1.123"/><path d="M13.871,0H213.005a13.872,13.872,0,0,1,13.872,13.872V17.5A13.872,13.872,0,0,1,213.005,31.37H13.871A13.871,13.871,0,0,1,0,17.5V13.871A13.871,13.871,0,0,1,13.871,0Z" transform="translate(536.268 679.914)" fill="#fff" stroke="#000" stroke-miterlimit="10" stroke-width="1.123"/><rect width="3.732" height="31.37" transform="translate(728.131 679.914)" fill="#fff" stroke="#000" stroke-miterlimit="10" stroke-width="1.123" opacity="0.43"/><rect width="3.732" height="31.37" transform="translate(711.611 679.914)" fill="#fff" stroke="#000" stroke-miterlimit="10" stroke-width="1.123" opacity="0.43"/><path d="M536.268,688.675v4.46l177.649-13.221H547.011C541.078,679.914,536.268,685.437,536.268,688.675Z" fill="#fff" stroke="#000" stroke-miterlimit="10" stroke-width="1.123"/><rect width="3.732" height="31.37" transform="translate(563.489 679.914)" fill="#fff" stroke="#000" stroke-miterlimit="10" stroke-width="1.123" opacity="0.43"/><rect width="3.732" height="31.37" transform="translate(579.294 679.914)" fill="#fff" stroke="#000" stroke-miterlimit="10" stroke-width="1.123" opacity="0.43"/><path d="M548.47,658.346h0c0,9.184,6.871,16.629,15.346,16.629H754.834l-.275-1.147a66.484,66.484,0,0,1,0-30.964l.275-1.147H563.816C555.341,641.717,548.47,649.162,548.47,658.346Z" fill="#fff" stroke="#000" stroke-miterlimit="10" stroke-width="1.123"/><path d="M563.968,674.975c-8.559,0-15.5-7.445-15.5-16.629h0c0-9.184,6.939-16.629,15.5-16.629H754.874a2.083,2.083,0,0,0,2.006-2.152V639.5a1.994,1.994,0,0,0-1.92-2.06H561.206c-10.933,0-19.795,9.509-19.795,21.239h0c0,11.73,8.862,21.239,19.795,21.239H754.553a2.417,2.417,0,0,0,2.327-2.5v-.12a2.247,2.247,0,0,0-2.164-2.322Z" fill="#fff" stroke="#000" stroke-miterlimit="10" stroke-width="1.123"/><path d="M552.971,661.639h0c0-9.184,6.871-16.629,15.347-16.629H754.111c.147-.716.277-1.435.448-2.146l.275-1.147H563.816c-8.476,0-15.346,7.445-15.346,16.629h0a16.725,16.725,0,0,0,9.156,15.209A17.265,17.265,0,0,1,552.971,661.639Z" fill="#fff" stroke="#000" stroke-miterlimit="10" stroke-width="1.123"/><rect width="89.566" height="1.221" transform="translate(577.396 654.424)" fill="#fff" stroke="#000" stroke-miterlimit="10" stroke-width="1.123"/><rect width="89.566" height="1.221" transform="translate(633.69 666.106)" fill="#fff" stroke="#000" stroke-miterlimit="10" stroke-width="1.123"/><path d="M710.2,548.677a14.464,14.464,0,0,0,14.464-14.464h0A14.464,14.464,0,0,0,710.2,519.749H532.039a1.872,1.872,0,0,1-1.872-1.872v-.06a1.791,1.791,0,0,1,1.792-1.791H712.777A18.474,18.474,0,0,1,731.251,534.5h0a18.474,18.474,0,0,1-18.474,18.474H532.339a2.172,2.172,0,0,1-2.172-2.172v-.1a2.02,2.02,0,0,1,2.02-2.02Z" fill="#fff" stroke="#000" stroke-miterlimit="10" stroke-width="1.123"/><path d="M724.663,534.213h0a14.393,14.393,0,0,1-14.322,14.464H532.076l.257-1a54.018,54.018,0,0,0,0-26.933l-.257-1H710.341A14.394,14.394,0,0,1,724.663,534.213Z" fill="#fff" stroke="#000" stroke-miterlimit="10" stroke-width="1.123"/><path d="M720.462,537.077h0a14.394,14.394,0,0,0-14.322-14.464H532.751c-.137-.622-.259-1.248-.418-1.867l-.257-1H710.341a14.394,14.394,0,0,1,14.322,14.464h0a14.465,14.465,0,0,1-8.545,13.229A14.482,14.482,0,0,0,720.462,537.077Z" fill="#fff" stroke="#000" stroke-miterlimit="10" stroke-width="1.123"/><rect width="77.906" height="1.062" transform="translate(592.797 530.77)" fill="#fff" stroke="#000" stroke-miterlimit="10" stroke-width="1.123"/><rect width="77.906" height="1.062" transform="translate(614.584 540.401)" fill="#fff" stroke="#000" stroke-miterlimit="10" stroke-width="1.123"/><rect width="226.877" height="41.805" rx="13.872" transform="translate(524.698 595.559)" fill="#fff" stroke="#000" stroke-miterlimit="10" stroke-width="1.123"/><rect width="3.732" height="41.805" transform="translate(716.561 595.559)" fill="#fff" stroke="#000" stroke-miterlimit="10" stroke-width="1.123" opacity="0.43"/><rect width="3.732" height="41.805" transform="translate(700.041 595.559)" fill="#fff" stroke="#000" stroke-miterlimit="10" stroke-width="1.123" opacity="0.43"/><path d="M524.7,606.3v6.875l177.649-17.619h-166.9A10.744,10.744,0,0,0,524.7,606.3Z" fill="#fff" stroke="#000" stroke-miterlimit="10" stroke-width="1.123"/><rect width="3.732" height="41.805" transform="translate(551.919 595.559)" fill="#fff" stroke="#000" stroke-miterlimit="10" stroke-width="1.123" opacity="0.43"/><rect width="3.732" height="41.805" transform="translate(567.724 595.559)" fill="#fff" stroke="#000" stroke-miterlimit="10" stroke-width="1.123" opacity="0.43"/><path d="M533.17,590.512c-7.487,0-13.556-7.445-13.556-16.629h0c0-9.184,6.069-16.629,13.557-16.629H700.153a1.983,1.983,0,0,0,1.754-2.152v-.069a1.9,1.9,0,0,0-1.679-2.059H530.755c-9.563,0-17.315,9.509-17.315,21.239h0c0,11.729,7.752,21.238,17.315,21.238H699.872a2.3,2.3,0,0,0,2.035-2.5v-.12a2.141,2.141,0,0,0-1.893-2.322Z" fill="#fff" stroke="#000" stroke-miterlimit="10" stroke-width="1.123"/><path d="M519.614,573.883h0c0,9.184,6.01,16.629,13.423,16.629H700.118l-.241-1.146a75.788,75.788,0,0,1,0-30.965l.241-1.147H533.037C525.624,557.254,519.614,564.7,519.614,573.883Z" fill="#fff" stroke="#000" stroke-miterlimit="10" stroke-width="1.123"/><path d="M523.551,577.176h0c0-9.184,6.01-16.629,13.424-16.629h162.51c.129-.716.243-1.435.392-2.146l.241-1.147H533.037c-7.413,0-13.423,7.445-13.423,16.629h0c0,6.8,3.294,12.629,8.009,15.209A18.685,18.685,0,0,1,523.551,577.176Z" fill="#fff" stroke="#000" stroke-miterlimit="10" stroke-width="1.123"/><rect width="73.018" height="1.221" transform="translate(570.189 569.925)" fill="#fff" stroke="#000" stroke-miterlimit="10" stroke-width="1.123"/><rect width="73.018" height="1.221" transform="translate(616.082 581.608)" fill="#fff" stroke="#000" stroke-miterlimit="10" stroke-width="1.123"/><path d="M636.189,582.288v19.086l7.074-7.077,6.961,6.838-.807-18.917Z" fill="#fff" stroke="#000" stroke-miterlimit="10" stroke-width="1.123"/><path d="M677.462,351.289a34.374,34.374,0,0,1-11.481,19.727,1.139,1.139,0,0,0-.471.643.958.958,0,0,0,.3.723,5.924,5.924,0,0,0,2.83,1.536,41.519,41.519,0,0,0,12.108,1.844,3.256,3.256,0,0,0,2.176-.542,3.32,3.32,0,0,0,.822-1.434,103.192,103.192,0,0,0,3.743-12.86,1.455,1.455,0,0,0,.046-.6c-.08-.393-.455-.643-.794-.857a27.146,27.146,0,0,1-6.687-5.989" fill="#fff"/><path d="M706.706,325.212a1.261,1.261,0,0,1-.3-.267.821.821,0,0,1,.421-1.286,1.036,1.036,0,0,1,.8.163,7.3,7.3,0,0,1,1.175.861,4.112,4.112,0,0,1,1.665,3.71,3.8,3.8,0,0,1-1.579,2.224,7,7,0,0,1-.694.466c-.139.084-.278.168-.413.258-.072.048-.143.1-.213.148-.015.011-.067.038-.075.055.076-.059.092-.071.046-.035l-.046.037c-.1.086-.208.177-.3.272s-.164.206-.258.286c0,0,.1-.145.06-.076-.015.025-.034.047-.05.071-.027.04-.053.08-.078.122s-.051.091-.074.138c-.083.168.043-.137.008-.023a2.41,2.41,0,0,0-.069.234c0,.022-.007.045-.012.067-.027.117.024-.123.015-.118s-.007.109-.007.13c0,.042,0,.085,0,.127.005.162-.024-.124-.014-.074.017.082.032.164.057.245.011.035.023.07.035.105.007.019.017.039.023.059s-.088-.19-.051-.121.074.153.117.228.085.138.131.205c.021.031.044.061.066.092.09.125-.137-.166-.016-.022a16.59,16.59,0,0,0,1.235,1.195c.327.313.655.616,1,.9a11.212,11.212,0,0,1,1.139,1.016,2.886,2.886,0,0,1,.785,2.981c-.652,1.682-2.543,2.066-3.885,3.007l-.1.075c-.129.094.134-.111.036-.026-.072.062-.145.122-.213.188s-.12.125-.179.19c-.1.116.1-.147.032-.043-.026.038-.053.074-.078.113-.046.072-.085.148-.124.224-.076.149.057-.167.022-.05-.015.05-.035.1-.049.15s-.019.082-.029.123c-.034.128.026-.052,0-.053,0,0-.009.117-.009.108,0,.062,0,.125,0,.187,0,.026,0,.052.005.079.011.174-.031-.13,0-.034.011.039.078.383.11.38,0,0-.088-.188-.018-.047.012.025.023.049.036.073.037.073.077.145.12.215.034.055.07.109.107.162.022.031.045.06.066.091.053.073-.037-.052-.04-.053.04.014.12.143.149.175.051.058.1.114.158.169.1.1.209.2.319.3.051.045.1.089.155.133s.149.092.181.146c-.049-.083-.1-.072-.027-.021l.091.068.159.115c.119.084.237.169.355.255a4.921,4.921,0,0,1,2.249,2.829,2.982,2.982,0,0,1-.184,1.708,4.056,4.056,0,0,1-.84,1.219c-.632.655-1.4,1.16-2.038,1.81-.072.074-.142.149-.21.227-.039.044-.075.089-.113.134-.017.02-.067.086.01-.014s0-.005-.015.021a3.622,3.622,0,0,0-.326.554c-.054.114.027-.057.029-.067a.74.74,0,0,1-.035.1c-.019.057-.036.114-.051.172s-.026.116-.038.174c-.029.139.011-.048.006-.064a.463.463,0,0,1-.011.127,2.581,2.581,0,0,0,0,.383c0,.025.005.051.007.076.007.109-.03-.171-.009-.064.013.068.024.135.04.2a3.7,3.7,0,0,0,.114.367c.048.135-.07-.148.01.017.034.069.07.137.109.2.031.051.063.1.1.151.112.163-.081-.089.011.019a2.8,2.8,0,0,0,.284.293c-.005,0,.079.062.078.065s-.165-.115-.041-.035c.055.037.11.074.167.107a4.7,4.7,0,0,0,.43.219,7.234,7.234,0,0,1,.89.433,3.7,3.7,0,0,1,1.67,3.083,3.521,3.521,0,0,1-.429,1.71.82.82,0,0,1-1.111.291.83.83,0,0,1-.292-1.111c.028-.05.048-.107.079-.154.056-.088-.056.156-.024.058.008-.024.018-.046.026-.069a2.567,2.567,0,0,0,.1-.355c.006-.031.009-.065.018-.1.022-.083-.011.095-.011.094a1.459,1.459,0,0,1,.017-.2,3.039,3.039,0,0,0-.005-.369c0-.025-.005-.049-.006-.074-.006-.081-.046-.062.01.069a.983.983,0,0,1-.031-.17,2.963,2.963,0,0,0-.1-.358c-.01-.031-.085-.215-.029-.088s-.024-.049-.041-.082a2.839,2.839,0,0,0-.186-.32c-.018-.027-.039-.052-.056-.08-.042-.071.05.065.053.066-.042-.023-.078-.094-.111-.131a3.363,3.363,0,0,0-.266-.255c-.1-.089.14.092-.013-.006-.052-.034-.1-.069-.159-.1a4.817,4.817,0,0,0-.46-.23,4.3,4.3,0,0,1-1.534-.982,3.557,3.557,0,0,1-.779-3.4,5.293,5.293,0,0,1,1.751-2.3c.332-.281.674-.552,1-.843.16-.144.316-.293.461-.451.065-.071.121-.154.189-.22.009-.009-.113.152-.064.083.015-.022.032-.043.048-.065.031-.043.061-.088.09-.133a2.5,2.5,0,0,0,.137-.241c.009-.017.017-.035.026-.053.057-.11-.033.082-.034.086.015-.05.038-.1.054-.147.029-.089.048-.179.069-.27.03-.134-.016.207,0,.034,0-.055.008-.111.009-.167s0-.113-.005-.17a.561.561,0,0,1-.01-.105c0,.005.032.171.01.088-.034-.124-.061-.247-.1-.369-.049-.139.013.051.023.053a.849.849,0,0,1-.045-.092c-.023-.046-.047-.091-.073-.136s-.072-.118-.111-.175c-.014-.022-.03-.043-.045-.065-.071-.1-.041-.031.016.018a3.564,3.564,0,0,1-.248-.283c-.1-.1-.194-.193-.3-.285s-.2-.171-.3-.253a1.355,1.355,0,0,0-.153-.121c.017.01.146.11.032.025l-.089-.067c-.486-.363-.992-.7-1.441-1.111A3.464,3.464,0,0,1,705.129,343c.449-1.685,2.276-2.24,3.613-3.027.155-.091.306-.187.451-.292.014-.011.028-.022.043-.032.1-.069-.079.061-.079.061a1.006,1.006,0,0,1,.1-.078c.066-.056.13-.114.19-.176s.1-.123.157-.176c0,0-.129.181-.066.085.009-.014.02-.027.029-.04.025-.037.049-.074.072-.112s.038-.067.056-.1.076-.168.015-.024-.005.007.007-.028.027-.087.038-.132.018-.091.028-.137c.027-.122-.015.218-.01.062,0-.062.007-.124.006-.186,0-.088-.056-.235.01-.008-.028-.1-.039-.2-.071-.3-.011-.032-.078-.205-.022-.066s-.03-.051-.046-.081c-.05-.092-.109-.178-.167-.265-.1-.145.092.106,0,0-.041-.048-.081-.1-.122-.143a6.206,6.206,0,0,0-.5-.495c-.374-.333-.773-.638-1.15-.967-.244-.213-.464-.45-.706-.666a8.549,8.549,0,0,1-1.343-1.4,2.641,2.641,0,0,1-.443-2.311,5.017,5.017,0,0,1,2.412-2.44c.105-.067.208-.137.309-.211l.081-.06c.072-.052-.068.054-.066.051a.877.877,0,0,1,.148-.121,3.952,3.952,0,0,0,.458-.457c.023-.026.13-.161.034-.039s.007-.013.025-.04a2.515,2.515,0,0,0,.14-.227c.019-.035.037-.07.055-.106s.077-.174.012-.024-.007.014.005-.023.027-.08.038-.12c.019-.069.031-.138.047-.208.027-.122-.021.232-.011.083,0-.039.006-.078.008-.117a1.955,1.955,0,0,0,0-.2c0-.034-.006-.067-.008-.1,0-.1.042.237.009.074a2.847,2.847,0,0,0-.111-.417c-.012-.032-.027-.063-.037-.1s.1.212.03.074c-.032-.066-.063-.132-.1-.2a3.676,3.676,0,0,0-.225-.364l-.06-.084c-.085-.118.006.011.047.058-.051-.06-.1-.123-.15-.183a6.1,6.1,0,0,0-.581-.59c-.095-.084-.192-.166-.292-.246l-.068-.054c-.089-.071.184.139.078.06-.046-.034-.092-.069-.138-.1-.145-.105-.293-.2-.448-.3-.045-.026-.091-.049-.137-.074-.115-.063.212.076.144.059l-.014-.005a.824.824,0,0,0,.61-.083l.291-.291.081-.192v-.432a.808.808,0,0,0-.2-.346l.012.012c.089.091-.2-.152-.112-.086a.886.886,0,0,1,.373.486.812.812,0,0,1-1.193.917Z"/><path d="M694.9,313.09a16.456,16.456,0,0,1,14.645,19.391c-.419,2.258-1.308,4.413-1.652,6.684s-.036,4.821,1.591,6.442c.614.612,1.123,1.043,1.682,1.706s.907,1.189.411,1.9c-.65.932-1.907,1.233-2.829,1.9a3.846,3.846,0,0,0-1.073,1.526,62.375,62.375,0,0,1-8.874,13.452,1.754,1.754,0,0,1-.664.546,1.785,1.785,0,0,1-1.278-.191,77.079,77.079,0,0,1-13.18-6.578,25.832,25.832,0,0,1-9.646-10.9" fill="#fff"/><path d="M675.366,285.961c-.011,2.577-.048,5.136-.173,7.68s-.34,5.068-.673,7.565c-.165,1.249-.343,2.492-.573,3.723s-.463,2.458-.754,3.67a65.218,65.218,0,0,1-2.1,7.125,60.171,60.171,0,0,1-2.924,6.771c-.552,1.1-1.144,2.173-1.76,3.236q-.465.8-.952,1.579t-.994,1.556c-1.356,2.058-2.816,4.058-4.359,6.02q-1.156,1.472-2.361,2.928t-2.436,2.922q-1.229,1.467-2.468,2.966c-.82,1-1.638,2.025-2.439,3.078a44.38,44.38,0,0,0-4.387,6.844c-.309.626-.606,1.262-.874,1.916s-.512,1.323-.722,2.006a21.647,21.647,0,0,0-.876,4.216,19.892,19.892,0,0,0-.113,2.153c0,.179,0,.358.006.537l.017.536c.024.356.038.713.08,1.065.064.708.177,1.406.3,2.1.073.343.134.689.221,1.026l.124.508.137.5a33.251,33.251,0,0,0,3.184,7.469c.659,1.157,1.352,2.283,2.092,3.371s1.513,2.145,2.311,3.177,1.628,2.033,2.476,3.015l.641.732.649.722c.429.485.878.951,1.318,1.423q2.672,2.809,5.556,5.382c-1.477-2.111-2.953-4.207-4.378-6.325-.7-1.067-1.414-2.121-2.085-3.2s-1.347-2.147-1.973-3.241a63.48,63.48,0,0,1-3.425-6.65c-.486-1.131-.933-2.269-1.308-3.416a27.853,27.853,0,0,1-.913-3.453c-.119-.576-.2-1.153-.271-1.727s-.113-1.147-.123-1.717c-.013-.285,0-.568-.008-.852l.014-.423c0-.142.011-.282.022-.423.031-.562.1-1.119.19-1.672a17.891,17.891,0,0,1,.856-3.252,23.022,23.022,0,0,1,1.43-3.125,43.787,43.787,0,0,1,4.064-5.954c.764-.972,1.556-1.94,2.367-2.908s1.629-1.944,2.454-2.927,1.65-1.977,2.467-2.988,1.625-2.035,2.415-3.082A77.437,77.437,0,0,0,668.8,331.6a59.729,59.729,0,0,0,3.685-7.078,55.425,55.425,0,0,0,4.2-15.3,61.559,61.559,0,0,0,.481-7.849q0-1.958-.124-3.9l-.066-.973c-.023-.324-.054-.647-.081-.97-.048-.647-.13-1.291-.2-1.934A69.5,69.5,0,0,0,675.366,285.961Z" fill="#e51f46"/><path d="M669.33,345.355c-.188.729-.382,1.462-.568,2.211l-.137.562-.132.569c-.09.377-.174.764-.256,1.149s-.154.779-.229,1.171l-.1.594-.051.3-.043.3a25.8,25.8,0,0,0-.289,4.97l.034.636c.017.213.04.426.06.638.036.424.111.849.175,1.272.029.212.08.422.121.632s.087.42.137.629l.167.622.084.311c.027.1.065.2.1.306a19.549,19.549,0,0,0,2.152,4.583,23.376,23.376,0,0,0,3.057,3.818l.42.43c.143.139.291.272.436.409l.438.4.219.2.227.191c.3.255.6.51.906.76l.934.715a37.2,37.2,0,0,0,3.9,2.535c.663.392,1.354.736,2.036,1.086.341.175.692.334,1.041.494s.7.316,1.053.465c-.267-.278-.539-.549-.81-.817s-.548-.527-.81-.8c-.534-.54-1.074-1.067-1.593-1.612-1.054-1.071-2.055-2.176-3.015-3.287l-.708-.839-.676-.855-.168-.213-.16-.218-.32-.434c-.106-.145-.216-.287-.317-.433l-.3-.442a25.066,25.066,0,0,1-2.074-3.611A17.886,17.886,0,0,1,673,360.987a16.9,16.9,0,0,1-.353-3.889,37.461,37.461,0,0,1,1.365-8.23" fill="#e51f46"/><path d="M640,308.01a4.054,4.054,0,0,1,2.666-3.809,4.052,4.052,0,0,1,1.12-7.364,4.05,4.05,0,0,1,3.607-5.894c.072,0,.144,0,.215.005a4.051,4.051,0,0,1,5.554-4.971c0-.044,0-.089,0-.134a4.051,4.051,0,0,1,5.353-3.836,4.052,4.052,0,0,1,7.665-1.384,4.051,4.051,0,0,1,7.794.125,4.051,4.051,0,0,1,7.714,1.185,4.051,4.051,0,0,1,7.155,2.6q0,.105-.006.21a4.05,4.05,0,0,1,5.2,4.91,4.049,4.049,0,0,1,3.124,6.255l.057,0a4.051,4.051,0,0,1,2.624,7.137,4.052,4.052,0,0,1,.514,7.629,28.754,28.754,0,0,1-39.612,25.561,9.176,9.176,0,0,0-6.556-1.226,4.051,4.051,0,0,1-4.044-3.818,4.052,4.052,0,0,1-2.993-5.832,3.922,3.922,0,0,1-.436.024,4.05,4.05,0,0,1-3.032-6.738,4.051,4.051,0,0,1-.782-6.755A4.052,4.052,0,0,1,640,308.01Z"/><path d="M695.939,304.374c-8.919-10.454-36.044-.646-30.048,21.094Z" fill="#e51f46"/><path d="M699.3,334.861a1.141,1.141,0,0,1,.365.35.823.823,0,0,1-.291,1.117.856.856,0,0,1-.64.081,2.055,2.055,0,0,1-.513-.238,7.687,7.687,0,0,1-1.494-1.125,4.484,4.484,0,0,1-1.283-2.015,2.99,2.99,0,0,1-.032-1.379,3.378,3.378,0,0,1,.712-1.389,7.051,7.051,0,0,1,1.649-1.374c.1-.065.189-.133.282-.2.109-.079-.043.035-.053.041.049-.034.094-.074.14-.113a4.548,4.548,0,0,0,.411-.387c.049-.053.1-.108.141-.163.093-.108-.125.171-.043.058.025-.035.051-.07.075-.106a2.285,2.285,0,0,0,.2-.363l-.082.194a1.817,1.817,0,0,0,.125-.446l-.029.216a1.667,1.667,0,0,0,0-.4l.029.216a1.82,1.82,0,0,0-.128-.463l.082.194a2.707,2.707,0,0,0-.3-.523c-.085-.116.1.131.062.08l-.045-.055c-.033-.04-.067-.079-.1-.118-.071-.079-.145-.156-.221-.231-.264-.26-.553-.491-.841-.725-.11-.09-.218-.182-.322-.28s-.227-.206-.346-.3c-.06-.05-.121-.1-.183-.148l-.086-.067c-.023-.018-.082-.063.024.018.121.094.016.013-.005,0a13.229,13.229,0,0,1-1.582-1.3,2.974,2.974,0,0,1-.927-2.194.812.812,0,1,1,1.624,0,1.951,1.951,0,0,0,.013.366l-.03-.216a1.939,1.939,0,0,0,.127.456l-.082-.194a2.209,2.209,0,0,0,.162.308c.028.046.058.09.09.134l.038.052c-.162-.232-.068-.088-.024-.035a4.726,4.726,0,0,0,.511.509c.09.079.183.155.276.23l.143.114.029.022-.077-.06.087.068c.256.194.512.387.766.585.294.23.561.49.849.727.224.185.452.364.669.557a3.807,3.807,0,0,1,1.3,1.926,2.4,2.4,0,0,1-.1,1.4,3.783,3.783,0,0,1-1.059,1.441,10.328,10.328,0,0,1-1.046.768c-.068.045-.135.091-.2.139s-.283.221-.053.035c-.112.091-.224.18-.33.277s-.189.18-.277.277c-.041.045-.081.09-.12.137l-.037.046c-.081.1.144-.193.04-.05a2.646,2.646,0,0,0-.31.542l.081-.194a2.2,2.2,0,0,0-.146.528l.029-.216a2.126,2.126,0,0,0,0,.552l-.029-.216a2.463,2.463,0,0,0,.169.6l-.082-.194a3.69,3.69,0,0,0,.432.732c.06.082-.1-.131-.087-.113s.027.034.04.05l.061.075c.049.057.1.114.149.169q.144.156.3.3c.1.091.2.179.3.263.048.04.1.079.145.117.116.093-.191-.145-.074-.057l.074.056q.261.193.538.363a3.115,3.115,0,0,0,.39.21l-.194-.082a.191.191,0,0,0,.057.019l-.216-.029h.005l-.216.029h0l-.194.082-.289.289-.111.41v0l.029.216h0l.081.194c-.02-.043.186.221.107.143.02.02.226.166.111.088a.865.865,0,0,1-.373-.485.811.811,0,0,1,1.192-.917Z"/><path d="M694.619,351.975a4.43,4.43,0,0,1-1.422-.41,4.164,4.164,0,0,1-1.048-.743,4.029,4.029,0,0,1-.785-1.04,4.159,4.159,0,0,1,.113-4,3.938,3.938,0,0,1,.837-1.012,12.007,12.007,0,0,1,.989-.735c.165-.114.323-.246.493-.352.015-.009-.157.123-.091.07l.072-.057c.038-.031.075-.062.112-.1.073-.063.143-.128.21-.2.033-.034.065-.069.1-.1.048-.055.13-.193-.016.028.048-.073.1-.142.143-.219.023-.04.042-.083.064-.124.045-.083-.071.186-.04.1.008-.023.017-.045.025-.067a1.783,1.783,0,0,0,.078-.323l-.029.216a1.869,1.869,0,0,0,0-.449l.029.216a2.043,2.043,0,0,0-.088-.375c-.024-.072-.12-.245,0-.017-.032-.062-.06-.126-.093-.188a3.473,3.473,0,0,0-.22-.345c-.035-.049-.113-.126.035.042-.019-.022-.037-.047-.055-.069-.047-.058-.1-.114-.145-.17a11.825,11.825,0,0,0-1.23-1.105,3.951,3.951,0,0,1-1.728-3.024,3.283,3.283,0,0,1,1.125-2.212,10.63,10.63,0,0,1,.987-.8c.149-.111.3-.22.45-.33.075-.054.149-.109.223-.164l.105-.078.046-.035c.11-.084-.048.035-.074.057a6.308,6.308,0,0,0,.853-.8c.106-.127-.128.177-.034.044.027-.038.053-.075.078-.113a2.142,2.142,0,0,0,.127-.224c.009-.018.017-.037.026-.055.038-.078-.092.233-.045.1.016-.042.031-.083.044-.126a1.831,1.831,0,0,0,.058-.262l-.029.216a1.852,1.852,0,0,0,0-.482l.029.216a1.834,1.834,0,0,0-.054-.253c-.011-.038-.024-.075-.037-.112a.259.259,0,0,1-.024-.063c0,.008.089.2.041.1-.039-.074-.077-.148-.121-.22-.021-.033-.043-.066-.066-.1l-.039-.056c-.063-.088.06.085.064.083s-.323-.354-.357-.386c-.131-.127-.269-.247-.408-.365a6.454,6.454,0,0,1-1.632-1.709,3.9,3.9,0,0,1-.366-2.637,3.7,3.7,0,0,1,1.409-2.227c.346-.263.739-.453,1.109-.68.085-.052.17-.107.252-.165.162-.116-.125.11,0,0,.037-.032.074-.062.11-.1s.077-.075.113-.115l.035-.04c.1-.11-.049.066-.049.066.047.006.231-.471.091-.124a.891.891,0,0,1,.373-.486.83.83,0,0,1,.626-.081.816.816,0,0,1,.485.373.782.782,0,0,1,.082.625,2.489,2.489,0,0,1-.731,1.038,7.006,7.006,0,0,1-.963.636c-.139.079-.279.159-.415.244-.069.044-.138.09-.205.137l-.045.034c-.067.046.1-.074.091-.072s-.076.064-.1.082c-.059.052-.115.107-.169.164l-.073.081c-.024.027-.121.15-.029.029s.008-.009-.012.02-.048.069-.071.1c-.043.066-.082.134-.119.2-.02.038-.04.075-.058.114-.031.063-.084.228.008-.029-.029.081-.061.159-.087.24a3.329,3.329,0,0,0-.12.533l.029-.216a3.248,3.248,0,0,0,0,.836l-.029-.216a3.131,3.131,0,0,0,.18.7c.021.056.068.112-.04-.094.014.027.025.055.038.082.024.049.049.1.076.145s.062.1.095.155l.041.06.043.059-.083-.108c.012.044.084.1.115.139s.081.09.122.134c.085.089.173.174.263.257.178.164.365.319.551.474a6.741,6.741,0,0,1,1.063,1.039,2.794,2.794,0,0,1,.614,1.617,2.972,2.972,0,0,1-1.037,2.214,10.25,10.25,0,0,1-.994.8c-.153.113-.308.225-.462.337l-.224.165-.105.079c-.165.126.153-.12.015-.011a5.709,5.709,0,0,0-.885.838c-.038.045-.078.12.078-.1-.015.021-.031.041-.046.063q-.045.063-.087.129a2.793,2.793,0,0,0-.135.246c-.073.148.079-.209.023-.054-.017.044-.032.088-.046.133a2.065,2.065,0,0,0-.063.29l.029-.216a2,2,0,0,0,0,.518l-.029-.216a2.131,2.131,0,0,0,.063.285c.014.044.03.086.044.129s.066.131-.038-.085c.011.024.021.048.033.071a3.522,3.522,0,0,0,.314.511c-.15-.215-.039-.051,0,0s.063.074.1.11c.07.078.142.154.217.229.155.155.319.3.486.444a7.73,7.73,0,0,1,1.907,2,2.66,2.66,0,0,1-.081,2.891,4.758,4.758,0,0,1-1.025.983c-.305.227-.627.432-.933.658l-.061.046c-.086.064.066-.05.075-.058-.041.037-.089.07-.132.106-.081.068-.161.139-.237.214s-.159.171-.235.26c-.05.058.064-.082.063-.082l-.061.083c-.035.051-.07.1-.1.155a3.281,3.281,0,0,0-.161.289c-.016.032-.1.233-.044.091s-.013.038-.027.077a3.607,3.607,0,0,0-.171.7l.029-.216a3.477,3.477,0,0,0,0,.906l-.029-.215a3.349,3.349,0,0,0,.118.523c.025.077.057.151.083.227-.083-.244-.038-.09-.009-.029.017.036.035.072.054.107a3.945,3.945,0,0,0,.265.423c.086.121-.132-.164-.016-.023.026.031.052.062.078.091q.087.1.18.189c.058.055.117.109.178.161.031.026.064.05.094.076-.193-.169-.073-.057-.02-.019a3.5,3.5,0,0,0,.428.258l.108.052.073.033c-.126-.053-.16-.068-.1-.044.081.031.162.061.245.087a3.249,3.249,0,0,0,.507.111l-.216-.029.04.005a.893.893,0,0,1,.574.238.812.812,0,0,1,0,1.149.775.775,0,0,1-.574.237Z"/><path d="M709.547,332.481c2.123-2.123-1.954-23.713-15.347-28.523-14.967-3.364-45.517,16.546-34.171,40.556,5,10.584,15.984,9.339,24.371,9.772C685.68,335.677,684.054,310.463,709.547,332.481Z"/><path d="M664.76,325.212a1.242,1.242,0,0,1-.3-.267.82.82,0,0,1,.421-1.286,1.036,1.036,0,0,1,.8.163,7.3,7.3,0,0,1,1.175.861,4.112,4.112,0,0,1,1.665,3.71,3.8,3.8,0,0,1-1.58,2.224,6.881,6.881,0,0,1-.693.466c-.139.084-.278.168-.413.258-.072.048-.143.1-.213.148-.016.011-.068.038-.075.055.076-.059.091-.071.046-.035l-.046.037c-.106.086-.208.177-.3.272s-.164.206-.258.286c0,0,.1-.145.059-.076-.015.025-.033.047-.049.071-.027.04-.053.08-.078.122s-.051.091-.075.138c-.082.168.044-.137.009-.023a2.41,2.41,0,0,0-.069.234c-.005.022-.008.045-.013.067-.026.117.025-.123.016-.118s-.007.109-.008.13c0,.042,0,.085,0,.127.006.162-.023-.124-.013-.074.017.082.032.164.057.245.01.035.023.07.035.105.007.019.017.039.023.059s-.088-.19-.051-.121.074.153.117.228.084.138.13.205l.067.092c.089.125-.138-.166-.017-.022a16.8,16.8,0,0,0,1.236,1.195c.327.313.655.616,1.005.9a11.212,11.212,0,0,1,1.139,1.016,2.889,2.889,0,0,1,.785,2.981c-.653,1.682-2.543,2.066-3.885,3.007l-.1.075c-.13.094.134-.111.036-.026-.072.062-.145.122-.214.188s-.12.125-.178.19c-.1.116.1-.147.031-.043-.025.038-.052.074-.077.113-.046.072-.085.148-.124.224-.076.149.057-.167.022-.05-.015.05-.035.1-.049.15s-.019.082-.029.123c-.034.128.026-.052,0-.053,0,0-.009.117-.009.108,0,.062,0,.125,0,.187,0,.026,0,.052.005.079.011.174-.031-.13,0-.034.011.039.077.383.11.38,0,0-.089-.188-.018-.047l.035.073c.037.073.078.145.121.215.034.055.07.109.107.162l.066.091c.052.073-.037-.052-.04-.053.039.014.119.143.149.175.051.058.1.114.158.169.1.1.209.2.318.3.052.045.1.089.156.133s.148.092.181.146c-.05-.083-.1-.072-.028-.021l.092.068.159.115c.119.084.237.169.355.255a4.915,4.915,0,0,1,2.248,2.829,2.981,2.981,0,0,1-.183,1.708,4.04,4.04,0,0,1-.841,1.219c-.631.655-1.4,1.16-2.037,1.81-.072.074-.143.149-.21.227-.039.044-.075.089-.113.134-.018.02-.067.086.009-.014s0-.005-.014.021a3.544,3.544,0,0,0-.326.554c-.054.114.027-.057.029-.067a.75.75,0,0,1-.035.1c-.019.057-.036.114-.051.172s-.026.116-.038.174c-.029.139.011-.048.006-.064a.463.463,0,0,1-.011.127,2.72,2.72,0,0,0,0,.383c0,.025.006.051.007.076.008.109-.029-.171-.008-.064.013.068.024.135.04.2a3.687,3.687,0,0,0,.114.367c.048.135-.07-.148.01.017.034.069.07.137.109.2.031.051.063.1.1.151.112.163-.081-.089.011.019a2.707,2.707,0,0,0,.284.293c-.005,0,.078.062.078.065s-.165-.115-.042-.035c.056.037.111.074.168.107a4.7,4.7,0,0,0,.43.219,7.312,7.312,0,0,1,.89.433,3.7,3.7,0,0,1,1.67,3.083,3.52,3.52,0,0,1-.429,1.71.82.82,0,0,1-1.111.291.829.829,0,0,1-.292-1.111c.027-.05.048-.107.079-.154.055-.088-.056.156-.024.058.008-.024.018-.046.026-.069a2.558,2.558,0,0,0,.1-.355c.006-.031.009-.065.018-.1.022-.083-.011.095-.012.094a1.452,1.452,0,0,1,.018-.2,3.039,3.039,0,0,0-.005-.369c0-.025-.005-.049-.007-.074-.005-.081-.046-.062.011.069a.893.893,0,0,1-.031-.17,3.154,3.154,0,0,0-.1-.358c-.01-.031-.085-.215-.029-.088s-.025-.049-.041-.082a2.839,2.839,0,0,0-.186-.32c-.018-.027-.04-.052-.056-.08-.043-.071.05.065.053.066-.042-.023-.078-.094-.112-.131a3.55,3.55,0,0,0-.265-.255c-.1-.089.139.092-.013-.006-.053-.034-.1-.069-.159-.1a4.935,4.935,0,0,0-.46-.23,4.3,4.3,0,0,1-1.534-.982,3.557,3.557,0,0,1-.779-3.4,5.3,5.3,0,0,1,1.75-2.3c.333-.281.675-.552,1-.843.16-.144.315-.293.461-.451.064-.071.121-.154.189-.22.009-.009-.113.152-.065.083.016-.022.033-.043.048-.065.032-.043.062-.088.091-.133a2.483,2.483,0,0,0,.137-.241c.009-.017.017-.035.026-.053.057-.11-.033.082-.034.086.015-.05.038-.1.054-.147.029-.089.048-.179.069-.27.03-.134-.017.207,0,.034,0-.055.008-.111.008-.167s0-.113,0-.17a.485.485,0,0,1-.01-.105c0,.005.032.171.01.088-.034-.124-.061-.247-.1-.369-.048-.139.014.051.023.053s-.046-.1-.044-.092c-.023-.046-.048-.091-.073-.136s-.072-.118-.111-.175l-.045-.065c-.071-.1-.041-.031.016.018a3.366,3.366,0,0,1-.248-.283c-.095-.1-.194-.193-.3-.285s-.2-.171-.295-.253a1.36,1.36,0,0,0-.153-.121c.017.01.146.11.032.025l-.089-.067c-.486-.363-.992-.7-1.441-1.111A3.462,3.462,0,0,1,663.183,343c.449-1.685,2.276-2.24,3.613-3.027.154-.091.306-.187.451-.292.014-.011.028-.022.043-.032.1-.069-.079.061-.079.061a.89.89,0,0,1,.1-.078c.066-.056.129-.114.19-.176s.1-.123.157-.176c0,0-.129.181-.066.085.009-.014.019-.027.029-.04.025-.037.049-.074.072-.112s.038-.067.056-.1.076-.168.015-.024,0,.007.007-.028.027-.087.038-.132.018-.091.028-.137c.027-.122-.015.218-.01.062,0-.062.007-.124.006-.186,0-.088-.056-.235.01-.008-.029-.1-.039-.2-.072-.3-.01-.032-.077-.205-.022-.066s-.029-.051-.045-.081c-.05-.092-.109-.178-.167-.265-.1-.145.092.106,0,0-.04-.048-.08-.1-.122-.143a5.9,5.9,0,0,0-.505-.495c-.374-.333-.772-.638-1.149-.967-.244-.213-.464-.45-.707-.666a8.543,8.543,0,0,1-1.342-1.4,2.641,2.641,0,0,1-.443-2.311,5.013,5.013,0,0,1,2.412-2.44c.1-.067.208-.137.308-.211l.082-.06c.071-.052-.068.054-.066.051a.84.84,0,0,1,.148-.121,3.952,3.952,0,0,0,.458-.457c.022-.026.129-.161.034-.039s.007-.013.025-.04c.05-.073.1-.149.14-.227.019-.035.037-.07.054-.106s.078-.174.013-.024-.008.014.005-.023.026-.08.038-.12c.019-.069.031-.138.046-.208.028-.122-.02.232-.011.083,0-.039.007-.078.009-.117a1.972,1.972,0,0,0,0-.2c0-.034-.006-.067-.008-.1-.005-.1.042.237.009.074a2.725,2.725,0,0,0-.112-.417c-.011-.032-.026-.063-.036-.1s.1.212.03.074c-.032-.066-.063-.132-.1-.2a3.868,3.868,0,0,0-.225-.364l-.06-.084c-.085-.118.006.011.046.058-.051-.06-.1-.123-.149-.183a6.117,6.117,0,0,0-.582-.59c-.094-.084-.192-.166-.291-.246l-.068-.054c-.089-.071.184.139.078.06-.046-.034-.092-.069-.138-.1-.145-.105-.294-.2-.448-.3-.045-.026-.091-.049-.137-.074-.115-.063.212.076.144.059l-.015-.005a.825.825,0,0,0,.611-.083l.291-.291.081-.192v-.432a.807.807,0,0,0-.2-.346l.012.012c.089.091-.2-.152-.112-.086a.887.887,0,0,1,.373.486.83.83,0,0,1-.082.626.821.821,0,0,1-1.111.291Z"/><path d="M687.641,343.529c.745,1.782.787,6.273-1.094,6.71a4.22,4.22,0,0,1-3.538-.969,8.232,8.232,0,0,1-2.169-3.078,7.372,7.372,0,0,1-.7-4.716,3.625,3.625,0,0,1,3.438-2.869,3.776,3.776,0,0,1,2.774,1.777,11.2,11.2,0,0,1,1.29,3.145" fill="#fff"/><path d="M753.6,577.807c.747,6.641,2.263,13.783-3.642,24.148-.658,1.156-1.63,2.2-1.759,3.527-.23,2.369,2.015,4.28,4.27,5.04s4.738.848,6.854,1.936c2.551,1.312,4.181,3.859,6.213,5.884a18.715,18.715,0,0,0,9.987,5.155c.434.074,1.011.054,1.153-.362a.887.887,0,0,0-.076-.608c-.953-2.392-3.421-3.776-5.049-5.771-1.6-1.959-2.347-4.46-3.578-6.669-1.007-1.8-2.657-5.19-3.443-7.1-1.267-3.08-.732-6.378-.027-9.632s2.323-11.1,3.586-14.519" fill="#fff"/><path d="M672.774,473.031a163.16,163.16,0,0,1,57.052-8.051c14.318.542,29.869,3.7,38.982,14.756,6.565,7.964,7.281,11.765,7.894,22.069.557,9.357-.683,24.982-1.5,34.32-1.392,15.864-1.741,32.339-5.295,47.863a3.067,3.067,0,0,1-.609,1.444,2.932,2.932,0,0,1-1.455.713,29.894,29.894,0,0,1-13.556.389,3.257,3.257,0,0,1-1.775-.783,3.377,3.377,0,0,1-.693-1.934c-1.458-10.995-2.7-28.11-3.635-39.162-.757-8.908-.622-11.779-3.547-20.228a16.907,16.907,0,0,0-3.33-6.3c-3.362-3.535-8.839-3.813-13.711-3.559-16.493.86-33.158,5.072-49.317,1.66" fill="#00001e"/><path d="M732.322,514.266a28.1,28.1,0,0,1-9.834,16.975,7.863,7.863,0,0,0-2.655,2.912c-.869,2.216.769,4.668,2.731,6.015s4.325,2.11,6.064,3.735c2.1,1.958,2.968,4.854,4.369,7.357a18.723,18.723,0,0,0,8.2,7.687c.4.19.957.328,1.208-.034a.9.9,0,0,0,.093-.605c-.264-2.562-2.26-4.567-3.281-6.931-1-2.321-1.039-4.931-1.621-7.392-.475-2.012-1.138-5.719-1.372-7.772-.377-3.309.686-4.814,2.253-7.752s5.755-8.077,7.9-11.019" fill="#fff"/><path d="M637.974,483.686c-.793,7.759-1.021,16.742,3.615,23.175,6.806,9.442,20.468,11.159,32.093,11.74s23.27-.446,33.335-6.291,18.8-13.715,27.057-21.919c12.017-11.939,23.188-24.7,34.052-37.7-17.664,17.4-34.314,37.334-40.217,61.416a2.79,2.79,0,0,0-.08,1.512,2.862,2.862,0,0,0,1.534,1.424l14.744,7.973a2.83,2.83,0,0,0,4.377-.927,337.554,337.554,0,0,0,21.925-29.873c9.952-14.89,19.714-30.925,20.922-48.793.307-4.548-.119-9.547-3.213-12.894-3.425-3.7-9.017-4.26-14.062-4.219-20.6.167-42.766,13.167-61.175,22.411s-39.831,33.9-52.95,6.164"/><path d="M788.3,395.675,813.792,362.7a1.2,1.2,0,0,1,2.138.631l2.077,24.694-15.616,24.474Z" fill="#efc523"/><path d="M776.271,402.225l35.25-40.666,5.643,25.878h0Z" fill="#ecebf2"/><path d="M772.347,402.225l18.29-33.272,27.37,19.068Z" fill="#fff"/><path d="M756.034,416.864c4.619-7.481,20.487-32.607,24.856-39.521A2.649,2.649,0,0,1,784,376.256l34.009,11.765L792.568,427.89a1.61,1.61,0,0,1-1.771.688l-33.676-8.992A1.825,1.825,0,0,1,756.034,416.864Z" fill="#efc523"/><path d="M817.247,387.758a6.085,6.085,0,0,1-2.951,3.751c-4.44,2.616-7.569,7.442-11.641,10.661a92.191,92.191,0,0,1-13.391,8.948c-9.5,5.1-21.518,7.844-32.244,8.428.035.011.064.031.1.04l33.676,8.992a1.61,1.61,0,0,0,1.771-.688l25.439-39.869Z" fill="#efc523"/><path d="M670.277,366.265c-12.63,7.86-21.3,21.044-26.077,35.132s-5.991,29.128-6.315,44,.2,29.791-1.261,44.6c-.1,1.019.005,2.371,1,2.622a2.234,2.234,0,0,0,1.82-.733c14.885-12.214,34.141-17.453,51.179-26.422a6.559,6.559,0,0,0,2.653-2.071,6.743,6.743,0,0,0,.732-2.017q.993-4.048,1.987-8.1c2.9-11.827,5.82-23.754,6.274-35.923s-2.29-21.695-8.889-31.93c-1.247-1.935-5.844-10.137-7.489-11.748-4.184-4.1-9.363-1.463-15.612-7.409" fill="#efc523"/><path d="M774.888,419.234c1.912,1.083,4.407.082,5.935-1.5a57.173,57.173,0,0,0,3.92-5c1.631-2.1,5.064-3.652,8.318-5.882a.5.5,0,0,1,.78.53c-.533,1.948-3.471,5.11-3.95,6.923a.685.685,0,0,0,.037.617.651.651,0,0,0,.576.138c3.641-.366,6.38-3.454,9.8-4.762a2.449,2.449,0,0,1,1.564-.187c1.1.341.275,2.581.005,3.7a14.032,14.032,0,0,1-4.21,6.48c-6.5,5.7-14.3,6.968-22.86,5.771" fill="#fff"/><path d="M659.63,380.406c4.7-3.382,10.752-3.583,16.3-2.608,10.656,1.872,20.441,7.569,29.387,14.168,8.312,6.13,16.153,13.147,25.173,17.934,12.1,6.422,25.822,8.522,39.267,8.118,2.557-.077,5.249-.21,7.522,1.07s3.829,4.555,2.516,6.953c-.8,1.463-2.37,2.16-3.83,2.761-10.653,4.386-21.357,8.789-32.5,11.346s-22.827,3.215-33.849.1c-15.178-4.284-27.976-15.315-39.352-27.1-3.365-3.487-6.7-7.135-8.908-11.59s-6.838-14.785-1.731-21.154" fill="#efc523"/><g opacity="0.46"><path d="M675.98,390.3a1.5,1.5,0,0,0,0-3,1.5,1.5,0,0,0,0,3Z" fill="#fff"/></g><g opacity="0.46"><path d="M700.2,422.514a1.5,1.5,0,0,0,0-3,1.5,1.5,0,0,0,0,3Z" fill="#fff"/></g><g opacity="0.46"><path d="M703.488,398.767a1.5,1.5,0,0,0,0-3,1.5,1.5,0,0,0,0,3Z" fill="#fff"/></g><g opacity="0.46"><path d="M682.093,412.169a1.5,1.5,0,0,0,0-3,1.5,1.5,0,0,0,0,3Z" fill="#fff"/></g><g opacity="0.46"><path d="M728.411,420.633a1.5,1.5,0,0,0,0-3,1.5,1.5,0,0,0,0,3Z" fill="#fff"/></g><g opacity="0.46"><path d="M723.277,438.032a1.5,1.5,0,0,0,0-3,1.5,1.5,0,0,0,0,3Z" fill="#fff"/></g><g opacity="0.46"><path d="M757.8,427.217a1.5,1.5,0,0,0,0-3,1.5,1.5,0,0,0,0,3Z" fill="#fff"/></g><g opacity="0.46"><path d="M687.265,457.782a1.5,1.5,0,0,0,0-3,1.5,1.5,0,0,0,0,3Z" fill="#fff"/></g><g opacity="0.46"><path d="M668.456,434.505a1.5,1.5,0,0,0,0-3,1.5,1.5,0,0,0,0,3Z" fill="#fff"/></g><g opacity="0.46"><path d="M663.283,464.835a1.5,1.5,0,0,0,0-3,1.5,1.5,0,0,0,0,3Z" fill="#fff"/></g><g opacity="0.46"><path d="M645.179,481.529a1.5,1.5,0,0,0,0-3,1.5,1.5,0,0,0,0,3Z" fill="#fff"/></g><g opacity="0.46"><path d="M645.885,444.145a1.5,1.5,0,0,0,0-3,1.5,1.5,0,0,0,0,3Z" fill="#fff"/></g><g opacity="0.46"><path d="M656.23,414.99a1.5,1.5,0,0,0,0-3,1.5,1.5,0,0,0,0,3Z" fill="#fff"/></g><g opacity="0.46"><path d="M656.23,392.419a1.5,1.5,0,0,0,0-3,1.5,1.5,0,0,0,0,3Z" fill="#fff"/></g><g opacity="0.46"><path d="M692.908,440.148a1.5,1.5,0,0,0,0-3,1.5,1.5,0,0,0,0,3Z" fill="#fff"/></g><g opacity="0.46"><path d="M642.358,420.633a1.5,1.5,0,0,0,0-3,1.5,1.5,0,0,0,0,3Z" fill="#fff"/></g><path d="M687.84,348.338a.968.968,0,0,1,.441.544.83.83,0,0,1-.809,1.038,2.015,2.015,0,0,1-.76-.238,7.8,7.8,0,0,1-1.562-.959,4.759,4.759,0,0,1-1.512-1.751,2.78,2.78,0,0,1-.277-1.32,2.867,2.867,0,0,1,.463-1.382,5.225,5.225,0,0,1,1.329-1.319c.134-.1.273-.188.412-.279.083-.054.164-.111.245-.169.025-.019.157-.118.049-.035s.032-.028.058-.05a3.916,3.916,0,0,0,.386-.365c.026-.028.144-.129.143-.167,0-.014-.115.157-.073.094.009-.014.02-.027.03-.041.023-.032.045-.065.066-.1a2.22,2.22,0,0,0,.183-.344l-.082.194a1.879,1.879,0,0,0,.126-.46l-.029.216a1.881,1.881,0,0,0,0-.474l.029.216a2.273,2.273,0,0,0-.156-.554l.082.194a3.31,3.31,0,0,0-.367-.634c-.019-.027-.039-.052-.058-.078-.03-.042.143.179.059.076-.041-.05-.082-.1-.125-.15-.081-.1-.166-.187-.254-.276a11.938,11.938,0,0,0-1.023-.91,5.868,5.868,0,0,1-.943-.934,9.192,9.192,0,0,1-1.294-2.242,5.886,5.886,0,0,1-.483-2.522.812.812,0,0,1,1.624,0,4.1,4.1,0,0,0,.031.776l-.029-.216a6.478,6.478,0,0,0,.456,1.608l-.082-.194a8.051,8.051,0,0,0,.8,1.469c.038.055.077.11.117.164l.048.064c.088.119-.108-.136-.043-.055.084.1.169.208.259.308a3.92,3.92,0,0,0,.353.353c.461.4.948.762,1.373,1.2a5.672,5.672,0,0,1,.795,1.012,3.311,3.311,0,0,1,.451,1.323,3.093,3.093,0,0,1-1.329,2.679c-.3.237-.618.438-.929.659-.054.038-.107.079-.161.118-.081.058.175-.139.068-.052-.027.021-.054.042-.08.064-.091.075-.18.153-.266.234s-.154.153-.225.233c-.037.042-.072.084-.107.127s-.082.118.077-.1l-.046.063a2.433,2.433,0,0,0-.272.475l.082-.194a1.977,1.977,0,0,0-.135.482l.029-.216a1.866,1.866,0,0,0,0,.466l-.029-.216a2.12,2.12,0,0,0,.149.535l-.082-.194a2.705,2.705,0,0,0,.187.358c.033.054.069.107.105.159l.06.082c.058.081-.107-.135-.09-.116s.03.038.045.056a4.768,4.768,0,0,0,.587.6c.05.043.1.086.152.127l.072.059.049.038c-.005,0-.2-.153-.1-.077s.215.158.326.233q.3.205.624.382c.185.1.374.2.568.281l-.194-.082a1.111,1.111,0,0,0,.262.089l-.216-.029a.054.054,0,0,0,.018,0l-.215.029h0l-.194.082c.123-.064.027.033-.287.288l-.082.194v0l-.029.216v0l.029.216v0l.082.194c-.031-.072.185.213.107.141-.047-.044.228.167.116.091a.865.865,0,0,1-.373-.485.833.833,0,0,1,.082-.626.822.822,0,0,1,1.111-.291Z"/><path d="M667.812,352.211a25.8,25.8,0,0,0-.289,4.97l.034.636c.017.213.04.426.06.638.036.424.111.849.175,1.272.029.212.08.422.121.632s.087.42.137.629l.167.622.084.311c.027.1.065.2.1.306a19.549,19.549,0,0,0,2.152,4.583,23.376,23.376,0,0,0,3.057,3.818l.42.43c.143.139.291.272.436.409l.438.4.219.2.227.191c.3.255.6.51.906.76l.934.715a37.2,37.2,0,0,0,3.9,2.535c.663.392,1.354.736,2.036,1.086.341.175.692.334,1.041.494s.7.316,1.053.465c-.267-.278-.539-.549-.81-.817s-.548-.527-.81-.8c-.534-.54-1.074-1.067-1.593-1.612-1.054-1.071-2.055-2.176-3.015-3.287l-.708-.839-.676-.855-.168-.213-.16-.218-.32-.434c-.106-.145-.216-.287-.317-.433l-.3-.442a25.066,25.066,0,0,1-2.074-3.611A17.886,17.886,0,0,1,673,360.987a16.9,16.9,0,0,1-.353-3.889" fill="#e51f46"/></g></svg>