<svg xmlns="http://www.w3.org/2000/svg" xmlns:xlink="http://www.w3.org/1999/xlink" width="1299.777" height="552.169" viewBox="0 0 1299.777 552.169"><defs><linearGradient id="a" x1="0.898" y1="0.701" x2="0.898" y2="1.689" gradientUnits="objectBoundingBox"><stop offset="0" stop-color="#303030"/><stop offset="0.077" stop-color="#212121"/><stop offset="0.178" stop-color="#161616"/><stop offset="0.287" stop-color="#131313"/></linearGradient><linearGradient id="b" x1="1.07" y1="0.008" x2="1.07" y2="1.075" xlink:href="#a"/></defs><g transform="translate(10.93 -115.671)"><path d="M649.464,5955.976a6.113,6.113,0,0,1,.421-3.156,2.3,2.3,0,0,0,.017-1.722,6.149,6.149,0,0,1-.374-1.466c-.2-1.587,3.066-3.1,3.9-4.271a2.419,2.419,0,0,0,.41-1.719l-.005-.041a5.9,5.9,0,0,1,2.1-5.386,2.175,2.175,0,0,0,.8-1.483,5.658,5.658,0,0,1,3.167-4.595,2.009,2.009,0,0,0,1.025-1.141,5.349,5.349,0,0,1,4.258-3.533c.068-.009.135-.017.2-.023a1.98,1.98,0,0,0,1.444-.874,5.206,5.206,0,0,1,3.593-2.25,4.936,4.936,0,0,1,1.229-.012,1.886,1.886,0,0,0,1.408-.451,5.074,5.074,0,0,1,2.572-1.133c.13-.017.259-.027.388-.035.127-.027.255-.051.385-.068a5.016,5.016,0,0,1,2.771.417,1.878,1.878,0,0,0,1.474.065,5,5,0,0,1,1.19-.312,5.142,5.142,0,0,1,4.04,1.228,1.958,1.958,0,0,0,1.616.463c.067-.012.135-.022.2-.031a5.283,5.283,0,0,1,5.006,2.292,1.979,1.979,0,0,0,1.279.833,5.578,5.578,0,0,1,4.221,3.6,2.145,2.145,0,0,0,1.146,1.223c1.76.76,5.9,2.658,6.176,4.818l.005.041a2.392,2.392,0,0,0,.83,1.553c1.1.909-.119,2.443.085,4.03a6.252,6.252,0,0,1,.009,1.515c-.07.594,2.094,1.017,2.452,1.482a6.064,6.064,0,0,1,1.2,2.938,6.13,6.13,0,0,1-.351,2.984,2.287,2.287,0,0,0,.006,1.668,6.147,6.147,0,0,1,.4,1.528,6.021,6.021,0,0,1-1.057,4.293,2.438,2.438,0,0,0-.42,1.731v.011a5.91,5.91,0,0,1-2,5.3,2.056,2.056,0,0,0-.7,1.337c-.243,2.059-2.383,5.769-4.177,6.526a2.1,2.1,0,0,0-1.173,1.317c-.636,1.99-4.186,1.4-6.263,1.675a4.866,4.866,0,0,1-1.113.023,1.775,1.775,0,0,0-1.724,1.058,4.293,4.293,0,0,1-3.254,2.4,4.514,4.514,0,0,1-4.926-4.086c-.006-.048-.007-.095-.012-.142q-.427.041-.853.063c.011.064.025.126.034.19a4.574,4.574,0,0,1-3.727,5.245,4.237,4.237,0,0,1-3.737-1.446,1.793,1.793,0,0,0-1.96-.575,4.977,4.977,0,0,1-1.062.264,5.309,5.309,0,0,1-5.159-2.52,2.072,2.072,0,0,0-1.466-.964,5.548,5.548,0,0,1-4.348-3.55,2.025,2.025,0,0,0-1.013-1.107,5.843,5.843,0,0,1-3.271-4.6v-.011a2.419,2.419,0,0,0-.843-1.562c-1.111-.909-4.136-2.161-4.342-3.758a6.193,6.193,0,0,1,0-1.581c.073-.572.334-1.448,0-1.908C651.029,5957.8,649.6,5957.029,649.464,5955.976Z" transform="translate(-5.401 -5701.843)"/><g transform="translate(-5.401 -5701.843)"><path d="M785.919,5855.571c-5.064-2.762-7.366-.46-9.208-2.762s5.064-8.287-8.747-14.273c0,0-.921-12.89-19.8-13.351s-13.812,12.891-18.876,16.114-6.446-1.842-11.51,1.381-2.763,9.669-6.906,10.59-9.668-4.144-14.733-.921-5.064,5.984-7.366,5.984-6.906-1.841-9.668,0-5.985,4.144-5.985,4.144H789.6S790.983,5858.333,785.919,5855.571Z" fill="none" stroke="#1a2e35" stroke-linecap="round" stroke-linejoin="round" stroke-width="2.061"/><path d="M717.014,5853.68a16.145,16.145,0,0,1-2.054.971" fill="none" stroke="#1a2e35" stroke-linecap="round" stroke-linejoin="round" stroke-width="2.061"/><path d="M741.933,5832.173a7.862,7.862,0,0,0-4.5,5.62c-.843,4.214-2.81,7.024-5.057,7.305s-10.677-.562-12.082,2.529a12.319,12.319,0,0,0-.787,2.822" fill="none" stroke="#1a2e35" stroke-linecap="round" stroke-linejoin="round" stroke-width="2.061"/></g><g transform="translate(-5.401 -5701.843)"><path d="M954.453,5906.131c-5.064-2.762-7.366-.46-9.208-2.762s5.064-8.287-8.747-14.273c0,0-.921-12.89-19.8-13.35s-13.812,12.891-18.876,16.113-6.445-1.841-11.51,1.381-2.763,9.669-6.906,10.59-9.668-4.144-14.733-.921-5.064,5.985-7.366,5.985-6.906-1.842-9.668,0-5.985,4.143-5.985,4.143H958.136S959.517,5908.894,954.453,5906.131Z" fill="none" stroke="#1a2e35" stroke-linecap="round" stroke-linejoin="round" stroke-width="2.061"/><path d="M885.549,5904.24a16.1,16.1,0,0,1-2.055.971" fill="none" stroke="#1a2e35" stroke-linecap="round" stroke-linejoin="round" stroke-width="2.061"/><path d="M910.467,5882.734a7.859,7.859,0,0,0-4.5,5.619c-.843,4.214-2.81,7.024-5.057,7.305s-10.677-.562-12.082,2.529a12.387,12.387,0,0,0-.787,2.822" fill="none" stroke="#1a2e35" stroke-linecap="round" stroke-linejoin="round" stroke-width="2.061"/></g><g transform="translate(-5.401 -5701.843)"><rect width="112.686" height="476.531" transform="translate(434.852 5818.448)" fill="#ececec"/><rect width="34.25" height="66" transform="translate(455.855 5851.85)" fill="#fff"/><path d="M473.945,5917.85c-.253,0-.458-14.776-.458-33s.2-33,.458-33,.457,14.773.457,33S474.2,5917.85,473.945,5917.85Z" fill="none" stroke="#000" stroke-miterlimit="10" stroke-width="1.868"/><path d="M490.1,5874.78c0,.253-7.667.458-17.124.458s-17.125-.2-17.125-.458,7.666-.458,17.125-.458S490.1,5874.527,490.1,5874.78Z" fill="none" stroke="#000" stroke-miterlimit="10" stroke-width="1.868"/><path d="M490.285,5898.384c0,.253-7.731.458-17.265.458s-17.267-.2-17.267-.458,7.73-.458,17.267-.458S490.285,5898.131,490.285,5898.384Z" fill="none" stroke="#000" stroke-miterlimit="10" stroke-width="1.868"/><rect width="34.25" height="66" transform="translate(455.855 5938.06)" fill="#fff"/><path d="M473.945,6004.06c-.253,0-.458-14.776-.458-33s.2-33,.458-33,.457,14.773.457,33S474.2,6004.06,473.945,6004.06Z" fill="none" stroke="#000" stroke-miterlimit="10" stroke-width="1.868"/><path d="M490.1,5960.99c0,.253-7.667.458-17.124.458s-17.125-.205-17.125-.458,7.666-.458,17.125-.458S490.1,5960.737,490.1,5960.99Z" fill="none" stroke="#000" stroke-miterlimit="10" stroke-width="1.868"/><path d="M490.285,5984.593c0,.253-7.731.458-17.265.458s-17.267-.2-17.267-.458,7.73-.457,17.267-.457S490.285,5984.341,490.285,5984.593Z" fill="none" stroke="#000" stroke-miterlimit="10" stroke-width="1.868"/><rect width="34.25" height="66" transform="translate(455.855 6024.27)" fill="#fff"/><path d="M473.945,6090.27c-.253,0-.458-14.776-.458-33s.2-33,.458-33,.457,14.773.457,33S474.2,6090.27,473.945,6090.27Z" fill="none" stroke="#000" stroke-miterlimit="10" stroke-width="1.868"/><path d="M490.1,6047.2c0,.252-7.667.458-17.124.458s-17.125-.206-17.125-.458,7.666-.458,17.125-.458S490.1,6046.947,490.1,6047.2Z" fill="none" stroke="#000" stroke-miterlimit="10" stroke-width="1.868"/><path d="M490.285,6070.8c0,.253-7.731.458-17.265.458s-17.267-.205-17.267-.458,7.73-.458,17.267-.458S490.285,6070.55,490.285,6070.8Z" fill="none" stroke="#000" stroke-miterlimit="10" stroke-width="1.868"/><rect width="34.25" height="66" transform="translate(455.855 6110.479)" fill="#fff"/><path d="M473.945,6176.48c-.253,0-.458-14.776-.458-33s.2-33,.458-33,.457,14.772.457,33S474.2,6176.48,473.945,6176.48Z" fill="none" stroke="#000" stroke-miterlimit="10" stroke-width="1.868"/><path d="M490.1,6133.409c0,.253-7.667.458-17.124.458s-17.125-.205-17.125-.458,7.666-.458,17.125-.458S490.1,6133.157,490.1,6133.409Z" fill="none" stroke="#000" stroke-miterlimit="10" stroke-width="1.868"/><path d="M490.285,6157.013c0,.253-7.731.458-17.265.458s-17.267-.205-17.267-.458,7.73-.458,17.267-.458S490.285,6156.76,490.285,6157.013Z" fill="none" stroke="#000" stroke-miterlimit="10" stroke-width="1.868"/><rect width="82.104" height="476.531" transform="translate(513.356 5818.448)" fill="none" stroke="#000" stroke-miterlimit="10" stroke-width="1.868"/><rect width="34.249" height="66" transform="translate(538.852 5851.85)" fill="#fff"/><path d="M556.942,5917.85c-.253,0-.458-14.776-.458-33s.205-33,.458-33,.458,14.773.458,33S557.2,5917.85,556.942,5917.85Z" fill="none" stroke="#000" stroke-miterlimit="10" stroke-width="1.868"/><path d="M573.1,5874.78c0,.253-7.668.458-17.124.458s-17.126-.2-17.126-.458,7.666-.458,17.126-.458S573.1,5874.527,573.1,5874.78Z" fill="none" stroke="#000" stroke-miterlimit="10" stroke-width="1.868"/><path d="M573.282,5898.384c0,.253-7.731.458-17.265.458s-17.266-.2-17.266-.458,7.729-.458,17.266-.458S573.282,5898.131,573.282,5898.384Z" fill="none" stroke="#000" stroke-miterlimit="10" stroke-width="1.868"/><rect width="34.249" height="66" transform="translate(538.852 5938.767)" fill="#fff"/><path d="M556.942,6004.767c-.253,0-.458-14.775-.458-33s.205-33,.458-33,.458,14.773.458,33S557.2,6004.767,556.942,6004.767Z" fill="none" stroke="#000" stroke-miterlimit="10" stroke-width="1.868"/><path d="M573.1,5961.7c0,.253-7.668.458-17.124.458s-17.126-.2-17.126-.458,7.666-.458,17.126-.458S573.1,5961.444,573.1,5961.7Z" fill="none" stroke="#000" stroke-miterlimit="10" stroke-width="1.868"/><path d="M573.282,5985.3c0,.253-7.731.458-17.265.458s-17.266-.2-17.266-.458,7.729-.458,17.266-.458S573.282,5985.048,573.282,5985.3Z" fill="none" stroke="#000" stroke-miterlimit="10" stroke-width="1.868"/><rect width="34.249" height="66" transform="translate(538.852 6025.685)" fill="#fff"/><path d="M556.942,6091.685c-.253,0-.458-14.776-.458-33s.205-33,.458-33,.458,14.773.458,33S557.2,6091.685,556.942,6091.685Z" fill="none" stroke="#000" stroke-miterlimit="10" stroke-width="1.868"/><path d="M573.1,6048.614c0,.253-7.668.458-17.124.458s-17.126-.2-17.126-.458,7.666-.458,17.126-.458S573.1,6048.361,573.1,6048.614Z" fill="none" stroke="#000" stroke-miterlimit="10" stroke-width="1.868"/><path d="M573.282,6072.218c0,.253-7.731.458-17.265.458s-17.266-.2-17.266-.458,7.729-.458,17.266-.458S573.282,6071.965,573.282,6072.218Z" fill="none" stroke="#000" stroke-miterlimit="10" stroke-width="1.868"/><rect width="34.249" height="66" transform="translate(538.852 6112.602)" fill="#fff"/><path d="M556.942,6178.6c-.253,0-.458-14.776-.458-33s.205-33,.458-33,.458,14.773.458,33S557.2,6178.6,556.942,6178.6Z" fill="none" stroke="#000" stroke-miterlimit="10" stroke-width="1.868"/><path d="M573.1,6135.531c0,.253-7.668.458-17.124.458s-17.126-.2-17.126-.458,7.666-.457,17.126-.457S573.1,6135.279,573.1,6135.531Z" fill="none" stroke="#000" stroke-miterlimit="10" stroke-width="1.868"/><path d="M573.282,6159.135c0,.253-7.731.458-17.265.458s-17.266-.2-17.266-.458,7.729-.458,17.266-.458S573.282,6158.882,573.282,6159.135Z" fill="none" stroke="#000" stroke-miterlimit="10" stroke-width="1.868"/><rect width="34.25" height="66" transform="translate(455.855 6196.689)" fill="#fff"/><path d="M473.945,6262.689c-.253,0-.458-14.775-.458-33s.2-33,.458-33,.457,14.773.457,33S474.2,6262.689,473.945,6262.689Z" fill="none" stroke="#000" stroke-miterlimit="10" stroke-width="1.868"/><path d="M490.1,6219.619c0,.253-7.667.458-17.124.458s-17.125-.205-17.125-.458,7.666-.458,17.125-.458S490.1,6219.366,490.1,6219.619Z" fill="none" stroke="#000" stroke-miterlimit="10" stroke-width="1.868"/><path d="M490.285,6243.223c0,.253-7.731.458-17.265.458s-17.267-.205-17.267-.458,7.73-.458,17.267-.458S490.285,6242.97,490.285,6243.223Z" fill="none" stroke="#000" stroke-miterlimit="10" stroke-width="1.868"/><rect width="34.249" height="66" transform="translate(538.852 6199.519)" fill="#fff"/><path d="M556.942,6265.519c-.253,0-.458-14.776-.458-33s.205-33,.458-33,.458,14.772.458,33S557.2,6265.519,556.942,6265.519Z" fill="none" stroke="#000" stroke-miterlimit="10" stroke-width="1.868"/><path d="M573.1,6222.448c0,.254-7.668.458-17.124.458s-17.126-.2-17.126-.458,7.666-.457,17.126-.457S573.1,6222.2,573.1,6222.448Z" fill="none" stroke="#000" stroke-miterlimit="10" stroke-width="1.868"/><path d="M573.282,6246.052c0,.253-7.731.458-17.265.458s-17.266-.2-17.266-.458,7.729-.458,17.266-.458S573.282,6245.8,573.282,6246.052Z" fill="none" stroke="#000" stroke-miterlimit="10" stroke-width="1.868"/></g><g transform="translate(-5.401 -5701.843)"><rect width="260.581" height="419.289" transform="translate(262.645 6285.775) rotate(180)" fill="none" stroke="#000" stroke-miterlimit="10" stroke-width="1.868"/><path d="M158.291,6285.774l139.763.2v-419.49H158.291Z" fill="none" stroke="#000" stroke-miterlimit="10" stroke-width="1.868"/><rect width="47.666" height="47.665" transform="translate(68.846 6172.813) rotate(180)" fill="#ececec"/><path d="M43.188,6177.593c-.25,0-.452-12.315-.452-27.5s.2-27.507.452-27.507.451,12.313.451,27.507S43.437,6177.593,43.188,6177.593Z" fill="none" stroke="#000" stroke-miterlimit="10" stroke-width="1.868"/><path d="M12.23,6141.13c0-.249,13.861-.452,30.956-.452s30.959.2,30.959.452-13.858.452-30.959.452S12.23,6141.379,12.23,6141.13Z" fill="none" stroke="#000" stroke-miterlimit="10" stroke-width="1.868"/><rect width="47.665" height="47.665" transform="translate(136.821 6172.813) rotate(180)" fill="#ececec"/><path d="M111.162,6177.593c-.249,0-.452-12.315-.452-27.5s.2-27.507.452-27.507.452,12.313.452,27.507S111.411,6177.593,111.162,6177.593Z" fill="none" stroke="#000" stroke-miterlimit="10" stroke-width="1.868"/><path d="M80.205,6141.13c0-.249,13.861-.452,30.956-.452s30.959.2,30.959.452-13.859.452-30.959.452S80.205,6141.379,80.205,6141.13Z" fill="none" stroke="#000" stroke-miterlimit="10" stroke-width="1.868"/><rect width="47.666" height="47.665" transform="translate(68.846 6097.519) rotate(180)" fill="#ececec"/><path d="M43.188,6102.3c-.25,0-.452-12.316-.452-27.5s.2-27.508.452-27.508.451,12.314.451,27.508S43.437,6102.3,43.188,6102.3Z" fill="none" stroke="#000" stroke-miterlimit="10" stroke-width="1.868"/><path d="M12.23,6065.836c0-.25,13.861-.452,30.956-.452s30.959.2,30.959.452-13.858.451-30.959.451S12.23,6066.085,12.23,6065.836Z" fill="none" stroke="#000" stroke-miterlimit="10" stroke-width="1.868"/><rect width="47.665" height="47.665" transform="translate(136.821 6097.519) rotate(180)" fill="#ececec"/><path d="M111.162,6102.3c-.249,0-.452-12.316-.452-27.5s.2-27.508.452-27.508.452,12.314.452,27.508S111.411,6102.3,111.162,6102.3Z" fill="none" stroke="#000" stroke-miterlimit="10" stroke-width="1.868"/><path d="M80.205,6065.836c0-.25,13.861-.452,30.956-.452s30.959.2,30.959.452-13.859.451-30.959.451S80.205,6066.085,80.205,6065.836Z" fill="none" stroke="#000" stroke-miterlimit="10" stroke-width="1.868"/><rect width="47.666" height="47.665" transform="translate(68.846 6022.051) rotate(180)" fill="#ececec"/><path d="M43.188,6026.83c-.25,0-.452-12.316-.452-27.5s.2-27.507.452-27.507.451,12.313.451,27.507S43.437,6026.83,43.188,6026.83Z" fill="none" stroke="#000" stroke-miterlimit="10" stroke-width="1.868"/><path d="M12.23,5990.367c0-.249,13.861-.452,30.956-.452s30.959.2,30.959.452-13.858.452-30.959.452S12.23,5990.616,12.23,5990.367Z" fill="none" stroke="#000" stroke-miterlimit="10" stroke-width="1.868"/><rect width="47.665" height="47.665" transform="translate(136.821 6022.051) rotate(180)" fill="#ececec"/><path d="M111.162,6026.83c-.249,0-.452-12.316-.452-27.5s.2-27.507.452-27.507.452,12.313.452,27.507S111.411,6026.83,111.162,6026.83Z" fill="none" stroke="#000" stroke-miterlimit="10" stroke-width="1.868"/><path d="M80.205,5990.367c0-.249,13.861-.452,30.956-.452s30.959.2,30.959.452-13.859.452-30.959.452S80.205,5990.616,80.205,5990.367Z" fill="none" stroke="#000" stroke-miterlimit="10" stroke-width="1.868"/><g opacity="0.7"><rect width="47.665" height="47.665" transform="translate(253.831 6022.051) rotate(180)" fill="#fff"/></g><path d="M230,6026.83c-.249,0-.452-12.316-.452-27.5s.2-27.507.452-27.507.452,12.313.452,27.507S230.247,6026.83,230,6026.83Z" fill="none" stroke="#000" stroke-miterlimit="10" stroke-width="1.868"/><path d="M197.215,5990.367c0-.249,13.861-.452,30.956-.452s30.959.2,30.959.452-13.859.452-30.959.452S197.215,5990.616,197.215,5990.367Z" fill="none" stroke="#000" stroke-miterlimit="10" stroke-width="1.868"/><rect width="47.666" height="47.665" transform="translate(68.846 5945.482) rotate(180)" fill="#ececec"/><path d="M43.188,5950.262c-.25,0-.452-12.316-.452-27.505s.2-27.508.452-27.508.451,12.313.451,27.508S43.437,5950.262,43.188,5950.262Z" fill="none" stroke="#000" stroke-miterlimit="10" stroke-width="1.868"/><path d="M12.23,5913.8c0-.249,13.861-.451,30.956-.451s30.959.2,30.959.451-13.858.452-30.959.452S12.23,5914.048,12.23,5913.8Z" fill="none" stroke="#000" stroke-miterlimit="10" stroke-width="1.868"/><rect width="47.665" height="47.665" transform="translate(136.821 5945.482) rotate(180)" fill="#ececec"/><path d="M111.162,5950.262c-.249,0-.452-12.316-.452-27.505s.2-27.508.452-27.508.452,12.313.452,27.508S111.411,5950.262,111.162,5950.262Z" fill="none" stroke="#000" stroke-miterlimit="10" stroke-width="1.868"/><path d="M80.205,5913.8c0-.249,13.861-.451,30.956-.451s30.959.2,30.959.451-13.859.452-30.959.452S80.205,5914.048,80.205,5913.8Z" fill="none" stroke="#000" stroke-miterlimit="10" stroke-width="1.868"/><g opacity="0.7"><rect width="47.665" height="47.665" transform="translate(253.831 5945.482) rotate(180)" fill="#fff"/></g><path d="M230,5950.262c-.249,0-.452-12.316-.452-27.505s.2-27.508.452-27.508.452,12.313.452,27.508S230.247,5950.262,230,5950.262Z" fill="none" stroke="#000" stroke-miterlimit="10" stroke-width="1.868"/><path d="M197.215,5913.8c0-.249,13.861-.451,30.956-.451s30.959.2,30.959.451-13.859.452-30.959.452S197.215,5914.048,197.215,5913.8Z" fill="none" stroke="#000" stroke-miterlimit="10" stroke-width="1.868"/><g opacity="0.7"><rect width="47.665" height="47.665" transform="translate(253.831 6098.263) rotate(180)" fill="#fff"/></g><path d="M230,6103.042c-.249,0-.452-12.316-.452-27.5s.2-27.507.452-27.507.452,12.313.452,27.507S230.247,6103.042,230,6103.042Z" fill="none" stroke="#000" stroke-miterlimit="10" stroke-width="1.868"/><path d="M197.215,6066.579c0-.249,13.861-.452,30.956-.452s30.959.2,30.959.452-13.859.452-30.959.452S197.215,6066.829,197.215,6066.579Z" fill="none" stroke="#000" stroke-miterlimit="10" stroke-width="1.868"/><g opacity="0.7"><rect width="47.665" height="47.665" transform="translate(253.831 6174.474) rotate(180)" fill="#fff"/></g><path d="M230,6179.254c-.249,0-.452-12.316-.452-27.5s.2-27.507.452-27.507.452,12.313.452,27.507S230.247,6179.254,230,6179.254Z" fill="none" stroke="#000" stroke-miterlimit="10" stroke-width="1.868"/><path d="M197.215,6142.791c0-.25,13.861-.452,30.956-.452s30.959.2,30.959.452-13.859.452-30.959.452S197.215,6143.04,197.215,6142.791Z" fill="none" stroke="#000" stroke-miterlimit="10" stroke-width="1.868"/><path d="M56.71,6285.728a1.705,1.705,0,0,1-.04-.427c-.01-.327-.023-.741-.039-1.259-.018-1.165-.043-2.791-.075-4.868-.031-4.3-.075-10.46-.13-18.141-.039-15.5-.094-37.138-.157-61.923v-.441h.442l24.819-.011,24.025.01H106l0,.441c-.062,24.985-.117,46.821-.156,62.476-.055,7.756-.1,13.978-.131,18.324-.032,2.1-.057,3.742-.075,4.919-.016.523-.028.942-.039,1.272a1.76,1.76,0,0,1-.04.433,1.826,1.826,0,0,1-.04-.433c-.01-.33-.023-.748-.039-1.272-.018-1.177-.043-2.82-.074-4.919-.032-4.346-.076-10.568-.131-18.324-.04-15.655-.094-37.49-.157-62.476l.441.44-24.025.011-24.819-.011.44-.44c-.063,24.785-.118,46.419-.157,61.923-.055,7.681-.1,13.84-.131,18.141-.031,2.077-.056,3.7-.074,4.868-.016.518-.029.932-.039,1.259A1.812,1.812,0,0,1,56.71,6285.728Z" fill="none" stroke="#000" stroke-miterlimit="10" stroke-width="1.868"/><rect width="16.649" height="39.85" transform="translate(99.408 6244.102) rotate(180)" fill="none" stroke="#000" stroke-miterlimit="10" stroke-width="1.868"/><path d="M99.452,6244.146H82.716v-39.939H99.452Zm-16.648-.088h16.56v-39.763H82.8Z" fill="none" stroke="#000" stroke-miterlimit="10" stroke-width="1.868"/><rect width="16.65" height="39.85" transform="translate(79.505 6244.102) rotate(180)" fill="none" stroke="#000" stroke-miterlimit="10" stroke-width="1.868"/><path d="M79.548,6244.146H62.812v-39.939H79.548Zm-16.648-.088H79.46v-39.763H62.9Z" fill="none" stroke="#000" stroke-miterlimit="10" stroke-width="1.868"/><path d="M62.516,6248.223c.029.142-.814.133-1.2,1.076a1.936,1.936,0,0,0,.01,1.6,1.587,1.587,0,0,0,1.592.793,1.654,1.654,0,0,0,1.2-1.344,1.548,1.548,0,0,0-.563-1.437c-.781-.663-1.55-.5-1.563-.634-.083-.077.772-.587,1.944.12a2.175,2.175,0,0,1,1.008,2.054,2.425,2.425,0,0,1-1.853,2.127,2.362,2.362,0,0,1-2.509-1.3,2.465,2.465,0,0,1,.163-2.275,1.737,1.737,0,0,1,1.231-.883C62.336,6248.081,62.518,6248.171,62.516,6248.223Z" fill="none" stroke="#000" stroke-miterlimit="10" stroke-width="1.868"/></g><g transform="translate(-5.401 -5701.843)"><rect width="121.437" height="337.452" transform="translate(486.065 6285.776) rotate(180)" fill="none" stroke="#000" stroke-miterlimit="10" stroke-width="1.868"/><g opacity="0.4"><rect width="60.718" height="337.453" transform="translate(486.065 6285.777) rotate(180)"/></g><rect width="101.217" height="337.452" transform="translate(400.639 6285.776) rotate(180)" fill="none" stroke="#000" stroke-miterlimit="10" stroke-width="1.868"/><rect width="34.087" height="79.269" transform="translate(375.08 5975.59)" fill="#fafafa"/><path d="M375.08,6054.859a2.167,2.167,0,0,1-.021-.363c-.006-.28-.013-.647-.022-1.112-.01-1.028-.025-2.485-.044-4.357-.022-3.863-.055-9.43-.1-16.415-.04-14.125-.1-33.97-.164-57.021v-.348h.348l34.081-.017c.739.725.2.214.37.382v2.865q0,1.44,0,2.87,0,2.861,0,5.683,0,5.643-.005,11.114c-.008,7.287-.014,14.321-.021,21.026-.029,13.4-.054,25.494-.076,35.693v.262l-.259,0-25.021-.14-6.752-.065-1.739-.028a4.282,4.282,0,0,1-.575-.027,6,6,0,0,1,.627-.027l1.787-.028,6.81-.065,24.863-.14-.26.26c-.022-10.2-.048-22.29-.077-35.693-.006-6.705-.013-13.739-.02-21.026q0-5.468-.006-11.114,0-2.823,0-5.683v-5.735c.161.157-.358-.384.359.347l-34.081-.017.347-.347c-.066,22.956-.123,42.72-.164,56.786-.041,7.019-.074,12.614-.1,16.5-.019,1.9-.034,3.384-.044,4.428-.009.482-.016.863-.021,1.154A3.1,3.1,0,0,1,375.08,6054.859Z" fill="none" stroke="#000" stroke-miterlimit="10" stroke-width="1.868"/><path d="M374.536,5991.8c0-.2,7.859-.365,17.55-.365s17.552.164,17.552.365-7.857.364-17.552.364S374.536,5992,374.536,5991.8Z" fill="none" stroke="#000" stroke-miterlimit="10" stroke-width="1.868"/><path d="M391.761,6054.257c-.2,0-.364-13.931-.364-31.112s.163-31.114.364-31.114.364,13.928.364,31.114S391.962,6054.257,391.761,6054.257Z" fill="none" stroke="#000" stroke-miterlimit="10" stroke-width="1.868"/><rect width="34.087" height="79.269" transform="translate(313.595 5975.59)" fill="#fafafa"/><path d="M313.6,6054.859a2.162,2.162,0,0,1-.021-.363c-.006-.28-.013-.647-.022-1.112-.01-1.028-.025-2.485-.044-4.357-.022-3.863-.055-9.43-.1-16.415-.04-14.125-.1-33.97-.164-57.021v-.348h.348l34.081-.017c.739.725.205.214.37.382v2.865q0,1.44,0,2.87,0,2.861,0,5.683,0,5.643-.006,11.114c-.007,7.287-.014,14.321-.02,21.026-.029,13.4-.055,25.494-.076,35.693v.262l-.26,0-25.02-.14-6.752-.065-1.739-.028a4.263,4.263,0,0,1-.575-.027,6,6,0,0,1,.627-.027l1.787-.028,6.81-.065,24.862-.14-.26.26c-.022-10.2-.047-22.29-.076-35.693-.006-6.705-.013-13.739-.02-21.026q0-5.468-.006-11.114,0-2.823,0-5.683,0-1.43,0-2.87v-2.865c.16.157-.358-.384.359.347l-34.081-.017.347-.347c-.066,22.956-.124,42.72-.164,56.786-.041,7.019-.074,12.614-.1,16.5-.018,1.9-.033,3.384-.043,4.428-.009.482-.016.863-.022,1.154A3.251,3.251,0,0,1,313.6,6054.859Z" fill="none" stroke="#000" stroke-miterlimit="10" stroke-width="1.868"/><path d="M313.051,5991.8c0-.2,7.859-.365,17.55-.365s17.552.164,17.552.365-7.857.364-17.552.364S313.051,5992,313.051,5991.8Z" fill="none" stroke="#000" stroke-miterlimit="10" stroke-width="1.868"/><path d="M330.276,6054.257c-.2,0-.365-13.931-.365-31.112s.164-31.114.365-31.114.364,13.928.364,31.114S330.477,6054.257,330.276,6054.257Z" fill="none" stroke="#000" stroke-miterlimit="10" stroke-width="1.868"/><rect width="34.087" height="79.269" transform="translate(375.08 6074.913)" fill="#fafafa"/><path d="M375.08,6154.182a2.207,2.207,0,0,1-.021-.364c-.006-.28-.013-.647-.022-1.112-.01-1.028-.025-2.485-.044-4.356-.022-3.863-.055-9.431-.1-16.415-.04-14.125-.1-33.971-.164-57.022v-.347h.348l34.081-.017c.739.724.2.214.37.381v2.865q0,1.44,0,2.87,0,2.86,0,5.683,0,5.643-.005,11.114c-.008,7.288-.014,14.321-.021,21.027-.029,13.4-.054,25.494-.076,35.692v.262h-.259l-25.021-.141-6.752-.064-1.739-.029a4.521,4.521,0,0,1-.575-.026,5.69,5.69,0,0,1,.627-.028l1.787-.028,6.81-.064,24.863-.141-.26.26c-.022-10.2-.048-22.29-.077-35.692-.006-6.706-.013-13.739-.02-21.027q0-5.466-.006-11.114,0-2.822,0-5.683v-5.735c.161.157-.358-.384.359.347l-34.081-.017.347-.347c-.066,22.956-.123,42.72-.164,56.787-.041,7.018-.074,12.613-.1,16.494-.019,1.9-.034,3.384-.044,4.429-.009.482-.016.862-.021,1.153A3.137,3.137,0,0,1,375.08,6154.182Z" fill="none" stroke="#000" stroke-miterlimit="10" stroke-width="1.868"/><path d="M374.536,6091.125c0-.2,7.859-.364,17.55-.364s17.552.163,17.552.364-7.857.364-17.552.364S374.536,6091.326,374.536,6091.125Z" fill="none" stroke="#000" stroke-miterlimit="10" stroke-width="1.868"/><path d="M391.761,6153.579c-.2,0-.364-13.931-.364-31.111s.163-31.115.364-31.115.364,13.928.364,31.115S391.962,6153.579,391.761,6153.579Z" fill="none" stroke="#000" stroke-miterlimit="10" stroke-width="1.868"/><rect width="34.087" height="79.269" transform="translate(313.595 6074.913)" fill="#fafafa"/><path d="M313.6,6154.182a2.2,2.2,0,0,1-.021-.364c-.006-.28-.013-.647-.022-1.112-.01-1.028-.025-2.485-.044-4.356-.022-3.863-.055-9.431-.1-16.415-.04-14.125-.1-33.971-.164-57.022v-.347h.348l34.081-.017c.739.724.205.214.37.381v2.865q0,1.44,0,2.87,0,2.86,0,5.683,0,5.643-.006,11.114c-.007,7.288-.014,14.321-.02,21.027-.029,13.4-.055,25.494-.076,35.692v.262h-.26l-25.02-.141-6.752-.064-1.739-.029a4.5,4.5,0,0,1-.575-.026,5.689,5.689,0,0,1,.627-.028l1.787-.028,6.81-.064,24.862-.141-.26.26c-.022-10.2-.047-22.29-.076-35.692-.006-6.706-.013-13.739-.02-21.027q0-5.466-.006-11.114,0-2.822,0-5.683,0-1.431,0-2.87v-2.865c.16.157-.358-.384.359.347l-34.081-.017.347-.347c-.066,22.956-.124,42.72-.164,56.787-.041,7.018-.074,12.613-.1,16.494-.018,1.9-.033,3.384-.043,4.429-.009.482-.016.862-.022,1.153A3.293,3.293,0,0,1,313.6,6154.182Z" fill="none" stroke="#000" stroke-miterlimit="10" stroke-width="1.868"/><path d="M313.051,6091.125c0-.2,7.859-.364,17.55-.364s17.552.163,17.552.364-7.857.364-17.552.364S313.051,6091.326,313.051,6091.125Z" fill="none" stroke="#000" stroke-miterlimit="10" stroke-width="1.868"/><path d="M330.276,6153.579c-.2,0-.365-13.931-.365-31.111s.164-31.115.365-31.115.364,13.928.364,31.115S330.477,6153.579,330.276,6153.579Z" fill="none" stroke="#000" stroke-miterlimit="10" stroke-width="1.868"/><rect width="34.087" height="79.269" transform="translate(375.08 6173.485)" fill="#fafafa"/><path d="M375.08,6252.754a2.167,2.167,0,0,1-.021-.363c-.006-.28-.013-.648-.022-1.112-.01-1.028-.025-2.485-.044-4.357-.022-3.863-.055-9.43-.1-16.415-.04-14.125-.1-33.971-.164-57.021v-.348h.348l34.081-.017c.739.725.2.214.37.382v2.865q0,1.438,0,2.87,0,2.861,0,5.683,0,5.643-.005,11.114c-.008,7.287-.014,14.32-.021,21.026-.029,13.4-.054,25.494-.076,35.693v.262l-.259,0-25.021-.14-6.752-.065-1.739-.028a4.248,4.248,0,0,1-.575-.027,6,6,0,0,1,.627-.027l1.787-.028,6.81-.065,24.863-.14-.26.26c-.022-10.2-.048-22.29-.077-35.693-.006-6.706-.013-13.739-.02-21.026q0-5.466-.006-11.114,0-2.823,0-5.683V6173.5c.161.157-.358-.385.359.347l-34.081-.017.347-.347c-.066,22.956-.123,42.72-.164,56.786-.041,7.019-.074,12.613-.1,16.5-.019,1.9-.034,3.384-.044,4.428-.009.482-.016.863-.021,1.153A3.105,3.105,0,0,1,375.08,6252.754Z" fill="none" stroke="#000" stroke-miterlimit="10" stroke-width="1.868"/><path d="M374.536,6189.7c0-.2,7.859-.365,17.55-.365s17.552.163,17.552.365-7.857.364-17.552.364S374.536,6189.9,374.536,6189.7Z" fill="none" stroke="#000" stroke-miterlimit="10" stroke-width="1.868"/><path d="M391.761,6252.152c-.2,0-.364-13.931-.364-31.112s.163-31.114.364-31.114.364,13.928.364,31.114S391.962,6252.152,391.761,6252.152Z" fill="none" stroke="#000" stroke-miterlimit="10" stroke-width="1.868"/><rect width="34.086" height="79.269" transform="translate(440.097 5977.121)" fill="#fafafa"/><path d="M440.1,6056.39a2.2,2.2,0,0,1-.021-.363c0-.281-.013-.648-.022-1.113-.01-1.027-.025-2.484-.043-4.356-.023-3.863-.055-9.431-.1-16.415-.041-14.125-.1-33.971-.165-57.022v-.347h.348l34.081-.017c.739.725.2.214.37.381V5980q0,1.44,0,2.87v5.683q0,5.643-.005,11.114c-.008,7.288-.014,14.321-.021,21.027-.029,13.4-.054,25.494-.076,35.693v.261h-.259l-25.021-.14-6.752-.065-1.739-.028a4.359,4.359,0,0,1-.575-.027,5.914,5.914,0,0,1,.627-.027l1.787-.028,6.81-.065,24.863-.14-.26.26c-.022-10.2-.048-22.291-.077-35.693-.006-6.706-.013-13.739-.02-21.027q0-5.466-.006-11.114,0-2.822,0-5.683v-5.735c.159.157-.359-.384.358.347-11.957-.006-23.481-.011-34.081-.017l.347-.347c-.066,22.956-.124,42.72-.164,56.787-.041,7.018-.074,12.613-.1,16.495-.019,1.9-.034,3.384-.044,4.428-.009.482-.016.862-.021,1.153A2.908,2.908,0,0,1,440.1,6056.39Z" fill="none" stroke="#000" stroke-miterlimit="10" stroke-width="1.868"/><path d="M439.553,5993.333c0-.2,7.859-.364,17.55-.364s17.552.163,17.552.364-7.856.365-17.552.365S439.553,5993.534,439.553,5993.333Z" fill="none" stroke="#000" stroke-miterlimit="10" stroke-width="1.868"/><path d="M456.778,6055.787c-.2,0-.364-13.931-.364-31.111s.163-31.115.364-31.115.364,13.928.364,31.115S456.979,6055.787,456.778,6055.787Z" fill="none" stroke="#000" stroke-miterlimit="10" stroke-width="1.868"/><rect width="34.086" height="79.269" transform="translate(440.097 6076.443)" fill="#fafafa"/><path d="M440.1,6155.712a2.167,2.167,0,0,1-.021-.363c0-.28-.013-.647-.022-1.112-.01-1.028-.025-2.485-.043-4.357-.023-3.863-.055-9.43-.1-16.415-.041-14.125-.1-33.97-.165-57.021v-.347h.348l34.081-.017c.739.725.2.214.37.382v2.865q0,1.438,0,2.87v5.683q0,5.643-.005,11.114c-.008,7.287-.014,14.32-.021,21.027-.029,13.4-.054,25.493-.076,35.692v.262l-.259,0-25.021-.14-6.752-.065-1.739-.028a4.248,4.248,0,0,1-.575-.027,6.021,6.021,0,0,1,.627-.027l1.787-.028,6.81-.065,24.863-.14-.26.26c-.022-10.2-.048-22.29-.077-35.692-.006-6.707-.013-13.74-.02-21.027q0-5.466-.006-11.114,0-2.823,0-5.683v-5.735c.159.157-.359-.384.358.347l-34.081-.017.347-.347c-.066,22.956-.124,42.72-.164,56.786-.041,7.019-.074,12.614-.1,16.5-.019,1.9-.034,3.384-.044,4.428-.009.482-.016.863-.021,1.154A2.888,2.888,0,0,1,440.1,6155.712Z" fill="none" stroke="#000" stroke-miterlimit="10" stroke-width="1.868"/><path d="M439.553,6092.656c0-.2,7.859-.365,17.55-.365s17.552.164,17.552.365-7.856.364-17.552.364S439.553,6092.857,439.553,6092.656Z" fill="none" stroke="#000" stroke-miterlimit="10" stroke-width="1.868"/><path d="M456.778,6155.11c-.2,0-.364-13.931-.364-31.112s.163-31.114.364-31.114.364,13.928.364,31.114S456.979,6155.11,456.778,6155.11Z" fill="none" stroke="#000" stroke-miterlimit="10" stroke-width="1.868"/><rect width="34.086" height="79.269" transform="translate(440.097 6175.016)" fill="#fafafa"/><path d="M440.1,6254.285a2.2,2.2,0,0,1-.021-.363c0-.281-.013-.648-.022-1.113-.01-1.027-.025-2.484-.043-4.356-.023-3.863-.055-9.431-.1-16.415-.041-14.125-.1-33.971-.165-57.022v-.347h.348l34.081-.017c.739.724.2.214.37.381v2.865q0,1.44,0,2.87v5.683q0,5.643-.005,11.114c-.008,7.288-.014,14.321-.021,21.027-.029,13.4-.054,25.494-.076,35.693v.261h-.259l-25.021-.14-6.752-.065-1.739-.028a4.359,4.359,0,0,1-.575-.027,5.914,5.914,0,0,1,.627-.027l1.787-.028,6.81-.065,24.863-.14-.26.26c-.022-10.2-.048-22.291-.077-35.693-.006-6.706-.013-13.739-.02-21.027q0-5.466-.006-11.114,0-2.822,0-5.683v-5.735c.159.158-.359-.384.358.347-11.957-.006-23.481-.011-34.081-.017l.347-.347c-.066,22.956-.124,42.72-.164,56.787-.041,7.018-.074,12.613-.1,16.494-.019,1.9-.034,3.384-.044,4.429-.009.482-.016.862-.021,1.153A2.925,2.925,0,0,1,440.1,6254.285Z" fill="none" stroke="#000" stroke-miterlimit="10" stroke-width="1.868"/><path d="M439.553,6191.228c0-.2,7.859-.364,17.55-.364s17.552.163,17.552.364-7.856.364-17.552.364S439.553,6191.429,439.553,6191.228Z" fill="none" stroke="#000" stroke-miterlimit="10" stroke-width="1.868"/><path d="M456.778,6253.682c-.2,0-.364-13.93-.364-31.111s.163-31.115.364-31.115.364,13.928.364,31.115S456.979,6253.682,456.778,6253.682Z" fill="none" stroke="#000" stroke-miterlimit="10" stroke-width="1.868"/><rect width="34.087" height="79.269" transform="translate(313.595 6173.485)" fill="#fafafa"/><path d="M313.6,6252.754a2.162,2.162,0,0,1-.021-.363c-.006-.28-.013-.648-.022-1.112-.01-1.028-.025-2.485-.044-4.357-.022-3.863-.055-9.43-.1-16.415-.04-14.125-.1-33.971-.164-57.021v-.348h.348l34.081-.017c.739.725.205.214.37.382v2.865q0,1.438,0,2.87,0,2.861,0,5.683,0,5.643-.006,11.114c-.007,7.287-.014,14.32-.02,21.026-.029,13.4-.055,25.494-.076,35.693v.262l-.26,0-25.02-.14-6.752-.065-1.739-.028a4.229,4.229,0,0,1-.575-.027,6,6,0,0,1,.627-.027l1.787-.028,6.81-.065,24.862-.14-.26.26c-.022-10.2-.047-22.29-.076-35.693-.006-6.706-.013-13.739-.02-21.026q0-5.466-.006-11.114,0-2.823,0-5.683,0-1.43,0-2.87V6173.5c.16.157-.358-.385.359.347l-34.081-.017.347-.347c-.066,22.956-.124,42.72-.164,56.786-.041,7.019-.074,12.613-.1,16.5-.018,1.9-.033,3.384-.043,4.428-.009.482-.016.863-.022,1.153A3.259,3.259,0,0,1,313.6,6252.754Z" fill="none" stroke="#000" stroke-miterlimit="10" stroke-width="1.868"/><path d="M313.051,6189.7c0-.2,7.859-.365,17.55-.365s17.552.163,17.552.365-7.857.364-17.552.364S313.051,6189.9,313.051,6189.7Z" fill="none" stroke="#000" stroke-miterlimit="10" stroke-width="1.868"/><path d="M330.276,6252.152c-.2,0-.365-13.931-.365-31.112s.164-31.114.365-31.114.364,13.928.364,31.114S330.477,6252.152,330.276,6252.152Z" fill="none" stroke="#000" stroke-miterlimit="10" stroke-width="1.868"/></g><g transform="translate(-5.401 -5701.843)"><path d="M1293.314,6305.022c0,.269-290.344.486-648.418.486-358.2,0-649.491-.217-649.491-.486s291.293-.486,649.491-.486C1002.97,6304.536,1293.314,6304.753,1293.314,6305.022Z" fill="none" stroke="#000" stroke-miterlimit="10" stroke-width="1.868"/></g><g transform="translate(-5.401 -5701.843)"><path d="M196.648,6283.066h94.795s-10.384-44.287-47.4-44.287S198.274,6273.175,196.648,6283.066Z" fill="#ffc800"/><path d="M196.648,6283.066h94.795s-10.384-44.287-47.4-44.287S198.274,6273.175,196.648,6283.066Z" opacity="0.2"/><path d="M471.769,6287.846h94.8s-10.384-44.287-47.4-44.287S473.4,6277.955,471.769,6287.846Z" fill="#ffc800"/><path d="M471.769,6287.846h94.8s-10.384-44.287-47.4-44.287S473.4,6277.955,471.769,6287.846Z" opacity="0.2"/><path d="M174.969,6202.285c-2.033,3.227-5.6,38.794-5.809,40.038s-3.164,6.691-3.216,7.728-.778,17.063-.363,18.1a44.349,44.349,0,0,0,3.268,5.446c.518.623,13.951,12.188,15.455,12.344s15.4.259,15.663,0,1.867-43.047,44.032-43.047,41.7,45.432,42.476,45.588,189.509,4.46,189.509,4.46c0-6.949.545-48.337,41.906-48.337,26.943,0,40.557,22.209,41.024,38.587.2,6.819-.947,14.314-.57,14.314,1.244,0,5.5.311,6.223,0s9.543-6.12,10.269-6.327,5.809-.311,7.054-.622,9.958-7.935,10.113-8.247.415-3.319.467-3.578,8.869-11.047,9.284-12.24.57-11.047.57-12.032-16.026-26.97-19.76-29.77-30.34-12.136-38.12-13.536-50.567-7.78-52.122-8.869-74.583-42.975-87.287-46.055c-10.269-2.489-129.14.934-135.364,1.245s-23.442,3.423-25.1,3.423-20.745-.1-21.886.415,0,5.082,1.452,5.912S178.495,6196.684,174.969,6202.285Z" fill="#ffc800"/><path d="M177.69,6199.587c.454.412,7.885.6,8.663.286s47.594-31.456,47.627-32.363c.018-.456-8.782-.337-9.845-.285S176.834,6198.809,177.69,6199.587Z" fill="#375a64"/><path d="M229.833,6199.093c2.03,5.993,247.915,17.2,249.263,14.291,1-2.15-21-19.812-31.273-25.569s-39.676-22.4-54.146-24.117-43.823-1.559-69.393-1.089c-25.362.467-55.235,1.089-65.815,5.6C249.188,6172.168,228.22,6194.329,229.833,6199.093Z" fill="#1a2e35"/><path d="M236.686,6195.6c.621,2.249,54.924,8.09,118.56,11.047s95.066,3.423,95.844,3.111-2.178-17.27-3.267-18.671-46.678-24.738-53.835-25.361-45.821-.7-65.348-.389-60.213,2.645-67.137,5.446C255.414,6173.243,236.064,6193.341,236.686,6195.6Z" fill="#375a64"/><g opacity="0.1"><path d="M320.923,6165.526l-36.448,36.448c-6.5-.571-12.511-1.142-17.92-1.694l33.8-33.8C307.56,6166.05,314.738,6165.722,320.923,6165.526Z" fill="#fff"/><path d="M450.967,6206.157l-3.678,3.677c-3.7-.009-10.1-.121-19.239-.365l18.958-18.958a4.3,4.3,0,0,1,.814.571C448.6,6192.083,450.33,6201.019,450.967,6206.157Z" fill="#fff"/><path d="M348.116,6165.179l-38.759,38.76c-3.107-.215-6.157-.44-9.133-.674l38.039-38.039C341.388,6165.2,344.71,6165.179,348.116,6165.179Z" fill="#fff"/><path d="M431.316,6182.164l-26.558,26.547c-3-.112-6.157-.224-9.451-.355l29.467-29.458C427.02,6180,429.219,6181.1,431.316,6182.164Z" fill="#fff"/><path d="M293.833,6166.883l-32.79,32.8h-.009q-1.278-.14-2.5-.281l32.312-32.312C291.83,6167.023,292.831,6166.948,293.833,6166.883Z" fill="#fff"/><path d="M436.967,6185.055,413.031,6209c-.88-.028-1.778-.056-2.7-.093l24.8-24.8C435.76,6184.428,436.369,6184.746,436.967,6185.055Z" fill="#fff"/><path d="M402.569,6168.6l-38.442,38.442-2.676-.113,39.134-39.133C401.212,6168.043,401.876,6168.314,402.569,6168.6Z" fill="#fff"/><path d="M267.809,6169.381l-27.437,27.437c-.917-.187-1.675-.365-2.255-.534l26.314-26.3C265.4,6169.774,266.536,6169.578,267.809,6169.381Z" fill="#fff"/></g><path d="M270.753,6168.969c.252-.026.368.334.15.933-1.281,3.527-11.228,23.516-13.718,28.184a2.157,2.157,0,0,1-1.407.989l17.534,1.875a1.428,1.428,0,0,1-.864-1.587c.176-1.1,6.683-24.6,8.727-30.376a2.461,2.461,0,0,1,1.174-1.231c.348-.03-2.989.05-6.158.38C273.4,6168.426,270.753,6168.969,270.753,6168.969Z" fill="#1a2e35"/><path d="M293.87,6166.879s.32.18.333.815c.113,5.531.73,33.211.2,34.733a.576.576,0,0,1-.252.361l3.316.264a1.573,1.573,0,0,1-.3-.83c-.37-4.678-.708-30.055-.648-34.748a1.507,1.507,0,0,1,.313-.787Z" fill="#1a2e35"/><path d="M348.379,6166.318c.391,1.229,1.032,37.369,1.032,38.536s-1.322,1.443-1.322,1.443l20.546.953s-1.331-.373-1.564-1-6.69-39.6-6.651-40.1,1.05-.988,1.05-.988l-14.315.009A2.168,2.168,0,0,1,348.379,6166.318Z" fill="#1a2e35"/><path d="M178.6,6207.368c-2.522.325-8.194,6.223-8.609,7.468s-1.971,9.646-1.141,10.891,3.838,4.357,6.431,4.46,15.248-5.912,16.389-6.949,1.97-7.354.622-9.382S181.815,6206.953,178.6,6207.368Z" fill="#fff"/><path d="M191.668,6223.241c-1.139,1.036-13.8,7.051-16.388,6.947-1.976-.08-4.2-1.912-5.505-3.33a8.393,8.393,0,0,0,5.067,1.6c1.394-.127,13.249-5.226,14.77-6.62s1.586-6.645,1.387-7.593-7.856-5.88-7.856-5.88c3.785,1.458,8.238,4.119,9.146,5.49C193.636,6215.887,192.807,6222.2,191.668,6223.241Z" fill="#ececec"/><path d="M168.123,6254.3c-.7.7-.934,5.964-.208,6.431s4.979.415,5.809,0,2.956-4.356,2.8-5.705S168.952,6253.474,168.123,6254.3Z" fill="#fff"/><path d="M546.778,6225.157c2.235,3.622,18.671,10.035,24.817,11.047,3.866.636,17.27,1.478,18.048.778s-5.679-9.647-9.024-11.825-20.071-7.78-25.128-7.546S544.522,6221.5,546.778,6225.157Z" fill="#fff"/><path d="M589.646,6236.984c-.781.7-14.182-.143-18.053-.781-6.143-1.012-22.579-7.425-24.818-11.05-2.255-3.649,3.657-7.306,8.716-7.545a10.066,10.066,0,0,1,1.179.024c-4.708,1.737-5.672,5.418-2.8,7.521,2.884,2.119,12.062,7.019,15.735,8.047,3.537,1,16.739,3.051,17.878,2.151a2.3,2.3,0,0,0,.5-1.9C589.192,6235.271,589.941,6236.721,589.646,6236.984Z" fill="#ececec"/><g opacity="0.2"><path d="M196.648,6249.584c-.845-1.874-1.618-3.776-2.379-5.681s-1.467-3.832-2.2-5.746c-.683-1.935-1.395-3.859-2.051-5.8s-1.3-3.892-1.873-5.867c.846,1.874,1.618,3.775,2.38,5.681s1.467,3.831,2.2,5.746c.681,1.935,1.4,3.858,2.049,5.8S196.075,6247.61,196.648,6249.584Z"/><path d="M167.471,6249.584c4.085-.073,8.168-.07,12.251-.056l12.247.131,12.245.293c4.081.128,8.162.266,12.241.483-4.084.075-8.167.072-12.25.057l-12.248-.132-12.244-.294C175.632,6249.939,171.551,6249.8,167.471,6249.584Z"/><path d="M360.26,6209.857l1.4,9.948.607,4.989c.092.833.183,1.666.246,2.508s.013,1.678.026,2.517l-.181,20.1-.162,10.049-.082,5.025-.042,2.512-.191,2.5-.776,10.019-.848,10.011.505-10.031.58-10.024.143-2.506.023-2.51.05-5.019.1-10.037.345-20.076c0-.833.071-1.68.023-2.5s-.121-1.662-.2-2.494l-.507-4.993Z"/><path d="M470.591,6214.421l1.69,10,.845,5,.211,1.25a7.306,7.306,0,0,1,.152,1.263c.023.848.02,1.693.016,2.539-.056,6.764-.223,13.524-.433,20.285q-.079,2.535-.211,5.071a18.9,18.9,0,0,1-.974,5c-.928,3.257-1.986,6.474-3.15,9.655a72.774,72.774,0,0,1-4.049,9.324l-.626,1.113c-.218.366-.465.717-.7,1.076a8.584,8.584,0,0,1-.774,1.029l-.41.5a1.6,1.6,0,0,1-.743.224c-1.708.179-3.392.2-5.086.26-13.531.277-27.055.153-40.581.063q-20.287-.171-40.573-.541c-13.522-.287-27.044-.623-40.563-1.121-6.759-.278-13.516-.5-20.271-1.108a15.532,15.532,0,0,1-2.565-.4c-.476-.182-.756-.4-1.158-.581-.372-.191-.754-.365-1.135-.54-1.532-.692-3.114-1.306-4.64-2.069a17.942,17.942,0,0,1-4.264-2.84,40.311,40.311,0,0,1-3.074-4.093c-3.809-5.6-7.448-11.3-11.089-17s-7.231-11.431-10.806-17.172c-3.559-5.75-7.109-11.506-10.594-17.3l-1.291-2.184c-.108-.179-.207-.381-.31-.572l-.151-.289a1.741,1.741,0,0,1-.048-.314l-.121-1.264c-.144-1.685-.275-3.371-.335-5.063-.008-.423-.023-.846,0-1.271a7.8,7.8,0,0,1,.273-1.245c.234-.813.51-1.613.791-2.41.566-1.594,1.173-3.172,1.8-4.742-.613,1.575-1.207,3.158-1.76,4.756-.274.8-.542,1.6-.769,2.414a7.536,7.536,0,0,0-.259,1.231c-.023.42-.005.843.007,1.264.074,1.687.219,3.372.378,5.054l.131,1.26a1.817,1.817,0,0,0,.049.308l.15.269c.1.179.189.357.3.539l1.308,2.171c3.533,5.764,7.131,11.49,10.738,17.209,7.215,11.436,14.4,22.9,21.988,34.085a40.975,40.975,0,0,0,3.016,4,17.494,17.494,0,0,0,4.158,2.748c1.5.746,3.078,1.353,4.63,2.048.387.176.775.351,1.156.545.372.163.786.447,1.105.555a15.892,15.892,0,0,0,2.44.368c6.718.588,13.487.789,20.239,1.046,13.514.46,27.035.752,40.556,1q20.28.426,40.565.659c13.521.129,27.049.292,40.563.055,1.684-.05,3.386-.073,5.042-.242.189-.023.439-.077.473-.085l.394-.48a8.1,8.1,0,0,0,.751-.993c.227-.351.469-.691.684-1.05l.621-1.1a72.469,72.469,0,0,0,4.05-9.256c1.169-3.166,2.234-6.374,3.169-9.617a18.511,18.511,0,0,0,.974-4.918l.232-5.063c.267-6.755.49-13.514.6-20.274.01-.844.02-1.69,0-2.532a7.113,7.113,0,0,0-.14-1.253l-.2-1.251-.8-5.006Z"/><path d="M557.623,6231.617a45.563,45.563,0,0,1-5.609,4.023c-1.933,1.247-3.907,2.429-5.868,3.627-1.991,1.151-3.969,2.322-5.981,3.435s-4.032,2.213-6.093,3.239c1.915-1.278,3.866-2.494,5.82-3.7l5.895-3.572,5.946-3.483,2.975-1.737A29.284,29.284,0,0,0,557.623,6231.617Z"/><path d="M272.936,6251.394l26.346.692,26.343.8,52.685,1.608,52.677,1.843,26.339.924,26.335,1.035-26.346-.691-26.343-.8-52.685-1.609-52.677-1.844-26.339-.925Z"/><path d="M271.383,6213.643l-1.03.053-.257.01c-.053-.013-.065.049-.1.129a2.853,2.853,0,0,0-.093.49,13.3,13.3,0,0,0-.043,2.036,9.355,9.355,0,0,0,.089,1,1.751,1.751,0,0,0,.114.437c.011.022.028.038.016.026l.077,0c.051,0,.1.019.2.023.666.061,1.358.077,2.04.1,2.738.086,5.481.176,8.224.222l4.112.118,2.053.032.508,0c.086,0,.173,0,.235-.006l.1,0c.043,0,.073-.007.037,0a1.188,1.188,0,0,0,.107-.252,3.928,3.928,0,0,0,.1-.468,11.434,11.434,0,0,0,.091-2.007,8.833,8.833,0,0,0-.093-1,1.547,1.547,0,0,0-.107-.38,1.086,1.086,0,0,0-.384-.113c-1.332-.233-2.716-.31-4.08-.445a39.155,39.155,0,0,1,4.133.106,1.116,1.116,0,0,1,.582.179,1.256,1.256,0,0,1,.243.576,9.05,9.05,0,0,1,.148,1.047,11.925,11.925,0,0,1,0,2.1,4.725,4.725,0,0,1-.088.544.95.95,0,0,1-.376.626.358.358,0,0,1-.2.068l-.154.014c-.109.011-.193.011-.279.013l-.521.011h-2.065l-4.121-.057c-2.746-.1-5.491-.183-8.236-.385-.688-.057-1.368-.1-2.066-.2a1.609,1.609,0,0,1-.31-.066.754.754,0,0,1-.169-.064.5.5,0,0,1-.131-.181,2.1,2.1,0,0,1-.127-.561,8.466,8.466,0,0,1-.041-1.051,13.565,13.565,0,0,1,.2-2.07,2.926,2.926,0,0,1,.139-.512.7.7,0,0,1,.07-.129.184.184,0,0,1,.165-.075l.257.01Z"/><path d="M372.211,6216.136l-1.03.052-.257.011c-.053-.013-.065.049-.1.129a2.74,2.74,0,0,0-.092.489,13.191,13.191,0,0,0-.043,2.037,9.124,9.124,0,0,0,.089,1,1.742,1.742,0,0,0,.114.436c.011.022.028.039.016.027l.077,0c.051,0,.1.019.2.023.666.06,1.358.077,2.04.1,2.738.086,5.481.175,8.224.221l4.112.119,2.053.032.508,0c.086,0,.173,0,.235-.007l.1,0c.043,0,.073-.007.037-.005a1.205,1.205,0,0,0,.107-.252,4.107,4.107,0,0,0,.1-.468,11.347,11.347,0,0,0,.09-2.007,8.558,8.558,0,0,0-.092-1,1.559,1.559,0,0,0-.107-.38,1.058,1.058,0,0,0-.385-.113c-1.332-.233-2.715-.311-4.08-.445a38.783,38.783,0,0,1,4.134.1,1.108,1.108,0,0,1,.582.18,1.268,1.268,0,0,1,.243.575,9.088,9.088,0,0,1,.148,1.047,11.922,11.922,0,0,1,0,2.1,4.442,4.442,0,0,1-.087.544.948.948,0,0,1-.377.627.353.353,0,0,1-.2.067l-.153.014c-.109.011-.193.012-.279.014l-.522.011h-2.064l-4.122-.056c-2.745-.1-5.49-.184-8.235-.385-.688-.057-1.368-.1-2.066-.2a1.56,1.56,0,0,1-.31-.065.779.779,0,0,1-.169-.064.494.494,0,0,1-.131-.182,2.059,2.059,0,0,1-.127-.561,8.455,8.455,0,0,1-.041-1.051,13.577,13.577,0,0,1,.2-2.07,2.955,2.955,0,0,1,.139-.512.747.747,0,0,1,.07-.129.185.185,0,0,1,.165-.074l.257.01Z"/></g><circle cx="39.209" cy="39.209" r="39.209" transform="translate(187.771 6285.149) rotate(-45)" fill="#1a2e35"/><circle cx="28.629" cy="28.629" r="28.629" transform="translate(202.734 6285.15) rotate(-45)" fill="#dcdcdc"/><circle cx="26.397" cy="26.397" r="26.397" transform="translate(216.824 6258.752)" fill="#a8a8a8"/><path d="M247.365,6278.53h-8.291c2.8-4.043-6.953-18.145-6.953-18.145l4.361-1.46c2.9,4.979,4.351,6.439,6.737,6.439s3.837-1.46,6.747-6.439l4.352,1.46S244.567,6274.487,247.365,6278.53Z" fill="#dcdcdc"/><path d="M238.38,6279.034l-2.562,7.885c-2.98-3.91-19.4,1.006-19.4,1.006l-.041-4.6c5.632-1.22,7.468-2.149,8.205-4.418s-.2-4.1-4.038-8.406l2.733-3.688S233.671,6280.446,238.38,6279.034Z" fill="#dcdcdc"/><path d="M236.083,6287.734l6.708,4.874c-4.64,1.626-5.04,18.766-5.04,18.766l-4.386-1.383c.579-5.732.264-7.766-1.667-9.168s-3.962-1.074-9.242,1.243l-2.663-3.739S235.971,6292.649,236.083,6287.734Z" fill="#dcdcdc"/><path d="M243.648,6292.607l6.708-4.873c.112,4.915,16.29,10.593,16.29,10.593l-2.67,3.744c-5.273-2.323-7.3-2.651-9.235-1.248s-2.246,3.436-1.674,9.174l-4.378,1.376S248.288,6294.233,243.648,6292.607Z" fill="#dcdcdc"/><path d="M250.621,6286.919l-2.562-7.885c4.709,1.411,15.108-12.22,15.108-12.22l2.736,3.7c-3.839,4.3-4.779,6.128-4.041,8.4s2.573,3.2,8.207,4.427l-.043,4.589S253.6,6283.008,250.621,6286.919Z" fill="#dcdcdc"/><circle cx="7.663" cy="7.663" r="7.663" transform="translate(235.558 6277.302)" fill="#dcdcdc"/><circle cx="39.209" cy="39.209" r="39.209" transform="translate(466.067 6264.579) rotate(-23.225)" fill="#1a2e35"/><circle cx="28.629" cy="28.629" r="28.629" transform="translate(483.196 6306.557) rotate(-76.921)" fill="#dcdcdc"/><circle cx="26.397" cy="26.397" r="26.397" transform="translate(491.163 6258.752)" fill="#a8a8a8"/><path d="M521.7,6278.53h-8.291c2.8-4.043-6.953-18.145-6.953-18.145l4.361-1.46c2.9,4.979,4.351,6.439,6.737,6.439s3.837-1.46,6.747-6.439l4.352,1.46S518.906,6274.487,521.7,6278.53Z" fill="#dcdcdc"/><path d="M512.719,6279.034l-2.562,7.885c-2.98-3.91-19.4,1.006-19.4,1.006l-.04-4.6c5.631-1.22,7.467-2.149,8.2-4.418s-.2-4.1-4.039-8.406l2.734-3.688S508.01,6280.446,512.719,6279.034Z" fill="#dcdcdc"/><path d="M510.423,6287.734l6.707,4.874c-4.64,1.626-5.04,18.766-5.04,18.766l-4.386-1.383c.579-5.732.264-7.766-1.667-9.168s-3.962-1.074-9.242,1.243l-2.662-3.739S510.31,6292.649,510.423,6287.734Z" fill="#dcdcdc"/><path d="M517.987,6292.607l6.708-4.873c.112,4.915,16.29,10.593,16.29,10.593l-2.67,3.744c-5.273-2.323-7.3-2.651-9.235-1.248s-2.246,3.436-1.674,9.174l-4.378,1.376S522.627,6294.233,517.987,6292.607Z" fill="#dcdcdc"/><path d="M524.96,6286.919l-2.562-7.885c4.709,1.411,15.108-12.22,15.108-12.22l2.736,3.7c-3.839,4.3-4.779,6.128-4.041,8.4s2.574,3.2,8.207,4.427l-.043,4.589S527.94,6283.008,524.96,6286.919Z" fill="#dcdcdc"/><circle cx="7.663" cy="7.663" r="7.663" transform="translate(509.897 6277.302)" fill="#dcdcdc"/><path d="M442.087,6195.128c-1.428,1.428-1.3,14.21-.259,15.248s15.248,1.97,16.389-5.965S444.317,6192.9,442.087,6195.128Z" fill="#ffc800"/><path d="M493.946,6202.765H482.389c-30.084-19.848-71.371-39.48-71.371-39.48l6.85-1.657c24.995,12.1,73.187,39.77,74.45,40.659A7.068,7.068,0,0,0,493.946,6202.765Z" fill="#375a64"/><g opacity="0.5"><path d="M196.648,6259.542a50.508,50.508,0,0,1,8.79-10.794,55.552,55.552,0,0,1,11.293-8.223,54.879,54.879,0,0,1,26.965-6.635l3.505.166,1.752.084c.581.065,1.16.16,1.74.238l3.475.5c1.146.238,2.279.542,3.418.81a43.265,43.265,0,0,1,12.859,5.514,45.038,45.038,0,0,1,10.409,9.31,62.328,62.328,0,0,1,7.354,11.836A65.655,65.655,0,0,0,280.5,6250.8a44.616,44.616,0,0,0-10.44-8.994c-7.855-4.9-17.183-6.9-26.373-6.982a56.231,56.231,0,0,0-13.71,1.474,54.623,54.623,0,0,0-12.908,4.857,55.3,55.3,0,0,0-11.324,7.928A52.591,52.591,0,0,0,196.648,6259.542Z" fill="#fff"/><path d="M471.35,6259.542a50.568,50.568,0,0,1,8.79-10.794,55.586,55.586,0,0,1,11.294-8.223,54.873,54.873,0,0,1,26.965-6.635l3.505.166,1.752.084c.581.065,1.159.16,1.739.238l3.476.5c1.145.238,2.278.542,3.417.81a43.254,43.254,0,0,1,12.859,5.514,45.017,45.017,0,0,1,10.409,9.31,62.326,62.326,0,0,1,7.354,11.836A65.654,65.654,0,0,0,555.2,6250.8a44.576,44.576,0,0,0-10.44-8.994c-7.854-4.9-17.183-6.9-26.372-6.982a56.225,56.225,0,0,0-13.71,1.474,54.623,54.623,0,0,0-12.908,4.857,55.309,55.309,0,0,0-11.325,7.928A52.623,52.623,0,0,0,471.35,6259.542Z" fill="#fff"/><path d="M202.322,6194.475c6.108-4.79,12.306-9.461,18.548-14.075,6.254-4.6,12.546-9.14,19.035-13.437.822-.523,1.646-1.042,2.5-1.535q.632-.374,1.3-.712a8.1,8.1,0,0,1,1.429-.536c1.879-.552,3.758-1.028,5.645-1.5,3.773-.926,7.553-1.823,11.369-2.564a66.828,66.828,0,0,1,11.613-1.191c3.885-.086,7.769-.076,11.647.1-3.881.03-7.76.112-11.627.351a66.968,66.968,0,0,0-11.486,1.439c-3.779.848-7.556,1.72-11.308,2.685-1.874.483-3.754.974-5.593,1.529a7.109,7.109,0,0,0-1.288.492q-.626.32-1.244.691c-.825.486-1.638,1.008-2.45,1.531-6.494,4.207-12.785,8.762-19.121,13.233Z" fill="#fff"/></g><path d="M506.464,6245.819c-30.039,6.869-30.478,40.884-30.478,47.126,0,0-188.735-4.3-189.512-4.464-.627-.131-.44-29.917-22.711-41.267,10,4.95,22.823,16.928,27.68,34.426.524,1.863,28.007,4.792,74.992,6.289s87.822.552,95.57-.534S478.849,6245.7,506.464,6245.819Z" opacity="0.1"/><path d="M601.754,6266.49c-.412,1.2-9.236,11.978-9.283,12.24s-.309,3.266-.468,3.584-8.871,7.935-10.116,8.244-6.326.412-7.046.618-9.545,6.017-10.275,6.326-4.978,0-6.223,0c-.374,0,.768-7.5.571-14.308-.337-11.884-7.6-26.847-21.859-34.156,7.738,1.647,20.642,12.212,25.855,23.1s3.874,11.7,5.09,13.008,5.259-1.339,7.121-1.806,7.936-.618,10.275-1.086,2.714-4.669,4.314-5.6S599.442,6269.241,601.754,6266.49Z" opacity="0.1"/><path d="M231.235,6216.21v.176a8.4,8.4,0,0,1-2.4,5.829,8.508,8.508,0,0,1-12.026.177,8.5,8.5,0,0,1,0-12.2,8.581,8.581,0,0,1,6.1-2.4,8.5,8.5,0,0,1,8.326,8.414Z" opacity="0.3"/><path d="M208.4,6224.447a5.143,5.143,0,0,1-3.974-2.481,10.8,10.8,0,0,1,.008-11.344,5.086,5.086,0,0,1,3.966-2.473,4.971,4.971,0,0,1,4.1,2.3,9.669,9.669,0,0,1,1.586,4.091,9.928,9.928,0,0,0-1.53-4.163,5.318,5.318,0,0,0-4.151-2.577,5.2,5.2,0,0,0-4.271,2.4,11.214,11.214,0,0,0,.008,12.2,5.186,5.186,0,0,0,4.263,2.4,5.321,5.321,0,0,0,4.151-2.577,10.245,10.245,0,0,0,1.646-5.1,10.043,10.043,0,0,1-1.7,5.026A4.959,4.959,0,0,1,208.4,6224.447Zm5.681-9.911c.045.313.1.624.116.943C214.174,6215.161,214.133,6214.847,214.083,6214.536Z" opacity="0.3"/><path d="M214.231,6216.3c0,.273-.008.546-.032.819a10.043,10.043,0,0,1-1.7,5.026,4.959,4.959,0,0,1-4.1,2.3,5.143,5.143,0,0,1-3.974-2.481,10.8,10.8,0,0,1,.008-11.344,5.086,5.086,0,0,1,3.966-2.473,4.971,4.971,0,0,1,4.1,2.3,10.074,10.074,0,0,1,1.7,5.034C214.223,6215.752,214.231,6216.025,214.231,6216.3Z" opacity="0.3"/><path d="M227.907,6216.2v.11a5.3,5.3,0,0,1-5.194,5.244,5.351,5.351,0,0,1-3.806-1.5,5.3,5.3,0,0,1,0-7.607,5.306,5.306,0,0,1,7.5.11A5.246,5.246,0,0,1,227.907,6216.2Z" fill="#1a2e35"/><path d="M144.387,6318.494V6198.162l-20.557-71.55H106.742v191.882Z" fill="#ffc800"/><path d="M144.387,6318.494V6198.162l-20.557-71.55H106.742v191.882Z" opacity="0.1"/><path d="M91.525,6318.494V6198.162l-20.557-71.55H53.88v191.882Z" fill="#ffc800"/><path d="M91.525,6318.494V6198.162l-20.557-71.55H53.88v191.882Z" opacity="0.1"/><path d="M84.451,6198.163v120.331H53.879v-191.88H63.89Z" opacity="0.1"/><rect width="52.862" height="120.331" transform="translate(91.525 6198.162)" fill="#ffc800"/><path d="M91.525,6198.162l-3.068-10.68h39.778l16.152,10.68Z" fill="#ffc800"/><path d="M91.525,6198.162l-3.068-10.68h39.778l16.152,10.68Z" fill="#fff" opacity="0.3"/><path d="M116.421,6147.7l7.408-21.091H70.967l6.06,21.091Z" fill="#ffc800"/><path d="M116.421,6147.7l7.408-21.091H70.967l6.06,21.091Z" fill="#fff" opacity="0.1"/><path d="M128.234,6187.482,116.421,6147.7H77.027l11.429,39.779Z" fill="#ffc800"/><path d="M128.234,6187.482,116.421,6147.7H77.027l11.429,39.779Z" opacity="0.2"/><path d="M119.969,6176l-7.1-23.9H82.981l6.865,23.9Z" fill="#fff"/><path d="M100.594,6180.241l-.538-1.813H90.579l.521,1.813Z" fill="#1a2e35"/><path d="M121.429,6180.241l-.538-1.813h-9.477l.521,1.813Z" fill="#1a2e35"/><path d="M116.968,6153.921l-.538-1.813h-2.154l.521,1.813Z" fill="#1a2e35"/><path d="M117.969,6157.5l-.538-1.813h-2.154l.521,1.813Z" fill="#1a2e35"/><path d="M119.971,6164.667l-.538-1.813h-2.154l.521,1.813Z" fill="#1a2e35"/><path d="M123.909,6208.308,113.7,6221.657h6.287l-3.55,11.747,9.811-14.551h-6.274Z" fill="#fff"/><rect width="5.874" height="11.901" transform="translate(65.094 6198.162)" fill="#1a2e35"/><path d="M68.03,6204.113H64.691c-2.878,0-5.211,2.332-5.211,6.013v102.019c0,2.075,2.333,4.408,5.211,4.408H203.586a5.21,5.21,0,0,0,5.21-5.211v-89.786a5.211,5.211,0,0,1,5.211-5.211h8.649" fill="none" stroke="#1a2e35" stroke-miterlimit="10" stroke-width="4.014"/><rect width="4.138" height="4.839" transform="translate(64.153 6201.723)" fill="#fff"/><rect width="3.771" height="6.641" transform="translate(65.988 6200.822)" fill="#fff"/><rect width="4.138" height="4.839" transform="translate(217.44 6213.924)" fill="#fff"/><circle cx="4.068" cy="4.068" r="4.068" transform="translate(218.597 6212.276)" fill="#fff"/></g><g transform="translate(-5.401 -5701.843)"><path d="M522.05,6355.849c-.015,7.2,165.7,13.386,370.14,13.811s370.176-5.064,370.191-12.266-165.7-13.385-370.135-13.812S522.065,6348.648,522.05,6355.849Z"/><path d="M1151.469,6352.3h-28.5s-1.675-7.767,4.273-17.767l19.2.334S1151.969,6342.8,1151.469,6352.3Z"/><rect width="28.501" height="4.5" transform="translate(1122.711 6352.304)" fill="#e6e6e6"/><path d="M1126.468,6344c0,1.949,4.812,3.53,10.75,3.53s10.75-1.581,10.75-3.53-4.814-3.531-10.75-3.531S1126.468,6342.048,1126.468,6344Z"/><path d="M1131.711,6339.3a1,1,0,0,0,1,1h8.5a1,1,0,0,0,1-1h0a1,1,0,0,0-1-1h-8.5a1,1,0,0,0-1,1Z" fill="#e6e6e6"/><path d="M1131.711,6335.8a1,1,0,0,0,1,1h8.5a1,1,0,0,0,1-1h0a1,1,0,0,0-1-1h-8.5a1,1,0,0,0-1,1Z" fill="#e6e6e6"/><path d="M1188.4,6332.313s-2.209,11.491-.542,19.491h53.669s1.833-11.81-21.5-11.783l-14.969-10.119Z"/><path d="M1187.713,6356.373l53.5-.3V6351.8h-53.5Z" fill="#e6e6e6"/><path d="M1221.532,6340.11s.678,8.094,19.2,7.7C1240.73,6347.812,1237.966,6340.11,1221.532,6340.11Z"/><path d="M1205.192,6351.8s-.52-13.585-17.594-13.668c0,0-.907,9.168.426,13.668Z"/><path d="M1214.319,6343.247a1,1,0,0,0,.679-.266l4.625-4.274a1,1,0,0,0-1.358-1.469l-4.625,4.275a1,1,0,0,0,.679,1.734Z" fill="#e6e6e6"/><path d="M1209.819,6340.247a1,1,0,0,0,.679-.266l4.625-4.274a1,1,0,0,0-1.358-1.469l-4.625,4.274a1,1,0,0,0,.679,1.735Z" fill="#e6e6e6"/><path d="M1205.819,6337.247a.992.992,0,0,0,.678-.266l4.626-4.274a1,1,0,0,0-1.358-1.469l-4.625,4.274a1,1,0,0,0,.679,1.735Z" fill="#e6e6e6"/><path d="M1213.321,6135.646s4.073,76.57.5,196.741a22.847,22.847,0,0,1-26.1,3.326s-5.968-126.479-8.017-160.523c0,0-13.69,75.923-28.081,159.65,0,0-15.317,7.064-25.415-1.45,0,0,12.8-129.762,19.644-194C1145.852,6139.39,1185.943,6144.695,1213.321,6135.646Z"/><path d="M1179.7,6175.19s12.892-5.984,16.721-11.054-9.6,30-15.524,35.516Z"/><path d="M1137.606,6001.191a1.588,1.588,0,0,0,.573-1.818c-.3-1.114-1.038-2.046.283-2.845.49-.3,1.058-.671,1.019-1.21-.05-.695-1.089-1.093-1.146-1.787-.048-.578.6-.967.88-1.478.376-.678.083-1.5.066-2.27-.035-1.639,1.143-2.2,1.334-3.589.238-1.736-1.653-1.911-.482-3.75a2.418,2.418,0,0,0-.95-3.592c-.955-.356-.057-1.72-.163-2.032-.26-.762-.331-2.05.45-2.386.686-.3-.621-1.99-.408-3.523.115-.822.761-1.456.8-2.566.071-1.838,1.978-1.219,2.324-1.778.381-.616-.053-1.409.074-2.111.172-.95,3.016-4.113,3.92-4.6s5.5-5.976,5.088-6.88l45.294,16.137c-.039.275,2.216,1.464,3.091,3.445a9.19,9.19,0,0,1,.128,5.486c-.852,2.607-.137,4.469.327,4.917.74.715,1.646,1.507,1.552,2.467-.07.71-.7,1.354-.505,2.055a16.306,16.306,0,0,0,1.423,3.305c.56.95,1.564,1.54,1.733,2.682a22.831,22.831,0,0,1-.045,2.7c.042,1.368,1.29,1.924,1.958,3.063a2.572,2.572,0,0,1,.229,2.434,7.489,7.489,0,0,1-1.164,1.363c-1.319,1.508,1.127,2.576.814,4.038a2.742,2.742,0,0,1-.76,1.218,3.388,3.388,0,0,0-.826,1.183.751.751,0,0,0-.043.324,1.189,1.189,0,0,0,.333.557,1.54,1.54,0,0,1,.219,1.869c-1.343,1.658.6,1.374.667,3.022a1.818,1.818,0,0,1-.551,1.2,4.143,4.143,0,0,0-.807,1.081c-.425,1.047,1.627,2.126.7,2.987a2.5,2.5,0,0,1-.758.359c-1.822.765,1.515,4.438-1.624,5.8a11.045,11.045,0,0,1-3.382.469c-1.144.1-2.4.521-2.794,1.492a8.863,8.863,0,0,0-.252,1.173c-.47,1.833-3.489,2.526-4.958,1.138a2.8,2.8,0,0,1-2.236,2.036,3.3,3.3,0,0,1-3.034-1.052c-.387-.463-.656-1.067-1.244-1.294-.978-.378-1.895.549-2.9.8-1.265.318-1.941-1.053-3.079-1.19-1.517-.182-1.626,1.5-2.754,2.09-1.018.531-2.714.04-2.76-1.037-.019-.446.242-.9.067-1.321-.294-.712-1.5-.627-2.117-.141s-1.012,1.219-1.749,1.552a2.8,2.8,0,0,1-2.834-.6c-.973-.849-1.153-2.3-2.319-1.15-.671.66-.937,1.507-1.951,1.763a2.667,2.667,0,0,1-2.6-.741c-1-1.01-.7-1.012-2.158-.992a3.94,3.94,0,0,1-2.472-.865c-.55-.406-1-1.225-1.7-1.4-.866-.225-1.472.515-2.277.644a4.73,4.73,0,0,1-2.181-.159c-1.393-.446-.225-2.441-.912-3.621a3.1,3.1,0,0,0-2.473-1.508c-.69-.035-3.544-1.263-4.025-1.964-.18-.261-1.047-3.946-1.131-4.316-.726-3.207,1.5-1.676-2.535-4.564a19.1,19.1,0,0,1-1.3-2.47,1.641,1.641,0,0,1,.069-.728,5.246,5.246,0,0,1,1.279-2.242,1.441,1.441,0,0,0,.537-.863c.018-.59-.7-.861-1.165-1.227a1.846,1.846,0,0,1-.666-1.7A2.487,2.487,0,0,1,1137.606,6001.191Z" fill="url(#a)"/><path d="M1152.71,5968.117l1.453-.247c.654-1.422,1.646,3.383,2.1,1.879,2.626-8.7,3.578-8.019,3.578-8.019a224.542,224.542,0,0,0,36.848.916c-1.3,9.972,2.159,32.613-5.886,43.672a14.829,14.829,0,0,1-10.683,6.162c-21.216,2.6-26.339-20.037-26.339-20.037s-6.579-8.926-7.6-18.721C1145.331,5965.608,1152.71,5968.117,1152.71,5968.117Z" fill="#f2f2f2"/><path d="M1183.648,5999.068l-1.546,6.622s-9.563,2.437-10.757-6.871C1171.345,5998.819,1178.3,6000.24,1183.648,5999.068Z" fill="#fff"/><path d="M1182.925,6001.868s-4.69.961-7.6-.012c0,0,1.923,1.445,7.33.94Z" fill="#b7b5b2"/><path d="M1156.534,5986.108c.589.548.482.6.738,1.512a1.562,1.562,0,0,1-.015,1,3.008,3.008,0,0,1-.424.565,1.863,1.863,0,0,0-.314,1.237,3.6,3.6,0,0,0,.479,1.128,2.643,2.643,0,0,1,.2.962,2.808,2.808,0,0,1-.091.951.938.938,0,0,1-.491.63.478.478,0,0,1-.588-.344c.023.065-.011.274,0,.361a1.484,1.484,0,0,0,.107.4.991.991,0,0,0,.447.5c1.1.595,2.005-1.34,1.637-2.7a8.776,8.776,0,0,1-.266-.912c-.228-1.443,1.1-1.75,1.333-2.906.339-1.7-1.43-1.977-1.823-3.189a2.846,2.846,0,0,1,.158-1.983c.455-.975,1.242-1.134,1.841-1.826.933-1.08.739-3.161.286-4.735a8.414,8.414,0,0,1-.536-2.822c.044-.774.45-1.727,1.062-1.716a1.166,1.166,0,0,0,.532-.036c.842-.387.338-2.148.907-2.854.33-.409.792-.32,1.169-.585a1.718,1.718,0,0,0,.506-1.7,4.756,4.756,0,0,1-.278-1.171c.047-1.275,1.746-.872,2.116-2.029.24-.755-.268-1.665-.046-2.433.415-1.4,2.392-.273,2.808-1.678.2-.689-.2-1.522,0-2.224.222-.793,1.007-.832,1.607-.65s1.3.416,1.737-.169c.527-.705.462-2.174,1.462-1.909.67.178,1.14.888,1.755,1.225a1.914,1.914,0,0,0,2.142-.211c.658-.522,1.31-1.5,2.021-1.143.808.406.861,2.215,1.658,2.66.951.532,1.9-1.363,2.888-1,.4.145.606.6.926.914a2.57,2.57,0,0,0,.923.536,3.389,3.389,0,0,1,1.863,1.524c.35.672.539,1.661,1.16,1.951.219.1.459.085.683.171.378.145.492.611.489,1.114,0,.4-.081.8-.09,1.2a2.882,2.882,0,0,0,.939,2.261c.637.5,1.55-.1,2.085.555.471.586.129,1.652.027,2.524a3.688,3.688,0,0,0,.62,2.58,2.524,2.524,0,0,1,.747,2.261c-.134.724-.548,1.281-.734,1.981a3.231,3.231,0,0,0,.4,2.521c.464.664,1.209.983,1.327,2.052.138,1.245-.861,2.013-1.414,2.716a2.767,2.767,0,0,0-.7,1.555,6.86,6.86,0,0,0,.44,2.737,6.991,6.991,0,0,1,.561,2.733,11.7,11.7,0,0,1-.275,1.46,4.592,4.592,0,0,0-.055,1.7c.181.992,1.23,1.962,1.842.981-.452.039-.7-.612-.711-1.262a2.418,2.418,0,0,1,.111-.755c.277-.78.84-1.313,1.145-2.081a3.755,3.755,0,0,0-.3-3.317c-.092-.13-.194-.247-.286-.39a1.392,1.392,0,0,1-.2-.338c-.53-1.245.393-1.707.993-1.988a3.727,3.727,0,0,0,1.9-1.838,5.044,5.044,0,0,0,.308-2.565,8.7,8.7,0,0,0-.708-2.447c-.176-.4.377-3.3.177-3.7a5.222,5.222,0,0,1-.442-1.3,19.752,19.752,0,0,1-.206-2.612c-.169-2.7-1.914-2.57-2.825-4.916a42.091,42.091,0,0,0-3.027-6.6,24.229,24.229,0,0,0-3.421-4.438,21.34,21.34,0,0,0-2.012-1.809c-.531-.419-1.5-1.429-2.11-1.457a42.349,42.349,0,0,0-6.005-.208,22.026,22.026,0,0,0-9.533,3.343,21.342,21.342,0,0,0-7.526,8.154c-.875,1.643-9.7-2.672-10.237-.763-.253.9,7.046,2.566,6.9,3.514-.16,1.066-.344,2.414-.406,3.5-.09,1.563-.25-2.542-1.013-1.4-.386.576-1.586-.219-1.88.466s2.858,4.714.465,8.232c-.449.66,0,2.29.628,3.273,1.523,2.383,1.4,2.85,1.326,3.439-.207,1.748-.629,1.867-.554,3.419C1155.567,5985.609,1156.468,5986.046,1156.534,5986.108Z" fill="url(#b)"/><path d="M1200.777,5957.207s14.045,5.259-2.322,7.117c0,0,6.876,7.71-16.214,8.441s-26.571-6.364-26.571-6.364-28.828.1-11.874-8S1200.777,5957.207,1200.777,5957.207Z" fill="#efc523"/><path d="M1200.327,5960.9a181.013,181.013,0,0,1-55.758,1.163s-8.289-33.069,26.69-35.212C1206.357,5924.7,1200.327,5960.9,1200.327,5960.9Z" fill="#ffb12b"/><path d="M1147.878,5938.238c5.325,20.986,36.473,23.3,48.092,23.419a185.887,185.887,0,0,1-51.4.406S1141.182,5948.548,1147.878,5938.238Z" fill="#efc523"/><path d="M1172.1,5964.974l-3.21-1.319s1.6-28.76-6.611-35.371l.549-2.3S1179.964,5928.3,1172.1,5964.974Z" fill="#ea9c3f"/><path d="M1172.1,5964.974s1.959-34.018-9.272-38.988c0,0,5.755-2.324,16.321-1.045,0,0,11.434,7.79,7.851,38.972A67.416,67.416,0,0,1,1172.1,5964.974Z" fill="#efc523"/><path d="M1216.031,6133.36s2.564,33.685,3.314,46.185a29.429,29.429,0,0,1-20.751,8.25l-1.8-41.3s-16.637,2.3-26.043,1.3c0,0-2.9,38.746-2.9,41.5,0,0-10.767,2.255-31.635-3l6.227-47.979S1188.717,6146.927,1216.031,6133.36Z" fill="#efc523"/><rect width="50.502" height="6" transform="translate(1144.857 6229.526) rotate(-86.127)" fill="#efc523"/><path d="M1153.854,6185.47l-5.754-3.835.169-2.494,5.986.405Z" fill="#894c31"/><rect width="9" height="20" rx="1.627" transform="translate(1141.251 6179.166) rotate(-86.125)" fill="#b7b3b0"/><path d="M1160.777,6179.994a1.619,1.619,0,0,1-1.194.414l-16.709-1.132a1.627,1.627,0,0,1-1.513-1.733l.388-5.734a1.62,1.62,0,0,1,.341-.891C1142.789,6173.534,1146.041,6178.81,1160.777,6179.994Z" fill="#9b9795"/><path d="M1157.712,6184.17s-5,1.112-13-.759v3.384a23.589,23.589,0,0,0,13,.917Z" fill="#e6e6e6"/><path d="M1217.334,6174.519a7.689,7.689,0,0,1-6.51,1.587l.225,4.141s3.148,1.9,6.521-1.394Z" fill="#e6e6e6"/><path d="M1208.094,6177.776a7.689,7.689,0,0,1-6.51,1.587l.226,4.141s3.147,1.9,6.52-1.394Z" fill="#e6e6e6"/><path d="M1164.212,6167.107a81.475,81.475,0,0,1-23-2.187v-2.125s13.5,2.788,23,2.206Z" fill="#e6e6e6"/><path d="M1217.136,6167.154a47.487,47.487,0,0,1-17.466,2.192l-.525-2.06s10.624.171,17.471-2.174Z" fill="#e6e6e6"/><path d="M1216.136,6158.653a47.463,47.463,0,0,1-17.466,2.192l-.525-2.059s10.624.171,17.471-2.174Z" fill="#e6e6e6"/><path d="M1165.712,6159.607a81.5,81.5,0,0,1-23-2.188v-2.125s13.5,2.788,23,2.207Z" fill="#e6e6e6"/><path d="M1212.97,6026.372s29.152,20.844,40.034,36.906a197.211,197.211,0,0,1-19.015,16.819l-21.03-16.1S1204.544,6041.006,1212.97,6026.372Z"/><path d="M1251.346,6064.167c2.482,3.664,5.674,6.191,5.691,9.053,0,0,5.809,16.072-27.945,55.574,0,0-9.247,2-11.166-7.8l17.487-39.809-1.568-2.645C1237.633,6075.571,1244.827,6070.982,1251.346,6064.167Z" fill="#f2f2f2"/><path d="M1229.558,6077.28l4.417,5.846s18.425-.776,26.86-5.959c0,0-1.628-10.5-7.114-16.25C1253.721,6060.917,1239.692,6069.5,1229.558,6077.28Z"/><path d="M1217.926,6121s-10.155,4.89-14.336,11.871c0,0-1.717,3.21.566,3.973s.878,3.814,3.269,4.686,1.633,3.269,5.112,3.381a3.292,3.292,0,0,0,3.263,2.073c2.393-.216,7.94-.316,8.376-1.512s3.269-5.974,3.054-6.519-.815-1.312-2.659-.683a15.29,15.29,0,0,0,2.737-3.16c1.233-1.914,1.784-5.723,1.784-5.723l-.532-10.221Z" fill="#f2f2f2"/><path d="M1212.97,6026.372s1.441,19.026,1.225,109.655c0,0-23.4,11.349-69.916,3.44,0,0-.11-27.209-6.617-51.412,0,0-11.78-45.48-5.828-58.789C1131.834,6029.266,1165.126,6006.723,1212.97,6026.372Z"/><path d="M1214.186,6098.386c.036,10.914.043,23.391.009,37.641,0,0-23.4,11.349-69.916,3.44,0,0-.11-27.209-6.617-51.412a310.057,310.057,0,0,1-6.41-32.83C1144.331,6074.658,1180.663,6121.424,1214.186,6098.386Z"/><path d="M1180.98,6017.338l.076,3.655s-3.263,3.861-10.382,3.584-10.079-4.419-10.079-4.419l.228-9.329C1169.157,6015.3,1177.47,6017.526,1180.98,6017.338Z" fill="#f2f2f2"/><path d="M1160.823,6010.829l.559-4.654a25.119,25.119,0,0,0,9.478,5.711c3.908,1.3,11.026.291,11.026.291l-.906,5.161C1177.47,6017.526,1169.157,6015.3,1160.823,6010.829Z" fill="#fff"/><path d="M1181.281,6015.353a14.292,14.292,0,0,1-7.965,9.112s-11.86-2.755-12.721-10.737l-6.508,6.677s3.772,11.426,13.234,14.955l5.914-9.017,8.038,7.438s7.471-8.565,6.834-14.38Z"/><path d="M1154.968,6019.5s13.948,35.79,11.412,132.543c0,0-5.924,1.773-27.925-2.239l-5.112-64.028s6.969-22.336,4.857-59.919C1138.2,6025.858,1142.812,6019.546,1154.968,6019.5Z" fill="#efc523"/><path d="M1166.639,6138.816a173.02,173.02,0,0,1-29.256-2.432l-1.174-14.7a172.388,172.388,0,0,0,30.5,2.635C1166.722,6128.973,1166.7,6133.8,1166.639,6138.816Z" fill="#efeeed"/><path d="M1135.2,6108.991l-1.257-15.737a171.1,171.1,0,0,0,32.173,3.059q.3,7.345.458,15.5A171.892,171.892,0,0,1,1135.2,6108.991Z" fill="#efeeed"/><path d="M1139.467,6124.062s10.714,3.5,15.784,9.863c0,0,2.128,2.953-.033,4.013s-.364,3.9-2.619,5.078-1.184,3.456-4.618,4.03a3.289,3.289,0,0,1-2.959,2.486c-2.4.1-7.911.741-8.5-.386s-4.032-5.488-3.891-6.057.634-1.408,2.545-1.03a15.256,15.256,0,0,1-3.133-2.768c-1.475-1.734-2.527-5.435-2.527-5.435l-.829-10.2Z" fill="#f2f2f2"/><path d="M1093.973,6079.729c11.608.181,16.438,6.33,20.131,7.92l-2.887,3.768,28.25,32.645c-.958,10.328-9.954,9.794-9.954,9.794-44.672-31.063-40.68-46.135-40.68-46.135C1089.174,6086.149,1093.274,6081.472,1093.973,6079.729Z" fill="#f2f2f2"/><path d="M1189.913,6019.692s8.121,44.6,6.776,132.352c0,0,15.656-1.55,25.406-9.775,0,0-1.25-49.184-2.5-60.706,0,0-8.373-27.354-8.5-56.972C1211.095,6024.591,1200.982,6018.343,1189.913,6019.692Z" fill="#efc523"/><path d="M1196.188,6094.084a203,203,0,0,0,23.968-5.041c.252,4.31.495,9.661.72,15.3a202.1,202.1,0,0,1-24.266,5.179Q1196.448,6101.445,1196.188,6094.084Z" fill="#efeeed"/><path d="M1196.791,6121.994a201.47,201.47,0,0,0,24.539-5.279c.177,5.218.331,10.206.454,14.37a200.841,200.841,0,0,1-24.951,5.4Q1196.856,6129,1196.791,6121.994Z" fill="#efeeed"/><path d="M1131.834,6029.266c10.293,13.387,2.124,40.579,2.124,40.579l-18.107,18.523c-3.693-1.59-14.259-5.7-24.76-8.826C1102.294,6061.07,1131.834,6029.266,1131.834,6029.266Z"/><path d="M1117.27,6086.917l-3.678,6.337s-18.5.5-27.5-3.628c0,0,1.625-8.459,6.375-14.834A222.051,222.051,0,0,1,1117.27,6086.917Z"/><path d="M998.546,6012.624a71.025,71.025,0,0,0-27.971.064l-1.657,11.9,32.374-.55Z" fill="#162635"/><path d="M1026.357,6064s-8.415-22.99.011-37.624c0,0,29.153,20.844,40.034,36.906,2.483,3.664,5.825,8.152,5.842,11.014,0,0,4,15-29.754,54.5,0,0-11.2.677-13.124-9.12l19.445-38.487-1.423-1.09Z"/><path d="M1015.173,6132.955c3.4-5.674,10.393-10.084,13.783-11.987l3.691-11.66a20.313,20.313,0,0,1,20.347,9.934l-10.029,10.818h0a17.294,17.294,0,0,1-1.795,5.349,16.736,16.736,0,0,1-3,3.463c2.02-.689,2.676.154,2.914.75s-2.87,5.836-3.347,7.145-6.559,1.421-9.181,1.657a3.606,3.606,0,0,1-3.576-2.272c-3.814-.123-2.984-2.748-5.6-3.706s-1.083-4.3-3.584-5.136S1015.173,6132.955,1015.173,6132.955Z" fill="#e6e6e6"/><path d="M1051.619,6122.668s-8.688-11.75-21.438-10.687l-.813,4.146s11.292,1.52,18.792,10.333Z" fill="#efc523"/><path d="M964.867,6352.3h-28.5s-1.675-7.767,4.273-17.767l19.2.334S965.367,6342.8,964.867,6352.3Z"/><rect width="28.501" height="4.5" transform="translate(936.605 6352.304)" fill="#e6e6e6"/><path d="M939.866,6344c0,1.949,4.813,3.53,10.75,3.53s10.75-1.581,10.75-3.53-4.814-3.531-10.75-3.531S939.866,6342.048,939.866,6344Z"/><path d="M956.1,6339.3a1,1,0,0,0-1-1h-8.5a1,1,0,0,0-1,1h0a1,1,0,0,0,1,1h8.5a1,1,0,0,0,1-1Z" fill="#e6e6e6"/><path d="M956.1,6335.8a1,1,0,0,0-1-1h-8.5a1,1,0,0,0-1,1h0a1,1,0,0,0,1,1h8.5a1,1,0,0,0,1-1Z" fill="#e6e6e6"/><path d="M1001.8,6332.313s-2.209,11.491-.542,19.491h53.669s1.833-11.81-21.5-11.783l-14.969-10.119Z"/><path d="M1001.606,6356.373l53.5-.3V6351.8h-53.5Z" fill="#e6e6e6"/><path d="M1034.93,6340.11s.678,8.094,19.2,7.7C1054.128,6347.812,1051.364,6340.11,1034.93,6340.11Z"/><path d="M1018.59,6351.8s-.52-13.585-17.594-13.668c0,0-.907,9.168.426,13.668Z"/><path d="M1027.718,6343.247a1,1,0,0,0,.678-.266l4.625-4.274a1,1,0,0,0-1.358-1.469l-4.625,4.275a1,1,0,0,0,.68,1.734Z" fill="#e6e6e6"/><path d="M1023.217,6340.247a1,1,0,0,0,.679-.266l4.625-4.274a1,1,0,0,0-1.358-1.469l-4.625,4.274a1,1,0,0,0,.679,1.735Z" fill="#e6e6e6"/><path d="M1019.217,6337.247a1,1,0,0,0,.679-.266l4.625-4.274a1,1,0,0,0-1.358-1.469l-4.625,4.274a1,1,0,0,0,.679,1.735Z" fill="#e6e6e6"/><path d="M1027.593,6136.027s3.2,76.189-.374,196.36a22.847,22.847,0,0,1-26.1,3.326s-5.968-126.479-8.017-160.523c0,0-13.69,75.923-28.081,159.65,0,0-15.317,7.064-25.415-1.45,0,0,11.228-129.685,18.071-193.923C957.677,6139.467,1000.215,6145.077,1027.593,6136.027Z"/><path d="M993.1,6175.19s12.892-5.984,16.721-11.054-9.6,30-15.524,35.516Z"/><path d="M1026.368,6026.372s1.441,19.026,1.225,109.655c0,0-23.405,11.349-69.916,3.44,0,0-.11-27.209-6.616-51.412,0,0-11.781-45.48-5.829-58.789C945.232,6029.266,978.524,6006.723,1026.368,6026.372Z"/><path d="M1027.584,6098.386c.036,10.914.043,23.391.009,37.641,0,0-23.405,11.349-69.916,3.44,0,0-.11-27.209-6.616-51.412a309.9,309.9,0,0,1-6.411-32.83C957.729,6074.658,994.061,6121.424,1027.584,6098.386Z"/><path d="M968.424,6326.049l-1.909,11.156s-15.41,5.108-28.91-3.232V6322.8S952.756,6329.3,968.424,6326.049Z" fill="#ccc"/><path d="M998.841,6325.466l.716,11.781s14.05,7.053,29.55-4.281v-12S1018.257,6326.466,998.841,6325.466Z" fill="#ccc"/><path d="M998.492,6018.853s2.15,15.437-5.967,42.1c0,0-15.1-28.8-23.607-40.734C968.918,6020.224,983.795,6016.648,998.492,6018.853Z" fill="#c1c4c6"/><path d="M994.378,6017.338l.076,3.655s-3.262,3.861-10.382,3.584-10.078-4.419-10.078-4.419l.227-9.329C982.555,6015.3,990.868,6017.526,994.378,6017.338Z" fill="#f2f2f2"/><path d="M974.221,6010.829l.482-12.392,20.486.8-.811,18.1C990.868,6017.526,982.555,6015.3,974.221,6010.829Z" fill="#fff"/><path d="M1005.992,6020.183l-7.446-7.559-2.3,20.167,9.75,5S1006.782,6024.223,1005.992,6020.183Z" fill="#ccc"/><path d="M963.7,6021.484l6.872-8.8,7.984,18.934-7.659,7.361S964.422,6025.538,963.7,6021.484Z" fill="#ccc"/><path d="M995.493,6137.277a1.25,1.25,0,0,0,1.248-1.2c1.735-42.889-2.932-74.984-2.979-75.3a1.251,1.251,0,0,0-2.474.367c.048.317,4.68,32.2,2.955,74.836a1.25,1.25,0,0,0,1.2,1.3Z" fill="#ccc"/><path d="M983.3,6063.852l-20.38,1.52s-.943,26.125,13.2,25.162S983.3,6063.852,983.3,6063.852Z" fill="#ccc"/><path d="M1022.656,6062.625l-20.414.953s-1.668,26.089,12.492,25.519S1022.656,6062.625,1022.656,6062.625Z" fill="#ccc"/><rect width="4" height="13" transform="translate(960.605 6133.298)" fill="#ccc"/><rect width="4" height="13" transform="translate(980.606 6133.298)" fill="#ccc"/><rect width="4" height="13" transform="translate(1006.107 6133.298)" fill="#ccc"/><rect width="4" height="13" transform="translate(1021.107 6131.298)" fill="#ccc"/><path d="M945.232,6029.266s-15.117,5.275-20.945,66.02c0,0-7.964,35.7-2.633,63.27a19.477,19.477,0,0,0,19.107-.761s3.973-45.061,4.087-55.735l7.643-26.268S955.2,6034.57,945.232,6029.266Z"/><path d="M918.853,6150.872c15.543-6.724,25.555.9,25.555.9l-4.089,16c1.443,2,3.781,5.27,4.936,7.059,1.381,2.139,6.675,6.078,6.675,6.078s-3.487,6.974-10.82-1.494c0,0-.123,11.229-2.62,11.486a4.217,4.217,0,0,1-3.842-.991,3.251,3.251,0,0,1-4.861-.262s-3.046,1.616-4.391-.73a3.216,3.216,0,0,1-4.093-1.532c-1.359-2.71-.67-2.791-1.487-8.177a49.152,49.152,0,0,1,1.751-9.1Z" fill="#e6e6e6"/><path d="M944.43,6156.432s-14-7.491-26.291-.571l1.054,4.431s12-3.719,23.48,1.445Z" fill="#efc523"/><path d="M973.239,5961.73s16.917,6.515,21.2,6.195,15.652-5.279,15.652-5.279c4.187,3.455-.314,13.771-.314,13.771l-38.952,6.131-8.727,1.418a109.08,109.08,0,0,1-1.877-21.552C968.116,5961.892,973.239,5961.73,973.239,5961.73Z"/><path d="M965.64,5976.328l3.257,5.254a34.15,34.15,0,0,0,1.651-4.414,61.247,61.247,0,0,0,2.691-15.438,224.541,224.541,0,0,0,36.848.916c-1.3,9.972,2.159,32.613-5.886,43.672a14.829,14.829,0,0,1-10.682,6.162c-21.217,2.6-26.34-20.037-26.34-20.037s-7.047-.715-8.069-10.51C958.261,5973.819,965.64,5976.328,965.64,5976.328Z" fill="#f2f2f2"/><path d="M998.383,5998.916s-5.875,1.533-15.063-.744c0,0,1.888,7.627,8.229,7.441C997.2,6005.448,998.383,5998.916,998.383,5998.916Z"/><path d="M998.145,5999.283s-6.117,1.77-14.465-.714c0,0,1.27,3.21,7.931,3.325C997.53,6002,998.145,5999.283,998.145,5999.283Z" fill="#fff"/><path d="M1014.175,5957.207s14.045,5.259-2.322,7.117c0,0,6.877,7.71-16.214,8.441s-26.571-6.364-26.571-6.364-28.828.1-11.873-8S1014.175,5957.207,1014.175,5957.207Z" fill="#efc523"/><path d="M1013.725,5960.9a181.012,181.012,0,0,1-55.758,1.163s-8.289-33.069,26.69-35.212C1019.755,5924.7,1013.725,5960.9,1013.725,5960.9Z" fill="#ffb12b"/><path d="M961.276,5938.238c5.325,20.986,36.473,23.3,48.092,23.419a185.886,185.886,0,0,1-51.4.406S954.581,5948.548,961.276,5938.238Z" fill="#efc523"/><path d="M985.5,5964.974l-3.21-1.319s1.6-28.76-6.612-35.371l.549-2.3S993.362,5928.3,985.5,5964.974Z" fill="#ea9c3f"/><path d="M985.5,5964.974s1.958-34.018-9.273-38.988c0,0,5.755-2.324,16.321-1.045,0,0,11.435,7.79,7.851,38.972A67.411,67.411,0,0,1,985.5,5964.974Z" fill="#efc523"/><path d="M570.038,6105.7l-3.516-2.382a46.228,46.228,0,0,0-6.38-4.407c-3.456-1.662-4.629-7.777-4.629-7.777s-5.323.322-.89,9.775c0,0-10.985-.618-11.79,1.613a18,18,0,0,0,.422,3.491,3.686,3.686,0,0,0,.32,4.139s-1.786,2.565-.2,3.933a4.437,4.437,0,0,0,1.731,3.5c1.878,1.4,2.141.937,6.321,2.032,0,0,9.06.315,13.245-3.417Z" fill="#f2f2f2"/><path d="M571.279,6097.161l-7.884,1.553s-4.117,8.61,2.792,17.906l8.693-2.029Z" fill="#efc523"/><path d="M634.749,6026.275s-10.875,5.669-14.125,26.3c-2.667,16.931-12.526,33.529-12.526,33.529a332.15,332.15,0,0,0-38.027,10.075s-6.345,13.49,4.861,20.155c0,0,53.486-.822,57.275-17.946S649.708,6042.528,634.749,6026.275Z" fill="#efc523"/><path d="M696.251,6352.3h28.5s1.674-7.815-4.274-17.815l-19.2.358S695.751,6342.8,696.251,6352.3Z"/><rect width="28.501" height="4.5" transform="translate(696.508 6352.304)" fill="#e6e6e6"/><path d="M721.251,6343.9c0,1.95-4.812,3.531-10.75,3.531s-10.75-1.581-10.75-3.531,4.814-3.531,10.75-3.531S721.251,6341.951,721.251,6343.9Z"/><path d="M716.008,6339.3a1,1,0,0,1-1,1h-8.5a1,1,0,0,1-1-1h0a1,1,0,0,1,1-1h8.5a1,1,0,0,1,1,1Z" fill="#e6e6e6"/><path d="M716.008,6335.8a1,1,0,0,1-1,1h-8.5a1,1,0,0,1-1-1h0a1,1,0,0,1,1-1h8.5a1,1,0,0,1,1,1Z" fill="#e6e6e6"/><path d="M659.32,6332.264s2.209,11.54.542,19.54H606.193s-1.833-11.859,21.5-11.832l14.969-10.118Z"/><path d="M660.007,6356.276l-53.5-.3V6351.8h53.5Z" fill="#e6e6e6"/><path d="M626.188,6340.014s-.679,8.093-19.2,7.7C606.989,6347.715,609.754,6340.014,626.188,6340.014Z"/><path d="M642.528,6351.8s.519-13.585,17.594-13.668c0,0,.906,9.168-.427,13.668Z"/><path d="M633.4,6343.15a1,1,0,0,1-.678-.265l-4.626-4.275a1,1,0,0,1,1.358-1.469l4.625,4.275a1,1,0,0,1-.679,1.734Z" fill="#e6e6e6"/><path d="M637.9,6340.15a1,1,0,0,1-.678-.265l-4.625-4.275a1,1,0,1,1,1.357-1.469l4.625,4.275a1,1,0,0,1-.679,1.734Z" fill="#e6e6e6"/><path d="M641.9,6337.15a.993.993,0,0,1-.678-.266l-4.625-4.274a1,1,0,0,1,1.357-1.469l4.625,4.275a1,1,0,0,1-.679,1.734Z" fill="#e6e6e6"/><path d="M633.524,6135.93s-3.2,76.189.374,196.361a22.849,22.849,0,0,0,26.1,3.325s5.968-126.478,8.017-160.522c0,0,13.689,75.923,28.08,159.649,0,0,15.317,7.064,25.415-1.449,0,0-11.228-129.685-18.071-193.924C703.44,6139.37,660.9,6144.98,633.524,6135.93Z"/><path d="M668.016,6175.094s-12.893-5.985-16.722-11.054,9.6,30,15.524,35.515Z"/><path d="M634.749,6026.275s-1.441,19.026-1.225,109.655c0,0,23.405,11.349,69.916,3.44,0,0,.111-27.208,6.617-51.412,0,0,11.78-45.48,5.828-58.788C715.885,6029.17,682.594,6006.626,634.749,6026.275Z" fill="#efc523"/><path d="M692.942,6325.953l2.033,11.155s15.533,5.108,29.033-3.232V6322.7S708.609,6329.2,692.942,6325.953Z" fill="#ccc"/><path d="M662.525,6325.369l-.592,11.781s-13.927,7.053-29.427-4.281v-12S643.108,6326.369,662.525,6325.369Z" fill="#ccc"/><path d="M666.739,6017.241l-.076,3.655s3.263,3.861,10.382,3.584,10.079-4.419,10.079-4.419l-.228-9.329C678.562,6015.2,670.249,6017.429,666.739,6017.241Z" fill="#f2f2f2"/><path d="M686.9,6010.732l-.482-12.392-20.485.8.81,18.1C670.249,6017.429,678.562,6015.2,686.9,6010.732Z" fill="#fff"/><path d="M653.334,5963.592l-1.168-8.611s-3.84-23.015,26.574-22.529c26.413.423,24.672,25.9,24.672,25.9l-.833,10.321-6.415,10.238Z"/><path d="M700.427,5967.162l-3.943,5.652a38.089,38.089,0,0,1-1.57-5.014,67.8,67.8,0,0,1-1.354-20.1c-22.679,8.258-40.226,2.012-40.226,2.012,1.555,24.161-5.934,35.705,2.354,48.5a16.535,16.535,0,0,0,11.518,7.506c23.461,4.178,30.533-20.712,30.533-20.712s7.889-.369,9.619-11.212C708.794,5964.815,700.427,5967.162,700.427,5967.162Z" fill="#f2f2f2"/><path d="M651.639,5983.55s20.426,9.149,44.525-4.639a66.906,66.906,0,0,1,.884,8.072c.171,4.15,1.733,23.7-25.889,23.235C643.145,6009.742,651.639,5983.55,651.639,5983.55Z"/><path d="M664.566,5962.48a38.776,38.776,0,0,0-8.176,1.932c-3.2,1.325-3.1-1.362-2.086-2.409s6.5-3.959,9.427-3.224S665.968,5961.877,664.566,5962.48Z"/><path d="M676.868,5962.677a38.747,38.747,0,0,1,8.109,2.193c3.16,1.426,3.147-1.262,2.164-2.341s-6.371-4.165-9.32-3.524S675.486,5962.03,676.868,5962.677Z"/><path d="M688.885,6006.71a.254.254,0,0,1-.163-.063c-5.526-4.941-5.428-21.507-5.421-22.215,0-.138.11-.138.236-.138h0c.128,0,.265.006.263.143,0,.171-.111,17.1,5.246,21.892a.212.212,0,0,1-.162.381Z"/><path d="M695.494,5998.589a.247.247,0,0,1-.153-.055c-4.411-3.569-5.966-15.8-6.029-16.319a.25.25,0,1,1,.5-.061c.015.125,1.593,12.549,5.847,15.991a.25.25,0,0,1-.161.444Z"/><path d="M663.7,5991.675a3.433,3.433,0,0,1-.179-1.714c-.774-.137-1.181-.252-1.181-.252a7.591,7.591,0,0,0,.465,3.057C663.289,5991.784,663.7,5991.675,663.7,5991.675Z" fill="#511e14"/><path d="M677.139,5991.527a2.384,2.384,0,0,0,.016-1.766,41.436,41.436,0,0,1-13.631.2,3.433,3.433,0,0,0,.179,1.714s-.414.109-.9,1.091c.727,1.924,2.535,4.032,6.981,3.962,5.091-.08,7.2-2.468,8.066-4.472A1.752,1.752,0,0,0,677.139,5991.527Z" fill="#fff"/><path d="M678.473,5989.532c-.449.084-.886.158-1.318.229a2.384,2.384,0,0,1-.016,1.766,1.752,1.752,0,0,1,.716.729A7.277,7.277,0,0,0,678.473,5989.532Z" fill="#511e14"/><path d="M633.562,6135.972l-1.336-11.922,6.492-2.433s2.833-79.636,10.129-100.076c0,0,4.292-2.491,8.2-1.772,0,0-4.413,35.176-3.378,49.676l32.545.25a360.465,360.465,0,0,1,10.9-48.389,17.87,17.87,0,0,1,9.471,3.189s-10.713,49.269-11.963,97.111c0,0,4.625,1.716,11.376,3.841l-2.562,13.923S659.218,6151.757,633.562,6135.972Z"/><path d="M648.875,6078.945s18.25.24,39.5.5c0,0-1.486,14.5-1.743,24,0,0-20.633,16.876-38.758-.5A83.159,83.159,0,0,1,648.875,6078.945Z" fill="#ccc"/><path d="M726.64,6165.592l-2.136,4.36s-5,6.294-5.044,9.132c-.063,3.64-2.448,8.773-2.448,8.773s3.853,2.494,5.682-3.767c0,0,.426,7.34,2.626,7.629a4.289,4.289,0,0,0,2.512-.584,2.876,2.876,0,0,0,4.3-.112s2.57,1.251,3.817-.788c0,0,1.621,1.272,2.853-1.025,1.268-2.363,1.363-2.572,2.219-7.312,0,0-.137-9.746-3.955-13.26Z" fill="#f2f2f2"/><path d="M723.113,6162.208l.352,7.806s5.6,5.451,17.125,1.02l.61-7.28Z" fill="#f0f2f1"/><path d="M715.885,6029.17s18.249,3.875,25.024,69.5c0,0,7.358,37.954.908,66.928a20.59,20.59,0,0,1-20.167-1.37s-2.861-47.729-2.665-59.01l-7.1-30.934S705.192,6034.477,715.885,6029.17Z" fill="#efc523"/><path d="M784.483,6082.23c-1.911,2.97-3.715,5.453-4.088,6.652,0,0-6.881,9.286,17.838,41.807,0,0,7.414,1.422,8.761-6.43l-10.479-28.55,2.594-2.541C796.031,6090.869,789.812,6087.544,784.483,6082.23Z" fill="#f2f2f2"/><path d="M806.994,6124.259s8.193,3.709,11.659,9.2c0,0,1.43,2.528-.376,3.18s-.629,3.059-2.519,3.8-1.242,2.638-4.016,2.793a2.625,2.625,0,0,1-2.564,1.715c-1.912-.127-6.339-.1-6.71-1.048s-2.721-4.705-2.559-5.143.626-1.062,2.109-.595a12.177,12.177,0,0,1-2.243-2.469,14.673,14.673,0,0,1-1.531-4.532l.232-8.164Z" fill="#f2f2f2"/><path d="M817.2,6048.21s-23.272,20.873-33.4,34.082c5.329,5.314,12.026,9.344,15.1,11.643l20.147-21.753S824.2,6059.726,817.2,6048.21Z" fill="#efc523"/><path d="M864.922,5978.9s19.261-11.626,14.272,59.963c0,0-6.981,5.529-20.4,0C858.8,6038.866,855.4,5990.766,864.922,5978.9Z"/><path d="M860.063,6043.791s-17.661-5.75-31.161-.556v0c-8,2.045-11.881,4.972-11.881,4.972l-1.9,11.843c-7.839,10.032-10.1,15.866-10.176,18.783-.166,6.562,7.353,12.4,7.353,12.4l.98,33.684c26.071,10.133,44.138.58,44.138.58,2.892-19.7,15.343-48.448,15.343-48.448l-.184-28.451A47.208,47.208,0,0,0,860.063,6043.791Z" fill="#efc523"/><path d="M837.388,6036.891l-.122,5.9s1.607,3.481,7.607,3.5,7.581-3.588,7.581-3.588l.09-9.482A23.089,23.089,0,0,1,837.388,6036.891Z" fill="#f2f2f2"/><path d="M852.544,6033.226l.049-12.4-15.142-.06-.063,16.126A23,23,0,0,0,852.544,6033.226Z" fill="#fff"/><path d="M849.342,6083.619c-9.988,3.329-31.582-2.6-44.51-4.347.163,6.382,7.406,11.959,7.406,11.959l1.012,33.684c26.071,10.133,43.972.58,43.972.58,2.891-19.7,15.181-48.448,15.181-48.448v-9.1C864.9,6072.581,856.31,6081.3,849.342,6083.619Z" fill="#efc523"/><path d="M818.891,6001.182s-13.95-40.854,20.032-35.742c0,0,32.879-12.427,31.794,33.835C870.717,5999.275,839.143,6026.64,818.891,6001.182Z"/><path d="M816.134,5981.855c.385-5.911,2.339-11.642,7.666-14.66,13.157,13.889,25.908,5.365,32.818-1.663,4.371,1.832,8.558,5.528,11.223,12.509C856.612,5981.487,834.676,5986.681,816.134,5981.855Z" fill="#c66f54"/><path d="M865.748,5998.76l-1.9.725c-17.75-8.232-23.666-27.013-23.666-27.013-4.331,10.819-15.389,26.066-21.29,28.71a108.406,108.406,0,0,0,1.193,13.829c1.264,9.456,6.486,16.194,15.89,18,22.671,4.358,28.111-17.233,28.111-17.233s8.447-.175,8.972-11.133C873.486,5995.688,865.748,5998.76,865.748,5998.76Z" fill="#f2f2f2"/><path d="M862.014,6013.546s-5.428,16.025-17.942,18.25c-7.617,1.355-14.339-1.64-18.437-4.191a18.828,18.828,0,0,0,10.339,5.407c22.671,4.358,28.111-17.233,28.111-17.233s6.689-.192,8.526-7.868C867.325,6015.93,862.014,6013.546,862.014,6013.546Z" fill="#fff"/><path d="M841.043,5980.238s7.653,12.235,17.755,16.442c-13.222-8.888-18.617-24.208-18.617-24.208-3.85,9.616-13.011,22.723-19.145,27.376C825.245,5997.937,832.577,5992.993,841.043,5980.238Z"/><path d="M832.58,6019.709s5.866,1.568,15.068-.655c0,0-1.934,7.617-8.273,7.393C833.73,6026.249,832.58,6019.709,832.58,6019.709Z" fill="#56362e"/><path d="M832.816,6020.079s6.107,1.8,14.469-.63c0,0-1.288,3.2-7.951,3.278C833.415,6022.795,832.816,6020.079,832.816,6020.079Z" fill="#fff"/><path d="M872.226,6352.8h26.721s1.57-7.312-4.007-16.687l-18,.328S871.757,6343.8,872.226,6352.8Z"/><rect width="27.001" height="4" transform="translate(871.903 6352.804)" fill="#e6e6e6"/><path d="M895.665,6344.958c0,1.827-4.512,3.309-10.079,3.309s-10.079-1.482-10.079-3.309,4.513-3.312,10.079-3.312S895.665,6343.129,895.665,6344.958Z"/><rect width="10" height="2" rx="0.938" transform="translate(880.403 6339.804)" fill="#e6e6e6"/><rect width="10" height="2" rx="0.938" transform="translate(880.403 6336.304)" fill="#e6e6e6"/><path d="M840.6,6334.016s2.071,10.788.508,18.288H790.792s-1.719-11.086,20.158-11.061l14.034-9.488Z"/><path d="M840.9,6356.559l-50.5-.281V6352.3h50.5Z" fill="#e6e6e6"/><path d="M809.538,6341.312s-.637,7.589-18,7.221C791.538,6348.533,794.13,6341.312,809.538,6341.312Z"/><path d="M824.857,6352.3s.487-12.737,16.5-12.814c0,0,.849,8.814-.4,12.814Z"/><path d="M816.3,6344.253a.935.935,0,0,1-.636-.249L811.327,6340a.938.938,0,0,1,1.273-1.378l4.336,4.008a.937.937,0,0,1-.637,1.626Z" fill="#e6e6e6"/><path d="M820.518,6341.441a.935.935,0,0,1-.635-.249l-4.337-4.008a.938.938,0,1,1,1.273-1.377l4.336,4.007a.938.938,0,0,1-.637,1.627Z" fill="#e6e6e6"/><path d="M824.269,6338.628a.936.936,0,0,1-.636-.249l-4.336-4.008a.937.937,0,0,1,1.272-1.377l4.336,4.008a.937.937,0,0,1-.636,1.626Z" fill="#e6e6e6"/><path d="M815.026,5981.324s-13.928,5.563,2.476,7.064c0,0-6.706,7.858,16.394,8.086s26.426-6.942,26.426-6.942,28.823-.527,11.7-8.261S815.026,5981.324,815.026,5981.324Z" fill="#efc523"/><path d="M815.556,5985a181,181,0,0,0,55.77-.051s7.566-33.242-27.452-34.623C808.738,5948.947,815.556,5985,815.556,5985Z" fill="#ffb12b"/><path d="M867.5,5961.207c-4.866,21.1-35.956,24.087-47.57,24.461a185.9,185.9,0,0,0,51.4-.714S874.417,5971.368,867.5,5961.207Z" fill="#efc523"/><path d="M843.864,5988.464l3.181-1.388s-2.225-28.719,5.839-35.507l-.6-2.286S835.2,5951.971,843.864,5988.464Z" fill="#ea9c3f"/><path d="M843.864,5988.464s-2.7-33.967,8.421-39.181c0,0-5.8-2.2-16.34-.688,0,0-11.262,8.036-7,39.132A67.34,67.34,0,0,0,843.864,5988.464Z" fill="#efc523"/><path d="M860.433,6124.915l2.834-11.955-14.9-5-.719-32s8.281-25.429,16.575-31.049c0,0-2.452-2.4-8.288-2.259,0,0-11.261,11.14-17.09,33.391l-23.455-1.125s6.586-24.182,17.426-32.787c0,0-5.347.33-8.292,2.558,0,0-8.884,8.686-15.384,29.854l-4.217,4.73,6.509,45.643s-17.114,33.3-.406,121.132c0,0,7.394,72.655,7.067,89.426,0,0,12.3,7.327,24.8.827,0,0-2.413-44.152-4.016-87.67-.949-25.757-.647-52.183-.86-66.679l.86,0s18.225,69.6,34.892,153.6c0,0,9.1,7.742,23.552-.592,0,0-4.832-68.335-17.525-100.669C879.794,6234.3,882.434,6159.537,860.433,6124.915Z"/><path d="M808.765,6083.542l33.251.75s4.756,21.99-17.75,22C806.349,6106.3,808.765,6083.542,808.765,6083.542Z" fill="#ccc"/><path d="M837.4,6181.951s-9.083-3.563-11.75-6.11c0,0,3.25,14.954,11.75,23.121Z"/><path d="M816.226,6325.132l1.011,11.168s13.862,8.166,26.529,0l.667-11.168S830.021,6330.3,816.226,6325.132Z"/><path d="M870.643,6327.049l2.1,9.292s9.655,8.733,26.156-.654V6325.3S883.369,6331.3,870.643,6327.049Z"/><path d="M879.275,6164.44l-1.6,3.913s-3.965,5.761-3.84,8.228c.161,3.166-1.607,7.764-1.607,7.764s3.494,1.937,4.712-3.608c0,0,1.273,8.9,3.2,9.016,0,0,2,.292,1.679-3.2,0,0,1.988,4.007,3.729-.352,0,0,2.307.935,3.269-.91,0,0,1.483,1.009,2.417-1.059.962-2.126,1.032-2.315,1.495-6.481,0,0-.7-8.456-4.219-11.281Z" fill="#f2f2f2"/><path d="M890.432,6112.574c-8.418,2.655-13.521,2.324-16.454,1.469a1.435,1.435,0,0,1,0,.313l3.534,54.241c8.819,2.681,11-2.128,11-2.128,4.219-22.925,2.012-53.113,2.012-53.113C890.515,6113.172,890.441,6112.757,890.432,6112.574Z" fill="#f2f2f2"/><path d="M890.494,6112.812c-3.033-58.239-17.827-64.216-17.827-64.216-12.423,6.223.529,62.419,1.277,65.612C876.877,6115.064,882.077,6115.467,890.494,6112.812Z" fill="#efc523"/><path d="M650.233,5942.922s-14.045,5.259,2.322,7.117c0,0-6.876,7.71,16.214,8.442s26.571-6.365,26.571-6.365,28.828.1,11.874-8S650.233,5942.922,650.233,5942.922Z" fill="#efc523"/><path d="M650.683,5946.615a181.039,181.039,0,0,0,55.758,1.164s8.289-33.069-26.69-35.213C644.653,5910.416,650.683,5946.615,650.683,5946.615Z" fill="#ffb12b"/><path d="M703.132,5923.954c-5.325,20.985-36.473,23.3-48.092,23.419a185.966,185.966,0,0,0,51.4.406S709.828,5934.264,703.132,5923.954Z" fill="#efc523"/><path d="M678.91,5950.689l3.21-1.318s-1.6-28.76,6.611-35.372l-.549-2.3S671.047,5914.016,678.91,5950.689Z" fill="#ea9c3f"/><path d="M678.91,5950.689s-1.959-34.017,9.272-38.988c0,0-5.755-2.323-16.321-1.044,0,0-11.434,7.789-7.851,38.971A67.424,67.424,0,0,0,678.91,5950.689Z" fill="#efc523"/></g></g></svg>