<svg xmlns="http://www.w3.org/2000/svg" width="1284.95" height="613.423" viewBox="0 0 1284.95 613.423"><g transform="translate(3.43 -149.971)"><g transform="translate(-5.401)"><path d="M450.686,421.415c-2.711-1.478-3.944-.246-4.93-1.478s2.712-4.437-4.683-7.642c0,0-.493-6.9-10.6-7.147s-7.4,6.9-10.106,8.627-3.451-.986-6.162.739-1.479,5.176-3.7,5.669-5.176-2.218-7.888-.493-2.711,3.2-3.943,3.2-3.7-.986-5.176,0-3.2,2.219-3.2,2.219h62.359S453.4,422.894,450.686,421.415Z" fill="none" stroke="#1a2e35" stroke-linecap="round" stroke-linejoin="round" stroke-width="1.104"/><path d="M413.8,420.4a8.639,8.639,0,0,1-1.1.52" fill="none" stroke="#1a2e35" stroke-linecap="round" stroke-linejoin="round" stroke-width="1.104"/><path d="M427.137,408.889a4.209,4.209,0,0,0-2.407,3.008c-.451,2.257-1.5,3.761-2.707,3.911s-5.716-.3-6.468,1.354a6.585,6.585,0,0,0-.422,1.511" fill="none" stroke="#1a2e35" stroke-linecap="round" stroke-linejoin="round" stroke-width="1.104"/></g><g transform="translate(-5.401)"><path d="M1244.511,363.743c.8-5.808-7.4-10.586-13.557-11.083-2.938-.237-5.989.212-8.772-.757-6.029-2.1-8.438-9.892-14.321-12.373-4.4-1.855-9.462-.2-13.726,1.942s-8.478,4.847-13.242,5.152c-4.144.265-8.644-1.271-12.269.753-2.7,1.508-4.117,4.621-6.607,6.458-2.436,1.8-5.614,2.177-8.636,2.341s-6.152.2-8.9,1.456-5.029,4.17-4.458,7.143Z" fill="#ececec"/></g><g transform="translate(-5.401)"><rect width="60.328" height="255.119" transform="translate(237.271 321.083)" fill="#ececec"/><rect width="18.336" height="35.334" transform="translate(248.515 338.966)" fill="#fff"/><path d="M258.2,374.3c-.136,0-.246-7.911-.246-17.666s.11-17.668.246-17.668.245,7.908.245,17.668S258.335,374.3,258.2,374.3Z" fill="none" stroke="#000" stroke-miterlimit="10" stroke-width="1"/><path d="M266.851,351.241a85.591,85.591,0,0,1-9.168.246,85.575,85.575,0,0,1-9.168-.246,86.068,86.068,0,0,1,9.168-.245A86.083,86.083,0,0,1,266.851,351.241Z" fill="none" stroke="#000" stroke-miterlimit="10" stroke-width="1"/><path d="M266.948,363.878a87.5,87.5,0,0,1-9.243.245,87.5,87.5,0,0,1-9.244-.245,87.506,87.506,0,0,1,9.244-.245A87.511,87.511,0,0,1,266.948,363.878Z" fill="none" stroke="#000" stroke-miterlimit="10" stroke-width="1"/><rect width="18.336" height="35.334" transform="translate(248.515 385.119)" fill="#fff"/><path d="M258.2,420.454c-.136,0-.246-7.911-.246-17.667s.11-17.668.246-17.668.245,7.909.245,17.668S258.335,420.454,258.2,420.454Z" fill="none" stroke="#000" stroke-miterlimit="10" stroke-width="1"/><path d="M266.851,397.395a85.759,85.759,0,0,1-9.168.245,85.744,85.744,0,0,1-9.168-.245,86.078,86.078,0,0,1,9.168-.245A86.093,86.093,0,0,1,266.851,397.395Z" fill="none" stroke="#000" stroke-miterlimit="10" stroke-width="1"/><path d="M266.948,410.032a87.511,87.511,0,0,1-9.243.245,87.506,87.506,0,0,1-9.244-.245,87.167,87.167,0,0,1,9.244-.245A87.171,87.171,0,0,1,266.948,410.032Z" fill="none" stroke="#000" stroke-miterlimit="10" stroke-width="1"/><rect width="18.336" height="35.334" transform="translate(248.515 431.273)" fill="#fff"/><path d="M258.2,466.607c-.136,0-.246-7.91-.246-17.666s.11-17.668.246-17.668.245,7.909.245,17.668S258.335,466.607,258.2,466.607Z" fill="none" stroke="#000" stroke-miterlimit="10" stroke-width="1"/><path d="M266.851,443.549a86.093,86.093,0,0,1-9.168.245,86.078,86.078,0,0,1-9.168-.245,86.063,86.063,0,0,1,9.168-.245A86.078,86.078,0,0,1,266.851,443.549Z" fill="none" stroke="#000" stroke-miterlimit="10" stroke-width="1"/><path d="M266.948,456.186a87.5,87.5,0,0,1-9.243.245,87.5,87.5,0,0,1-9.244-.245,87.173,87.173,0,0,1,9.244-.245A87.177,87.177,0,0,1,266.948,456.186Z" fill="none" stroke="#000" stroke-miterlimit="10" stroke-width="1"/><rect width="18.336" height="35.334" transform="translate(248.515 477.427)" fill="#fff"/><path d="M258.2,512.761c-.136,0-.246-7.91-.246-17.666s.11-17.668.246-17.668.245,7.909.245,17.668S258.335,512.761,258.2,512.761Z" fill="none" stroke="#000" stroke-miterlimit="10" stroke-width="1"/><path d="M266.851,489.7a86.083,86.083,0,0,1-9.168.245,86.068,86.068,0,0,1-9.168-.245,86.068,86.068,0,0,1,9.168-.245A86.083,86.083,0,0,1,266.851,489.7Z" fill="none" stroke="#000" stroke-miterlimit="10" stroke-width="1"/><path d="M266.948,502.34a87.5,87.5,0,0,1-9.243.245,87.5,87.5,0,0,1-9.244-.245,87.005,87.005,0,0,1,9.244-.246A87.009,87.009,0,0,1,266.948,502.34Z" fill="none" stroke="#000" stroke-miterlimit="10" stroke-width="1"/><rect width="43.956" height="255.119" transform="translate(279.299 321.083)" fill="none" stroke="#000" stroke-miterlimit="10" stroke-width="1"/><rect width="18.336" height="35.334" transform="translate(292.949 338.966)" fill="#fff"/><path d="M302.634,374.3c-.136,0-.245-7.911-.245-17.666s.109-17.668.245-17.668.245,7.908.245,17.668S302.769,374.3,302.634,374.3Z" fill="none" stroke="#000" stroke-miterlimit="10" stroke-width="1"/><path d="M311.285,351.241a85.579,85.579,0,0,1-9.167.246,85.587,85.587,0,0,1-9.169-.246,86.08,86.08,0,0,1,9.169-.245A86.072,86.072,0,0,1,311.285,351.241Z" fill="none" stroke="#000" stroke-miterlimit="10" stroke-width="1"/><path d="M311.382,363.878a87.5,87.5,0,0,1-9.243.245,87.5,87.5,0,0,1-9.244-.245,87.507,87.507,0,0,1,9.244-.245A87.51,87.51,0,0,1,311.382,363.878Z" fill="none" stroke="#000" stroke-miterlimit="10" stroke-width="1"/><rect width="18.336" height="35.334" transform="translate(292.949 385.498)" fill="#fff"/><path d="M302.634,420.832c-.136,0-.245-7.91-.245-17.666s.109-17.668.245-17.668.245,7.909.245,17.668S302.769,420.832,302.634,420.832Z" fill="none" stroke="#000" stroke-miterlimit="10" stroke-width="1"/><path d="M311.285,397.774a86.066,86.066,0,0,1-9.167.245,86.074,86.074,0,0,1-9.169-.245,86.089,86.089,0,0,1,9.169-.245A86.081,86.081,0,0,1,311.285,397.774Z" fill="none" stroke="#000" stroke-miterlimit="10" stroke-width="1"/><path d="M311.382,410.41a87.009,87.009,0,0,1-9.243.246,87.006,87.006,0,0,1-9.244-.246,87.5,87.5,0,0,1,9.244-.245A87.5,87.5,0,0,1,311.382,410.41Z" fill="none" stroke="#000" stroke-miterlimit="10" stroke-width="1"/><rect width="18.336" height="35.334" transform="translate(292.949 432.031)" fill="#fff"/><path d="M302.634,467.365c-.136,0-.245-7.911-.245-17.666s.109-17.668.245-17.668.245,7.908.245,17.668S302.769,467.365,302.634,467.365Z" fill="none" stroke="#000" stroke-miterlimit="10" stroke-width="1"/><path d="M311.285,444.306a85.588,85.588,0,0,1-9.167.246,85.6,85.6,0,0,1-9.169-.246,86.08,86.08,0,0,1,9.169-.245A86.072,86.072,0,0,1,311.285,444.306Z" fill="none" stroke="#000" stroke-miterlimit="10" stroke-width="1"/><path d="M311.382,456.943a87.5,87.5,0,0,1-9.243.245,87.5,87.5,0,0,1-9.244-.245,87.507,87.507,0,0,1,9.244-.245A87.51,87.51,0,0,1,311.382,456.943Z" fill="none" stroke="#000" stroke-miterlimit="10" stroke-width="1"/><rect width="18.336" height="35.334" transform="translate(292.949 478.563)" fill="#fff"/><path d="M302.634,513.9c-.136,0-.245-7.91-.245-17.666s.109-17.668.245-17.668.245,7.909.245,17.668S302.769,513.9,302.634,513.9Z" fill="none" stroke="#000" stroke-miterlimit="10" stroke-width="1"/><path d="M311.285,490.839a86.066,86.066,0,0,1-9.167.245,86.074,86.074,0,0,1-9.169-.245,86.089,86.089,0,0,1,9.169-.245A86.081,86.081,0,0,1,311.285,490.839Z" fill="none" stroke="#000" stroke-miterlimit="10" stroke-width="1"/><path d="M311.382,503.476a87.51,87.51,0,0,1-9.243.245,87.507,87.507,0,0,1-9.244-.245,87,87,0,0,1,9.244-.246A87,87,0,0,1,311.382,503.476Z" fill="none" stroke="#000" stroke-miterlimit="10" stroke-width="1"/><rect width="18.336" height="35.334" transform="translate(248.515 523.581)" fill="#fff"/><path d="M258.2,558.915c-.136,0-.246-7.91-.246-17.666s.11-17.668.246-17.668.245,7.909.245,17.668S258.335,558.915,258.2,558.915Z" fill="none" stroke="#000" stroke-miterlimit="10" stroke-width="1"/><path d="M266.851,535.857a86.083,86.083,0,0,1-9.168.245,86.068,86.068,0,0,1-9.168-.245,85.759,85.759,0,0,1,9.168-.245A85.774,85.774,0,0,1,266.851,535.857Z" fill="none" stroke="#000" stroke-miterlimit="10" stroke-width="1"/><path d="M266.948,548.493a86.985,86.985,0,0,1-9.243.246,86.981,86.981,0,0,1-9.244-.246,87.5,87.5,0,0,1,9.244-.245A87.5,87.5,0,0,1,266.948,548.493Z" fill="none" stroke="#000" stroke-miterlimit="10" stroke-width="1"/><rect width="18.336" height="35.334" transform="translate(292.949 525.096)" fill="#fff"/><path d="M302.634,560.43c-.136,0-.245-7.911-.245-17.666s.109-17.668.245-17.668.245,7.908.245,17.668S302.769,560.43,302.634,560.43Z" fill="none" stroke="#000" stroke-miterlimit="10" stroke-width="1"/><path d="M311.285,537.371a85.564,85.564,0,0,1-9.167.246,85.572,85.572,0,0,1-9.169-.246,86.1,86.1,0,0,1,9.169-.245A86.091,86.091,0,0,1,311.285,537.371Z" fill="none" stroke="#000" stroke-miterlimit="10" stroke-width="1"/><path d="M311.382,550.008a87.5,87.5,0,0,1-9.243.245,87.5,87.5,0,0,1-9.244-.245,87.5,87.5,0,0,1,9.244-.245A87.5,87.5,0,0,1,311.382,550.008Z" fill="none" stroke="#000" stroke-miterlimit="10" stroke-width="1"/></g><g transform="translate(-5.401)"><rect width="51.819" height="219.135" transform="translate(1002.007 362.016)" fill="#ececec"/><rect width="15.75" height="30.351" transform="translate(1011.665 377.376)" fill="#fff"/><path d="M1019.984,407.727c-.116,0-.211-6.795-.211-15.175s.095-15.176.211-15.176.21,6.794.21,15.176S1020.1,407.727,1019.984,407.727Z" fill="none" stroke="#000" stroke-miterlimit="10" stroke-width="1"/><path d="M1027.415,387.921a147.747,147.747,0,0,1-15.75,0,147.064,147.064,0,0,1,15.75,0Z" fill="none" stroke="#000" stroke-miterlimit="10" stroke-width="1"/><path d="M1027.5,398.775a150.2,150.2,0,0,1-15.879,0,149.481,149.481,0,0,1,15.879,0Z" fill="none" stroke="#000" stroke-miterlimit="10" stroke-width="1"/><rect width="15.75" height="30.35" transform="translate(1011.665 417.02)" fill="#fff"/><path d="M1019.984,447.371c-.116,0-.211-6.8-.211-15.175s.095-15.176.211-15.176.21,6.793.21,15.176S1020.1,447.371,1019.984,447.371Z" fill="none" stroke="#000" stroke-miterlimit="10" stroke-width="1"/><path d="M1027.415,427.565a147.768,147.768,0,0,1-15.75,0,147.064,147.064,0,0,1,15.75,0Z" fill="none" stroke="#000" stroke-miterlimit="10" stroke-width="1"/><path d="M1027.5,438.419a150.2,150.2,0,0,1-15.879,0,149.481,149.481,0,0,1,15.879,0Z" fill="none" stroke="#000" stroke-miterlimit="10" stroke-width="1"/><rect width="15.75" height="30.351" transform="translate(1011.665 456.664)" fill="#fff"/><path d="M1019.984,487.015c-.116,0-.211-6.8-.211-15.175s.095-15.176.211-15.176.21,6.793.21,15.176S1020.1,487.015,1019.984,487.015Z" fill="none" stroke="#000" stroke-miterlimit="10" stroke-width="1"/><path d="M1027.415,467.208a147.064,147.064,0,0,1-15.75,0,147.747,147.747,0,0,1,15.75,0Z" fill="none" stroke="#000" stroke-miterlimit="10" stroke-width="1"/><path d="M1027.5,478.063a150.175,150.175,0,0,1-15.879,0,149.481,149.481,0,0,1,15.879,0Z" fill="none" stroke="#000" stroke-miterlimit="10" stroke-width="1"/><rect width="15.75" height="30.35" transform="translate(1011.665 496.308)" fill="#fff"/><path d="M1019.984,526.659c-.116,0-.211-6.795-.211-15.175s.095-15.176.211-15.176.21,6.793.21,15.176S1020.1,526.659,1019.984,526.659Z" fill="none" stroke="#000" stroke-miterlimit="10" stroke-width="1"/><path d="M1027.415,506.852a147.064,147.064,0,0,1-15.75,0,147.768,147.768,0,0,1,15.75,0Z" fill="none" stroke="#000" stroke-miterlimit="10" stroke-width="1"/><path d="M1027.5,517.707a150.175,150.175,0,0,1-15.879,0,149.481,149.481,0,0,1,15.879,0Z" fill="none" stroke="#000" stroke-miterlimit="10" stroke-width="1"/><rect width="37.756" height="219.135" transform="translate(1038.107 362.016)" fill="none" stroke="#000" stroke-miterlimit="10" stroke-width="1"/><rect width="15.75" height="30.351" transform="translate(1049.832 377.376)" fill="#fff"/><path d="M1058.151,407.727c-.117,0-.211-6.795-.211-15.175s.094-15.176.211-15.176.21,6.794.21,15.176S1058.267,407.727,1058.151,407.727Z" fill="none" stroke="#000" stroke-miterlimit="10" stroke-width="1"/><path d="M1065.582,387.921a147.746,147.746,0,0,1-15.75,0,147.063,147.063,0,0,1,15.75,0Z" fill="none" stroke="#000" stroke-miterlimit="10" stroke-width="1"/><path d="M1065.665,398.775a150.215,150.215,0,0,1-15.88,0,149.5,149.5,0,0,1,15.88,0Z" fill="none" stroke="#000" stroke-miterlimit="10" stroke-width="1"/><rect width="15.75" height="30.35" transform="translate(1049.832 417.346)" fill="#fff"/><path d="M1058.151,447.7c-.117,0-.211-6.8-.211-15.175s.094-15.175.211-15.175.21,6.793.21,15.175S1058.267,447.7,1058.151,447.7Z" fill="none" stroke="#000" stroke-miterlimit="10" stroke-width="1"/><path d="M1065.582,427.89a147.767,147.767,0,0,1-15.75,0,147.042,147.042,0,0,1,15.75,0Z" fill="none" stroke="#000" stroke-miterlimit="10" stroke-width="1"/><path d="M1065.665,438.744a149.5,149.5,0,0,1-15.88,0,150.215,150.215,0,0,1,15.88,0Z" fill="none" stroke="#000" stroke-miterlimit="10" stroke-width="1"/><rect width="15.75" height="30.351" transform="translate(1049.832 457.315)" fill="#fff"/><path d="M1058.151,487.665c-.117,0-.211-6.8-.211-15.174s.094-15.176.211-15.176.21,6.793.21,15.176S1058.267,487.665,1058.151,487.665Z" fill="none" stroke="#000" stroke-miterlimit="10" stroke-width="1"/><path d="M1065.582,467.859a147.063,147.063,0,0,1-15.75,0,147.746,147.746,0,0,1,15.75,0Z" fill="none" stroke="#000" stroke-miterlimit="10" stroke-width="1"/><path d="M1065.665,478.713a149.5,149.5,0,0,1-15.88,0,150.193,150.193,0,0,1,15.88,0Z" fill="none" stroke="#000" stroke-miterlimit="10" stroke-width="1"/><rect width="15.75" height="30.35" transform="translate(1049.832 497.284)" fill="#fff"/><path d="M1058.151,527.634c-.117,0-.211-6.794-.211-15.174s.094-15.176.211-15.176.21,6.793.21,15.176S1058.267,527.634,1058.151,527.634Z" fill="none" stroke="#000" stroke-miterlimit="10" stroke-width="1"/><path d="M1065.582,507.828a147.063,147.063,0,0,1-15.75,0,147.767,147.767,0,0,1,15.75,0Z" fill="none" stroke="#000" stroke-miterlimit="10" stroke-width="1"/><path d="M1065.665,518.683a150.193,150.193,0,0,1-15.88,0,149.5,149.5,0,0,1,15.88,0Z" fill="none" stroke="#000" stroke-miterlimit="10" stroke-width="1"/><rect width="15.75" height="30.351" transform="translate(1011.665 535.952)" fill="#fff"/><path d="M1019.984,566.3c-.116,0-.211-6.795-.211-15.175s.095-15.176.211-15.176.21,6.793.21,15.176S1020.1,566.3,1019.984,566.3Z" fill="none" stroke="#000" stroke-miterlimit="10" stroke-width="1"/><path d="M1027.415,546.5a147.064,147.064,0,0,1-15.75,0,147.79,147.79,0,0,1,15.75,0Z" fill="none" stroke="#000" stroke-miterlimit="10" stroke-width="1"/><path d="M1027.5,557.351a150.218,150.218,0,0,1-15.879,0,149.481,149.481,0,0,1,15.879,0Z" fill="none" stroke="#000" stroke-miterlimit="10" stroke-width="1"/><rect width="15.75" height="30.351" transform="translate(1049.832 537.253)" fill="#fff"/><path d="M1058.151,567.6c-.117,0-.211-6.795-.211-15.175s.094-15.176.211-15.176.21,6.793.21,15.176S1058.267,567.6,1058.151,567.6Z" fill="none" stroke="#000" stroke-miterlimit="10" stroke-width="1"/><path d="M1065.582,547.8a147.063,147.063,0,0,1-15.75,0,147.746,147.746,0,0,1,15.75,0Z" fill="none" stroke="#000" stroke-miterlimit="10" stroke-width="1"/><path d="M1065.665,558.652a150.193,150.193,0,0,1-15.88,0,149.5,149.5,0,0,1,15.88,0Z" fill="none" stroke="#000" stroke-miterlimit="10" stroke-width="1"/></g><g transform="translate(-5.401)"><path d="M978.484,393.263c.37-2.69-3.425-4.9-6.277-5.132a16.124,16.124,0,0,1-4.061-.35c-2.791-.973-3.906-4.58-6.63-5.729-2.037-.858-4.381-.094-6.355.9s-3.925,2.244-6.131,2.385c-1.918.123-4-.589-5.68.348-1.251.7-1.906,2.14-3.059,2.99a7.294,7.294,0,0,1-4,1.084,11.289,11.289,0,0,0-4.122.674,3.256,3.256,0,0,0-2.064,3.307Z" fill="#f5f5f5"/></g><g transform="translate(-5.401)"><path d="M138.38,316.14c.7-5.053-6.435-9.21-11.794-9.642-2.555-.206-5.209.185-7.63-.659-5.245-1.828-7.34-8.6-12.458-10.763-3.826-1.613-8.231-.177-11.941,1.69s-7.375,4.216-11.519,4.482c-3.605.23-7.519-1.106-10.673.654-2.35,1.313-3.581,4.021-5.747,5.618-2.119,1.563-4.884,1.894-7.513,2.037s-5.351.17-7.746,1.266-4.374,3.628-3.878,6.214Z" fill="#f5f5f5"/></g><g transform="translate(-5.401)"><path d="M1007.288,316.433c.546-3.972-5.059-7.239-9.271-7.579-2.009-.162-4.1.146-6-.518-4.123-1.437-5.77-6.763-9.793-8.46-3.007-1.269-6.47-.139-9.386,1.328s-5.8,3.314-9.055,3.523c-2.833.181-5.91-.87-8.389.515-1.848,1.031-2.816,3.16-4.518,4.416a10.788,10.788,0,0,1-5.906,1.6,16.622,16.622,0,0,0-6.089.995c-1.882.862-3.439,2.852-3.048,4.884Z" fill="#f5f5f5"/></g><g transform="translate(-5.401)"><path d="M1257.445,315.734c-.017.048-.516-.135-1.444-.322a11.673,11.673,0,0,0-3.967-.1,10.719,10.719,0,0,0-5.309,2.324,11.075,11.075,0,0,0-3.739,5.958l-.017.066-.227.883-.339-.838a11.924,11.924,0,0,0-4.484-5.432,11.585,11.585,0,0,0-5.486-1.862,15.264,15.264,0,0,0-5.374.683,4.608,4.608,0,0,1,1.365-.593,11.493,11.493,0,0,1,4.035-.509,11.688,11.688,0,0,1,5.757,1.821,12.237,12.237,0,0,1,4.739,5.67l-.566.045.018-.069a11.422,11.422,0,0,1,3.974-6.249,11.026,11.026,0,0,1,9.673-2.019A4.47,4.47,0,0,1,1257.445,315.734Z" fill="none" stroke="#000" stroke-miterlimit="10" stroke-width="1"/></g><g transform="translate(-5.401)"><path d="M209.082,316.133a17.25,17.25,0,0,1-1.315,1.518,32.988,32.988,0,0,0-3.227,4.382,31.967,31.967,0,0,0-4.8,17.016c0,.074,0,.147,0,.214l-.592.049a28.585,28.585,0,0,0-7.834-15.615,39.382,39.382,0,0,0-5.722-4.639,1.7,1.7,0,0,1,.47.215c.293.167.748.38,1.282.739a25.431,25.431,0,0,1,4.267,3.389,28.132,28.132,0,0,1,8.126,15.825l-.592.049,0-.218a31.293,31.293,0,0,1,5.035-17.249,28.387,28.387,0,0,1,3.411-4.313c.44-.478.83-.8,1.078-1.036S209.067,316.118,209.082,316.133Z" fill="none" stroke="#000" stroke-miterlimit="10" stroke-width="1"/></g><g transform="translate(-5.401)"><path d="M87.56,213.714c-.021.059-1.029-.355-2.932-.778a23.452,23.452,0,0,0-8.183-.315,22.044,22.044,0,0,0-11.027,4.756,22.868,22.868,0,0,0-7.783,12.358l-.035.137-.227.883-.339-.837a24.58,24.58,0,0,0-9.319-11.253,23.8,23.8,0,0,0-11.381-3.794,25.17,25.17,0,0,0-8.131.744c-1.877.5-2.869.931-2.891.875a3.979,3.979,0,0,1,.708-.341,17.676,17.676,0,0,1,2.121-.756,24.3,24.3,0,0,1,19.871,2.813,24.889,24.889,0,0,1,9.573,11.49l-.566.045.037-.141a23.224,23.224,0,0,1,8.017-12.649A22.193,22.193,0,0,1,76.391,212.2a22.548,22.548,0,0,1,8.29.507,16.621,16.621,0,0,1,2.158.683A4.009,4.009,0,0,1,87.56,213.714Z" fill="none" stroke="#000" stroke-miterlimit="10" stroke-width="1"/><path d="M175.834,181.866c-.018.049-.578-.162-1.624-.377a13.1,13.1,0,0,0-4.477-.131,12.1,12.1,0,0,0-6,2.618,12.5,12.5,0,0,0-4.228,6.732l-.02.074-.227.883-.339-.837a13.448,13.448,0,0,0-5.068-6.136,13.065,13.065,0,0,0-6.2-2.1,14.128,14.128,0,0,0-4.452.365c-1.032.256-1.584.479-1.6.432-.008-.019.123-.092.38-.213a8.73,8.73,0,0,1,1.162-.441,13,13,0,0,1,4.541-.562,13.153,13.153,0,0,1,6.469,2.056,13.76,13.76,0,0,1,5.323,6.373l-.566.045.02-.078a12.857,12.857,0,0,1,4.463-7.023,12.432,12.432,0,0,1,10.874-2.287,8.347,8.347,0,0,1,1.184.4C175.709,181.778,175.842,181.847,175.834,181.866Z" fill="none" stroke="#000" stroke-miterlimit="10" stroke-width="1"/><path d="M115.884,150.443c.036.037-.56.642-1.573,1.784a38.449,38.449,0,0,0-3.84,5.184,37.8,37.8,0,0,0-5.7,20.177l0,.254-.592.049a33.185,33.185,0,0,0-3.689-10.928A34.453,34.453,0,0,0,90,155.246c-1.243-.859-1.963-1.292-1.936-1.338a2.352,2.352,0,0,1,.551.263c.345.2.883.457,1.513.884a30.4,30.4,0,0,1,5.037,4.024,33.346,33.346,0,0,1,9.6,18.726l-.592.049,0-.259a37.122,37.122,0,0,1,5.942-20.409,33.956,33.956,0,0,1,4.024-5.116c.518-.568.978-.953,1.268-1.233A2.356,2.356,0,0,1,115.884,150.443Z" fill="none" stroke="#000" stroke-miterlimit="10" stroke-width="1"/></g><g transform="translate(-5.401)"><rect width="27.305" height="39.464" transform="translate(1233.549 431.229) rotate(180)" fill="none" stroke="#000" stroke-miterlimit="10" stroke-width="1"/><rect width="27.305" height="39.464" transform="translate(1208.985 431.229) rotate(180)" fill="none" stroke="#000" stroke-miterlimit="10" stroke-width="1"/><path d="M1188.206,423.263a2.775,2.775,0,0,1-.022-.4c-.005-.307-.013-.71-.022-1.218-.012-1.11-.029-2.671-.05-4.624-.022-4.025-.053-9.657-.089-16.242v-.183h.185l12.39-.012c-.04-.044.372.374.2.2v1.6q0,.8,0,1.589,0,1.578,0,3.113c0,2.044-.007,4.025-.01,5.924-.012,3.792-.024,7.258-.034,10.257v.151h-.15l-9.1-.08-2.456-.037-.631-.017a.832.832,0,0,1-.2-.016,1.616,1.616,0,0,1,.236-.015l.658-.017,2.49-.038,9.008-.079-.149.149c-.01-3-.022-6.465-.034-10.257,0-1.9-.006-3.88-.01-5.924q0-1.535,0-3.113v-3.19c-.176-.176.241.234.2.192l-12.39-.013.183-.183c-.036,6.535-.067,12.125-.089,16.12-.021,1.971-.038,3.546-.05,4.666-.009.523-.017.939-.022,1.255A3.665,3.665,0,0,1,1188.206,423.263Z" fill="none" stroke="#000" stroke-miterlimit="10" stroke-width="1"/><path d="M1190.687,413.231c-.006-.052.294-.049.45.315a.7.7,0,0,1-.067.66.73.73,0,0,1-1.292-.455.7.7,0,0,1,.362-.556c.349-.186.585,0,.547.036-.018.054-.207.021-.39.193a.353.353,0,0,0,.1.633c.343.126.525-.177.475-.431C1190.836,413.377,1190.668,413.284,1190.687,413.231Z" fill="none" stroke="#000" stroke-miterlimit="10" stroke-width="1"/><rect width="113.226" height="152.607" transform="translate(1266.794 575.871) rotate(180)" fill="none" stroke="#000" stroke-miterlimit="10" stroke-width="1"/><path d="M1221.45,575.871l60.728.073V423.263H1221.45Z" fill="none" stroke="#000" stroke-miterlimit="10" stroke-width="1"/><rect width="20.711" height="20.711" transform="translate(1182.586 526.773) rotate(180)" fill="#ececec"/><path d="M1171.437,528.85c-.109,0-.2-5.351-.2-11.951s.087-11.952.2-11.952.2,5.35.2,11.952S1171.545,528.85,1171.437,528.85Z" fill="none" stroke="#000" stroke-miterlimit="10" stroke-width="1"/><path d="M1157.985,513.007c0-.109,6.023-.2,13.451-.2s13.452.088,13.452.2-6.021.2-13.452.2S1157.985,513.115,1157.985,513.007Z" fill="none" stroke="#000" stroke-miterlimit="10" stroke-width="1"/><rect width="20.711" height="20.711" transform="translate(1212.121 526.773) rotate(180)" fill="#ececec"/><path d="M1200.972,528.85c-.108,0-.2-5.351-.2-11.951s.088-11.952.2-11.952.2,5.35.2,11.952S1201.081,528.85,1200.972,528.85Z" fill="none" stroke="#000" stroke-miterlimit="10" stroke-width="1"/><path d="M1187.521,513.007c0-.109,6.023-.2,13.451-.2s13.452.088,13.452.2-6.022.2-13.452.2S1187.521,513.115,1187.521,513.007Z" fill="none" stroke="#000" stroke-miterlimit="10" stroke-width="1"/><rect width="20.711" height="20.711" transform="translate(1182.586 494.057) rotate(180)" fill="#ececec"/><path d="M1171.437,496.134c-.109,0-.2-5.351-.2-11.951s.087-11.953.2-11.953.2,5.351.2,11.953S1171.545,496.134,1171.437,496.134Z" fill="none" stroke="#000" stroke-miterlimit="10" stroke-width="1"/><path d="M1157.985,480.29c0-.108,6.023-.2,13.451-.2s13.452.088,13.452.2-6.021.2-13.452.2S1157.985,480.4,1157.985,480.29Z" fill="none" stroke="#000" stroke-miterlimit="10" stroke-width="1"/><rect width="20.711" height="20.711" transform="translate(1212.121 494.057) rotate(180)" fill="#ececec"/><path d="M1200.972,496.134c-.108,0-.2-5.351-.2-11.951s.088-11.953.2-11.953.2,5.351.2,11.953S1201.081,496.134,1200.972,496.134Z" fill="none" stroke="#000" stroke-miterlimit="10" stroke-width="1"/><path d="M1187.521,480.29c0-.108,6.023-.2,13.451-.2s13.452.088,13.452.2-6.022.2-13.452.2S1187.521,480.4,1187.521,480.29Z" fill="none" stroke="#000" stroke-miterlimit="10" stroke-width="1"/><rect width="20.711" height="20.711" transform="translate(1182.586 461.265) rotate(180)" fill="#ececec"/><path d="M1171.437,463.342c-.109,0-.2-5.351-.2-11.951s.087-11.952.2-11.952.2,5.35.2,11.952S1171.545,463.342,1171.437,463.342Z" fill="none" stroke="#000" stroke-miterlimit="10" stroke-width="1"/><path d="M1157.985,447.5c0-.108,6.023-.2,13.451-.2s13.452.088,13.452.2-6.021.2-13.452.2S1157.985,447.607,1157.985,447.5Z" fill="none" stroke="#000" stroke-miterlimit="10" stroke-width="1"/><rect width="20.711" height="20.711" transform="translate(1212.121 461.265) rotate(180)" fill="#ececec"/><path d="M1200.972,463.342c-.108,0-.2-5.351-.2-11.951s.088-11.952.2-11.952.2,5.35.2,11.952S1201.081,463.342,1200.972,463.342Z" fill="none" stroke="#000" stroke-miterlimit="10" stroke-width="1"/><path d="M1187.521,447.5c0-.108,6.023-.2,13.451-.2s13.452.088,13.452.2-6.022.2-13.452.2S1187.521,447.607,1187.521,447.5Z" fill="none" stroke="#000" stroke-miterlimit="10" stroke-width="1"/><g opacity="0.7"><rect width="20.711" height="20.711" transform="translate(1262.964 461.265) rotate(180)" fill="#fff"/></g><path d="M1252.608,463.342c-.108,0-.2-5.351-.2-11.951s.088-11.952.2-11.952.2,5.35.2,11.952S1252.716,463.342,1252.608,463.342Z" fill="none" stroke="#000" stroke-miterlimit="10" stroke-width="1"/><path d="M1238.363,447.5c0-.108,6.023-.2,13.451-.2s13.452.088,13.452.2-6.022.2-13.452.2S1238.363,447.607,1238.363,447.5Z" fill="none" stroke="#000" stroke-miterlimit="10" stroke-width="1"/><g opacity="0.7"><rect width="20.711" height="20.711" transform="translate(1262.964 494.38) rotate(180)" fill="#fff"/></g><path d="M1252.608,496.457c-.108,0-.2-5.351-.2-11.951s.088-11.953.2-11.953.2,5.351.2,11.953S1252.716,496.457,1252.608,496.457Z" fill="none" stroke="#000" stroke-miterlimit="10" stroke-width="1"/><path d="M1238.363,480.613c0-.108,6.023-.2,13.451-.2s13.452.088,13.452.2-6.022.2-13.452.2S1238.363,480.722,1238.363,480.613Z" fill="none" stroke="#000" stroke-miterlimit="10" stroke-width="1"/><g opacity="0.7"><rect width="20.711" height="20.711" transform="translate(1262.964 527.495) rotate(180)" fill="#fff"/></g><path d="M1252.608,529.572c-.108,0-.2-5.351-.2-11.951s.088-11.953.2-11.953.2,5.351.2,11.953S1252.716,529.572,1252.608,529.572Z" fill="none" stroke="#000" stroke-miterlimit="10" stroke-width="1"/><path d="M1238.363,513.728c0-.108,6.023-.2,13.451-.2s13.452.088,13.452.2-6.022.2-13.452.2S1238.363,513.837,1238.363,513.728Z" fill="none" stroke="#000" stroke-miterlimit="10" stroke-width="1"/><path d="M1177.312,575.836a.716.716,0,0,1-.017-.185c-.005-.143-.01-.323-.017-.547q-.012-.761-.032-2.115c-.014-1.87-.033-4.546-.057-7.883-.017-6.737-.041-16.137-.068-26.907v-.191h.192L1188.1,538l10.439.005h.192v.191c-.027,10.857-.05,20.345-.067,27.147-.025,3.37-.044,6.074-.057,7.962-.014.912-.025,1.626-.033,2.138l-.017.552a.8.8,0,0,1-.017.188.763.763,0,0,1-.018-.188l-.017-.552c-.007-.512-.018-1.226-.032-2.138-.014-1.888-.033-4.592-.057-7.962-.017-6.8-.041-16.29-.068-27.147l.192.192-10.439.005-10.785-.005.191-.192c-.027,10.77-.051,20.17-.068,26.907-.024,3.337-.043,6.013-.056,7.883q-.021,1.353-.033,2.115c-.007.224-.012.4-.017.547A.716.716,0,0,1,1177.312,575.836Z" fill="none" stroke="#000" stroke-miterlimit="10" stroke-width="1"/><rect width="7.234" height="17.315" transform="translate(1195.865 557.749) rotate(180)" fill="none" stroke="#000" stroke-miterlimit="10" stroke-width="1"/><path d="M1195.884,557.768h-7.272V540.414h7.272Zm-7.234-.038h7.2V540.453h-7.2Z" fill="none" stroke="#000" stroke-miterlimit="10" stroke-width="1"/><rect width="7.234" height="17.315" transform="translate(1187.217 557.749) rotate(180)" fill="none" stroke="#000" stroke-miterlimit="10" stroke-width="1"/><path d="M1187.236,557.768h-7.272V540.414h7.272ZM1180,557.73h7.2V540.453H1180Z" fill="none" stroke="#000" stroke-miterlimit="10" stroke-width="1"/><path d="M1179.835,559.54c.013.062-.353.058-.523.467a.845.845,0,0,0,0,.7.691.691,0,0,0,.692.345.72.72,0,0,0,.523-.585.675.675,0,0,0-.244-.624c-.34-.288-.674-.215-.68-.275-.035-.034.336-.255.845.052a.944.944,0,0,1,.438.892,1.052,1.052,0,0,1-.805.924,1.024,1.024,0,0,1-1.09-.564,1.068,1.068,0,0,1,.071-.988.753.753,0,0,1,.534-.384C1179.757,559.478,1179.836,559.517,1179.835,559.54Z" fill="none" stroke="#000" stroke-miterlimit="10" stroke-width="1"/><path d="M1157.573,538.2s-.007-.079-.011-.242c0-.206-.007-.444-.012-.724-.007-.707-.016-1.628-.028-2.755v-.05h.051l12.083-.028c.035.035-.078-.079.079.078h0v1.9c0,.621,0,1.229,0,1.82v.077h-.077l-8.671-.036-2.518-.021-.669-.01a1.573,1.573,0,0,1-.225-.01s.086-.006.244-.009l.685-.01,2.535-.022,8.619-.035-.076.076c0-.591,0-1.2,0-1.82,0-.311,0-.626,0-.943v-.957h0c.157.157.043.044.078.079l-12.083-.029.05-.05c-.011,1.115-.021,2.026-.028,2.725-.005.284-.008.526-.012.735C1157.579,538.1,1157.573,538.2,1157.573,538.2Z" fill="none" stroke="#000" stroke-miterlimit="10" stroke-width="1"/><path d="M1204.58,530.495s-.007-.08-.01-.243c0-.206-.008-.444-.013-.724-.007-.707-.016-1.628-.027-2.754v-.051h.051l12.083-.028c.036.035-.077-.079.08.079h0v1.9c0,.621,0,1.23,0,1.821v.076h-.076l-8.672-.035-2.518-.022-.669-.01a2.044,2.044,0,0,1-.225-.009s.087-.007.244-.01l.685-.01,2.536-.022,8.619-.035-.076.077c0-.591,0-1.2,0-1.821v-1.9h0c.157.156.043.043.077.078l-12.083-.028.05-.05c-.011,1.114-.02,2.025-.027,2.724-.005.285-.009.526-.013.735C1204.587,530.4,1204.58,530.495,1204.58,530.495Z" fill="none" stroke="#000" stroke-miterlimit="10" stroke-width="1"/><path d="M1212.121,500.211s-.006-.079-.01-.242c0-.206-.008-.444-.012-.724-.007-.707-.017-1.628-.028-2.755v-.05h.05l12.084-.028c.035.035-.078-.079.079.078h0v.957c0,.317,0,.632,0,.943,0,.621,0,1.229,0,1.82v.077h-.077l-8.672-.036-2.517-.021-.67-.01a1.6,1.6,0,0,1-.225-.01s.087-.006.244-.009l.686-.01,2.535-.022,8.619-.035-.076.076c0-.591,0-1.2,0-1.82v-1.9h0c.157.157.043.044.078.079l-12.084-.029.051-.05c-.012,1.115-.021,2.026-.028,2.725-.005.284-.009.526-.012.735C1212.128,500.118,1212.121,500.211,1212.121,500.211Z" fill="none" stroke="#000" stroke-miterlimit="10" stroke-width="1"/><path d="M1168.679,467.618s-.007-.079-.011-.242c0-.206-.007-.444-.012-.724-.007-.707-.016-1.628-.028-2.755v-.05h.051l12.083-.029.079.079h0v.957c0,.317,0,.632,0,.942q0,.933,0,1.821v.077h-.077l-8.671-.035-2.518-.021-.669-.01a1.792,1.792,0,0,1-.225-.01s.086-.006.243-.01l.686-.009,2.535-.022,8.619-.035-.076.076q0-.887,0-1.821c0-.31,0-.625,0-.942V463.9h0l.078.078-12.083-.028.05-.05c-.011,1.115-.021,2.025-.028,2.724-.005.285-.009.527-.012.736C1168.685,467.525,1168.679,467.618,1168.679,467.618Z" fill="none" stroke="#000" stroke-miterlimit="10" stroke-width="1"/><path d="M1203.065,432.831s-.007-.079-.01-.242c0-.206-.008-.444-.013-.724-.007-.707-.016-1.628-.027-2.755v-.05h.051l12.083-.029c.036.035-.077-.078.08.079h0v1.9q0,.933,0,1.821v.077h-.076l-8.672-.035-2.518-.021-.669-.01a1.82,1.82,0,0,1-.225-.01s.087-.006.244-.01l.685-.009,2.536-.022,8.619-.035-.076.076q0-.887,0-1.821v-1.9h0c.157.157.042.043.077.078l-12.083-.028.05-.05c-.011,1.115-.02,2.025-.027,2.724-.005.285-.009.527-.013.736C1203.072,432.738,1203.065,432.831,1203.065,432.831Z" fill="none" stroke="#000" stroke-miterlimit="10" stroke-width="1"/><path d="M1161.356,471.222s-.006-.08-.01-.243c0-.206-.008-.444-.012-.724-.007-.707-.017-1.628-.028-2.754v-.051h.05l12.084-.028c.035.035-.078-.079.079.079h0v.956c0,.317,0,.631,0,.942,0,.621,0,1.23,0,1.821v.076h-.077l-8.672-.035-2.517-.022-.67-.01a2.021,2.021,0,0,1-.225-.009s.087-.007.244-.01l.686-.01,2.535-.021,8.619-.036-.076.077c0-.591,0-1.2,0-1.821v-1.9h0c.157.156.043.043.078.078l-12.084-.028.051-.05c-.012,1.114-.021,2.025-.028,2.724-.005.285-.009.526-.012.735C1161.363,471.129,1161.356,471.222,1161.356,471.222Z" fill="none" stroke="#000" stroke-miterlimit="10" stroke-width="1"/><path d="M1217.305,503.857s-.006-.079-.01-.242c0-.207-.007-.444-.012-.725-.007-.706-.016-1.627-.028-2.754v-.05h.051l12.083-.028.079.079h0v.957q0,.476,0,.942,0,.933,0,1.821v.077h-.077l-8.672-.035-2.517-.021-.669-.01a2.146,2.146,0,0,1-.226-.01s.087-.006.244-.01l.686-.01,2.535-.021,8.619-.035-.076.076q0-.887,0-1.821,0-.467,0-.942v-.957h0l.078.078-12.083-.028.05-.05c-.012,1.114-.021,2.025-.028,2.724-.005.285-.009.526-.012.736C1217.312,503.764,1217.305,503.857,1217.305,503.857Z" fill="none" stroke="#000" stroke-miterlimit="10" stroke-width="1"/><path d="M1212.121,436.552s-.006-.079-.01-.242c0-.206-.008-.444-.012-.724-.007-.707-.017-1.628-.028-2.755v-.05h.05l12.084-.028c.035.035-.078-.079.079.078h0v.957c0,.317,0,.632,0,.943,0,.621,0,1.229,0,1.82v.077h-.077l-8.672-.035-2.517-.022-.67-.01a1.6,1.6,0,0,1-.225-.01s.087-.006.244-.009l.686-.01,2.535-.022,8.619-.035-.076.076c0-.591,0-1.2,0-1.82v-1.9h0c.157.157.043.044.078.079l-12.084-.029.051-.05c-.012,1.115-.021,2.026-.028,2.725-.005.284-.009.526-.012.735C1212.128,436.46,1212.121,436.552,1212.121,436.552Z" fill="none" stroke="#000" stroke-miterlimit="10" stroke-width="1"/><path d="M1153.653,541.923s-.007-.08-.01-.243c0-.206-.008-.444-.013-.724-.007-.707-.016-1.628-.027-2.754v-.051h.051l12.083-.028c.035.035-.077-.079.079.079h0v1.9q0,.933,0,1.821V542h-.076l-8.672-.035-2.518-.022-.669-.01a2,2,0,0,1-.225-.009s.087-.007.244-.01l.685-.01,2.536-.021,8.619-.036-.076.077q0-.887,0-1.821v-1.9h0c.157.156.043.043.078.078l-12.083-.028.05-.05c-.011,1.114-.02,2.025-.027,2.724-.005.285-.009.526-.013.735C1153.66,541.83,1153.653,541.923,1153.653,541.923Z" fill="none" stroke="#000" stroke-miterlimit="10" stroke-width="1"/></g><g transform="translate(-5.401)"><rect width="139.507" height="224.473" transform="translate(145.077 571.274) rotate(180)" fill="none" stroke="#000" stroke-miterlimit="10" stroke-width="1"/><path d="M89.209,571.274l74.824.108V346.8H89.209Z" fill="none" stroke="#000" stroke-miterlimit="10" stroke-width="1"/><rect width="25.519" height="25.518" transform="translate(41.324 510.798) rotate(180)" fill="#ececec"/><path d="M27.587,513.358c-.134,0-.242-6.594-.242-14.726s.108-14.726.242-14.726.242,6.592.242,14.726S27.72,513.358,27.587,513.358Z" fill="none" stroke="#000" stroke-miterlimit="10" stroke-width="1"/><path d="M11.013,493.836c0-.133,7.421-.241,16.573-.241s16.574.108,16.574.241-7.419.242-16.574.242S11.013,493.97,11.013,493.836Z" fill="none" stroke="#000" stroke-miterlimit="10" stroke-width="1"/><rect width="25.518" height="25.518" transform="translate(77.715 510.798) rotate(180)" fill="#ececec"/><path d="M63.978,513.358c-.133,0-.242-6.594-.242-14.726s.109-14.726.242-14.726.242,6.592.242,14.726S64.112,513.358,63.978,513.358Z" fill="none" stroke="#000" stroke-miterlimit="10" stroke-width="1"/><path d="M47.4,493.836c0-.133,7.421-.241,16.573-.241s16.575.108,16.575.241-7.42.242-16.575.242S47.4,493.97,47.4,493.836Z" fill="none" stroke="#000" stroke-miterlimit="10" stroke-width="1"/><rect width="25.519" height="25.518" transform="translate(41.324 470.488) rotate(180)" fill="#ececec"/><path d="M27.587,473.047c-.134,0-.242-6.593-.242-14.725s.108-14.727.242-14.727.242,6.593.242,14.727S27.72,473.047,27.587,473.047Z" fill="none" stroke="#000" stroke-miterlimit="10" stroke-width="1"/><path d="M11.013,453.526c0-.133,7.421-.242,16.573-.242s16.574.109,16.574.242-7.419.242-16.574.242S11.013,453.66,11.013,453.526Z" fill="none" stroke="#000" stroke-miterlimit="10" stroke-width="1"/><rect width="25.518" height="25.518" transform="translate(77.715 470.488) rotate(180)" fill="#ececec"/><path d="M63.978,473.047c-.133,0-.242-6.593-.242-14.725s.109-14.727.242-14.727.242,6.593.242,14.727S64.112,473.047,63.978,473.047Z" fill="none" stroke="#000" stroke-miterlimit="10" stroke-width="1"/><path d="M47.4,453.526c0-.133,7.421-.242,16.573-.242s16.575.109,16.575.242-7.42.242-16.575.242S47.4,453.66,47.4,453.526Z" fill="none" stroke="#000" stroke-miterlimit="10" stroke-width="1"/><rect width="25.519" height="25.518" transform="translate(41.324 430.085) rotate(180)" fill="#ececec"/><path d="M27.587,432.644c-.134,0-.242-6.593-.242-14.725s.108-14.727.242-14.727.242,6.592.242,14.727S27.72,432.644,27.587,432.644Z" fill="none" stroke="#000" stroke-miterlimit="10" stroke-width="1"/><path d="M11.013,413.123c0-.134,7.421-.242,16.573-.242s16.574.108,16.574.242-7.419.242-16.574.242S11.013,413.256,11.013,413.123Z" fill="none" stroke="#000" stroke-miterlimit="10" stroke-width="1"/><rect width="25.518" height="25.518" transform="translate(77.715 430.085) rotate(180)" fill="#ececec"/><path d="M63.978,432.644c-.133,0-.242-6.593-.242-14.725s.109-14.727.242-14.727.242,6.592.242,14.727S64.112,432.644,63.978,432.644Z" fill="none" stroke="#000" stroke-miterlimit="10" stroke-width="1"/><path d="M47.4,413.123c0-.134,7.421-.242,16.573-.242s16.575.108,16.575.242-7.42.242-16.575.242S47.4,413.256,47.4,413.123Z" fill="none" stroke="#000" stroke-miterlimit="10" stroke-width="1"/><g opacity="0.7"><rect width="25.518" height="25.518" transform="translate(140.358 430.085) rotate(180)" fill="#fff"/></g><path d="M127.6,432.644c-.134,0-.242-6.593-.242-14.725s.108-14.727.242-14.727.242,6.592.242,14.727S127.732,432.644,127.6,432.644Z" fill="none" stroke="#000" stroke-miterlimit="10" stroke-width="1"/><path d="M110.048,413.123c0-.134,7.421-.242,16.572-.242s16.575.108,16.575.242-7.419.242-16.575.242S110.048,413.256,110.048,413.123Z" fill="none" stroke="#000" stroke-miterlimit="10" stroke-width="1"/><rect width="25.519" height="25.518" transform="translate(41.324 389.093) rotate(180)" fill="#ececec"/><path d="M27.587,391.652c-.134,0-.242-6.594-.242-14.726s.108-14.726.242-14.726.242,6.592.242,14.726S27.72,391.652,27.587,391.652Z" fill="none" stroke="#000" stroke-miterlimit="10" stroke-width="1"/><path d="M11.013,372.131c0-.134,7.421-.242,16.573-.242s16.574.108,16.574.242-7.419.241-16.574.241S11.013,372.264,11.013,372.131Z" fill="none" stroke="#000" stroke-miterlimit="10" stroke-width="1"/><rect width="25.518" height="25.518" transform="translate(77.715 389.093) rotate(180)" fill="#ececec"/><path d="M63.978,391.652c-.133,0-.242-6.594-.242-14.726s.109-14.726.242-14.726.242,6.592.242,14.726S64.112,391.652,63.978,391.652Z" fill="none" stroke="#000" stroke-miterlimit="10" stroke-width="1"/><path d="M47.4,372.131c0-.134,7.421-.242,16.573-.242s16.575.108,16.575.242-7.42.241-16.575.241S47.4,372.264,47.4,372.131Z" fill="none" stroke="#000" stroke-miterlimit="10" stroke-width="1"/><g opacity="0.7"><rect width="25.518" height="25.518" transform="translate(140.358 389.093) rotate(180)" fill="#fff"/></g><path d="M127.6,391.652c-.134,0-.242-6.594-.242-14.726s.108-14.726.242-14.726.242,6.592.242,14.726S127.732,391.652,127.6,391.652Z" fill="none" stroke="#000" stroke-miterlimit="10" stroke-width="1"/><path d="M110.048,372.131c0-.134,7.421-.242,16.572-.242s16.575.108,16.575.242-7.419.241-16.575.241S110.048,372.264,110.048,372.131Z" fill="none" stroke="#000" stroke-miterlimit="10" stroke-width="1"/><g opacity="0.7"><rect width="25.518" height="25.518" transform="translate(140.358 470.886) rotate(180)" fill="#fff"/></g><path d="M127.6,473.445c-.134,0-.242-6.593-.242-14.725s.108-14.727.242-14.727.242,6.593.242,14.727S127.732,473.445,127.6,473.445Z" fill="none" stroke="#000" stroke-miterlimit="10" stroke-width="1"/><path d="M110.048,453.924c0-.133,7.421-.242,16.572-.242s16.575.109,16.575.242-7.419.242-16.575.242S110.048,454.058,110.048,453.924Z" fill="none" stroke="#000" stroke-miterlimit="10" stroke-width="1"/><g opacity="0.7"><rect width="25.518" height="25.518" transform="translate(140.358 511.688) rotate(180)" fill="#fff"/></g><path d="M127.6,514.247c-.134,0-.242-6.594-.242-14.726s.108-14.726.242-14.726.242,6.592.242,14.726S127.732,514.247,127.6,514.247Z" fill="none" stroke="#000" stroke-miterlimit="10" stroke-width="1"/><path d="M110.048,494.726c0-.134,7.421-.242,16.572-.242s16.575.108,16.575.242-7.419.241-16.575.241S110.048,494.859,110.048,494.726Z" fill="none" stroke="#000" stroke-miterlimit="10" stroke-width="1"/><path d="M34.826,571.249a.96.96,0,0,1-.021-.228l-.021-.674c-.01-.624-.023-1.495-.04-2.606-.017-2.3-.04-5.6-.07-9.713-.021-8.3-.05-19.882-.084-33.151v-.236h.237l13.287-.006,12.863.005h.237v.236c-.034,13.376-.063,25.066-.084,33.447-.029,4.153-.053,7.484-.07,9.811-.017,1.123-.03,2-.04,2.633-.009.28-.015.5-.021.681a1,1,0,0,1-.021.232.957.957,0,0,1-.022-.232l-.021-.681c-.009-.63-.022-1.51-.039-2.633-.017-2.327-.041-5.658-.071-9.811-.021-8.381-.05-20.071-.083-33.447l.236.236-12.863.005-13.287-.006.236-.235c-.034,13.269-.063,24.851-.084,33.151-.03,4.112-.054,7.41-.07,9.713-.017,1.111-.031,1.982-.04,2.606l-.021.674A.96.96,0,0,1,34.826,571.249Z" fill="none" stroke="#000" stroke-miterlimit="10" stroke-width="1"/><rect width="8.913" height="21.335" transform="translate(57.685 548.964) rotate(180)" fill="none" stroke="#000" stroke-miterlimit="10" stroke-width="1"/><path d="M57.709,548.987h-8.96V527.606h8.96ZM48.8,548.94h8.866V527.653H48.8Z" fill="none" stroke="#000" stroke-miterlimit="10" stroke-width="1"/><rect width="8.914" height="21.335" transform="translate(47.03 548.964) rotate(180)" fill="none" stroke="#000" stroke-miterlimit="10" stroke-width="1"/><path d="M47.053,548.987h-8.96V527.606h8.96Zm-8.913-.047h8.866V527.653H38.14Z" fill="none" stroke="#000" stroke-miterlimit="10" stroke-width="1"/><path d="M37.934,551.171c.016.076-.435.071-.644.575a1.038,1.038,0,0,0,0,.857.849.849,0,0,0,.853.425.885.885,0,0,0,.644-.72.83.83,0,0,0-.3-.769c-.418-.355-.83-.266-.837-.339-.044-.042.413-.314,1.041.064a1.167,1.167,0,0,1,.54,1.1,1.3,1.3,0,0,1-.992,1.138,1.265,1.265,0,0,1-1.344-.7,1.319,1.319,0,0,1,.088-1.218.928.928,0,0,1,.658-.473C37.838,551.094,37.936,551.142,37.934,551.171Z" fill="none" stroke="#000" stroke-miterlimit="10" stroke-width="1"/></g><g transform="translate(-5.401)"><rect width="65.014" height="180.661" transform="translate(264.688 571.275) rotate(180)" fill="none" stroke="#000" stroke-miterlimit="10" stroke-width="1"/><g opacity="0.4"><rect width="32.507" height="180.661" transform="translate(264.688 571.275) rotate(180)"/></g><rect width="54.188" height="180.661" transform="translate(218.954 571.275) rotate(180)" fill="none" stroke="#000" stroke-miterlimit="10" stroke-width="1"/><rect width="18.249" height="42.438" transform="translate(205.271 405.212)" fill="#fafafa"/><path d="M205.271,447.65a1.1,1.1,0,0,1-.012-.2c0-.15-.006-.346-.011-.6-.005-.55-.013-1.33-.023-2.332-.012-2.068-.03-5.049-.052-8.789-.022-7.561-.052-18.186-.088-30.527v-.186h.186l18.246-.009c.4.388.109.114.2.2v1.534q0,.771,0,1.536v3.043q0,3.021,0,5.95c0,3.9-.008,7.667-.011,11.257-.016,7.175-.029,13.649-.041,19.109v.14h-.139l-13.4-.075-3.614-.035-.931-.015a2.381,2.381,0,0,1-.308-.014,3.082,3.082,0,0,1,.336-.015l.956-.015,3.646-.034,13.311-.075-.14.139c-.011-5.46-.025-11.934-.04-19.109,0-3.59-.008-7.355-.011-11.257q0-2.926,0-5.95,0-1.511,0-3.043v-3.07c.085.084-.192-.205.192.186l-18.246-.009.186-.186c-.036,12.29-.066,22.871-.088,30.4-.022,3.757-.04,6.752-.052,8.83-.01,1.019-.018,1.812-.023,2.371-.005.258-.009.462-.012.618A1.558,1.558,0,0,1,205.271,447.65Z" fill="none" stroke="#000" stroke-miterlimit="10" stroke-width="1"/><path d="M204.98,413.891c0-.107,4.207-.195,9.4-.195s9.4.088,9.4.195-4.206.2-9.4.2S204.98,414,204.98,413.891Z" fill="none" stroke="#000" stroke-miterlimit="10" stroke-width="1"/><path d="M214.2,447.327c-.107,0-.2-7.458-.2-16.656s.088-16.658.2-16.658.195,7.457.195,16.658S214.309,447.327,214.2,447.327Z" fill="none" stroke="#000" stroke-miterlimit="10" stroke-width="1"/><rect width="18.249" height="42.438" transform="translate(172.354 405.212)" fill="#fafafa"/><path d="M172.354,447.65a1.1,1.1,0,0,1-.012-.2c0-.15-.006-.346-.011-.6-.006-.55-.013-1.33-.024-2.332-.012-2.068-.029-5.049-.051-8.789-.022-7.561-.052-18.186-.088-30.527v-.186h.187l18.246-.009c.395.388.109.114.2.2v1.534q0,.771,0,1.536v3.043q0,3.021,0,5.95c0,3.9-.008,7.667-.011,11.257-.016,7.175-.029,13.649-.041,19.109v.14H190.6l-13.4-.075-3.614-.035-.932-.015a2.371,2.371,0,0,1-.307-.014,3.081,3.081,0,0,1,.336-.015l.956-.015,3.646-.034,13.311-.075-.14.139c-.011-5.46-.025-11.934-.04-19.109,0-3.59-.008-7.355-.011-11.257q0-2.926,0-5.95,0-1.511,0-3.043v-3.07c.085.084-.192-.205.192.186l-18.246-.009.186-.186c-.036,12.29-.067,22.871-.088,30.4-.022,3.757-.04,6.752-.052,8.83-.01,1.019-.018,1.812-.023,2.371-.005.258-.009.462-.012.618A1.561,1.561,0,0,1,172.354,447.65Z" fill="none" stroke="#000" stroke-miterlimit="10" stroke-width="1"/><path d="M172.063,413.891c0-.107,4.207-.195,9.395-.195s9.4.088,9.4.195-4.206.2-9.4.2S172.063,414,172.063,413.891Z" fill="none" stroke="#000" stroke-miterlimit="10" stroke-width="1"/><path d="M181.284,447.327c-.108,0-.195-7.458-.195-16.656s.087-16.658.195-16.658.2,7.457.2,16.658S181.392,447.327,181.284,447.327Z" fill="none" stroke="#000" stroke-miterlimit="10" stroke-width="1"/><rect width="18.249" height="42.438" transform="translate(205.271 458.386)" fill="#fafafa"/><path d="M205.271,500.824a1.113,1.113,0,0,1-.012-.2c0-.15-.006-.346-.011-.6-.005-.55-.013-1.33-.023-2.333-.012-2.068-.03-5.048-.052-8.788-.022-7.562-.052-18.186-.088-30.527V458.2h.186l18.246-.009c.4.388.109.114.2.2v1.534q0,.771,0,1.536v3.043q0,3.021,0,5.95c0,3.9-.008,7.667-.011,11.257-.016,7.175-.029,13.648-.041,19.109v.14h-.139l-13.4-.075-3.614-.035-.931-.015a2.655,2.655,0,0,1-.308-.014,3.076,3.076,0,0,1,.336-.015l.956-.015,3.646-.035,13.311-.075-.14.14c-.011-5.461-.025-11.934-.04-19.109,0-3.59-.008-7.356-.011-11.257q0-2.927,0-5.95,0-1.51,0-3.043v-3.07c.085.084-.192-.206.192.186l-18.246-.009.186-.186c-.036,12.29-.066,22.871-.088,30.4-.022,3.757-.04,6.752-.052,8.83-.01,1.019-.018,1.812-.023,2.371-.005.258-.009.462-.012.618A1.558,1.558,0,0,1,205.271,500.824Z" fill="none" stroke="#000" stroke-miterlimit="10" stroke-width="1"/><path d="M204.98,467.065c0-.107,4.207-.2,9.4-.2s9.4.088,9.4.2-4.206.2-9.4.2S204.98,467.173,204.98,467.065Z" fill="none" stroke="#000" stroke-miterlimit="10" stroke-width="1"/><path d="M214.2,500.5c-.107,0-.2-7.458-.2-16.656s.088-16.658.2-16.658.195,7.457.195,16.658S214.309,500.5,214.2,500.5Z" fill="none" stroke="#000" stroke-miterlimit="10" stroke-width="1"/><rect width="18.249" height="42.438" transform="translate(172.354 458.386)" fill="#fafafa"/><path d="M172.354,500.824a1.112,1.112,0,0,1-.012-.2c0-.15-.006-.346-.011-.6-.006-.55-.013-1.33-.024-2.333-.012-2.068-.029-5.048-.051-8.788-.022-7.562-.052-18.186-.088-30.527V458.2h.187l18.246-.009c.395.388.109.114.2.2v1.534q0,.771,0,1.536v3.043q0,3.021,0,5.95c0,3.9-.008,7.667-.011,11.257-.016,7.175-.029,13.648-.041,19.109v.14H190.6l-13.4-.075-3.614-.035-.932-.015a2.644,2.644,0,0,1-.307-.014,3.075,3.075,0,0,1,.336-.015l.956-.015,3.646-.035,13.311-.075-.14.14c-.011-5.461-.025-11.934-.04-19.109,0-3.59-.008-7.356-.011-11.257q0-2.927,0-5.95,0-1.51,0-3.043v-3.07c.085.084-.192-.206.192.186l-18.246-.009.186-.186c-.036,12.29-.067,22.871-.088,30.4-.022,3.757-.04,6.752-.052,8.83-.01,1.019-.018,1.812-.023,2.371-.005.258-.009.462-.012.618A1.561,1.561,0,0,1,172.354,500.824Z" fill="none" stroke="#000" stroke-miterlimit="10" stroke-width="1"/><path d="M172.063,467.065c0-.107,4.207-.2,9.395-.2s9.4.088,9.4.2-4.206.2-9.4.2S172.063,467.173,172.063,467.065Z" fill="none" stroke="#000" stroke-miterlimit="10" stroke-width="1"/><path d="M181.284,500.5c-.108,0-.195-7.458-.195-16.656s.087-16.658.195-16.658.2,7.457.2,16.658S181.392,500.5,181.284,500.5Z" fill="none" stroke="#000" stroke-miterlimit="10" stroke-width="1"/><rect width="18.249" height="42.438" transform="translate(205.271 511.158)" fill="#fafafa"/><path d="M205.271,553.6a1.093,1.093,0,0,1-.012-.194c0-.15-.006-.347-.011-.6-.005-.55-.013-1.33-.023-2.332-.012-2.068-.03-5.049-.052-8.788-.022-7.562-.052-18.187-.088-30.528v-.185h.186l18.246-.009c.4.388.109.115.2.2V512.7q0,.771,0,1.537v3.042q0,3.021,0,5.95c0,3.9-.008,7.667-.011,11.257-.016,7.176-.029,13.649-.041,19.109v.14h-.139l-13.4-.075-3.614-.034-.931-.015a2.223,2.223,0,0,1-.308-.015,3.288,3.288,0,0,1,.336-.014l.956-.015,3.646-.035,13.311-.075-.14.139c-.011-5.46-.025-11.933-.04-19.109,0-3.59-.008-7.355-.011-11.257q0-2.926,0-5.95,0-1.511,0-3.042v-3.071c.085.085-.192-.2.192.186l-18.246-.009.186-.186c-.036,12.29-.066,22.871-.088,30.4-.022,3.757-.04,6.753-.052,8.831-.01,1.018-.018,1.811-.023,2.371-.005.258-.009.461-.012.617A1.559,1.559,0,0,1,205.271,553.6Z" fill="none" stroke="#000" stroke-miterlimit="10" stroke-width="1"/><path d="M204.98,519.838c0-.108,4.207-.2,9.4-.2s9.4.087,9.4.2-4.206.2-9.4.2S204.98,519.945,204.98,519.838Z" fill="none" stroke="#000" stroke-miterlimit="10" stroke-width="1"/><path d="M214.2,553.274c-.107,0-.2-7.459-.2-16.657s.088-16.657.2-16.657.195,7.456.195,16.657S214.309,553.274,214.2,553.274Z" fill="none" stroke="#000" stroke-miterlimit="10" stroke-width="1"/><rect width="18.249" height="42.438" transform="translate(240.079 406.031)" fill="#fafafa"/><path d="M240.079,448.469a1.092,1.092,0,0,1-.012-.194c0-.15-.006-.347-.011-.6-.005-.55-.013-1.33-.023-2.332-.012-2.068-.03-5.049-.052-8.788-.022-7.562-.052-18.187-.088-30.527v-.186h.186l18.246-.01c.395.388.109.115.2.2v1.533q0,.771,0,1.537v3.042q0,3.021,0,5.951c0,3.9-.008,7.666-.011,11.257-.016,7.175-.029,13.648-.041,19.108v.14h-.139l-13.4-.076-3.614-.034-.932-.015a2.215,2.215,0,0,1-.307-.015,3.3,3.3,0,0,1,.336-.014l.956-.015,3.646-.035,13.311-.075-.14.139c-.011-5.46-.025-11.933-.04-19.108,0-3.591-.008-7.356-.011-11.257q0-2.928,0-5.951,0-1.511,0-3.042v-3.07c.085.084-.192-.206.192.185l-18.246-.009.186-.185c-.036,12.289-.067,22.87-.088,30.4-.022,3.758-.04,6.753-.052,8.831-.01,1.019-.018,1.812-.023,2.371-.005.258-.009.461-.012.617A1.558,1.558,0,0,1,240.079,448.469Z" fill="none" stroke="#000" stroke-miterlimit="10" stroke-width="1"/><path d="M239.788,414.711c0-.108,4.207-.2,9.4-.2s9.4.087,9.4.2-4.206.2-9.4.2S239.788,414.819,239.788,414.711Z" fill="none" stroke="#000" stroke-miterlimit="10" stroke-width="1"/><path d="M249.009,448.147c-.107,0-.2-7.458-.2-16.656s.088-16.658.2-16.658.195,7.457.195,16.658S249.117,448.147,249.009,448.147Z" fill="none" stroke="#000" stroke-miterlimit="10" stroke-width="1"/><rect width="18.249" height="42.438" transform="translate(240.079 459.205)" fill="#fafafa"/><path d="M240.079,501.643a1.092,1.092,0,0,1-.012-.194c0-.15-.006-.347-.011-.6-.005-.55-.013-1.33-.023-2.332-.012-2.068-.03-5.049-.052-8.788-.022-7.562-.052-18.187-.088-30.528v-.185h.186l18.246-.009c.395.388.109.115.2.2v1.534q0,.771,0,1.537v3.042q0,3.021,0,5.95c0,3.9-.008,7.667-.011,11.257-.016,7.176-.029,13.649-.041,19.109v.14h-.139l-13.4-.075-3.614-.034-.932-.015a2.213,2.213,0,0,1-.307-.015,3.3,3.3,0,0,1,.336-.014l.956-.015,3.646-.035,13.311-.075-.14.139c-.011-5.46-.025-11.933-.04-19.109,0-3.59-.008-7.355-.011-11.257q0-2.927,0-5.95,0-1.51,0-3.042v-3.071c.085.085-.192-.2.192.186l-18.246-.009.186-.186c-.036,12.29-.067,22.871-.088,30.4-.022,3.757-.04,6.753-.052,8.831-.01,1.018-.018,1.811-.023,2.371-.005.258-.009.461-.012.617A1.558,1.558,0,0,1,240.079,501.643Z" fill="none" stroke="#000" stroke-miterlimit="10" stroke-width="1"/><path d="M239.788,467.885c0-.108,4.207-.2,9.4-.2s9.4.087,9.4.2-4.206.195-9.4.195S239.788,467.992,239.788,467.885Z" fill="none" stroke="#000" stroke-miterlimit="10" stroke-width="1"/><path d="M249.009,501.321c-.107,0-.2-7.459-.2-16.657s.088-16.657.2-16.657.195,7.456.195,16.657S249.117,501.321,249.009,501.321Z" fill="none" stroke="#000" stroke-miterlimit="10" stroke-width="1"/><rect width="18.249" height="42.438" transform="translate(240.079 511.978)" fill="#fafafa"/><path d="M240.079,554.416a1.113,1.113,0,0,1-.012-.2c0-.15-.006-.347-.011-.6-.005-.551-.013-1.331-.023-2.333-.012-2.068-.03-5.048-.052-8.788-.022-7.562-.052-18.186-.088-30.527v-.186h.186l18.246-.009c.395.388.109.114.2.2v1.534q0,.771,0,1.536V518.1q0,3.021,0,5.95c0,3.9-.008,7.667-.011,11.257-.016,7.175-.029,13.648-.041,19.108v.141h-.139l-13.4-.075-3.614-.035-.932-.015a2.66,2.66,0,0,1-.307-.014,3.076,3.076,0,0,1,.336-.015l.956-.015,3.646-.035,13.311-.075-.14.139c-.011-5.46-.025-11.933-.04-19.108,0-3.59-.008-7.356-.011-11.257q0-2.926,0-5.95,0-1.51,0-3.043v-3.07c.085.084-.192-.206.192.186l-18.246-.009.186-.186c-.036,12.29-.067,22.871-.088,30.4-.022,3.757-.04,6.752-.052,8.83-.01,1.019-.018,1.812-.023,2.371l-.012.617A1.584,1.584,0,0,1,240.079,554.416Z" fill="none" stroke="#000" stroke-miterlimit="10" stroke-width="1"/><path d="M239.788,520.657c0-.107,4.207-.2,9.4-.2s9.4.088,9.4.2-4.206.2-9.4.2S239.788,520.765,239.788,520.657Z" fill="none" stroke="#000" stroke-miterlimit="10" stroke-width="1"/><path d="M249.009,554.093c-.107,0-.2-7.458-.2-16.656s.088-16.658.2-16.658.195,7.457.195,16.658S249.117,554.093,249.009,554.093Z" fill="none" stroke="#000" stroke-miterlimit="10" stroke-width="1"/><rect width="18.249" height="42.438" transform="translate(172.354 511.158)" fill="#fafafa"/><path d="M172.354,553.6a1.091,1.091,0,0,1-.012-.194c0-.15-.006-.347-.011-.6-.006-.55-.013-1.33-.024-2.332-.012-2.068-.029-5.049-.051-8.788-.022-7.562-.052-18.187-.088-30.528v-.185h.187l18.246-.009c.395.388.109.115.2.2V512.7q0,.771,0,1.537v3.042q0,3.021,0,5.95c0,3.9-.008,7.667-.011,11.257-.016,7.176-.029,13.649-.041,19.109v.14H190.6l-13.4-.075-3.614-.034-.932-.015a2.214,2.214,0,0,1-.307-.015,3.287,3.287,0,0,1,.336-.014l.956-.015,3.646-.035,13.311-.075-.14.139c-.011-5.46-.025-11.933-.04-19.109,0-3.59-.008-7.355-.011-11.257q0-2.926,0-5.95,0-1.511,0-3.042v-3.071c.085.085-.192-.2.192.186l-18.246-.009.186-.186c-.036,12.29-.067,22.871-.088,30.4-.022,3.757-.04,6.753-.052,8.831-.01,1.018-.018,1.811-.023,2.371-.005.258-.009.461-.012.617A1.562,1.562,0,0,1,172.354,553.6Z" fill="none" stroke="#000" stroke-miterlimit="10" stroke-width="1"/><path d="M172.063,519.838c0-.108,4.207-.2,9.395-.2s9.4.087,9.4.2-4.206.2-9.4.2S172.063,519.945,172.063,519.838Z" fill="none" stroke="#000" stroke-miterlimit="10" stroke-width="1"/><path d="M181.284,553.274c-.108,0-.195-7.459-.195-16.657s.087-16.657.195-16.657.2,7.456.2,16.657S181.392,553.274,181.284,553.274Z" fill="none" stroke="#000" stroke-miterlimit="10" stroke-width="1"/></g><g transform="translate(-5.401)"><rect width="63.854" height="270.03" transform="translate(1062.667 306.197)" fill="none" stroke="#000" stroke-miterlimit="10" stroke-width="1"/><rect width="19.408" height="37.4" transform="translate(1074.492 319.678)" fill="#fff"/><path d="M1084.743,357.077c-.143,0-.259-8.373-.259-18.7s.116-18.7.259-18.7.26,8.371.26,18.7S1084.886,357.077,1084.743,357.077Z" fill="none" stroke="#000" stroke-miterlimit="10" stroke-width="1"/><path d="M1093.9,332.671a181.92,181.92,0,0,1-19.408,0,181.92,181.92,0,0,1,19.408,0Z" fill="none" stroke="#000" stroke-miterlimit="10" stroke-width="1"/><path d="M1094,346.046a184.192,184.192,0,0,1-19.567,0,184.907,184.907,0,0,1,19.567,0Z" fill="none" stroke="#000" stroke-miterlimit="10" stroke-width="1"/><rect width="19.408" height="37.4" transform="translate(1074.568 369.021)" fill="#fff"/><path d="M1084.819,406.421c-.143,0-.259-8.373-.259-18.7s.116-18.7.259-18.7.26,8.371.26,18.7S1084.962,406.421,1084.819,406.421Z" fill="none" stroke="#000" stroke-miterlimit="10" stroke-width="1"/><path d="M1093.976,382.015a181.939,181.939,0,0,1-19.408,0,181.214,181.214,0,0,1,19.408,0Z" fill="none" stroke="#000" stroke-miterlimit="10" stroke-width="1"/><path d="M1094.078,395.39a184.931,184.931,0,0,1-19.567,0,184.194,184.194,0,0,1,19.567,0Z" fill="none" stroke="#000" stroke-miterlimit="10" stroke-width="1"/><rect width="19.408" height="37.4" transform="translate(1074.568 417.939)" fill="#fff"/><path d="M1084.819,455.338c-.143,0-.259-8.372-.259-18.7s.116-18.7.259-18.7.26,8.371.26,18.7S1084.962,455.338,1084.819,455.338Z" fill="none" stroke="#000" stroke-miterlimit="10" stroke-width="1"/><path d="M1093.976,430.932a181.235,181.235,0,0,1-19.408,0,181.918,181.918,0,0,1,19.408,0Z" fill="none" stroke="#000" stroke-miterlimit="10" stroke-width="1"/><path d="M1094.078,444.308a184.931,184.931,0,0,1-19.567,0,184.194,184.194,0,0,1,19.567,0Z" fill="none" stroke="#000" stroke-miterlimit="10" stroke-width="1"/><rect width="19.408" height="37.399" transform="translate(1074.568 468.265)" fill="#fff"/><path d="M1084.819,505.665c-.143,0-.259-8.373-.259-18.7s.116-18.7.259-18.7.26,8.371.26,18.7S1084.962,505.665,1084.819,505.665Z" fill="none" stroke="#000" stroke-miterlimit="10" stroke-width="1"/><path d="M1093.976,481.259a181.918,181.918,0,0,1-19.408,0,181.214,181.214,0,0,1,19.408,0Z" fill="none" stroke="#000" stroke-miterlimit="10" stroke-width="1"/><path d="M1094.078,494.634a184.91,184.91,0,0,1-19.567,0,184.194,184.194,0,0,1,19.567,0Z" fill="none" stroke="#000" stroke-miterlimit="10" stroke-width="1"/><rect width="46.525" height="270.03" transform="translate(1107.152 306.197)" fill="none" stroke="#000" stroke-miterlimit="10" stroke-width="1"/><g opacity="0.3"><rect width="46.525" height="270.03" transform="translate(1107.152 306.197)"/></g><rect width="19.408" height="37.4" transform="translate(1120.358 319.678)" fill="#fff"/><path d="M1130.609,357.077c-.143,0-.259-8.373-.259-18.7s.116-18.7.259-18.7.259,8.371.259,18.7S1130.752,357.077,1130.609,357.077Z" fill="none" stroke="#000" stroke-miterlimit="10" stroke-width="1"/><path d="M1139.766,332.671a181.918,181.918,0,0,1-19.408,0,181.918,181.918,0,0,1,19.408,0Z" fill="none" stroke="#000" stroke-miterlimit="10" stroke-width="1"/><path d="M1139.868,346.046a184.194,184.194,0,0,1-19.567,0,184.91,184.91,0,0,1,19.567,0Z" fill="none" stroke="#000" stroke-miterlimit="10" stroke-width="1"/><rect width="19.408" height="37.399" transform="translate(1120.434 370.433)" fill="#fff"/><path d="M1130.685,407.832c-.143,0-.259-8.373-.259-18.7s.116-18.7.259-18.7.259,8.371.259,18.7S1130.828,407.832,1130.685,407.832Z" fill="none" stroke="#000" stroke-miterlimit="10" stroke-width="1"/><path d="M1139.842,383.426a181.92,181.92,0,0,1-19.408,0,181.216,181.216,0,0,1,19.408,0Z" fill="none" stroke="#000" stroke-miterlimit="10" stroke-width="1"/><path d="M1139.944,396.8a184.194,184.194,0,0,1-19.567,0,184.91,184.91,0,0,1,19.567,0Z" fill="none" stroke="#000" stroke-miterlimit="10" stroke-width="1"/><rect width="19.408" height="37.4" transform="translate(1120.434 417.939)" fill="#fff"/><path d="M1130.685,455.338c-.143,0-.259-8.372-.259-18.7s.116-18.7.259-18.7.259,8.371.259,18.7S1130.828,455.338,1130.685,455.338Z" fill="none" stroke="#000" stroke-miterlimit="10" stroke-width="1"/><path d="M1139.842,430.932a181.238,181.238,0,0,1-19.408,0,181.92,181.92,0,0,1,19.408,0Z" fill="none" stroke="#000" stroke-miterlimit="10" stroke-width="1"/><path d="M1139.944,444.308a184.931,184.931,0,0,1-19.567,0,184.194,184.194,0,0,1,19.567,0Z" fill="none" stroke="#000" stroke-miterlimit="10" stroke-width="1"/><rect width="19.408" height="37.4" transform="translate(1121.227 469.076)" fill="#fff"/><path d="M1131.478,506.475c-.144,0-.26-8.373-.26-18.7s.116-18.7.26-18.7.259,8.371.259,18.7S1131.621,506.475,1131.478,506.475Z" fill="none" stroke="#000" stroke-miterlimit="10" stroke-width="1"/><path d="M1140.635,482.069a181.214,181.214,0,0,1-19.408,0,181.918,181.918,0,0,1,19.408,0Z" fill="none" stroke="#000" stroke-miterlimit="10" stroke-width="1"/><path d="M1140.737,495.444a184.194,184.194,0,0,1-19.567,0,184.91,184.91,0,0,1,19.567,0Z" fill="none" stroke="#000" stroke-miterlimit="10" stroke-width="1"/><rect width="19.408" height="37.399" transform="translate(1074.568 519.781)" fill="#fff"/><path d="M1084.819,557.18c-.143,0-.259-8.372-.259-18.7s.116-18.7.259-18.7.26,8.371.26,18.7S1084.962,557.18,1084.819,557.18Z" fill="none" stroke="#000" stroke-miterlimit="10" stroke-width="1"/><path d="M1093.976,532.774a181.214,181.214,0,0,1-19.408,0,181.939,181.939,0,0,1,19.408,0Z" fill="none" stroke="#000" stroke-miterlimit="10" stroke-width="1"/><path d="M1094.078,546.149a184.194,184.194,0,0,1-19.567,0,184.931,184.931,0,0,1,19.567,0Z" fill="none" stroke="#000" stroke-miterlimit="10" stroke-width="1"/><rect width="19.408" height="37.4" transform="translate(1120.434 521.384)" fill="#fff"/><path d="M1130.685,558.784c-.143,0-.259-8.373-.259-18.7s.116-18.7.259-18.7.259,8.371.259,18.7S1130.828,558.784,1130.685,558.784Z" fill="none" stroke="#000" stroke-miterlimit="10" stroke-width="1"/><path d="M1139.842,534.377a181.216,181.216,0,0,1-19.408,0,181.9,181.9,0,0,1,19.408,0Z" fill="none" stroke="#000" stroke-miterlimit="10" stroke-width="1"/><path d="M1139.944,547.753a184.888,184.888,0,0,1-19.567,0,184.194,184.194,0,0,1,19.567,0Z" fill="none" stroke="#000" stroke-miterlimit="10" stroke-width="1"/></g><rect width="289.789" height="5.582" transform="translate(-0.522 575.997)" fill="none" stroke="#000" stroke-miterlimit="10" stroke-width="1"/><rect width="240.971" height="5.581" transform="translate(1040.048 575.886)" fill="none" stroke="#000" stroke-miterlimit="10" stroke-width="1"/><g transform="translate(-5.401)"><path d="M1286.421,581.579c0,.143-155.44.26-347.141.26-191.768,0-937.274-.117-937.274-.26s745.506-.261,937.274-.261C1130.981,581.318,1286.421,581.435,1286.421,581.579Z" fill="none" stroke="#000" stroke-miterlimit="10" stroke-width="1"/></g><g transform="translate(-5.401)"><path d="M294.669,581.579s-.023-.419-.034-1.3c-.007-.9-.017-2.229-.032-4.057l.066.066c-16.186.112-74.406.2-143.647.2l-105.375-.077-31.933-.082-8.681-.049-2.258-.026c-.509-.009-.769-.027-.769-.027s.26-.018.769-.026l2.258-.026,8.681-.049,31.933-.083,105.375-.076c69.241,0,127.461.082,143.647.194h.066v.065c-.015,1.828-.025,3.162-.032,4.057C294.692,581.16,294.669,581.579,294.669,581.579Z" fill="none" stroke="#000" stroke-miterlimit="10" stroke-width="1"/><path d="M34.919,581.988a13.89,13.89,0,0,1,0-5.36,13.942,13.942,0,0,1,0,5.36Z" fill="none" stroke="#000" stroke-miterlimit="10" stroke-width="1"/><path d="M65.773,581.988a13.89,13.89,0,0,1,0-5.36,13.943,13.943,0,0,1,0,5.36Z" fill="none" stroke="#000" stroke-miterlimit="10" stroke-width="1"/><path d="M96.627,581.988a13.942,13.942,0,0,1,0-5.36,13.89,13.89,0,0,1,0,5.36Z" fill="none" stroke="#000" stroke-miterlimit="10" stroke-width="1"/><path d="M127.481,581.988a13.942,13.942,0,0,1,0-5.36,13.89,13.89,0,0,1,0,5.36Z" fill="none" stroke="#000" stroke-miterlimit="10" stroke-width="1"/><path d="M158.336,581.988a13.89,13.89,0,0,1,0-5.36,13.943,13.943,0,0,1,0,5.36Z" fill="none" stroke="#000" stroke-miterlimit="10" stroke-width="1"/><path d="M189.19,581.988a13.942,13.942,0,0,1,0-5.36,13.943,13.943,0,0,1,0,5.36Z" fill="none" stroke="#000" stroke-miterlimit="10" stroke-width="1"/><path d="M220.044,581.988a13.942,13.942,0,0,1,0-5.36,13.891,13.891,0,0,1,0,5.36Z" fill="none" stroke="#000" stroke-miterlimit="10" stroke-width="1"/><path d="M250.9,581.988a13.89,13.89,0,0,1,0-5.36,13.943,13.943,0,0,1,0,5.36Z" fill="none" stroke="#000" stroke-miterlimit="10" stroke-width="1"/><path d="M281.753,581.357a13.891,13.891,0,0,1,0-5.36,13.942,13.942,0,0,1,0,5.36Z" fill="none" stroke="#000" stroke-miterlimit="10" stroke-width="1"/></g><g transform="translate(-5.401)"><path d="M1047.877,581.579s-.012-.106-.019-.321c0-.232-.01-.553-.018-.98-.008-.9-.02-2.233-.036-4.054v-.072h.073c14.215-.109,61.074-.188,116.589-.188l86.239.076,26.133.083,7.106.049,1.847.026c.417.008.63.026.63.026s-.213.018-.63.027l-1.847.026-7.106.049-26.133.082-86.239.077c-55.515,0-102.374-.08-116.589-.188l.073-.073c-.016,1.821-.028,3.156-.036,4.054-.008.427-.014.748-.018.98C1047.89,581.473,1047.877,581.579,1047.877,581.579Z" fill="none" stroke="#000" stroke-miterlimit="10" stroke-width="1"/><path d="M1076.573,576.289a13.579,13.579,0,0,1,0,5.3,13.629,13.629,0,0,1,0-5.3Z" fill="none" stroke="#000" stroke-miterlimit="10" stroke-width="1"/><path d="M1108.172,576.289a13.629,13.629,0,0,1,0,5.3,13.629,13.629,0,0,1,0-5.3Z" fill="none" stroke="#000" stroke-miterlimit="10" stroke-width="1"/><path d="M1139.771,576.289a13.629,13.629,0,0,1,0,5.3,13.579,13.579,0,0,1,0-5.3Z" fill="none" stroke="#000" stroke-miterlimit="10" stroke-width="1"/><path d="M1171.369,576.289a13.579,13.579,0,0,1,0,5.3,13.629,13.629,0,0,1,0-5.3Z" fill="none" stroke="#000" stroke-miterlimit="10" stroke-width="1"/><path d="M1202.968,576.289a13.579,13.579,0,0,1,0,5.3,13.629,13.629,0,0,1,0-5.3Z" fill="none" stroke="#000" stroke-miterlimit="10" stroke-width="1"/><path d="M1234.567,576.289a13.629,13.629,0,0,1,0,5.3,13.629,13.629,0,0,1,0-5.3Z" fill="none" stroke="#000" stroke-miterlimit="10" stroke-width="1"/><path d="M1266.166,576.289a13.629,13.629,0,0,1,0,5.3,13.579,13.579,0,0,1,0-5.3Z" fill="none" stroke="#000" stroke-miterlimit="10" stroke-width="1"/></g><path d="M125.02,596.549H39.335l4.825-4.764h83.68Z" transform="translate(-5.401)" fill="none" stroke="#000" stroke-miterlimit="10" stroke-width="1"/><path d="M307.925,596.549H222.24l4.825-4.764h83.68Z" transform="translate(-5.401)" fill="none" stroke="#000" stroke-miterlimit="10" stroke-width="1"/><path d="M490.83,596.549H405.145l4.825-4.764h83.68Z" transform="translate(-5.401)" fill="none" stroke="#000" stroke-miterlimit="10" stroke-width="1"/><path d="M673.735,596.549H588.05l4.825-4.764h83.68Z" transform="translate(-5.401)" fill="none" stroke="#000" stroke-miterlimit="10" stroke-width="1"/><path d="M864.007,596.549H778.322l4.825-4.764h83.68Z" transform="translate(-5.401)" fill="none" stroke="#000" stroke-miterlimit="10" stroke-width="1"/><path d="M1046.912,596.549H961.227l4.825-4.764h83.68Z" transform="translate(-5.401)" fill="none" stroke="#000" stroke-miterlimit="10" stroke-width="1"/><path d="M1229.817,596.549h-85.685l4.825-4.764h83.68Z" transform="translate(-5.401)" fill="none" stroke="#000" stroke-miterlimit="10" stroke-width="1"/><g transform="translate(-5.401)"><path d="M1159.239,763.394h124.647c-2.4-15.25-12.186-12.566-13.484-36.189-.654-11.9,10.356-26.621,9.4-42.252-.784-12.873-13.479-26.073-14.465-40.8-.889-13.291,9.945-28.04,8.893-42.364-.995-13.543-13.861-26.535-15-40.609-1.112-13.73,9.5-28.631,8.249-42.508-1.25-13.893-14.35-26.642-15.737-40.325-1.426-14.068,8.839-29.213,7.268-42.679-1.667-14.292-15.152-26.637-16.981-39.8-2.036-14.661,7.515-30.323,5.28-42.981-2.739-15.509-17.172-26.729-20.208-38.167-5.659-21.317-4.953-41.862-11.634-43.2-7.135-1.427-8.759,18.712-14.167,41.225-2.715,11.307-16.832,22.767-19.151,38.284-1.879,12.565,8.1,27.844,6.465,42.446-1.465,13.074-14.607,25.644-15.887,39.857-1.2,13.369,9.466,28.112,8.416,42.089-1.02,13.585-13.774,26.545-14.657,40.343-.88,13.768,10.119,28.258,9.369,41.885-.77,13.963-13.291,27.151-13.933,40.591-.678,14.209,10.534,28.545,9.989,41.732-.6,14.607-12.955,27.993-13.409,40.763-.551,15.5,10.832,29.811,10.481,41.61-.762,25.62-12.49,20.313-12.912,40.929Z" fill="#ececec"/><line y2="445.153" transform="translate(1212.747 312.487)" fill="none" stroke="#1a2e35" stroke-miterlimit="10" stroke-width="2.005"/><path d="M1232.211,359.152l-20.294,17.526-16.6-22.138" fill="none" stroke="#1a2e35" stroke-miterlimit="10" stroke-width="2.005"/><path d="M1232.211,436.635l-20.294,17.526-16.6-22.138" fill="none" stroke="#1a2e35" stroke-miterlimit="10" stroke-width="2.005"/><path d="M1232.211,509.506l-20.294,17.526-16.6-22.138" fill="none" stroke="#1a2e35" stroke-miterlimit="10" stroke-width="2.005"/><path d="M1232.211,596.213l-20.294,17.526-16.6-22.138" fill="none" stroke="#1a2e35" stroke-miterlimit="10" stroke-width="2.005"/><path d="M1232.211,683.842l-20.294,17.526-16.6-22.138" fill="none" stroke="#1a2e35" stroke-miterlimit="10" stroke-width="2.005"/></g><g transform="translate(-5.401)"><path d="M1109.1,635.758s20.357,2.014,30.675,14.633c0,0,10.9-14.619,30.479-14.319a39.568,39.568,0,1,0-61.16-.28Z" fill="#efc523"/><path d="M1139.105,574.046l-.687,130.739h3.436Z" fill="#1a2e35"/><path d="M1140.136,646.545s6.872-12.37,19.241-16.149c0,0-13.056,3.092-19.585,13.744Z" fill="#1a2e35"/><path d="M1140.136,611.5s6.872-12.37,19.241-16.149c0,0-13.056,3.092-19.585,13.744Z" fill="#1a2e35"/><path d="M1140.136,629.021s6.872-12.369,19.241-16.149c0,0-13.056,3.093-19.585,13.744Z" fill="#1a2e35"/><path d="M1139.117,620.431s-6.63-12.369-18.566-16.149c0,0,12.6,3.093,18.9,13.744Z" fill="#1a2e35"/><path d="M1139.117,637.611s-6.63-12.369-18.566-16.149c0,0,12.6,3.093,18.9,13.744Z" fill="#1a2e35"/></g><g transform="translate(-5.401)"><path d="M1030.078,675.158s20.357,2.014,30.675,14.633c0,0,10.9-14.619,30.479-14.319a39.568,39.568,0,1,0-61.16-.28Z" fill="#efc523"/><path d="M1060.079,613.446l-.687,130.739h3.436Z" fill="#1a2e35"/><path d="M1061.11,685.945s6.872-12.37,19.241-16.149c0,0-13.056,3.092-19.585,13.744Z" fill="#1a2e35"/><path d="M1061.11,650.9s6.872-12.37,19.241-16.149c0,0-13.056,3.092-19.585,13.744Z" fill="#1a2e35"/><path d="M1061.11,668.421s6.872-12.369,19.241-16.149c0,0-13.056,3.093-19.585,13.744Z" fill="#1a2e35"/><path d="M1060.091,659.831s-6.631-12.369-18.566-16.149c0,0,12.6,3.093,18.9,13.744Z" fill="#1a2e35"/><path d="M1060.091,677.011s-6.631-12.369-18.566-16.149c0,0,12.6,3.093,18.9,13.744Z" fill="#1a2e35"/></g><g transform="translate(-5.401)"><path d="M1114,699.4s14.469,1.431,21.8,10.4c0,0,7.747-10.39,21.663-10.177a28.123,28.123,0,1,0-43.469-.2Z" fill="#efc523"/><path d="M1135.321,655.541l-.488,92.922h2.442Z" fill="#1a2e35"/><path d="M1136.054,707.07s4.884-8.792,13.676-11.478c0,0-9.28,2.2-13.92,9.768Z" fill="#1a2e35"/><path d="M1136.054,682.16s4.884-8.791,13.676-11.478c0,0-9.28,2.2-13.92,9.769Z" fill="#1a2e35"/><path d="M1136.054,694.615s4.884-8.792,13.676-11.478c0,0-9.28,2.2-13.92,9.768Z" fill="#1a2e35"/><path d="M1135.33,688.51s-4.713-8.792-13.2-11.478c0,0,8.954,2.2,13.431,9.768Z" fill="#1a2e35"/><path d="M1135.33,700.72s-4.713-8.791-13.2-11.478c0,0,8.954,2.2,13.431,9.769Z" fill="#1a2e35"/></g><g transform="translate(-5.401)"><path d="M384.111,719.941l4.067,17.127,6.091-.034.223-17.093Z" fill="#fff"/><path d="M436.133,720.671l11.571,16.4,4.51-5.79-6.964-12.861Z" fill="#fff"/><path d="M387.973,736.111a16.5,16.5,0,0,1-.775,7.022s-1,4.543,3.476,4.627,5.572-.338,5.065-3.123-1.47-7.6-1.47-7.6Z" fill="#fff"/><path d="M396.161,749.989l-.014.01H386.89l-.014-.01c-.507-2.376.321-6.851.321-6.851,5.066,4.843,8.237-.122,8.237-.122C396.256,745.087,396.161,749.989,396.161,749.989Z"/><path d="M462.995,745.3s-8.249-9.367-10.781-14.026l-6.134,3.142L459.79,747.3l3.208-.422Z" fill="#fff"/><path d="M468.053,749.973H456.609c-1.007-.908-1.968-2.738-3.146-5.137a5.539,5.539,0,0,0-3.735-2.548v7.685H447.36l-2.192-8.171c-1.46-2.738-.364-5.249.663-7.412,1.2,0,4.661.861,10.754,7.862a7.928,7.928,0,0,0,6.41,3.052.551.551,0,0,0,.089.048C466.554,746.943,467.686,748.9,468.053,749.973Z"/><path d="M404.564,536.9a8.566,8.566,0,0,1-1.013,1.8,12.146,12.146,0,0,0,.332-1.823,33.247,33.247,0,0,0-.166-7.883,36.606,36.606,0,0,1-.424,7.865,14.583,14.583,0,0,1-.865,3.112l-.111.111a44.159,44.159,0,0,0-2.984,3.334,129.188,129.188,0,0,0-9.908,14.329c-.222.368-.461.736-.682,1.105a117.118,117.118,0,0,0-7.478,14.421,31.73,31.73,0,0,0-1.123,3.094v.019a5.358,5.358,0,0,0-.276,2.633s-.9-.552-2.395-1.473c-1.031-.645-2.357-1.436-3.849-2.357l-1.6-4.182a8.752,8.752,0,0,0,.277,3.389c-.4-.239-.811-.5-1.234-.736-6.8-4.089-15.84-9.43-20.7-11.788.184-1.915,1.05-5.4,1.068-5.525-1.234.626-2.3,3.334-2.8,4.751-.148-.073-.276-.11-.406-.165,0,0-.791-10.775,12.764-21.678,7.11-5.71,12.211-8.509,10.848-13.666-.571-2.118-.666-7.739-.132-12.858v-.019a27.809,27.809,0,0,1,.663-3.739v-.018a15.02,15.02,0,0,1,2.247-5.231c2.063-3.02,4.847-4.344,10.17-3.441,0,0,2.229-1.584,3.352-1.64a2.943,2.943,0,0,0-1.216.921,12.073,12.073,0,0,1,6.65-.074,5.493,5.493,0,0,1,2.044,1.382,15.784,15.784,0,0,1,1.971,2.431,1.628,1.628,0,0,1,.147.221.74.74,0,0,1,.11.147c.092.129.185.277.277.424.626.976,1.252,2.1,1.878,3.3v.018a54.87,54.87,0,0,1,2.911,6.76v.166c.276.81.552,1.639.791,2.467a.068.068,0,0,1,.019.056.464.464,0,0,0,.037.129C405.89,524.172,406.737,531.962,404.564,536.9Z"/><path d="M400.076,541.717c.052.024-5,2.648-8.8,1.608-3.576-.975-5.912-5.611-5.863-5.621,1.515-.3,1.951-2.382,1.919-11.323l.685.135,11.509,2.279s-.262,3.622-.27,7.034C399.246,538.694,399.42,541.412,400.076,541.717Z" fill="#fff"/><path d="M399.524,528.795s-.262,3.622-.27,7.034c-6.44-.181-9.845-6.056-11.239-9.313Z" fill="#fff"/><path d="M385.646,526.92s-4.363-4.561-6.058-8.871c-1.21-3.077-1.969-15.234,10.262-15.927a16.469,16.469,0,0,1,7.208,1.182c2.933,1.223,7.416,4.236,5.332,15.4l-.379,3.7Z"/><path d="M451.508,726.213s-3.059.527-5.57.719c-.558.042-1.088.067-1.551.067a27.253,27.253,0,0,1-4.851-.8l-.11-.025c-.642-.152-1.132-.276-1.314-.324l-.077-.02s-15.255-16.982-23.81-44.2q-.3-.953-.633-1.921c-4.684-13.655-14.391-30.792-19.506-46.306q-1.221-3.7-2.2-7-.318-1.056-.61-2.078a164.457,164.457,0,0,1-5.867-30.889l30.757,7.825S429.079,657.244,451.508,726.213Z" fill="#999"/><path d="M401.538,530.615s-14.888,3.258-16.773-6.045-5.078-15.147,4.348-17.62,12,.7,13.383,3.653S405.362,529.528,401.538,530.615Z" fill="#fff"/><path d="M395.87,505.351s-1.889,11.74-7.841,14.619-9.012,1.747-9.012,1.747a27.084,27.084,0,0,0,1.482-11.133S391.738,500.777,395.87,505.351Z"/><path d="M395.035,506.441s3.546,1.821,4.768,4.041,2.54,7.029,3.929,6.577c0,0,1.585-8.041-2.723-11.54C396.439,501.808,395.035,506.441,395.035,506.441Z"/><path d="M445.938,726.932c-.558.042-1.088.067-1.551.067a27.253,27.253,0,0,1-4.851-.8l-.11-.025-1.314-.324-.077-.02s-15.255-16.982-23.81-44.2q-.3-.953-.633-1.921c-4.684-13.655-14.391-30.792-19.506-46.306q-1.221-3.7-2.2-7-.318-1.056-.61-2.078l5.438-4.13s16.333,26.446,21.388,51.334C422.294,692.16,440.337,718.905,445.938,726.932Z"/><path d="M397.284,673.851c.092,12.1-.52,39.926-2.1,51.448,0,0-1.495,1.323-5.2,1.338-3.8.016-5.494-1.385-5.494-1.385-3.955-20.029-6.767-36.6-8.816-50.883C374,662.65,372.5,652.6,371.356,643.953c-1.018-7.664-1.765-14.233-2.123-19.9-.047-.769-.09-1.521-.125-2.255-.044-.971-.079-1.914-.1-2.828s-.022-1.817-.014-2.685l.131-.013,7.642-.744,24.143-2.355C400.51,634.385,397.232,666.817,397.284,673.851Z" fill="#999"/><path d="M389.987,726.637a9.436,9.436,0,0,1-5.494-1.385c-3.955-20.029-6.767-36.6-8.816-50.883C374,662.65,372.5,652.6,371.356,643.953c-1.018-7.664-1.765-14.233-2.123-19.9-.042-2.79-.072-5.464-.105-7.781-.034-2.35-.072-4.338-.137-5.722l7.779,4.978,8.184,5.234s-11.609,10.561-8.757,30.526S386.017,723.81,389.987,726.637Z"/><path d="M398.785,536.576s9.934-1.227,14.1,2.916c5.1,5.077,14.685,34.185,14.3,37.508-.146,1.268-5.182.678-6.908-1.132C411.676,566.844,401.81,543.329,398.785,536.576Z" fill="#efc523"/><path d="M420.413,618.6c-9.262,2.407-52.482,7.159-52.855-3.666-.092-2.641,0-5.83.209-9.282.645-10.693,2.4-23.907,3.241-31.178.385-3.332-.9-18.259.087-26.393a18.419,18.419,0,0,1,.6-3.109c1.867-6.138,10.255-7.8,14.561-7.95l12.993-.443s13.418,14.989,15.285,19.593,2.476,20.368,3.928,28S424.918,617.427,420.413,618.6Z" fill="#efc523"/><path d="M394.887,582.013s-7.223,22.185-27.12,23.636c.645-10.693,2.4-23.907,3.241-31.178.385-3.332-.9-18.259.087-26.393.258.054.494.2.764.251C393.769,552.56,396.879,577.389,394.887,582.013Z" fill="#efc523"/><path d="M426.564,577.546s-13.043,4.277-28.935-2.583a26.316,26.316,0,0,0-6.477.137s.461-4.293,2.562-5.461,11.134,1.358,13.836.987C413.453,569.814,423.738,569.179,426.564,577.546Z" fill="#fff"/><path d="M414.939,567.557s1.224-10.6-2.925-16.988a2.213,2.213,0,0,1,2.517,1.162c1.051,1.659,8.376,17.4,4.888,18.564S414.939,567.557,414.939,567.557Z" fill="#efc523"/><path d="M395.9,569.328c-.187,0-6.16.78-7.218,1.527s-.125,3.36,1.867,3.609S395.9,569.328,395.9,569.328Z" fill="#fff"/><path d="M379.57,573.344a245.191,245.191,0,0,0,32.444-3.609s2.821.025,2.49,2.489-26.748,16.253-32.555,13.6Z" fill="#fff"/><path d="M412.014,569.735s1.8-2.178,2.925-2.178,4.045,1.431,4.48,2.738-3.461.373-4.915,1.929S412.014,569.735,412.014,569.735Z" fill="#fff"/><path d="M386.254,537.019s-14.3.034-16.387,5.171c-3.817,9.375,8.763,40.479,12.082,43.632,1.427,1.356,8.038-.781,8.038-9.74C389.987,571.435,389.653,544.29,386.254,537.019Z" fill="#efc523"/></g><g transform="translate(-5.401)"><rect width="91.815" height="20.924" rx="10.462" transform="translate(7.966 734.606)" opacity="0.1"/><rect width="56.312" height="204.421" transform="translate(15.09 542.371)" fill="#efc523"/><path d="M48.734,571.04,29.248,603.964H42.91l-3.919,27.324,18.253-36.507H44.254Z"/><path d="M71.4,746.792l18.422-10.4V546.824L71.4,542.371Z" fill="#efefef"/><path d="M74.671,564.949v53.9l13.074-.111V566.929Z" fill="#172c31"/><path d="M87.745,618.736l-7.131-52.887-5.943-.9v53.9Z" fill="#515151"/><path d="M77.048,642.2V666.22l8.32-1.731V641.413Z" fill="#172c31"/><path d="M102.308,734.606a12.247,12.247,0,0,1-11.5-6.765,17.4,17.4,0,0,1-1.872-6.477l0-.085v-.086c.009-.515.879-51.632.014-59.413a6.486,6.486,0,0,0-3.932-5.378,12.124,12.124,0,0,0-3.972-1.127l.313-4.739c3.874.248,11.432,2.807,12.311,10.719.886,7.974.073,56.59.016,59.911a12.712,12.712,0,0,0,1.389,4.579,7.568,7.568,0,0,0,7.233,4.112,7.093,7.093,0,0,0,5.347-1.932c2.426-2.471,2.379-6.595,2.378-6.637V670.994c0-1.2-.032-2.6-.066-4.086-.222-9.807-.558-24.628,6.714-32.068a15.4,15.4,0,0,1,11.474-4.519h11.588v4.749H128.155a10.691,10.691,0,0,0-8.078,3.09c-5.875,6.01-5.566,19.629-5.362,28.64.034,1.513.067,2.942.067,4.194v50.219c.009.59-.006,6.206-3.7,10.005A11.73,11.73,0,0,1,102.308,734.606Z" fill="#172c31"/><path d="M133.388,628.772l-3.12,7.868h11.1v-7.868Z" fill="#ddd"/><path d="M390.237,747.587a7.682,7.682,0,0,1-7.39,7.943H125.168a7.681,7.681,0,0,1-7.391-7.943h0a7.681,7.681,0,0,1,7.391-7.941H382.847a7.681,7.681,0,0,1,7.39,7.941Z" opacity="0.1"/><path d="M365.536,618.736l9-3.886-2.355-7.235-10.76,3.028Z" fill="#ccc"/><path d="M387.29,596.5a34.259,34.259,0,0,0-9.789.711c-2.22.56-6.232,2.488-6.9,5.016-1.831,6.883.159,13,3.942,15.295,3.323,2.013,9.04,1.434,12.65.682,5.952-1.239,11.62-4.754,12.932-11.079,1.144-5.531-1.135-9.316-6.717-10.05C391.49,596.828,389.406,596.609,387.29,596.5Z" fill="#efc523"/><path d="M126.33,709.286v27.148s2.255,10.495,10.494,10.495h18.564s6.613-.726,7.165-10.878,0-10.156,0-10.156S134.358,705.843,126.33,709.286Z" fill="#59585a"/><path d="M385.207,709.286v27.148s-2.255,10.495-10.495,10.495H356.148s-6.613-.726-7.164-10.878,0-10.156,0-10.156S377.178,705.843,385.207,709.286Z" fill="#59585a"/><path d="M146,618.736l-9-3.888,2.354-7.233,10.761,3.028Z" fill="#ccc"/><path d="M124.249,596.447a34.2,34.2,0,0,1,9.786.711c2.221.56,6.233,2.488,6.9,5.016,1.83,6.882-.159,13-3.942,15.295-3.323,2.012-9.04,1.434-12.649.682-5.953-1.239-11.623-4.755-12.933-11.08-1.143-5.53,1.135-9.316,6.717-10.049C120.046,596.771,122.13,596.552,124.249,596.447Z" fill="#efc523"/><path d="M371.06,624.409c-7.266-8.795-13.382-24.855-21.794-43.973s-21.795-27.528-37.088-28.676c-6.484-.486-28.7-.744-51.883-.774l-60.936.773a43.345,43.345,0,0,0-9.529,1.771h0c-11.266,3.471-20.947,11.882-27.559,26.906-8.276,18.81-14.331,34.654-21.444,43.536l-.6.741h0c-6.4,7.9-14.991,24.8-15.886,48.406l-.007.132h0c-.114,3.106-.1,6.327.079,9.659,1.128,21.433-1.9,36.624,19.137,42.814h0c7.485,2.2,18.014,3.267,32.863,3.066,26.108-.352,55.071-.519,83.877-.5,25.788.017,51.45.184,74.824.5,56.588.764,50.47-16.822,52-45.88S378.326,633.2,371.06,624.409ZM154.652,612.1l-.025.06.026-.062Z" fill="#efc523"/><path d="M147.08,659.189A96.123,96.123,0,0,0,124.4,671.955l-.067,1.3A102.589,102.589,0,0,1,148.39,660.1C147.947,659.819,147.509,659.513,147.08,659.189Z" fill="#efefef"/><path d="M151.777,661.815c12.381,4.571,31.125,9.74,46.461,15.752a202.428,202.428,0,0,0-38.007-38.937c-5.775-4.539-10.8-8.032-14.372-10.385a134.117,134.117,0,0,0-5.29,18.119c-.914,4.833,2.388,9.711,6.511,12.825.429.324.867.63,1.31.914A17.765,17.765,0,0,0,151.777,661.815Zm-1.664-3.691c-7.533-3.617-6.558-13.543-6.558-13.543,3.069,9.583,7.405,11.189,7.405,11.189l38.331,15.33S157.646,661.741,150.113,658.124Z" fill="#172c31"/><path d="M198.238,677.567c.191.262.383.522.572.786.431.9,4.9,9.53,18.1,9.53h77.812c13.208,0,17.673-8.628,18.1-9.53.19-.264.382-.524.572-.786a202.457,202.457,0,0,1,38.007-38.937c5.775-4.539,10.8-8.032,14.372-10.385,3.489-2.3,5.588-3.509,5.63-3.532l-.852-1.055a190.348,190.348,0,0,0-19.942,13.916c-10.6,8.33-25.956,22.042-38.894,40.06l-.066.113c-.164.359-4.174,8.817-16.93,8.817H216.913c-12.756,0-16.766-8.458-16.93-8.817l-.065-.113c-12.939-18.018-28.293-31.73-38.9-40.06a190.349,190.349,0,0,0-19.942-13.916l-.852,1.055c.042.023,2.142,1.233,5.63,3.532,3.571,2.353,8.6,5.846,14.372,10.385A202.428,202.428,0,0,1,198.238,677.567Z" fill="#e2e2e2"/><path d="M145.983,717.973l29.416-17.53-30.835-18.72s-5.238-3.6-7.566,0a34.253,34.253,0,0,0-5.028,13.523c-.665,4.362-1.57,10.346.3,14.484a13.1,13.1,0,0,0,4.681,4.932C138.249,715.543,144.565,719.119,145.983,717.973Z" fill="#ccc"/><path d="M189.291,671.1,150.96,655.77s-4.336-1.606-7.405-11.189c0,0-.975,9.926,6.558,13.543S189.291,671.1,189.291,671.1Z" fill="#efefef"/><path d="M251.344,623.658q2.246,0,4.475-.01,2.229.009,4.476.01v-.038c54.4-.457,99.417-4.884,99.417-4.884l-2.726-6.635c-7.551-18.386-12.979-39.488-28.362-52.9-1.749-1.524-4.733-5.034-6.816-5.676a43.323,43.323,0,0,0-9.529-1.771L260.3,551.1v-.114l-4.476.057-4.475-.057v.114l-51.985.659a43.345,43.345,0,0,0-9.529,1.771c-2.082.642-5.066,4.152-6.816,5.676-15.383,13.407-20.811,34.509-28.362,52.9q-1.362,3.318-2.726,6.635s45.017,4.427,99.418,4.884Z" fill="#172c31"/><path d="M355.542,717.642a22.8,22.8,0,0,0-6.567-2.81c-8.005-1.992-17.481-.853-25.684-.853q-33.736,0-67.471.119-33.737-.1-67.472-.119c-8.2,0-17.68-1.139-25.684.853a22.793,22.793,0,0,0-6.568,2.81c-1.73,1.067-10.732,8.614-12.541,8.081,7.485,2.2,18.014,3.267,32.863,3.066,23.454-.316,49.212-.483,75.09-.5h8.622c25.878.016,51.636.183,75.09.5,14.849.2,25.378-.863,32.863-3.066C366.274,726.256,357.273,718.709,355.542,717.642Z" fill="#172c31"/><path d="M387.3,673.251l-.066-1.3a96.166,96.166,0,0,0-22.677-12.766c-.429.324-.867.63-1.31.914A102.589,102.589,0,0,1,387.3,673.251Z" fill="#efefef"/><path d="M313.4,677.567c15.336-6.012,34.081-11.181,46.461-15.752a17.735,17.735,0,0,0,3.387-1.712c.443-.284.881-.59,1.31-.914,4.123-3.114,7.425-7.992,6.512-12.825a133.936,133.936,0,0,0-5.291-18.119c-3.571,2.353-8.6,5.846-14.372,10.385A202.457,202.457,0,0,0,313.4,677.567Zm54.683-32.986s.975,9.926-6.557,13.543S322.348,671.1,322.348,671.1l38.33-15.33S365.014,654.164,368.083,644.581Z" fill="#172c31"/><path d="M374.641,681.723c-2.329-3.6-7.567,0-7.567,0l-30.835,18.72,29.416,17.53c1.418,1.146,7.734-2.43,9.028-3.311a13.084,13.084,0,0,0,4.681-4.932c1.874-4.138.969-10.122.3-14.484A34.253,34.253,0,0,0,374.641,681.723Z" fill="#ccc"/><path d="M319.3,706.682s-13.688-11.026-22.322-11.127c-6.78-.079-31.048-.034-41.161-.011-10.112-.023-34.381-.068-41.161.011-8.634.1-22.322,11.127-22.322,11.127H319.3Z" fill="#e2e2e2"/><path d="M322.348,671.1s31.645-9.359,39.178-12.976,6.557-13.543,6.557-13.543c-3.069,9.583-7.4,11.189-7.4,11.189Z" fill="#efefef"/><path d="M260.3,551.1v-.114l-4.476.057-4.475-.057v.114l-51.985.659c-.342.026-.683.058-1.023.091-2.135,2.158-3.975,4.109-4.966,4.957-11.43,9.779-17.72,19.529-23.45,33.139q-5.283,12.547-10.269,25.219s65.978-46.113,132.745-63.658Z" fill="#515151"/></g></g></svg>