<?xml version="1.0" encoding="utf-8"?>
<!-- Generator: Adobe Illustrator 26.3.1, SVG Export Plug-In . SVG Version: 6.00 Build 0)  -->
<svg version="1.1" id="Layer_1" xmlns="http://www.w3.org/2000/svg" xmlns:xlink="http://www.w3.org/1999/xlink" x="0px" y="0px"
	 viewBox="0 0 152 52" enable-background="new 0 0 152 52" xml:space="preserve">
<g>
	<path d="M16.94,24.88v-0.66c0-1.55-1.4-2.73-3.25-2.73c-1.55,0-2.66,0.96-2.66,2.29c0,1.4,1.03,2.22,3.92,3.03
		c9.6,2.73,13.08,5.91,13.08,11.89c0,6.95-5.54,11.6-13.89,11.6S0.54,45.93,0.32,38.77h10.64c0.44,2.51,1.26,3.47,3.18,3.47
		c1.48,0,2.59-1.04,2.59-2.44c0-1.55-1.11-2.36-5.69-3.84C3.57,33.6,0.32,30.12,0.32,24.73c0-6.8,5.54-11.3,13.82-11.3
		c8.13,0,13.15,4.28,13.22,11.45H16.94z"/>
	<path d="M47.94,49.98c-9.99,0-18.12-8.13-18.12-18.12s8.13-18.12,18.12-18.12c9.99,0,18.12,8.13,18.12,18.12
		S57.93,49.98,47.94,49.98z M47.94,24.78c-3.91,0-7.08,3.18-7.08,7.08s3.18,7.08,7.08,7.08s7.08-3.18,7.08-7.08
		S51.84,24.78,47.94,24.78z"/>
	<path d="M100.39,49.98c-9.99,0-18.12-8.13-18.12-18.12s8.13-18.12,18.12-18.12s18.12,8.13,18.12,18.12S110.37,49.98,100.39,49.98z
		 M100.39,24.78c-3.91,0-7.08,3.18-7.08,7.08s3.18,7.08,7.08,7.08c3.91,0,7.08-3.18,7.08-7.08S104.29,24.78,100.39,24.78z"/>
	<polygon points="68.61,1.71 68.61,50.08 79.65,50.08 79.65,6.01 	"/>
</g>
</svg>
